<svg xmlns="http://www.w3.org/2000/svg" viewBox="0 0 70 124.99033"><defs id="defs35"></defs><!-- Retouche brochage dht22 : déplace chaque pastille rouge sur un CROISEMENT (lignes foncées = 50 px). Garde les id pin-<nom>. Marge 20 px. --><g id="g37" transform="translate(-10,-20)"><rect style="fill:#c0c0c0;stroke:none;stroke-width:0.7;stroke-linecap:round" id="rect35" width="53.11512" height="58.499859" x="17.964096" y="41.872482"></rect><path id="rect36" style="fill:#ebebeb;fill-opacity:1;stroke:none;stroke-width:0.7;stroke-linecap:round" d="M 14.666474,40.017572 V 102.26604 H 18.823712 V 44.71225 H 69.560957 V 102.26604 H 73.718195 V 40.017572 Z"></path><rect x="28.523701" y="114.56432" width="2.9525969" height="25.435682" rx="0.79567999" id="rect28" ry="0.79568005" style="opacity:0.85;fill:#cccccc;stroke-width:0.835464;stroke-linecap:round"></rect><rect x="38.523163" y="114.56432" width="2.9525969" height="25.435682" rx="0.79567999" id="rect29" ry="0.79568005" style="opacity:0.85;fill:#cccccc;stroke-width:0.835464;stroke-linecap:round"></rect><rect x="48.522625" y="114.56432" width="2.9525969" height="25.435682" rx="0.79567999" id="rect30" ry="0.79568005" style="opacity:0.85;fill:#cccccc;stroke-width:0.835464;stroke-linecap:round"></rect><rect x="58.522087" y="114.56432" width="2.9525969" height="25.435682" rx="0.79567999" id="rect31" ry="0.79568005" style="opacity:0.85;fill:#cccccc;stroke-width:0.835464;stroke-linecap:round"></rect><path d="M 73.718116,114.66934 V 40.017422 M 73.718116,40.017422 C 73.718116,39.596172 69.509681,20.482417 63.238365,20.490291 L 25.504177,20.557219 C 19.165935,20.557219 14.666178,39.596172 14.666178,40.017422 V 114.66934 C 14.666178,115.09059 15.004742,115.42523 15.422043,115.42523 H 72.962251 A 0.75586481,0.75588894 0 0 0 73.718116,114.66934 M 44.448039,23.935098 H 44.463786 C 48.715526,23.935098 52.164159,27.269671 52.164159,31.383754 52.164159,35.497837 48.715526,38.832409 44.463786,38.832409 40.212047,38.832409 36.763413,35.497837 36.763413,31.383754 36.763413,27.273607 40.200236,23.942972 44.448039,23.935098 Z M 34.023404,54.296637 H 37.696434 A 0.82672714,0.82675353 0 0 1 38.527097,55.123391 V 58.804412 A 0.82672714,0.82675353 0 0 1 37.70037,59.631166 H 34.023404 A 0.82672714,0.82675353 0 0 1 33.188803,58.804412 V 55.123391 A 0.82672714,0.82675353 0 0 1 34.023404,54.292701 Z M 42.558377,54.296637 H 46.235345 A 0.82672714,0.82675353 0 0 1 47.062072,55.123391 V 58.804412 A 0.82672714,0.82675353 0 0 1 46.235345,59.631166 H 42.558377 A 0.82672714,0.82675353 0 0 1 41.73165,58.804412 V 55.123391 A 0.82672714,0.82675353 0 0 1 42.558377,54.292701 Z M 51.030362,54.296637 H 54.711266 A 0.82672714,0.82675353 0 0 1 55.537993,55.123391 V 58.804412 A 0.82672714,0.82675353 0 0 1 54.711266,59.631166 H 51.030362 A 0.82672714,0.82675353 0 0 1 50.203635,58.804412 V 55.123391 A 0.82672714,0.82675353 0 0 1 51.030362,54.292701 Z M 73.694496,54.296637 V 59.635102 M 73.694496,59.635102 H 61.029823 A 2.1770481,2.1771176 0 0 1 58.848838,57.454048 V 56.473755 A 2.1652377,2.1653069 0 0 1 61.029823,54.296637 H 73.694496 M 14.666178,54.296637 H 27.586742 C 28.795339,54.296637 29.767727,55.269057 29.767727,56.473755 V 57.457985 A 2.1731113,2.1731807 0 0 1 27.586742,59.635102 H 14.666178 M 14.666178,63.784618 H 27.586742 C 28.795339,63.784618 29.767727,64.757038 29.767727,65.965673 V 66.945966 A 2.1731113,2.1731807 0 0 1 27.586742,69.127021 H 14.666178 M 34.023404,63.784618 H 37.696434 A 0.82672714,0.82675353 0 0 1 38.527097,64.615308 V 68.292393 A 0.82672714,0.82675353 0 0 1 37.70037,69.123083 H 34.023404 A 0.82672714,0.82675353 0 0 1 33.188803,68.29633 V 64.615308 A 0.82672714,0.82675353 0 0 1 34.023404,63.788555 Z M 42.558377,63.784618 H 46.235345 A 0.82672714,0.82675353 0 0 1 47.066008,64.615308 V 68.292393 A 0.82672714,0.82675353 0 0 1 46.235345,69.123083 H 42.558377 A 0.82672714,0.82675353 0 0 1 41.73165,68.29633 V 64.615308 A 0.82672714,0.82675353 0 0 1 42.558377,63.788555 Z M 51.034298,63.784618 H 54.711266 A 0.82672714,0.82675353 0 0 1 55.537993,64.615308 V 68.292393 A 0.82672714,0.82675353 0 0 1 54.711266,69.123083 H 51.034298 A 0.82672714,0.82675353 0 0 1 50.203635,68.29633 V 64.615308 A 0.82672714,0.82675353 0 0 1 51.030362,63.788555 Z M 61.029823,63.784618 H 73.694496 V 69.123083 H 61.029823 A 2.1731113,2.1731807 0 0 1 58.848838,66.945966 V 65.961735 C 58.848838,64.757038 59.821227,63.784618 61.029823,63.784618 Z M 14.666178,73.536373 H 27.586742 C 28.795339,73.536373 29.76379,74.508793 29.76379,75.717427 V 76.697721 A 2.1731113,2.1731807 0 0 1 27.586742,78.874838 H 14.666178 M 34.019466,73.536373 H 37.696434 A 0.82672714,0.82675353 0 0 1 38.527097,74.367063 V 78.044148 A 0.82672714,0.82675353 0 0 1 37.70037,78.874838 H 34.019466 A 0.82672714,0.82675353 0 0 1 33.192739,78.048085 V 74.367063 A 0.82672714,0.82675353 0 0 1 34.019466,73.540309 Z M 42.558377,73.536373 H 46.231407 A 0.82672714,0.82675353 0 0 1 47.066008,74.367063 V 78.044148 A 0.82672714,0.82675353 0 0 1 46.231407,78.874838 H 42.558377 A 0.82672714,0.82675353 0 0 1 41.727713,78.048085 V 74.367063 A 0.82672714,0.82675353 0 0 1 42.55444,73.540309 Z M 51.030362,73.536373 H 54.707329 A 0.82672714,0.82675353 0 0 1 55.537993,74.367063 V 78.044148 A 0.82672714,0.82675353 0 0 1 54.711266,78.874838 H 51.030362 A 0.82672714,0.82675353 0 0 1 50.203635,78.048085 V 74.367063 A 0.82672714,0.82675353 0 0 1 51.030362,73.540309 Z M 73.694496,78.874838 H 61.029823 A 2.1731113,2.1731807 0 0 1 58.848838,76.697721 V 75.71349 C 58.848838,74.508793 59.821227,73.536373 61.029823,73.536373 H 73.694496 M 73.694496,88.461242 H 61.025886 A 2.1770481,2.1771176 0 0 1 58.848838,86.280188 V 85.299894 C 58.848838,84.095197 59.821227,83.122777 61.025886,83.122777 H 73.694496 M 14.666178,83.122777 H 27.586742 C 28.795339,83.122777 29.76379,84.095197 29.76379,85.299894 V 86.284125 A 2.1731113,2.1731807 0 0 1 27.586742,88.461242 H 14.666178 M 34.019466,83.122777 H 37.696434 A 0.82672714,0.82675353 0 0 1 38.527097,83.953467 V 87.630552 A 0.82672714,0.82675353 0 0 1 37.70037,88.457306 H 34.019466 A 0.82672714,0.82675353 0 0 1 33.192739,87.630552 V 83.953467 A 0.82672714,0.82675353 0 0 1 34.019466,83.126713 Z M 42.558377,83.122777 H 46.235345 A 0.82672714,0.82675353 0 0 1 47.062072,83.953467 V 87.630552 A 0.82672714,0.82675353 0 0 1 46.235345,88.457306 H 42.558377 A 0.82672714,0.82675353 0 0 1 41.727713,87.630552 V 83.953467 A 0.82672714,0.82675353 0 0 1 42.558377,83.126713 Z M 51.030362,83.122777 H 54.707329 A 0.82672714,0.82675353 0 0 1 55.537993,83.953467 V 87.630552 A 0.82672714,0.82675353 0 0 1 54.711266,88.457306 H 51.030362 A 0.82672714,0.82675353 0 0 1 50.203635,87.630552 V 83.953467 A 0.82672714,0.82675353 0 0 1 51.030362,83.126713 Z M 14.666178,92.49265 H 27.586742 C 28.795339,92.49265 29.76379,93.46507 29.76379,94.673704 V 95.657935 A 2.1731113,2.1731807 0 0 1 27.586742,97.831115 H 14.666178 M 34.019466,92.496587 H 37.696434 A 0.82672714,0.82675353 0 0 1 38.527097,93.32334 V 97.000425 A 0.82672714,0.82675353 0 0 1 37.70037,97.831115 H 34.019466 A 0.82672714,0.82675353 0 0 1 33.192739,97.004362 V 93.327278 A 0.82672714,0.82675353 0 0 1 34.019466,92.496587 Z M 42.558377,92.496587 H 46.231407 A 0.82672714,0.82675353 0 0 1 47.066008,93.32334 V 97.000425 A 0.82672714,0.82675353 0 0 1 46.231407,97.831115 H 42.558377 A 0.82672714,0.82675353 0 0 1 41.727713,97.004362 V 93.327278 A 0.82672714,0.82675353 0 0 1 42.55444,92.496587 Z M 51.030362,92.496587 H 54.707329 A 0.82672714,0.82675353 0 0 1 55.537993,93.32334 V 97.000425 A 0.82672714,0.82675353 0 0 1 54.711266,97.831115 H 51.030362 A 0.82672714,0.82675353 0 0 1 50.203635,97.004362 V 93.327278 A 0.82672714,0.82675353 0 0 1 51.030362,92.496587 Z M 73.694496,97.831115 H 61.025886 A 2.1731113,2.1731807 0 0 1 58.848838,95.653998 V 94.669768 C 58.848838,93.46507 59.821227,92.496587 61.025886,92.496587 H 73.694496 M 55.766327,40.107971 V 48.981793 A 0.75586481,0.75588894 0 0 1 55.006526,49.741619 H 51.660249 A 0.75586481,0.75588894 0 0 1 50.900448,48.981793 V 40.107971 H 46.869168 V 49.107775 A 0.75586481,0.75588894 0 0 1 46.113303,49.863664 H 42.76309 A 0.75586481,0.75588894 0 0 1 42.003289,49.107775 V 40.107971 H 37.853906 V 49.107775 A 0.75586481,0.75588894 0 0 1 37.094104,49.863664 H 33.747828 A 0.75586481,0.75588894 0 0 1 32.988026,49.107775 V 40.107971 C 14.599252,39.985927 14.666178,40.017422 14.666178,40.017422 M 73.718116,40.017422 55.766327,40.107971 V 40.107971" fill="#f2f2f2" stroke="#000000" stroke-linecap="round" stroke-width="0.39784" id="path31" style="opacity:0.85"></path><g id="g32" transform="matrix(0.9895425,0,0,0.98957409,-5.3215108,0.41141428)" style="stroke-width:1.01055"></g><g id="g33" transform="matrix(0.9895425,0,0,0.98957409,-5.3215108,0.41141428)" style="stroke-width:1.01055"></g><g id="g34" transform="matrix(0.9895425,0,0,0.98957409,-5.3215108,0.41141428)" style="stroke-width:1.01055"></g><g id="g35" transform="matrix(0.9895425,0,0,0.98957409,-5.3215108,0.41141428)" style="stroke-width:1.01055"></g></g></svg>
