<svg xmlns="http://www.w3.org/2000/svg" viewBox="0 0 185.38074 66.60199">
  <defs id="defs77"><clipPath id="clipPath37">
  <path d="M 27.9,29 C 27.9,28.625 27.596,28.321 27.221,28.321 H 21.081 C 20.706,28.321 20.402,28.625 20.402,29 V 45.8 C 20.402,46.175 20.706,46.479 21.081,46.479 H 27.221 C 27.596,46.479 27.9,46.175 27.9,45.8 Z" id="path37"></path>
</clipPath>
<filter id="ledFilter" x="-0.80000001" y="-0.80000001" height="5.1999998" width="5.8000002">
  <feGaussianBlur stdDeviation="2" id="feGaussianBlur52"></feGaussianBlur>
</filter>

false

        false

        </defs>
  
  <!-- Retouche brochage photoresistor : déplace chaque pastille rouge sur un CROISEMENT (lignes foncées = 50 px). Garde les id pin-<nom>. Marge 20 px. -->
  <g id="g82" transform="translate(10,-9.9999998)">
    <path d="M 150.19124,13.570298 H 10.80408 V 76.601992 H 150.19124 Z M 17.978419,66.865389 C 19.925739,66.865389 21.504094,68.402748 21.504094,70.288574 21.504094,72.1744 19.925739,73.711759 17.978419,73.711759 16.031098,73.711759 14.452744,72.1744 14.452744,70.288574 14.452744,68.402748 16.031098,66.865389 17.978419,66.865389 Z M 118.72664,36.323202 C 123.0005,36.323202 126.46468,39.787383 126.46468,44.06124 126.46468,48.335096 123.0005,51.799277 118.72664,51.799277 114.45278,51.799277 110.9886,48.335096 110.9886,44.06124 110.9886,39.787383 114.45278,36.323202 118.72664,36.323202 Z M 17.978419,16.440034 C 19.925739,16.440034 21.504094,17.977392 21.504094,19.863218 21.504094,21.749045 19.925739,23.286403 17.978419,23.286403 16.031098,23.286403 14.452744,21.749045 14.452744,19.863218 14.452744,17.977392 16.031098,16.440034 17.978419,16.440034 Z" fill="#1c2546" id="path33" style="opacity:0.85;stroke-width:0.9981"></path>
    <rect x="12.7514" y="34.170902" width="11.478943" height="22.752905" fill="none" stroke="#ffffff" stroke-width="1.07794px" id="rect33" style="opacity:0.85"></rect>
    <circle cx="18.490871" cy="39.80788" r="3.2182038" fill="#dae3eb" id="circle33" style="opacity:0.85;stroke-width:0.9981"></circle>
    <circle cx="18.490871" cy="51.286823" r="3.2182038" fill="#dae3eb" id="circle34" style="opacity:0.85;stroke-width:0.9981"></circle>
    <path d="M 18.490872,39.910372 C 18.490872,39.706416 18.409904,39.510659 18.265392,39.367172 18.121906,39.22266 17.926149,39.141693 17.723217,39.141693 H -5.8496115 C -6.0535677,39.141693 -6.2482998,39.22266 -6.3928115,39.367172 -6.5362982,39.510659 -6.6172658,39.706416 -6.6172658,39.910372 -6.6172658,40.113303 -6.5362982,40.30906 -6.3928115,40.453572 -6.2482998,40.597059 -6.0535677,40.678026 -5.8496115,40.678026 H 17.723217 C 17.926149,40.678026 18.121906,40.597059 18.265392,40.453572 18.409904,40.30906 18.490872,40.113303 18.490872,39.910372 Z" fill="#a8b6ba" id="path34" style="opacity:0.85;stroke-width:0.9981"></path>
    <path d="M 18.490872,51.184334 C 18.490872,50.981402 18.409904,50.785645 18.265392,50.641134 18.121906,50.497647 17.926149,50.416679 17.723217,50.416679 H -5.8496115 C -6.0535677,50.416679 -6.2482998,50.497647 -6.3928115,50.641134 -6.5362982,50.785645 -6.6172658,50.981402 -6.6172658,51.184334 -6.6172658,51.38829 -6.5362982,51.584047 -6.3928115,51.727533 -6.2482998,51.872045 -6.0535677,51.953013 -5.8496115,51.953013 H 17.723217 C 17.926149,51.953013 18.121906,51.872045 18.265392,51.727533 18.409904,51.584047 18.490872,51.38829 18.490872,51.184334 Z" fill="#a8b6ba" id="path35" style="opacity:0.85;stroke-width:0.9981"></path>
    <path d="M 2.2358688,36.938146 C 2.2358688,36.553806 1.9242975,36.242235 1.5399579,36.242235 H -4.7529625 C -5.1373021,36.242235 -5.4488734,36.553806 -5.4488734,36.938146 V 54.15656 C -5.4488734,54.540899 -5.1373021,54.852471 -4.7529625,54.852471 H 1.5399579 C 1.9242975,54.852471 2.2358688,54.540899 2.2358688,54.15656 Z" fill="#cc4247" id="path36" style="opacity:0.85;stroke-width:0.9981"></path>
    <ellipse cx="18.490871" cy="19.832472" rx="3.5154262" ry="3.4231846" stroke="#a8b6ba" id="ellipse37" style="opacity:0.85;fill:none;stroke-width:1.07794px"></ellipse>
    <ellipse cx="18.490871" cy="70.350067" rx="3.5154262" ry="3.4231846" stroke="#a8b6ba" id="ellipse38" style="opacity:0.85;fill:none;stroke-width:1.07794px"></ellipse>
    <g stroke="#ffffff" id="g40" style="opacity:0.85;fill:none;stroke-width:1.05175px" transform="matrix(1.0249056,0,0,1.0249056,-6.6193156,13.570298)">
      <path d="M 24,44.7 V 49.45" id="path38" style="stroke-width:1.05175px"></path>
      <path d="M 24,12.1 V 16.85" id="path39" style="stroke-width:1.05175px"></path>
      <path d="M 26.4,14.5 H 21.65" id="path40" style="stroke-width:1.05175px"></path>
    </g>
    <rect x="32.019627" y="22.476727" width="17.115925" height="5.6574788" id="rect41" style="opacity:0.85;fill:#dae3eb;stroke-width:0.9981"></rect>
    <rect x="32.019627" y="36.118221" width="17.115925" height="5.6574788" id="rect42" style="opacity:0.85;fill:#dae3eb;stroke-width:0.9981"></rect>
    <rect x="32.019627" y="48.929543" width="17.115925" height="5.6574788" id="rect43" style="opacity:0.85;fill:#dae3eb;stroke-width:0.9981"></rect>
    <rect x="36.32423" y="48.72456" width="8.6399546" height="6.0469432" fill="#29261c" id="rect44" style="opacity:0.85;stroke-width:0.9981"></rect>
    <path d="M 104.07049,35.298297 V 18.182373 H 98.41301 V 35.298297 Z" fill="#dae3eb" id="path44" style="opacity:0.85;stroke-width:0.9981"></path>
    <path d="M 104.07049,30.993693 V 22.353739 H 98.023546 V 30.993693 Z" fill="#29261c" id="path45" style="opacity:0.85;stroke-width:0.9981"></path>
    <path d="M 104.07049,68.710219 V 51.594296 H 98.41301 V 68.710219 Z" fill="#dae3eb" id="path46" style="opacity:0.85;stroke-width:0.9981"></path>
    <path d="M 104.07049,64.508106 V 55.868152 H 98.023546 V 64.508106 Z" fill="#29261c" id="path47" style="opacity:0.85;stroke-width:0.9981"></path>
    <rect x="32.019627" y="62.253315" width="17.115925" height="5.6574788" fill="#dae3eb" id="rect47" style="opacity:0.85;stroke-width:0.9981"></rect>
    <rect x="36.32423" y="22.281996" width="8.6399546" height="6.0469432" fill="#907463" id="rect48" style="opacity:0.85;stroke-width:0.9981"></rect>
    <rect x="36.32423" y="35.913239" width="8.6399546" height="6.0469432" fill="#907463" id="rect49" style="opacity:0.85;stroke-width:0.9981"></rect>
    <rect x="36.32423" y="62.048332" width="8.6399546" height="6.0469432" fill="#29261c" id="rect50" style="opacity:0.85;stroke-width:0.9981"></rect>
    <rect x="114.31954" y="18.459097" width="13.323772" height="4.3968449" fill="#dae3eb" id="rect51" style="opacity:0.85;stroke-width:0.9981"></rect>
    <rect x="117.39426" y="18.305363" width="6.7131319" height="4.7043171" fill="#fffefe" id="rect52" style="opacity:0.85;stroke-width:0.9981"></rect>
    <rect x="114.31954" y="67.480331" width="13.323772" height="4.3968449" fill="#dae3eb" id="rect53" style="opacity:0.85;stroke-width:0.9981"></rect>
    <rect x="117.39426" y="67.377846" width="6.7131319" height="4.7043171" fill="#fffefe" id="rect54" style="opacity:0.85;stroke-width:0.9981"></rect>
    <path d="M 67.891322,49.032032 H 57.980484 C 57.563348,49.032032 57.16466,49.198066 56.873586,49.492214 56.579438,49.786362 56.414429,50.186075 56.414429,50.599112 V 50.600137 C 56.414429,51.016249 56.579438,51.415962 56.873586,51.707035 57.168759,52.001183 57.567447,52.166193 57.980484,52.166193 H 67.891322 Z" id="path54" style="opacity:0.85;fill:#dae3eb;stroke-width:0.9981"></path>
    <path d="M 67.891322,54.976484 H 57.980484 C 57.563348,54.976484 57.16466,55.142519 56.873586,55.436667 56.579438,55.730815 56.414429,56.130528 56.414429,56.543565 V 56.54459 C 56.414429,56.960701 56.579438,57.360415 56.873586,57.651488 57.168759,57.945636 57.567447,58.110646 57.980484,58.110646 H 67.891322 Z" id="path55" style="opacity:0.85;fill:#dae3eb;stroke-width:0.9981"></path>
    <path d="M 67.891322,60.920937 H 57.980484 C 57.563348,60.920937 57.16466,61.086971 56.873586,61.381119 56.579438,61.675267 56.414429,62.07498 56.414429,62.488017 V 62.489042 C 56.414429,62.905154 56.579438,63.304867 56.873586,63.59594 57.168759,63.891113 57.567447,64.056123 57.980484,64.056123 H 67.891322 Z" id="path56" style="opacity:0.85;fill:#dae3eb;stroke-width:0.9981"></path>
    <path d="M 67.891322,66.865389 H 57.980484 C 57.563348,66.865389 57.16466,67.031424 56.873586,67.325572 56.579438,67.61972 56.414429,68.019433 56.414429,68.43247 V 68.433495 C 56.414429,68.849606 56.579438,69.24932 56.873586,69.540393 57.168759,69.835566 57.567447,70.000575 57.980484,70.000575 H 67.891322 Z" id="path57" style="opacity:0.85;fill:#dae3eb;stroke-width:0.9981"></path>
    <path d="M 79.882717,70.042597 H 89.793554 C 90.209666,70.042597 90.609379,69.877587 90.900452,69.582414 91.195625,69.288266 91.360635,68.888553 91.360635,68.475516 V 68.474491 C 91.360635,68.058379 91.195625,67.658666 90.900452,67.367593 90.606304,67.073445 90.206591,66.90741 89.793554,66.90741 H 79.882717 Z" id="path58" style="opacity:0.85;fill:#dae3eb;stroke-width:0.9981"></path>
    <path d="M 79.882717,64.098144 H 89.793554 C 90.209666,64.098144 90.609379,63.933134 90.900452,63.637961 91.195625,63.343814 91.360635,62.9441 91.360635,62.531063 V 62.530039 C 91.360635,62.113927 91.195625,61.714214 90.900452,61.42314 90.606304,61.128993 90.206591,60.962958 89.793554,60.962958 H 79.882717 Z" id="path59" style="opacity:0.85;fill:#dae3eb;stroke-width:0.9981"></path>
    <path d="M 79.882717,58.153692 H 89.793554 C 90.209666,58.153692 90.609379,57.988682 90.900452,57.694534 91.195625,57.399361 91.360635,56.999648 91.360635,56.587636 V 56.586611 C 91.360635,56.170499 91.195625,55.770786 90.900452,55.479713 90.606304,55.185565 90.206591,55.01953 89.793554,55.01953 H 79.882717 Z" id="path60" style="opacity:0.85;fill:#dae3eb;stroke-width:0.9981"></path>
    <path d="M 79.882717,52.209239 H 89.793554 C 90.209666,52.209239 90.609379,52.044229 90.900452,51.750081 91.195625,51.454909 91.360635,51.055195 91.360635,50.643183 V 50.642158 C 91.360635,50.226047 91.195625,49.826334 90.900452,49.53526 90.606304,49.241113 90.206591,49.075078 89.793554,49.075078 H 79.882717 Z" id="path61" style="opacity:0.85;fill:#dae3eb;stroke-width:0.9981"></path>
    <rect x="65.431549" y="47.597164" width="16.50098" height="23.880301" fill="#29261c" id="rect61" style="opacity:0.85;stroke-width:0.9981"></rect>
    <rect x="57.744755" y="13.570298" width="32.899467" height="32.899467" fill="#466fb5" id="rect62" style="opacity:0.85;stroke-width:0.9981"></rect>
    <circle cx="74.245735" cy="29.968788" r="6.7233806" fill="#bcc2d5" id="circle62" style="opacity:0.85;stroke-width:0.9981"></circle>
    <path d="M 74.245736,20.457664 V 39.520908" fill="none" stroke="#3f3c40" stroke-width="2.49525px" id="path62" style="opacity:0.85"></path>
    <path d="M 83.777358,29.968788 H 64.714114" fill="none" stroke="#3f3c40" stroke-width="2.49525px" id="path63" style="opacity:0.85"></path>
    <path d="M 119.44407,33.863429 C 125.08105,33.863429 129.65213,38.434508 129.65213,44.071489 129.65213,49.708469 125.08105,54.279548 119.44407,54.279548 113.80709,54.279548 109.23601,49.708469 109.23601,44.071489 109.23601,38.434508 113.80709,33.863429 119.44407,33.863429 Z M 119.44407,36.323202 C 123.71793,36.323202 127.18211,39.787383 127.18211,44.06124 127.18211,48.335096 123.71793,51.799277 119.44407,51.799277 115.17022,51.799277 111.70604,48.335096 111.70604,44.06124 111.70604,39.787383 115.17022,36.323202 119.44407,36.323202 Z" fill="#d4d0d1" id="path64" style="opacity:0.85;stroke-width:0.9981"></path>
    <path d="M 139.94219,25.561694 V 64.508106 H 148.54114 V 25.561694 Z" fill="none" stroke="#ffffff" stroke-linejoin="round" stroke-width="0.39924px" id="path65" style="opacity:0.85"></path>
    <g id="g78">
      <path d="M 140.96709,26.79158 V 33.504712 H 147.68022 V 26.79158 Z" id="path69" style="opacity:0.85;fill:#433b38;stroke-width:0.9981"></path>
      <path d="M 144.04181,28.63641 C 143.65029,28.63641 143.27518,28.792196 142.9964,29.06892 142.71968,29.345645 142.56492,29.721785 142.56492,30.114324 142.56492,30.506863 142.71968,30.881978 142.9964,31.159728 143.27415,31.436452 143.64927,31.592238 144.04181,31.592238 H 170.79184 C 171.03065,31.592238 171.22538,31.397506 171.22538,31.157678 V 29.07712 C 171.22538,28.837292 171.03065,28.64256 170.79184,28.64256 H 144.04181 Z" id="path73" style="opacity:0.85;fill:#9f9f9f;stroke-width:0.9981"></path>
      <g id="g74" transform="matrix(1.0268565,0,0,1.0268565,-27.156448,-6.966834)" style="stroke-width:0.973846">
        
        
      </g>
    </g>
    <g id="g79" transform="translate(0,-0.268565)">
      <path d="M 140.96709,36.733165 V 43.446296 H 147.68022 V 36.733165 Z" id="path68" style="opacity:0.85;fill:#433b38;stroke-width:0.9981"></path>
      <path d="M 144.04181,38.577995 C 143.65029,38.577995 143.27518,38.732755 142.9964,39.010505 142.71968,39.287229 142.56492,39.662345 142.56492,40.055909 V 40.056933 C 142.56492,40.448447 142.71968,40.823563 142.9964,41.102337 143.27415,41.379062 143.64927,41.534847 144.04181,41.534847 H 170.79184 C 171.03065,41.534847 171.22538,41.340115 171.22538,41.101312 V 39.010505 C 171.22538,38.770677 171.03065,38.57697 170.79184,38.57697 H 144.04181 Z" id="path72" style="opacity:0.85;fill:#9f9f9f;stroke-width:0.9981"></path>
      <g id="g75" transform="matrix(1.0268565,0,0,1.0268565,-27.156448,-6.966834)" style="stroke-width:0.973846">
        
        
      </g>
    </g>
    <g id="g80" transform="translate(0,-0.33175792)">
      <path d="M 140.96709,46.674749 V 53.387881 H 147.68022 V 46.674749 Z" id="path67" style="opacity:0.85;fill:#433b38;stroke-width:0.9981"></path>
      <path d="M 144.04181,48.62207 C 143.65029,48.62207 143.27518,48.777855 142.9964,49.05458 142.71968,49.331304 142.56492,49.70642 142.56492,50.099983 V 50.101008 C 142.56492,50.492522 142.71968,50.867638 142.9964,51.146412 143.27415,51.424161 143.64927,51.578922 144.04181,51.578922 H 170.79184 C 171.03065,51.578922 171.22538,51.385215 171.22538,51.145387 V 49.05458 C 171.22538,48.814752 171.03065,48.621045 170.79184,48.621045 H 144.04181 Z" id="path71" style="opacity:0.85;fill:#9f9f9f;stroke-width:0.9981"></path>
      <g id="g76" transform="matrix(1.0268565,0,0,1.0268565,-27.156448,-6.966834)" style="stroke-width:0.973846">
        
        
      </g>
    </g>
    <g id="g81" transform="translate(0,-0.29226675)">
      <path d="M 140.96709,56.718824 V 63.431955 H 147.68022 V 56.718824 Z" id="path66" style="opacity:0.85;fill:#433b38;stroke-width:0.9981"></path>
      <path d="M 144.04181,58.563654 C 143.65029,58.563654 143.27518,58.719439 142.9964,58.996164 142.71968,59.272889 142.56492,59.648004 142.56492,60.041568 V 60.042593 C 142.56492,60.434107 142.71968,60.809222 142.9964,61.087996 143.27415,61.365746 143.64927,61.520506 144.04181,61.520506 H 170.79184 C 171.03065,61.520506 171.22538,61.326799 171.22538,61.086971 V 58.996164 C 171.22538,58.756336 171.03065,58.562629 170.79184,58.562629 H 144.04181 Z" id="path70" style="opacity:0.85;fill:#9f9f9f;stroke-width:0.9981"></path>
      <g id="g77" transform="matrix(1.0268565,0,0,1.0268565,-27.156448,-6.966834)" style="stroke-width:0.973846">
        
        
      </g>
    </g>
  </g>
</svg>
