<svg xmlns="http://www.w3.org/2000/svg" width="827" height="282" viewBox="0 0 827 282">
  <!-- Retouche brochage flame : déplace chaque pastille rouge sur un CROISEMENT (lignes foncées = 50 px). Garde les id pin-<nom>. Marge 20 px. -->
  <rect width="827" height="282" fill="#fff"/>
  <g id="grid"><line x1="0" y1="0" x2="0" y2="282" stroke="#7fb0ff" stroke-width="0.7"/><line x1="10" y1="0" x2="10" y2="282" stroke="#cfe3ff" stroke-width="0.4"/><line x1="20" y1="0" x2="20" y2="282" stroke="#cfe3ff" stroke-width="0.4"/><line x1="30" y1="0" x2="30" y2="282" stroke="#cfe3ff" stroke-width="0.4"/><line x1="40" y1="0" x2="40" y2="282" stroke="#cfe3ff" stroke-width="0.4"/><line x1="50" y1="0" x2="50" y2="282" stroke="#7fb0ff" stroke-width="0.7"/><line x1="60" y1="0" x2="60" y2="282" stroke="#cfe3ff" stroke-width="0.4"/><line x1="70" y1="0" x2="70" y2="282" stroke="#cfe3ff" stroke-width="0.4"/><line x1="80" y1="0" x2="80" y2="282" stroke="#cfe3ff" stroke-width="0.4"/><line x1="90" y1="0" x2="90" y2="282" stroke="#cfe3ff" stroke-width="0.4"/><line x1="100" y1="0" x2="100" y2="282" stroke="#7fb0ff" stroke-width="0.7"/><line x1="110" y1="0" x2="110" y2="282" stroke="#cfe3ff" stroke-width="0.4"/><line x1="120" y1="0" x2="120" y2="282" stroke="#cfe3ff" stroke-width="0.4"/><line x1="130" y1="0" x2="130" y2="282" stroke="#cfe3ff" stroke-width="0.4"/><line x1="140" y1="0" x2="140" y2="282" stroke="#cfe3ff" stroke-width="0.4"/><line x1="150" y1="0" x2="150" y2="282" stroke="#7fb0ff" stroke-width="0.7"/><line x1="160" y1="0" x2="160" y2="282" stroke="#cfe3ff" stroke-width="0.4"/><line x1="170" y1="0" x2="170" y2="282" stroke="#cfe3ff" stroke-width="0.4"/><line x1="180" y1="0" x2="180" y2="282" stroke="#cfe3ff" stroke-width="0.4"/><line x1="190" y1="0" x2="190" y2="282" stroke="#cfe3ff" stroke-width="0.4"/><line x1="200" y1="0" x2="200" y2="282" stroke="#7fb0ff" stroke-width="0.7"/><line x1="210" y1="0" x2="210" y2="282" stroke="#cfe3ff" stroke-width="0.4"/><line x1="220" y1="0" x2="220" y2="282" stroke="#cfe3ff" stroke-width="0.4"/><line x1="230" y1="0" x2="230" y2="282" stroke="#cfe3ff" stroke-width="0.4"/><line x1="240" y1="0" x2="240" y2="282" stroke="#cfe3ff" stroke-width="0.4"/><line x1="250" y1="0" x2="250" y2="282" stroke="#7fb0ff" stroke-width="0.7"/><line x1="260" y1="0" x2="260" y2="282" stroke="#cfe3ff" stroke-width="0.4"/><line x1="270" y1="0" x2="270" y2="282" stroke="#cfe3ff" stroke-width="0.4"/><line x1="280" y1="0" x2="280" y2="282" stroke="#cfe3ff" stroke-width="0.4"/><line x1="290" y1="0" x2="290" y2="282" stroke="#cfe3ff" stroke-width="0.4"/><line x1="300" y1="0" x2="300" y2="282" stroke="#7fb0ff" stroke-width="0.7"/><line x1="310" y1="0" x2="310" y2="282" stroke="#cfe3ff" stroke-width="0.4"/><line x1="320" y1="0" x2="320" y2="282" stroke="#cfe3ff" stroke-width="0.4"/><line x1="330" y1="0" x2="330" y2="282" stroke="#cfe3ff" stroke-width="0.4"/><line x1="340" y1="0" x2="340" y2="282" stroke="#cfe3ff" stroke-width="0.4"/><line x1="350" y1="0" x2="350" y2="282" stroke="#7fb0ff" stroke-width="0.7"/><line x1="360" y1="0" x2="360" y2="282" stroke="#cfe3ff" stroke-width="0.4"/><line x1="370" y1="0" x2="370" y2="282" stroke="#cfe3ff" stroke-width="0.4"/><line x1="380" y1="0" x2="380" y2="282" stroke="#cfe3ff" stroke-width="0.4"/><line x1="390" y1="0" x2="390" y2="282" stroke="#cfe3ff" stroke-width="0.4"/><line x1="400" y1="0" x2="400" y2="282" stroke="#7fb0ff" stroke-width="0.7"/><line x1="410" y1="0" x2="410" y2="282" stroke="#cfe3ff" stroke-width="0.4"/><line x1="420" y1="0" x2="420" y2="282" stroke="#cfe3ff" stroke-width="0.4"/><line x1="430" y1="0" x2="430" y2="282" stroke="#cfe3ff" stroke-width="0.4"/><line x1="440" y1="0" x2="440" y2="282" stroke="#cfe3ff" stroke-width="0.4"/><line x1="450" y1="0" x2="450" y2="282" stroke="#7fb0ff" stroke-width="0.7"/><line x1="460" y1="0" x2="460" y2="282" stroke="#cfe3ff" stroke-width="0.4"/><line x1="470" y1="0" x2="470" y2="282" stroke="#cfe3ff" stroke-width="0.4"/><line x1="480" y1="0" x2="480" y2="282" stroke="#cfe3ff" stroke-width="0.4"/><line x1="490" y1="0" x2="490" y2="282" stroke="#cfe3ff" stroke-width="0.4"/><line x1="500" y1="0" x2="500" y2="282" stroke="#7fb0ff" stroke-width="0.7"/><line x1="510" y1="0" x2="510" y2="282" stroke="#cfe3ff" stroke-width="0.4"/><line x1="520" y1="0" x2="520" y2="282" stroke="#cfe3ff" stroke-width="0.4"/><line x1="530" y1="0" x2="530" y2="282" stroke="#cfe3ff" stroke-width="0.4"/><line x1="540" y1="0" x2="540" y2="282" stroke="#cfe3ff" stroke-width="0.4"/><line x1="550" y1="0" x2="550" y2="282" stroke="#7fb0ff" stroke-width="0.7"/><line x1="560" y1="0" x2="560" y2="282" stroke="#cfe3ff" stroke-width="0.4"/><line x1="570" y1="0" x2="570" y2="282" stroke="#cfe3ff" stroke-width="0.4"/><line x1="580" y1="0" x2="580" y2="282" stroke="#cfe3ff" stroke-width="0.4"/><line x1="590" y1="0" x2="590" y2="282" stroke="#cfe3ff" stroke-width="0.4"/><line x1="600" y1="0" x2="600" y2="282" stroke="#7fb0ff" stroke-width="0.7"/><line x1="610" y1="0" x2="610" y2="282" stroke="#cfe3ff" stroke-width="0.4"/><line x1="620" y1="0" x2="620" y2="282" stroke="#cfe3ff" stroke-width="0.4"/><line x1="630" y1="0" x2="630" y2="282" stroke="#cfe3ff" stroke-width="0.4"/><line x1="640" y1="0" x2="640" y2="282" stroke="#cfe3ff" stroke-width="0.4"/><line x1="650" y1="0" x2="650" y2="282" stroke="#7fb0ff" stroke-width="0.7"/><line x1="660" y1="0" x2="660" y2="282" stroke="#cfe3ff" stroke-width="0.4"/><line x1="670" y1="0" x2="670" y2="282" stroke="#cfe3ff" stroke-width="0.4"/><line x1="680" y1="0" x2="680" y2="282" stroke="#cfe3ff" stroke-width="0.4"/><line x1="690" y1="0" x2="690" y2="282" stroke="#cfe3ff" stroke-width="0.4"/><line x1="700" y1="0" x2="700" y2="282" stroke="#7fb0ff" stroke-width="0.7"/><line x1="710" y1="0" x2="710" y2="282" stroke="#cfe3ff" stroke-width="0.4"/><line x1="720" y1="0" x2="720" y2="282" stroke="#cfe3ff" stroke-width="0.4"/><line x1="730" y1="0" x2="730" y2="282" stroke="#cfe3ff" stroke-width="0.4"/><line x1="740" y1="0" x2="740" y2="282" stroke="#cfe3ff" stroke-width="0.4"/><line x1="750" y1="0" x2="750" y2="282" stroke="#7fb0ff" stroke-width="0.7"/><line x1="760" y1="0" x2="760" y2="282" stroke="#cfe3ff" stroke-width="0.4"/><line x1="770" y1="0" x2="770" y2="282" stroke="#cfe3ff" stroke-width="0.4"/><line x1="780" y1="0" x2="780" y2="282" stroke="#cfe3ff" stroke-width="0.4"/><line x1="790" y1="0" x2="790" y2="282" stroke="#cfe3ff" stroke-width="0.4"/><line x1="800" y1="0" x2="800" y2="282" stroke="#7fb0ff" stroke-width="0.7"/><line x1="810" y1="0" x2="810" y2="282" stroke="#cfe3ff" stroke-width="0.4"/><line x1="820" y1="0" x2="820" y2="282" stroke="#cfe3ff" stroke-width="0.4"/><line x1="0" y1="0" x2="827" y2="0" stroke="#7fb0ff" stroke-width="0.7"/><line x1="0" y1="10" x2="827" y2="10" stroke="#cfe3ff" stroke-width="0.4"/><line x1="0" y1="20" x2="827" y2="20" stroke="#cfe3ff" stroke-width="0.4"/><line x1="0" y1="30" x2="827" y2="30" stroke="#cfe3ff" stroke-width="0.4"/><line x1="0" y1="40" x2="827" y2="40" stroke="#cfe3ff" stroke-width="0.4"/><line x1="0" y1="50" x2="827" y2="50" stroke="#7fb0ff" stroke-width="0.7"/><line x1="0" y1="60" x2="827" y2="60" stroke="#cfe3ff" stroke-width="0.4"/><line x1="0" y1="70" x2="827" y2="70" stroke="#cfe3ff" stroke-width="0.4"/><line x1="0" y1="80" x2="827" y2="80" stroke="#cfe3ff" stroke-width="0.4"/><line x1="0" y1="90" x2="827" y2="90" stroke="#cfe3ff" stroke-width="0.4"/><line x1="0" y1="100" x2="827" y2="100" stroke="#7fb0ff" stroke-width="0.7"/><line x1="0" y1="110" x2="827" y2="110" stroke="#cfe3ff" stroke-width="0.4"/><line x1="0" y1="120" x2="827" y2="120" stroke="#cfe3ff" stroke-width="0.4"/><line x1="0" y1="130" x2="827" y2="130" stroke="#cfe3ff" stroke-width="0.4"/><line x1="0" y1="140" x2="827" y2="140" stroke="#cfe3ff" stroke-width="0.4"/><line x1="0" y1="150" x2="827" y2="150" stroke="#7fb0ff" stroke-width="0.7"/><line x1="0" y1="160" x2="827" y2="160" stroke="#cfe3ff" stroke-width="0.4"/><line x1="0" y1="170" x2="827" y2="170" stroke="#cfe3ff" stroke-width="0.4"/><line x1="0" y1="180" x2="827" y2="180" stroke="#cfe3ff" stroke-width="0.4"/><line x1="0" y1="190" x2="827" y2="190" stroke="#cfe3ff" stroke-width="0.4"/><line x1="0" y1="200" x2="827" y2="200" stroke="#7fb0ff" stroke-width="0.7"/><line x1="0" y1="210" x2="827" y2="210" stroke="#cfe3ff" stroke-width="0.4"/><line x1="0" y1="220" x2="827" y2="220" stroke="#cfe3ff" stroke-width="0.4"/><line x1="0" y1="230" x2="827" y2="230" stroke="#cfe3ff" stroke-width="0.4"/><line x1="0" y1="240" x2="827" y2="240" stroke="#cfe3ff" stroke-width="0.4"/><line x1="0" y1="250" x2="827" y2="250" stroke="#7fb0ff" stroke-width="0.7"/><line x1="0" y1="260" x2="827" y2="260" stroke="#cfe3ff" stroke-width="0.4"/><line x1="0" y1="270" x2="827" y2="270" stroke="#cfe3ff" stroke-width="0.4"/><line x1="0" y1="280" x2="827" y2="280" stroke="#cfe3ff" stroke-width="0.4"/></g>
  <g id="board" opacity="0.85" transform="translate(20,20) scale(3.9370) translate(0 0)">
        <path d="m180 1.49e-7h-136v61.5h136zm-129 52c1.9 0 3.44 1.5 3.44 3.34s-1.54 3.34-3.44 3.34-3.44-1.5-3.44-3.34 1.54-3.34 3.44-3.34zm98.3-29.8c4.17 0 7.55 3.38 7.55 7.55 0 4.17-3.38 7.55-7.55 7.55s-7.55-3.38-7.55-7.55c0-4.17 3.38-7.55 7.55-7.55zm-98.3-19.4c1.9 0 3.44 1.5 3.44 3.34 0 1.84-1.54 3.34-3.44 3.34s-3.44-1.5-3.44-3.34c0-1.84 1.54-3.34 3.44-3.34z" fill="#1c2546"></path>
        <rect x="45.5" y="20.1" width="11.2" height="22.2" fill="none" stroke="#fff" stroke-width="1.08px"></rect>
        <circle cx="51.1" cy="25.6" r="3.14" fill="#dae3eb"></circle>
        <circle cx="51.1" cy="36.8" r="3.14" fill="#dae3eb"></circle>
        <path d="m51.1 25.7c0-0.199-0.079-0.39-0.219-0.53-0.141-0.141-0.332-0.22-0.53-0.22h-13.2v1.5h13.2c0.198 0 0.389-0.079 0.53-0.219 0.14-0.141 0.219-0.332 0.219-0.53z" fill="#a8b6ba"></path>
        <path d="m51.1 36.7c0-0.198-0.079-0.389-0.219-0.53-0.141-0.14-0.332-0.219-0.53-0.219h-13.2v1.5h13.2c0.198 0 0.389-0.079 0.53-0.22 0.14-0.14 0.219-0.331 0.219-0.53z" fill="#a8b6ba"></path>
        <path d="m35.2 20.1h-25.2c-5.49 0-9.94 4.45-9.94 9.94v1e-3c0 5.49 4.45 9.94 9.94 9.94h25.2z" fill="#29261c"></path>
        <clipPath id="c">
          <path d="m35.18 20.14h-25.2c-5.49 0-9.94 4.45-9.94 9.94v1e-3c0 5.49 4.45 9.94 9.94 9.94h25.2z"></path>
        </clipPath>
        <g clip-path="url(#c)">
          <path d="m37.68 21.94c-12.6 0-25.1-0.227-37.7 0.917-0.196 0.018 0 4.25 0 4.25 12.8-1.41 25-1.08 37.7-0.669z" fill="#47434d"></path>
        </g>
        <rect x="32.6" y="17.9" width="5.06" height="25.7" fill="#29261c"></rect>
        <clipPath id="b">
          <rect x="32.68" y="17.94" width="5.06" height="25.7"></rect>
        </clipPath>
        <g clip-path="url(#b)">
          <path d="m51.98 20.84c-12.6 0-25.1-0.228-37.7 0.916-0.195 0.018 0 4.25 0 4.25 12.8-1.41 25-1.08 37.7-0.669z" fill="#47434d"></path>
        </g>
        <g fill="none" stroke-width="1.08px">
          <g stroke="#fff">
            <path d="m70.2 32.4h-7.47v9.67h7.47"></path>
            <path d="m136 10.4v-7.47h-9.67v7.47"></path>
            <path d="m155 12.8h7.47v-9.67h-7.47"></path>
            <path d="m155 55.8h7.47v-9.67h-7.47"></path>
            <path d="m136 43v-7.47h-9.67v7.47"></path>
            <path d="m70.2 45.2h-7.47v9.67h7.47"></path>
            <path d="m75.1 32.4h7.47v9.67h-7.47"></path>
            <path d="m136 15.2v7.47h-9.67v-7.47"></path>
            <path d="m151 12.8h-7.47v-9.67h7.47"></path>
            <path d="m151 55.8h-7.47v-9.67h7.47"></path>
            <path d="m136 47.9v7.47h-9.67v-7.47"></path>
            <path d="m75.1 45.2h7.47v9.67h-7.47"></path>
            <path d="m75.1 20h4.46c2.67 0 4.83 2.16 4.83 4.84v1e-3c0 2.67-2.16 4.84-4.83 4.84h-4.46"></path>
            <path d="m75.1 6.62h4.46c2.67 0 4.83 2.16 4.83 4.83v1e-3c0 2.67-2.16 4.84-4.83 4.84h-4.46"></path>
            <path d="m70.2 20h-4.46c-2.67 0-4.83 2.16-4.83 4.84v1e-3c0 2.67 2.16 4.84 4.83 4.84h4.46"></path>
            <path d="m70.2 6.62h-4.46c-2.67 0-4.83 2.16-4.83 4.83v1e-3c0 2.67 2.16 4.84 4.83 4.84h4.46"></path>
          </g>
          <ellipse cx="51.1" cy="6.11" rx="3.43" ry="3.34" stroke="#a8b6ba"></ellipse>
          <ellipse cx="51.1" cy="55.4" rx="3.43" ry="3.34" stroke="#a8b6ba"></ellipse>
          <g stroke="#fff">
            <path d="m50.6 44.7v4.75"></path>
            <path d="m50.6 12.1v4.75"></path>
            <path d="m53 14.5h-4.75"></path>
          </g>
        </g>
        <g fill="#dae3eb">
          <rect x="64.3" y="8.69" width="16.7" height="5.52"></rect>
          <rect x="64.3" y="22" width="16.7" height="5.52"></rect>
          <rect x="64.3" y="34.5" width="16.7" height="5.52"></rect>
        </g>
        <rect x="68.4" y="34.3" width="8.43" height="5.9" fill="#29261c"></rect>
        <path d="m134 21.2v-16.7h-5.52v16.7z" fill="#dae3eb"></path>
        <path d="m134 17v-8.43h-5.9v8.43z" fill="#29261c"></path>

        <!-- LEDs -->
        <rect x="145" y="5.23" width="16.7" height="5.52" fill="#dae3eb"></rect>
        <rect x="149" y="5.04" width="8.43" height="5.9" fill="#fffefe"></rect>
        <filter id="ledFilter" x="-0.8" y="-0.8" height="5.2" width="5.8">
          <feGaussianBlur stdDeviation="2"></feGaussianBlur>
        </filter>
        <!--?lit$013634735$-->false
        <rect x="145" y="48.3" width="16.7" height="5.52" fill="#dae3eb"></rect>
        <rect x="149" y="48.1" width="8.43" height="5.9" fill="#fffefe"></rect>
        <!--?lit$013634735$-->false

        <path d="m134 53.8v-16.7h-5.52v16.7z" fill="#dae3eb"></path>
        <path d="m134 49.7v-8.43h-5.9v8.43z" fill="#29261c"></path>
        <rect x="64.3" y="47.5" width="16.7" height="5.52" fill="#dae3eb"></rect>
        <rect x="68.4" y="8.5" width="8.43" height="5.9" fill="#907463"></rect>
        <rect x="68.4" y="21.8" width="8.43" height="5.9" fill="#907463"></rect>
        <rect x="68.4" y="47.3" width="8.43" height="5.9" fill="#29261c"></rect>
        <g fill="#dae3eb">
          <path d="m99.2 34.6h-9.67c-0.406 0-0.796 0.162-1.08 0.449-0.288 0.287-0.449 0.677-0.449 1.08v1e-3c0 0.406 0.161 0.796 0.449 1.08 0.287 0.287 0.677 0.448 1.08 0.448h9.67z"></path>
          <path d="m99.2 40.4h-9.67c-0.406 0-0.796 0.162-1.08 0.449-0.288 0.287-0.449 0.677-0.449 1.08v1e-3c0 0.406 0.161 0.796 0.449 1.08 0.287 0.287 0.677 0.448 1.08 0.448h9.67z"></path>
          <path d="m99.2 46.2h-9.67c-0.406 0-0.796 0.162-1.08 0.449-0.288 0.287-0.449 0.677-0.449 1.08v1e-3c0 0.406 0.161 0.796 0.449 1.08 0.287 0.287 0.677 0.448 1.08 0.448h9.67z"></path>
          <path d="m99.2 52h-9.67c-0.406 0-0.796 0.162-1.08 0.449-0.288 0.287-0.449 0.677-0.449 1.08v1e-3c0 0.406 0.161 0.796 0.449 1.08 0.287 0.287 0.677 0.448 1.08 0.448h9.67z"></path>
          <path d="m111 55.1h9.67c0.406 0 0.796-0.161 1.08-0.448 0.287-0.288 0.448-0.678 0.448-1.08v-1e-3c0-0.406-0.161-0.796-0.448-1.08-0.288-0.287-0.678-0.449-1.08-0.449h-9.67z"></path>
          <path d="m111 49.3h9.67c0.406 0 0.796-0.161 1.08-0.448 0.287-0.288 0.448-0.678 0.448-1.08v-1e-3c0-0.406-0.161-0.796-0.448-1.08-0.288-0.287-0.678-0.449-1.08-0.449h-9.67z"></path>
          <path d="m111 43.5h9.67c0.406 0 0.796-0.161 1.08-0.448 0.287-0.288 0.448-0.678 0.448-1.08v-1e-3c0-0.406-0.161-0.796-0.448-1.08-0.288-0.287-0.678-0.449-1.08-0.449h-9.67z"></path>
          <path d="m111 37.7h9.67c0.406 0 0.796-0.161 1.08-0.448 0.287-0.288 0.448-0.678 0.448-1.08v-1e-3c0-0.406-0.161-0.796-0.448-1.08-0.288-0.287-0.678-0.449-1.08-0.449h-9.67z"></path>
        </g>
        <rect x="97.6" y="33.2" width="16.1" height="23.3" fill="#29261c"></rect>
        <rect x="89.4" width="32.1" height="32.1" fill="#466fb5"></rect>
        <g fill="none" stroke="#2e60aa" stroke-width="1.63px">
          <path d="m95.6 7.35 13.9 17.1"></path>
          <path d="m112 8.62-14.9 13.2"></path>
          <path d="m114 12.7-19.2 5.13"></path>
          <path d="m114 17.3-19.5-4.06"></path>
          <path d="m113 21.8-5.14-4.58"></path>
          <path d="m105 27.6v-9.83"></path>
          <path d="m100 24.7 3.14-5.18"></path>
        </g>
        <circle cx="105" cy="16" r="6.56" fill="#bcc2d5"></circle>
        <clipPath id="a">
          <circle cx="105.08" cy="16.04" r="6.56"></circle>
        </clipPath>
        <g clip-path="url(#a)" fill="none" stroke="#3f3c40" stroke-width="2.5px">
          <path d="m105.08 6.74v18.6"></path>
          <path d="m115.08 16.04h-18.6"></path>
        </g>
        <path d="m149 19.8c5.5 0 9.96 4.46 9.96 9.96s-4.46 9.96-9.96 9.96-9.96-4.46-9.96-9.96 4.46-9.96 9.96-9.96zm0 2.4c4.17 0 7.55 3.38 7.55 7.55 0 4.17-3.38 7.55-7.55 7.55s-7.55-3.38-7.55-7.55c0-4.17 3.38-7.55 7.55-7.55z" fill="#d4d0d1"></path>
        <path d="m169.1 10.2v38.6h8.39v-38.6z" fill="#1c2546" stroke="#fff" stroke-linejoin="round" stroke-width=".9px"></path>
        <g fill="#29261c">
          <path d="m170 40.75v6.55h6.55v-6.55z"></path>
          <path d="m170 31.05v6.55h6.55v-6.55z"></path>
          <path d="m170 21.25v6.55h6.55v-6.55z"></path>
          <path d="m170 11.55v6.55h6.55v-6.55z"></path>
        </g>
        <g fill="#9f9f9f">
          <path d="m173 42.55c-0.382 0-0.748 0.152-1.02 0.422-0.271 0.271-0.422 0.637-0.422 1.02s0.151 0.749 0.422 1.02c0.27 0.27 0.636 0.422 1.02 0.422h26.1c0.234 0 0.423-0.19 0.423-0.423v-2.04c0-0.234-0.189-0.424-0.423-0.424h-26.1z"></path>
          <path d="m173 32.85c-0.382 0-0.748 0.152-1.02 0.422-0.271 0.271-0.422 0.637-0.422 1.02s0.151 0.749 0.422 1.02c0.27 0.27 0.636 0.422 1.02 0.422h26.1c0.234 0 0.423-0.19 0.423-0.423v-2.04c0-0.234-0.189-0.424-0.423-0.424h-26.1z"></path>
          <path d="m173 23.15c-0.382 0-0.748 0.152-1.02 0.422-0.271 0.27-0.422 0.637-0.422 1.02s0.151 0.749 0.422 1.02c0.27 0.27 0.636 0.422 1.02 0.422h26.1c0.234 0 0.423-0.19 0.423-0.424v-2.03c0-0.234-0.189-0.424-0.423-0.424h-26.1z"></path>

          <path d="m173 13.45c-0.382 0-0.748 0.152-1.02 0.422-0.271 0.27-0.422 0.637-0.422 1.02s0.151 0.749 0.422 1.02c0.27 0.27 0.636 0.422 1.02 0.422h26.1c0.234 0 0.423-0.19 0.423-0.424v-2.03c0-0.234-0.189-0.424-0.423-0.424h-26.1z"></path>
        </g>
        <text fill="#fffefe" font-family="sans-serif" font-size="8px">
          <tspan x="171" y="10">+</tspan>
          <tspan x="164.3" y="26.5">-</tspan>
          <tspan x="162.5" y="36.9">D</tspan>
          <tspan x="171" y="56">A</tspan>
        </text>
      </g>
  <g id="pins"><circle id="pin-VCC" cx="227.29" cy="35.21" r="3.2" fill="#e00" fill-opacity="0.85" stroke="#700" stroke-width="0.5"/><text x="227.29" y="30.21" font-size="5" fill="#a00" text-anchor="middle" font-family="sans-serif">VCC</text><circle id="pin-GND" cx="227.29" cy="45.31" r="3.2" fill="#e00" fill-opacity="0.85" stroke="#700" stroke-width="0.5"/><text x="227.29" y="40.31" font-size="5" fill="#a00" text-anchor="middle" font-family="sans-serif">GND</text><circle id="pin-DOUT" cx="227.29" cy="55.42" r="3.2" fill="#e00" fill-opacity="0.85" stroke="#700" stroke-width="0.5"/><text x="227.29" y="50.42" font-size="5" fill="#a00" text-anchor="middle" font-family="sans-serif">DOUT</text><circle id="pin-AOUT" cx="227.29" cy="65.52" r="3.2" fill="#e00" fill-opacity="0.85" stroke="#700" stroke-width="0.5"/><text x="227.29" y="60.52" font-size="5" fill="#a00" text-anchor="middle" font-family="sans-serif">AOUT</text></g>
</svg>
