<?xml version="1.0" encoding="UTF-8" standalone="no"?>
<svg
   width="245.74741mm"
   height="195.22343mm"
   viewBox="0 0 245.74741 195.22343"
   version="1.1"
   id="svg8"
   inkscape:version="1.4.4 (dcaf3e7, 2026-05-05)"
   sodipodi:docname="k.svg"
   xml:space="preserve"
   xmlns:inkscape="http://www.inkscape.org/namespaces/inkscape"
   xmlns:sodipodi="http://sodipodi.sourceforge.net/DTD/sodipodi-0.dtd"
   xmlns:xlink="http://www.w3.org/1999/xlink"
   xmlns="http://www.w3.org/2000/svg"
   xmlns:svg="http://www.w3.org/2000/svg"
   xmlns:rdf="http://www.w3.org/1999/02/22-rdf-syntax-ns#"
   xmlns:cc="http://creativecommons.org/ns#"
   xmlns:dc="http://purl.org/dc/elements/1.1/"><sodipodi:namedview
     id="base"
     pagecolor="#ffffff"
     bordercolor="#666666"
     borderopacity="1.0"
     inkscape:pageopacity="0.0"
     inkscape:pageshadow="2"
     inkscape:zoom="0.70710683"
     inkscape:cx="715.59201"
     inkscape:cy="520.43056"
     inkscape:document-units="mm"
     inkscape:current-layer="layer3"
     showgrid="true"
     inkscape:window-width="1920"
     inkscape:window-height="1057"
     inkscape:window-x="-8"
     inkscape:window-y="-8"
     inkscape:window-maximized="1"
     inkscape:snap-grids="true"
     inkscape:pagecheckerboard="false"
     borderlayer="true"
     inkscape:snap-path-clip="true"
     inkscape:document-rotation="0"
     inkscape:showpageshadow="2"
     inkscape:deskcolor="#d1d1d1"><inkscape:grid
       type="xygrid"
       id="grid25"
       units="mm"
       spacingx="0.5"
       spacingy="0.50000001"
       empspacing="10"
       snapvisiblegridlinesonly="false"
       originx="-474.13333"
       originy="-45.243751" /></sodipodi:namedview><defs
     id="defs2"><linearGradient
       id="linearGradient30"
       inkscape:collect="always"><stop
         style="stop-color:#e5a50a;stop-opacity:1;"
         offset="0"
         id="stop30" /><stop
         style="stop-color:#fdf6e3;stop-opacity:1;"
         offset="1"
         id="stop31" /></linearGradient><linearGradient
       id="linearGradient16"
       inkscape:collect="always"><stop
         style="stop-color:#e5a50a;stop-opacity:1;"
         offset="0.2147651"
         id="stop16" /><stop
         style="stop-color:#000000;stop-opacity:1;"
         offset="1"
         id="stop17" /></linearGradient><radialGradient
       inkscape:collect="always"
       xlink:href="#linearGradient16"
       id="radialGradient17-0"
       cx="310.78027"
       cy="142.38344"
       fx="310.78027"
       fy="142.38344"
       r="122.87371"
       gradientTransform="matrix(1,0,0,0.79440693,286.22676,29.745085)"
       gradientUnits="userSpaceOnUse" /><linearGradient
       inkscape:collect="always"
       xlink:href="#linearGradient30"
       id="linearGradient31"
       x1="719.88072"
       y1="142.85547"
       x2="965.67856"
       y2="142.85547"
       gradientUnits="userSpaceOnUse"
       gradientTransform="translate(-245.77262)" /></defs><metadata
     id="metadata5"><rdf:RDF><cc:Work
         rdf:about=""><dc:format>image/svg+xml</dc:format><dc:type
           rdf:resource="http://purl.org/dc/dcmitype/StillImage" /><cc:license
           rdf:resource="http://creativecommons.org/licenses/by-nc-sa/4.0/" /></cc:Work><cc:License
         rdf:about="http://creativecommons.org/licenses/by-nc-sa/4.0/"><cc:permits
           rdf:resource="http://creativecommons.org/ns#Reproduction" /><cc:permits
           rdf:resource="http://creativecommons.org/ns#Distribution" /><cc:requires
           rdf:resource="http://creativecommons.org/ns#Notice" /><cc:requires
           rdf:resource="http://creativecommons.org/ns#Attribution" /><cc:prohibits
           rdf:resource="http://creativecommons.org/ns#CommercialUse" /><cc:permits
           rdf:resource="http://creativecommons.org/ns#DerivativeWorks" /><cc:requires
           rdf:resource="http://creativecommons.org/ns#ShareAlike" /></cc:License></rdf:RDF></metadata><g
     inkscape:groupmode="layer"
     id="layer2"
     inkscape:label="Images-Gravures"
     transform="translate(-474.13331,-45.243752)" /><g
     inkscape:label="Marquage"
     inkscape:groupmode="layer"
     id="layer1"
     transform="translate(-474.13331,-45.243752)" /><g
     inkscape:groupmode="layer"
     id="layer3"
     inkscape:label="Découpes"
     transform="translate(-474.13331,-45.243752)"><path
       style="fill:url(#linearGradient31)"
       d="M 504.76367,240.21525 C 493.25523,238.73508 483.53276,233.20446 478.06926,225.03013 475.12768,220.62902 473.89726,216.36732 474.13738,211.41151 474.4336,205.29757 476.91602,201.05663 481.48034,198.86688 483.032,198.12246 483.44585,198.04161 485.71367,198.03986 487.92892,198.03815 488.40495,198.12521 489.7249,198.77341 493.55154,200.6526 495.36786,204.99297 493.9258,208.81214 493.48963,209.96732 492.97902,210.66548 491.77045,211.75917 L 490.18667,213.1924 491.19132,214.02106 C 493.87901,216.23792 498.48182,216.58723 503.35712,214.94432 508.41809,213.23884 515.17091,208.36096 520.50831,202.5552 524.78962,197.89822 527.08802,195.026 542.96664,174.49001 553.43708,160.94847 565.76793,145.98073 575.20898,135.35279 576.62781,133.7556 577.78867,132.3702 577.78867,132.27413 577.78867,132.03441 528.79936,82.91294 518.6543,72.98023 507.80923,62.36217 502.95093,58.34475 495.6678,53.97229 492.44609,52.03812 492.06367,51.54733 492.06367,49.34672 492.06367,47.6133 492.55661,46.27549 493.41751,45.6725 494.73718,44.74817 503.20614,45.34844 517.33138,47.36748 524.6044,48.40708 535.50893,50.16606 539.42409,50.9312 544.33075,51.89011 556.74913,53.96149 559.26784,54.24113 562.3871,54.58744 563.38183,54.87788 563.6405,55.51787 563.73805,55.75921 564.03044,56.97635 564.29025,58.22263 566.08377,66.82563 573.97631,75.93428 596.97096,95.938897 602.85573,101.05846 621.77803,115.64442 622.10397,115.31229 622.30227,115.11021 621.69559,70.02828 621.46128,67.55474 620.7124,59.64915 617.93174,55.33295 612.10967,53.03896 609.396,51.96973 608.74301,51.1796 608.74882,48.97223 608.75368,47.12453 609.1554,46.2971 610.3361,45.70288 611.20655,45.2648 613.88156,45.24246 657.86355,45.306 704.03095,45.3727 704.47405,45.3783 705.05255,45.90188 706.37945,47.10273 706.77485,49.33098 705.99305,51.20207 705.57485,52.20292 705.58555,52.1969 701.74595,53.59448 694.65285,56.17632 687.74135,60.64782 682.65805,65.94386 674.93945,73.98533 671.61555,82.53608 671.02985,95.857267 670.84435,100.07736 671.29565,143.82584 671.72095,162.84834 672.07195,178.54684 672.71225,183.75921 675.19875,191.15876 678.44035,200.80573 685.16115,209.91353 693.89795,216.49938 700.35595,221.36751 707.80145,224.25374 715.88165,225.02132 719.13525,225.33041 719.92855,226.33196 719.90545,230.10148 719.89405,231.9619 719.77725,232.80032 719.46255,233.28071 718.49065,234.76391 721.68435,234.68304 664.24975,234.67881 622.7199,234.67576 611.12091,234.60422 610.62251,234.34809 609.2356,233.63532 608.87561,232.73384 608.89602,230.02453 608.91937,226.92469 609.10165,226.64289 612.32639,224.72127 616.2269,222.39696 618.12456,219.84044 619.36724,215.23584 619.88372,213.3221 619.94978,212.28028 620.05631,204.36881 L 620.17413,195.61845 618.22984,195.27621 C 614.20676,194.56807 610.00775,193.17504 606.23138,191.29568 601.96458,189.17226 599.06046,187.1032 595.35546,183.54705 L 592.73331,181.03025 591.54484,182.77168 C 589.21249,186.18923 580.96366,197.04255 577.946,200.66424 571.45031,208.46013 564.82004,215.2966 558.32033,220.90025 550.0896,227.99629 542.02243,232.93696 533.07409,236.36211 527.91825,238.3356 522.03214,239.73117 516.7529,240.23179 513.44694,240.54529 507.26342,240.53676 504.76367,240.21525 Z"
       id="path29" /><circle
       style="fill:#1a1301;fill-opacity:1;stroke:#e5a50a;stroke-width:0.132292;stroke-linecap:round"
       id="path27"
       cx="623.97028"
       cy="157.27878"
       r="30.662006" /><path
       style="fill:url(#radialGradient17-0)"
       d="M 505.43692,240.21936 C 502.49205,239.92802 498.5578,239.03371 495.4272,237.94403 486.96475,234.99843 479.95694,229.18966 476.44924,222.21321 473.60833,216.5629 473.36347,209.78035 475.8121,204.56469 477.86268,200.19689 482.34923,197.53001 486.85447,198.0009 492.09508,198.54864 495.49971,203.44014 494.06807,208.36481 493.68937,209.66751 493.33864,210.19041 491.93226,211.54917 L 490.24956,213.17489 490.96407,213.84418 C 495.2845,217.89128 503.79685,216.35656 512.32756,209.99248 519.14917,204.90344 523.01728,200.49543 539.53701,178.98525 551.05753,163.98449 563.67718,148.51423 573.39889,137.4744 575.81975,134.7253 577.80046,132.36915 577.80046,132.23849 577.80046,131.82741 513.26208,67.432292 510.06712,64.655513 504.2366,59.588123 500.09499,56.530193 495.02487,53.549203 492.4982,52.063633 492.07546,51.460913 492.07546,49.344063 492.07546,47.610643 492.5684,46.272833 493.4293,45.669833 494.28187,45.072673 497.78878,45.102783 504.26213,45.762863 515.0285,46.860693 523.54572,48.167873 548.03483,52.480853 552.54598,53.275343 557.36801,54.061173 558.75046,54.227133 562.68156,54.699073 562.88461,54.744413 563.3451,55.253253 563.58378,55.516993 563.90391,56.437393 564.0565,57.298603 565.21935,63.861643 570.27412,71.195812 580.38239,80.986512 586.33455,86.751672 597.29864,96.404602 604.39108,102.1241 607.69292,104.78675 621.78021,115.35297 622.02834,115.35297 622.29296,115.35297 622.29047,113.7449 621.98719,88.762342 621.85824,78.139322 621.62384,68.376192 621.46631,67.066502 620.84436,61.895693 619.48989,58.575073 616.97814,56.063313 615.47093,54.556103 614.62173,54.055053 610.79829,52.417053 609.83366,52.003793 609.44031,51.653963 609.14465,50.946343 608.36339,49.076543 608.83364,46.434373 610.06497,45.775393 610.40861,45.591483 625.82733,45.502963 657.51926,45.502963 704.18528,45.502963 704.46854,45.506143 705.1425,46.036273 706.03644,46.739443 706.47947,48.161693 706.32036,49.817573 706.16227,51.462773 705.29011,52.358583 703.17805,53.045093 689.69941,57.426233 678.18136,67.889732 673.8092,79.725042 672.01991,84.568592 671.22599,89.561472 671.01356,97.306572 670.78788,105.53501 671.42442,159.29778 671.8835,170.78316 672.44649,184.86771 674.98004,193.83279 680.93091,202.79775 686.58865,211.3211 695.11074,218.61296 703.37046,221.998 706.71037,223.36678 711.27982,224.53209 714.8432,224.92383 717.89423,225.25924 718.58849,225.55089 719.36418,226.82306 719.77065,227.48969 719.87994,228.15576 719.88072,229.97125 719.88181,232.51795 719.60824,233.38511 718.58416,234.08103 717.93439,234.52258 715.02094,234.55134 664.58379,234.61437 611.46846,234.68075 611.26699,234.67901 610.39443,234.14556 609.06375,233.33204 608.66648,232.10141 608.88556,229.47145 609.10939,226.78436 609.43924,226.30984 612.01124,224.97494 614.60149,223.63054 616.91264,221.27096 618.1041,218.75439 619.82395,215.12176 619.93116,214.34071 620.06507,204.46828 L 620.18596,195.55548 619.16769,195.37964 C 614.22265,194.52572 610.7463,193.45678 606.7199,191.55206 602.37971,189.49892 599.16899,187.19638 594.86608,183.05127 L 592.74942,181.01223 590.76504,183.81763 C 575.44585,205.47503 560.74022,220.69414 546.44733,229.68278 543.2991,231.66267 537.10736,234.77939 533.64364,236.12775 524.72562,239.59934 514.36334,241.10247 505.43692,240.21936 Z M 520.12129,236.30861 C 538.27439,233.03652 554.38331,222.49775 571.25589,202.85539 577.36882,195.73897 590.42978,178.73857 590.88421,177.3068 591.03349,176.83646 590.66119,175.41337 590.38886,175.41337 590.32027,175.41337 589.81131,176.09755 589.25783,176.93376 587.84014,179.07563 579.74331,189.8164 577.04056,193.14047 568.14559,204.0802 563.17586,209.54406 557.52616,214.59515 555.65291,216.26992 553.80834,217.87252 553.42712,218.15647 553.0459,218.44043 551.79575,219.39808 550.649,220.28458 541.5154,227.34538 531.13006,232.29199 521.28665,234.27006 506.36563,237.26847 493.23766,234.27567 484.64454,225.9167 482.32259,223.65801 480.78467,221.47913 479.3471,218.41143 478.32788,216.23647 477.27128,212.49759 477.2526,210.99984 477.24387,210.30025 477.20863,210.26472 476.95555,210.70031 476.54018,211.41523 477.10826,215.44322 477.95897,217.815 481.25761,227.01164 490.97689,234.35285 502.5265,236.37144 506.24483,237.0213 506.19823,237.01846 511.78692,236.93556 515.70193,236.87748 517.87016,236.71438 520.12129,236.30861 Z M 515.09421,232.97445 C 526.84955,231.75119 536.13841,228.10963 546.69151,220.5872 557.40921,212.94745 568.42182,201.22812 585.77517,178.99543 L 589.91343,173.69358 589.50729,172.76754 C 588.67556,170.87113 587.34784,166.71765 586.88132,164.55277 586.49276,162.74968 586.40339,161.18895 586.41992,156.49568 586.43968,150.88671 586.46972,150.56403 587.24542,147.63022 588.67795,142.21214 590.48786,138.65866 594.10285,134.16666 598.11913,129.17604 604.96559,124.51067 611.16981,122.53679 616.22439,120.92866 618.71482,120.54699 624.10254,120.55472 628.53855,120.5611 629.2651,120.6292 631.85426,121.28127 636.81943,122.53175 639.98894,123.93111 644.09469,126.68548 652.84769,132.5575 658.36495,140.8499 660.3891,151.17588 661.09592,154.78163 661.14151,160.98037 660.48951,164.83004 659.28506,171.94165 656.0741,178.14826 650.97458,183.2219 645.64512,188.52428 638.4864,192.12115 630.87568,193.32049 629.40603,193.55208 628.05475,193.78118 627.87285,193.82959 627.61753,193.89754 627.54177,195.74439 627.54056,201.92955 627.53806,214.79291 626.57426,218.71335 622.27018,223.36789 620.63934,225.13153 617.79913,227.27171 617.08946,227.27171 616.91542,227.27171 617.68154,226.34897 618.79197,225.22118 621.13037,222.84623 622.50983,220.70502 623.56294,217.81563 624.89757,214.15386 625.16087,211.42839 625.16087,201.27531 V 192.1431 L 626.68223,191.96833 C 638.37149,190.6255 647.91563,185.14716 653.67979,176.47172 659.02896,168.42084 660.37471,156.97839 657.14345,147.02123 655.40106,141.65202 652.70088,137.31302 648.45695,133.0627 644.3064,128.90587 639.9533,126.06662 635.14583,124.38072 627.73376,121.78141 619.52158,121.74129 611.79942,124.26664 601.45715,127.64882 593.00202,135.7971 589.88765,145.38318 588.58647,149.38824 588.26872,151.62262 588.26969,156.76025 588.27022,159.52036 588.4116,162.24583 588.60595,163.24255 589.88116,169.78215 592.83674,175.67104 597.17759,180.32128 603.23299,186.80827 610.37765,190.40828 619.92876,191.78499 L 623.1765,192.25313 623.15226,203.08169 C 623.12941,213.28882 623.09536,214.03172 622.55885,216.02691 621.21536,221.02323 618.51205,224.54958 614.38207,226.69316 613.18315,227.31545 612.08183,228.04954 611.93467,228.3245 611.5655,229.0143 611.59827,231.06576 611.98462,231.45212 612.44664,231.91415 716.45636,231.91415 716.91837,231.45212 717.41868,230.95182 717.31793,228.74874 716.77285,228.26986 716.51099,228.03979 715.50521,227.78276 714.45775,227.6782 707.42409,226.97613 700.60889,224.55381 694.56307,220.60706 682.5316,212.75284 673.84948,201.03776 670.7759,188.51025 669.05676,181.50327 668.56581,175.48665 668.30387,158.21546 667.79607,124.73278 667.76828,93.565842 668.24277,89.688382 669.45399,79.790562 672.58838,72.536742 678.79885,65.258742 683.75145,59.454833 691.83729,53.934383 699.77337,50.938803 701.59238,50.252193 703.18179,49.593673 703.30539,49.475413 703.42898,49.357153 703.45072,49.010293 703.3537,48.704603 L 703.1773,48.148803 H 657.40464 611.63198 L 611.7157,48.849713 C 611.81009,49.640003 611.84638,49.663463 614.57754,50.699713 618.80255,52.302743 622.83131,55.845163 624.8421,59.725153 626.00711,61.973133 627.09921,65.319282 627.54037,67.992552 627.98703,70.699222 628.28376,80.914402 628.48759,100.60245 L 628.67592,118.79255 H 627.83613 C 627.37425,118.79255 626.94903,118.64372 626.89119,118.46182 626.83336,118.27992 626.65679,107.53454 626.49881,94.583182 626.18929,69.208062 626.0924,67.494962 624.73464,63.393803 624.03176,61.270723 622.48412,58.467553 622.01485,58.467553 621.88165,58.467553 622.10874,59.271223 622.5195,60.253483 623.49841,62.594423 624.05298,65.386442 624.36025,69.520962 624.75291,74.804512 625.27497,118.25512 624.9497,118.5804 624.7916,118.73849 623.86331,118.80807 622.73632,118.74631 L 620.79525,118.6399 617.22337,116.02811 C 611.40241,111.77176 610.9648,111.43872 605.58171,107.16828 595.52206,99.187912 583.65396,88.664232 575.27895,80.298222 566.09666,71.125812 562.47056,65.673992 561.37757,59.397613 561.21222,58.448073 560.98805,57.616243 560.87943,57.549113 560.7708,57.481973 559.09668,57.180633 557.15916,56.879463 555.22164,56.578283 551.48308,55.926053 548.85124,55.430053 530.27647,51.929433 518.28346,49.987363 508.08275,48.828273 503.08102,48.259933 495.9238,47.772273 495.42024,47.965513 495.15882,48.065823 494.98587,48.430833 494.98587,48.882243 494.98587,49.557133 495.3914,49.899203 499.03292,52.295973 507.27143,57.718383 510.33833,60.464023 531.49837,81.360732 566.11267,115.54425 582.27964,131.82752 582.03822,132.26414 581.91079,132.49462 580.59599,133.99286 579.11644,135.59359 568.62829,146.94072 553.49285,165.55751 533.62151,191.55296 524.16587,203.92273 517.57446,210.48242 510.07235,214.98881 505.67486,217.63032 502.27258,218.65632 497.89629,218.6606 493.0516,218.66537 490.63879,217.62946 487.98573,214.40566 486.74867,212.90249 485.72546,212.15701 485.72546,212.75892 485.72546,213.30374 487.8479,216.10015 488.94003,216.99428 491.54789,219.12928 494.5499,220.12797 498.35991,220.12797 502.71796,220.12797 506.79689,218.94687 511.28003,216.38684 517.96615,212.5688 523.69231,207.55528 529.67153,200.28422 533.09498,196.12109 533.62158,195.44227 544.83348,180.7396 548.79107,175.54983 552.55913,170.64267 553.20696,169.83479 553.85479,169.02693 555.927,166.40949 557.81188,164.01829 560.86628,160.14342 565.58513,154.4097 572.27428,146.44551 573.49467,144.99251 576.61918,141.36111 579.21765,138.37572 581.81612,135.39034 584.06606,132.68338 584.21752,132.36023 584.46848,131.82477 583.97518,131.23847 578.65213,125.74564 575.43971,122.43077 569.67743,116.62181 565.84706,112.83684 562.01669,109.05188 553.28681,100.41562 546.44733,93.645162 524.15517,71.577922 516.9181,64.650513 510.85972,59.580263 507.43231,56.711873 501.11237,52.259013 498.75619,51.052453 498.13772,50.735743 497.63171,50.369583 497.63171,50.238753 497.63171,49.871943 497.68593,49.892803 501.40869,51.691453 507.56263,54.664733 512.93662,58.614513 521.8331,66.703012 528.41001,72.682602 544.20241,87.992302 566.68796,110.18689 571.85395,115.28603 578.72981,122.07295 581.96764,125.26891 585.20548,128.46488 587.85462,131.16035 587.85462,131.25883 587.85462,131.35729 587.00284,132.37291 585.96178,133.51574 573.09227,147.64319 560.53466,162.94835 544.8559,183.61546 530.54462,202.47999 530.39281,202.66926 525.68438,207.51748 519.38286,214.0061 511.98793,218.85791 505.43692,220.80185 502.54984,221.65855 497.19479,221.99088 494.76056,221.46441 492.18508,220.9074 489.21635,219.30178 487.44525,217.50799 485.00943,215.04095 482.73087,210.83509 483.18667,209.64731 483.32059,209.2983 483.44191,209.31849 484.04063,209.78944 484.86974,210.44162 486.86648,210.53202 488.1937,209.97747 489.91898,209.25662 491.22144,206.93741 490.92542,205.11327 490.22512,200.79785 484.52931,199.63279 480.76376,203.03474 478.50959,205.07124 477.82945,208.51023 478.82704,212.82734 481.38468,223.89558 491.59275,231.57635 505.72518,233.0661 508.92301,233.40321 511.18671,233.38106 515.09421,232.97445 Z M 702.01118,227.14315 C 694.31463,224.86597 687.53079,220.60386 680.72337,213.76857 670.15787,203.15981 665.7799,191.84956 664.8527,172.76754 664.41482,163.75593 663.96452,96.875442 664.30937,92.069632 664.81343,85.045022 666.25657,79.228822 668.80798,73.939222 674.31611,62.519723 685.13393,53.620223 697.70949,50.162813 700.68465,49.344853 701.16576,49.620693 698.41901,50.569613 695.23687,51.668943 689.69114,54.426613 687.07337,56.211353 680.16386,60.922103 674.26276,67.456982 670.92658,74.092292 669.5064,76.916902 667.87908,81.752322 667.25705,84.995932 666.1291,90.877772 666.08931,92.598022 666.27964,127.25922 666.47525,162.88201 666.73213,175.60023 667.35715,180.60737 668.77161,191.93872 672.09086,200.26704 678.36325,208.22269 680.5168,210.95417 685.8544,216.18725 688.93786,218.59024 693.06292,221.80493 698.50737,225.0211 702.74994,226.74935 703.58668,227.0902 704.27129,227.46623 704.27129,227.58499 704.27129,227.70372 704.24152,227.79454 704.20514,227.78679 704.16876,227.77904 703.18148,227.48942 702.01118,227.14315 Z M 617.22337,189.41726 C 609.94701,187.84679 604.37918,184.8487 599.35831,179.7975 593.6444,174.04909 590.54217,166.99181 590.06774,158.66235 589.66882,151.65843 591.41703,144.74687 594.98181,139.23454 600.49414,130.71069 609.52388,125.41627 620.40819,124.32626 626.79431,123.68672 634.44884,125.37844 639.86541,128.62649 647.27809,133.07148 652.67012,139.66791 655.29377,147.501 658.01339,155.62061 657.30736,165.36622 653.45357,172.90191 649.28412,181.05483 641.29007,187.01443 631.61189,189.18498 627.73676,190.05406 620.70019,190.16765 617.22337,189.41726 Z M 627.72142,185.9833 C 643.70487,183.83646 654.52687,171.36133 653.64581,156.09879 653.10794,146.78143 647.70399,137.72136 639.45279,132.30334 635.30317,129.57855 631.28004,128.2457 625.64356,127.72836 622.73242,127.46116 621.8817,127.48154 619.19765,127.88277 612.2118,128.92703 606.49557,131.719 601.93818,136.31279 599.2677,139.00459 597.82703,140.99187 596.3217,144.06027 591.81374,153.24899 592.67308,164.3616 598.58324,173.3058 600.18249,175.72604 604.45839,179.78673 607.14931,181.44072 613.14956,185.12883 621.06701,186.87709 627.72142,185.9833 Z M 607.71036,176.97645 C 604.55066,176.35706 601.3931,173.87025 599.88061,170.80993 597.40621,165.80332 598.29781,159.93257 602.10869,156.13908 605.74341,152.52097 610.24236,151.56572 616.36717,153.11158 618.43475,153.63342 619.89175,153.83141 621.72129,153.83918 623.95026,153.84864 624.42329,153.76281 625.89945,153.08117 629.59757,151.37352 632.14492,146.92625 631.65786,143.02792 631.27003,139.92381 628.91273,136.70689 626.31323,135.73429 621.43223,133.90807 616.69421,136.86267 616.69421,141.73264 616.69421,143.10462 616.81967,143.52673 617.5541,144.62567 618.91266,146.6585 621.17878,147.40616 623.0495,146.43877 623.97398,145.96071 624.36712,145.30034 624.36712,144.22557 624.36712,143.18097 624.04894,143.02439 623.23201,143.66699 622.25949,144.43198 621.359,144.33497 620.55419,143.37851 618.78051,141.27061 620.53872,138.37172 623.59085,138.37172 626.77532,138.37172 629.26432,141.66604 628.73694,145.18284 628.34028,147.82797 626.84465,149.79699 624.41616,150.87122 623.49035,151.28075 622.79941,151.36899 621.08915,151.29605 616.29606,151.09168 612.90132,148.04059 612.15854,143.26952 611.38212,138.28244 613.88681,133.5885 618.4872,131.4092 620.16588,130.61399 620.43747,130.56651 623.30879,130.56651 626.30004,130.56651 626.38666,130.58369 628.43062,131.58239 632.30622,133.47607 634.98018,136.91325 635.87361,141.14984 636.36223,143.46684 636.36614,144.90215 635.88995,147.14892 635.27484,150.05115 634.28904,151.72589 631.47834,154.64358 630.02822,156.14891 628.60369,157.9167 628.17361,158.74462 627.49776,160.04566 627.41725,160.46744 627.41375,162.72555 627.41005,165.11339 627.46388,165.36073 628.39984,167.25595 629.48849,169.4604 630.84721,170.78862 633.02471,171.77704 634.8152,172.58979 638.53733,172.60857 640.25557,171.81354 643.0917,170.50126 644.73795,168.22805 644.94469,165.33855 645.10504,163.09749 644.61271,161.62081 643.23081,160.19791 642.02877,158.96022 640.897,158.48005 639.18175,158.48005 635.6797,158.48005 633.44465,161.72683 635.37085,164.01599 636.62192,165.50281 638.0353,164.88147 637.36947,163.13738 637.08858,162.40162 637.11797,162.26574 637.65283,161.82696 638.53734,161.10136 640.16349,161.38632 641.09647,162.43041 641.95932,163.39603 642.21114,164.25608 641.98459,165.46367 641.54157,167.82518 639.42843,169.32797 636.55078,169.32797 635.04017,169.32797 634.59435,169.20778 633.36075,168.46806 631.29741,167.23078 630.35686,165.61599 630.2294,163.09195 630.11405,160.80775 630.44128,159.62581 631.71261,157.73446 633.47088,155.11874 636.13478,153.83411 639.71296,153.87644 641.51563,153.89776 642.25725,154.03636 643.45021,154.57486 649.08978,157.12059 651.35713,164.11066 648.45017,169.98942 644.45778,178.06322 633.38905,179.72181 626.88767,173.22042 625.01301,171.34576 624.20729,169.91107 622.86753,166.06205 621.68777,162.67267 621.50002,162.31932 619.98171,160.63059 616.95617,157.26545 611.40714,156.09145 607.48996,157.98773 601.88842,160.69939 601.6189,168.90992 607.03692,171.78875 608.65896,172.65062 611.16419,172.58855 612.76619,171.6468 616.13177,169.66832 615.70945,164.30088 612.18821,164.30088 610.33013,164.30088 609.72251,165.49122 611.1501,166.33452 611.83868,166.74126 611.9446,166.94565 611.8777,167.73854 611.81176,168.52017 611.63889,168.74489 610.78138,169.16366 608.22351,170.4128 605.74358,167.77875 606.21809,164.31678 606.87171,159.5481 613.92308,158.26009 617.65787,162.22717 619.30692,163.97879 619.73694,165.20132 619.73671,168.13734 619.73653,170.49358 619.6595,170.92796 619.03289,172.10609 616.95214,176.01824 612.52871,177.92095 607.71036,176.97645 Z"
       id="path2-8" /></g></svg>
