<?xml version="1.0" encoding="UTF-8" standalone="no"?>
<svg
   width="245.74741mm"
   height="195.22343mm"
   viewBox="0 0 245.74741 195.22343"
   version="1.1"
   id="svg8"
   inkscape:version="1.4.4 (dcaf3e7, 2026-05-05)"
   sodipodi:docname="ks.svg"
   xml:space="preserve"
   xmlns:inkscape="http://www.inkscape.org/namespaces/inkscape"
   xmlns:sodipodi="http://sodipodi.sourceforge.net/DTD/sodipodi-0.dtd"
   xmlns:xlink="http://www.w3.org/1999/xlink"
   xmlns="http://www.w3.org/2000/svg"
   xmlns:svg="http://www.w3.org/2000/svg"
   xmlns:rdf="http://www.w3.org/1999/02/22-rdf-syntax-ns#"
   xmlns:cc="http://creativecommons.org/ns#"
   xmlns:dc="http://purl.org/dc/elements/1.1/"><sodipodi:namedview
     id="base"
     pagecolor="#ffffff"
     bordercolor="#666666"
     borderopacity="1.0"
     inkscape:pageopacity="0.0"
     inkscape:pageshadow="2"
     inkscape:zoom="0.70710683"
     inkscape:cx="715.59201"
     inkscape:cy="520.43056"
     inkscape:document-units="mm"
     inkscape:current-layer="layer3"
     showgrid="true"
     inkscape:window-width="1920"
     inkscape:window-height="1057"
     inkscape:window-x="-8"
     inkscape:window-y="-8"
     inkscape:window-maximized="1"
     inkscape:snap-grids="true"
     inkscape:pagecheckerboard="false"
     borderlayer="true"
     inkscape:snap-path-clip="true"
     inkscape:document-rotation="0"
     inkscape:showpageshadow="2"
     inkscape:deskcolor="#d1d1d1"><inkscape:grid
       type="xygrid"
       id="grid25"
       units="mm"
       spacingx="0.5"
       spacingy="0.50000001"
       empspacing="10"
       snapvisiblegridlinesonly="false"
       originx="-474.13333"
       originy="-45.243751" /></sodipodi:namedview><defs
     id="defs2"><linearGradient
       id="linearGradient1"
       inkscape:collect="always"><stop
         style="stop-color:#e5a50a;stop-opacity:1;"
         offset="0"
         id="stop1" /><stop
         style="stop-color:#000000;stop-opacity:1;"
         offset="1"
         id="stop2" /></linearGradient><linearGradient
       id="linearGradient30"
       inkscape:collect="always"><stop
         style="stop-color:#e5a50a;stop-opacity:1;"
         offset="0"
         id="stop30" /><stop
         style="stop-color:#fdf6e3;stop-opacity:1;"
         offset="1"
         id="stop31" /></linearGradient><linearGradient
       inkscape:collect="always"
       xlink:href="#linearGradient30"
       id="linearGradient31"
       x1="719.88072"
       y1="142.85547"
       x2="965.67856"
       y2="142.85547"
       gradientUnits="userSpaceOnUse"
       gradientTransform="translate(-245.77349,-0.00831283)" /><radialGradient
       inkscape:collect="always"
       xlink:href="#linearGradient1"
       id="radialGradient2"
       cx="772.35278"
       cy="186.18975"
       fx="772.35278"
       fy="186.18975"
       r="122.89892"
       gradientTransform="matrix(1,0,0,0.79419958,-175.34663,-5.0246648)"
       gradientUnits="userSpaceOnUse" /></defs><metadata
     id="metadata5"><rdf:RDF><cc:Work
         rdf:about=""><dc:format>image/svg+xml</dc:format><dc:type
           rdf:resource="http://purl.org/dc/dcmitype/StillImage" /><cc:license
           rdf:resource="http://creativecommons.org/licenses/by-nc-sa/4.0/" /></cc:Work><cc:License
         rdf:about="http://creativecommons.org/licenses/by-nc-sa/4.0/"><cc:permits
           rdf:resource="http://creativecommons.org/ns#Reproduction" /><cc:permits
           rdf:resource="http://creativecommons.org/ns#Distribution" /><cc:requires
           rdf:resource="http://creativecommons.org/ns#Notice" /><cc:requires
           rdf:resource="http://creativecommons.org/ns#Attribution" /><cc:prohibits
           rdf:resource="http://creativecommons.org/ns#CommercialUse" /><cc:permits
           rdf:resource="http://creativecommons.org/ns#DerivativeWorks" /><cc:requires
           rdf:resource="http://creativecommons.org/ns#ShareAlike" /></cc:License></rdf:RDF></metadata><g
     inkscape:groupmode="layer"
     id="layer2"
     inkscape:label="Images-Gravures"
     transform="translate(-474.13331,-45.243752)" /><g
     inkscape:label="Marquage"
     inkscape:groupmode="layer"
     id="layer1"
     transform="translate(-474.13331,-45.243752)" /><g
     inkscape:groupmode="layer"
     id="layer3"
     inkscape:label="Découpes"
     transform="translate(-474.13331,-45.243752)"><path
       style="fill:url(#linearGradient31);stroke:url(#radialGradient2);stroke-width:4.4;stroke-dasharray:none"
       d="M 504.7628,240.20694 C 493.25436,238.72677 483.53189,233.19615 478.06839,225.02182 475.12681,220.62071 473.89639,216.35901 474.13651,211.4032 474.43273,205.28926 476.91515,201.04832 481.47947,198.85857 483.03113,198.11415 483.44498,198.0333 485.7128,198.03155 487.92805,198.02984 488.40408,198.1169 489.72403,198.7651 493.55067,200.64429 495.36699,204.98466 493.92493,208.80383 493.48876,209.95901 492.97815,210.65717 491.76958,211.75086 L 490.1858,213.18409 491.19045,214.01275 C 493.87814,216.22961 498.48095,216.57892 503.35625,214.93601 508.41722,213.23053 515.17004,208.35265 520.50744,202.54689 524.78875,197.88991 527.08715,195.01769 542.96577,174.4817 553.43621,160.94016 565.76706,145.97242 575.20811,135.34448 576.62694,133.74729 577.7878,132.36189 577.7878,132.26582 577.7878,132.0261 528.79849,82.904625 518.65343,72.971915 507.80836,62.353855 502.95006,58.336435 495.66693,53.963977 492.44522,52.029807 492.0628,51.539017 492.0628,49.338407 492.0628,47.604987 492.55574,46.267177 493.41664,45.664187 494.73631,44.739857 503.20527,45.340127 517.33051,47.359167 524.60353,48.398767 535.50806,50.157747 539.42322,50.922887 544.32988,51.881797 556.74826,53.953177 559.26697,54.232817 562.38623,54.579127 563.38096,54.869567 563.63963,55.509557 563.73718,55.750897 564.02957,56.968035 564.28938,58.214315 566.0829,66.817315 573.97544,75.925965 596.97009,95.930585 602.85486,101.05015 621.77716,115.63611 622.1031,115.30398 622.3014,115.1019 621.69472,70.019965 621.46041,67.546425 620.71153,59.640835 617.93087,55.324637 612.1088,53.030647 609.39513,51.961417 608.74214,51.171287 608.74795,48.963917 608.75281,47.116217 609.15453,46.288787 610.33523,45.694567 611.20568,45.256487 613.88069,45.234147 657.86268,45.297687 704.03008,45.364387 704.47318,45.369987 705.05168,45.893567 706.37858,47.094417 706.77398,49.322667 705.99218,51.193757 705.57398,52.194607 705.58468,52.188587 701.74508,53.586167 694.65198,56.168007 687.74048,60.639505 682.65718,65.935545 674.93858,73.977015 671.61468,82.527765 671.02898,95.848955 670.84348,100.06905 671.29478,143.81753 671.72008,162.84003 672.07108,178.53853 672.71138,183.7509 675.19788,191.15045 678.43948,200.79742 685.16028,209.90522 693.89708,216.49107 700.35508,221.3592 707.80058,224.24543 715.88078,225.01301 719.13438,225.3221 719.92768,226.32365 719.90458,230.09317 719.89318,231.95359 719.77638,232.79201 719.46168,233.2724 718.48978,234.7556 721.68348,234.67473 664.24888,234.6705 622.71903,234.66745 611.12004,234.59591 610.62164,234.33978 609.23473,233.62701 608.87474,232.72553 608.89515,230.01622 608.9185,226.91638 609.10078,226.63458 612.32552,224.71296 616.22603,222.38865 618.12369,219.83213 619.36637,215.22753 619.88285,213.31379 619.94891,212.27197 620.05544,204.3605 L 620.17326,195.61014 618.22897,195.2679 C 614.20589,194.55976 610.00688,193.16673 606.23051,191.28737 601.96371,189.16395 599.05959,187.09489 595.35459,183.53874 L 592.73244,181.02194 591.54397,182.76337 C 589.21162,186.18092 580.96279,197.03424 577.94513,200.65593 571.44944,208.45182 564.81917,215.28829 558.31946,220.89194 550.08873,227.98798 542.02156,232.92865 533.07322,236.3538 527.91738,238.32729 522.03127,239.72286 516.75203,240.22348 513.44607,240.53698 507.26255,240.52845 504.7628,240.20694 Z"
       id="path29" /></g></svg>
