<svg xmlns="http://www.w3.org/2000/svg" xmlns:xlink="http://www.w3.org/1999/xlink" width="256" height="203.368" viewBox="0 0 67.7333 53.8078"><defs><linearGradient id="a"><stop offset="0" stop-color="#e5a50a"/><stop offset="1" stop-color="#000"/></linearGradient><linearGradient id="b"><stop offset="0" stop-color="#e5a50a"/><stop offset="1" stop-color="#fdf6e3"/></linearGradient><linearGradient xlink:href="#b" id="c" x1="719.881" y1="142.855" x2="965.679" y2="142.855" gradientUnits="userSpaceOnUse" gradientTransform="matrix(.26803 0 0 .265 282.108 34.287)"/><radialGradient xlink:href="#a" id="d" cx="772.353" cy="186.19" r="122.899" gradientUnits="userSpaceOnUse" gradientTransform="matrix(.26803 0 0 .21046 300.984 32.958)"/></defs><path transform="translate(-474.133 -45.244)" fill="url(#c)" stroke="url(#d)" stroke-width="1.852" d="M483.27 97.94C479.19 97.57 474.49 94.29 475.12 89.73 474.91 86.13 481.38 85.74 480.37 89.62 477.61 91.69 482.88 92.03 483.99 90.76 488.57 88.02 491.17 83.1 494.59 79.17 497.24 75.81 500.03 72.56 502.85 69.34 496.45 63.02 490.23 56.52 483.56 50.49 482.45 49.32 477.99 47.74 480.85 46.28 486.89 46.04 492.79 47.49 498.76 48.32 499.68 50.96 501.47 53.49 503.7 55.38 507.14 58.64 510.82 61.68 514.73 64.36 514.68 59.9 514.77 55.42 514.45 50.97 515.1 48.37 509.16 47.7 512 45.85 520.22 45.78 528.44 45.78 536.66 45.89 538.9 48.17 533.77 48.33 532.67 49.81 529.03 52.17 527.5 56.64 527.83 60.83 527.97 67.87 527.74 74.93 528.33 81.94 529.17 87.9 534.29 93.15 540.4 93.54 542.73 97.15 536.68 95.7 534.79 96 527.08 95.96 519.36 96 511.65 96.08 509.72 95.91 507.79 93.38 513.09 92.61 512.21 89.66 512.08 87.9 512.5 86.87 509.74 86.49 507.21 85.06 505.32 83.03 500.78 89.32 495.49 96 487.71 98.22 485.77 98.76 485.27 98.11 483.27 97.94Z"/></svg>