<svg xmlns="http://www.w3.org/2000/svg" viewBox="0 0 200 90">
  <defs id="defs78">
    <pattern xlink:href="#pin-pattern" id="pattern79" patternTransform="matrix(3.9369812,0,0,3.9369812,65.345512,76.403113)"></pattern>
    <pattern xlink:href="#pin-pattern" id="pattern78" patternTransform="matrix(3.9369812,0,0,3.9369812,65.345512,6.412497)"></pattern>
    <defs id="defs37">
      <pattern id="pin-pattern" height="2" width="2.54" patternUnits="userSpaceOnUse">
        <!--?lit$222531578$-->
        <circle cx="1.27" cy="1" r="0.5" fill="#aaa" id="circle37"></circle>
      </pattern>
    </defs>
  </defs>
  
  <!-- Retouche brochage 7seg-4dig : déplace chaque pastille rouge sur un CROISEMENT (lignes foncées = 50 px). Garde les id pin-<nom>. Marge 20 px. -->
  <g id="g79" transform="translate(-0.35000038,-0.35000038)">
    <rect x="1.5270478" height="77.864586" y="6.4124961" width="197.63646" id="rect37" style="opacity:0.85;stroke-width:3.7795"></rect>
    <g transform="matrix(3.1889548,0,-0.44817838,3.1889548,13.978545,15.861252)" id="g43" style="opacity:0.85;fill:#c0c0c0;stroke-width:0.96">
      <polygon points="2,0 8,0 9,1 8,2 2,2 1,1 " fill="#444444" id="polygon37" style="fill:#c0c0c0;stroke-width:0.96"></polygon>
      <polygon points="10,2 10,8 9,9 8,8 8,2 9,1 " fill="#444444" id="polygon38" style="fill:#c0c0c0;stroke-width:0.96"></polygon>
      <polygon points="10,10 10,16 9,17 8,16 8,10 9,9 " fill="#444444" id="polygon39" style="fill:#c0c0c0;stroke-width:0.96"></polygon>
      <polygon points="8,18 2,18 1,17 2,16 8,16 9,17 " fill="#444444" id="polygon40" style="fill:#c0c0c0;stroke-width:0.96"></polygon>
      <polygon points="0,16 0,10 1,9 2,10 2,16 1,17 " fill="#444444" id="polygon41" style="fill:#c0c0c0;stroke-width:0.96"></polygon>
      <polygon points="0,8 0,2 1,1 2,2 2,8 1,9 " fill="#444444" id="polygon42" style="fill:#c0c0c0;stroke-width:0.96"></polygon>
      <polygon points="2,8 8,8 9,9 8,10 2,10 1,9 " fill="#444444" id="polygon43" style="fill:#c0c0c0;stroke-width:0.96"></polygon>
    </g>
    <circle r="3.5039132" cx="44.44014" cy="69.404198" fill="#444444" id="circle43" style="opacity:0.85;fill:#c0c0c0;stroke-width:3.7795"></circle>
    <g transform="matrix(3.1889548,0,-0.44817838,3.1889548,63.978207,15.861252)" id="g50" style="opacity:0.85;fill:#c0c0c0;stroke-width:0.96">
      <polygon points="2,0 8,0 9,1 8,2 2,2 1,1 " fill="#444444" id="polygon44" style="fill:#c0c0c0;stroke-width:0.96"></polygon>
      <polygon points="10,2 10,8 9,9 8,8 8,2 9,1 " fill="#444444" id="polygon45" style="fill:#c0c0c0;stroke-width:0.96"></polygon>
      <polygon points="10,10 10,16 9,17 8,16 8,10 9,9 " fill="#444444" id="polygon46" style="fill:#c0c0c0;stroke-width:0.96"></polygon>
      <polygon points="8,18 2,18 1,17 2,16 8,16 9,17 " fill="#444444" id="polygon47" style="fill:#c0c0c0;stroke-width:0.96"></polygon>
      <polygon points="0,16 0,10 1,9 2,10 2,16 1,17 " fill="#444444" id="polygon48" style="fill:#c0c0c0;stroke-width:0.96"></polygon>
      <polygon points="0,8 0,2 1,1 2,2 2,8 1,9 " fill="#444444" id="polygon49" style="fill:#c0c0c0;stroke-width:0.96"></polygon>
      <polygon points="2,8 8,8 9,9 8,10 2,10 1,9 " fill="#444444" id="polygon50" style="fill:#c0c0c0;stroke-width:0.96"></polygon>
    </g>
    <circle r="3.5039132" cx="94.439812" cy="69.404198" fill="#444444" id="circle50" style="opacity:0.85;fill:#c0c0c0;stroke-width:3.7795"></circle>
    <g transform="matrix(3.1889548,0,-0.44817838,3.1889548,113.97787,15.861252)" id="g57" style="opacity:0.85;fill:#c0c0c0;stroke-width:0.96">
      <polygon points="2,0 8,0 9,1 8,2 2,2 1,1 " fill="#444444" id="polygon51" style="fill:#c0c0c0;stroke-width:0.96"></polygon>
      <polygon points="10,2 10,8 9,9 8,8 8,2 9,1 " fill="#444444" id="polygon52" style="fill:#c0c0c0;stroke-width:0.96"></polygon>
      <polygon points="10,10 10,16 9,17 8,16 8,10 9,9 " fill="#444444" id="polygon53" style="fill:#c0c0c0;stroke-width:0.96"></polygon>
      <polygon points="8,18 2,18 1,17 2,16 8,16 9,17 " fill="#444444" id="polygon54" style="fill:#c0c0c0;stroke-width:0.96"></polygon>
      <polygon points="0,16 0,10 1,9 2,10 2,16 1,17 " fill="#444444" id="polygon55" style="fill:#c0c0c0;stroke-width:0.96"></polygon>
      <polygon points="0,8 0,2 1,1 2,2 2,8 1,9 " fill="#444444" id="polygon56" style="fill:#c0c0c0;stroke-width:0.96"></polygon>
      <polygon points="2,8 8,8 9,9 8,10 2,10 1,9 " fill="#444444" id="polygon57" style="fill:#c0c0c0;stroke-width:0.96"></polygon>
    </g>
    <circle r="3.5039132" cx="144.43947" cy="69.404198" fill="#444444" id="circle57" style="opacity:0.85;fill:#c0c0c0;stroke-width:3.7795"></circle>
    <g transform="matrix(3.1889548,0,-0.44817838,3.1889548,163.97753,15.861252)" id="g64" style="opacity:0.85;fill:#c0c0c0;stroke-width:0.96">
      <polygon points="2,0 8,0 9,1 8,2 2,2 1,1 " fill="#444444" id="polygon58" style="fill:#c0c0c0;stroke-width:0.96"></polygon>
      <polygon points="10,2 10,8 9,9 8,8 8,2 9,1 " fill="#444444" id="polygon59" style="fill:#c0c0c0;stroke-width:0.96"></polygon>
      <polygon points="10,10 10,16 9,17 8,16 8,10 9,9 " fill="#444444" id="polygon60" style="fill:#c0c0c0;stroke-width:0.96"></polygon>
      <polygon points="8,18 2,18 1,17 2,16 8,16 9,17 " fill="#444444" id="polygon61" style="fill:#c0c0c0;stroke-width:0.96"></polygon>
      <polygon points="0,16 0,10 1,9 2,10 2,16 1,17 " fill="#444444" id="polygon62" style="fill:#c0c0c0;stroke-width:0.96"></polygon>
      <polygon points="0,8 0,2 1,1 2,2 2,8 1,9 " fill="#444444" id="polygon63" style="fill:#c0c0c0;stroke-width:0.96"></polygon>
      <polygon points="2,8 8,8 9,9 8,10 2,10 1,9 " fill="#444444" id="polygon64" style="fill:#c0c0c0;stroke-width:0.96"></polygon>
    </g>
    <circle r="3.5039132" cx="194.43913" cy="69.404198" fill="#444444" id="circle64" style="opacity:0.85;fill:#c0c0c0;stroke-width:3.7795"></circle>
    <!-- 2 points d'horloge (mode colon) : entre les chiffres 2 et 3, masqué par défaut. -->
    <g id="colon-4dig" style="display:none">
      <circle r="3.5039132" cx="101" cy="35" fill="#444444" id="colon-top" style="opacity:0.85;fill:#c0c0c0;stroke-width:3.7795"></circle>
      <circle r="3.5039132" cx="101" cy="54" fill="#444444" id="colon-bot" style="opacity:0.85;fill:#c0c0c0;stroke-width:3.7795"></circle>
    </g>
    <rect height="7.8739624" width="59.999527" id="rect64" x="65.345512" y="6.4124961" style="opacity:0.85;fill:url(#pattern78);stroke-width:3.7795"></rect>
    <rect height="7.8739624" width="59.999527" id="rect65" x="65.345512" y="76.403114" style="opacity:0.85;fill:url(#pattern79);stroke-width:3.7795"></rect>
    
    
    
    
    
    
    
    
    
    
    
    
    
    
    <g id="g78" transform="translate(-19.65,-10.525046)">
      
      
      
      
      
      
      
      
      
      
      
      
      
      
    </g>
  </g>
</svg>
