<svg xmlns="http://www.w3.org/2000/svg" viewBox="0 0 100.37129 85.806129">
  <defs id="defs50">
    <pattern xlink:href="#pin-pattern" id="pattern51" patternTransform="matrix(3.9369604,0,0,3.9369604,24.409155,75.032272)"></pattern>
    <pattern xlink:href="#pin-pattern" id="pattern50" patternTransform="matrix(3.9369604,0,0,3.9369604,24.409155,5.0416489)"></pattern>
    <defs id="defs27">
      <pattern id="pin-pattern" height="2" width="2.54" patternUnits="userSpaceOnUse">
        <!--?lit$222531578$-->
        <circle cx="1.27" cy="1" r="0.5" fill="#aaa" id="circle27"></circle>
      </pattern>
    </defs>
  </defs>
  
  <!-- Retouche brochage 7seg-2dig : déplace chaque pastille rouge sur un CROISEMENT (lignes foncées = 50 px). Garde les id pin-<nom>. Marge 20 px. -->
  <g id="g1" transform="translate(0.58366489,1.0208694)">
    <rect x="0" height="79.743614" y="5.0416479" width="99.787628" id="rect27" style="opacity:0.85;stroke-width:3.7795"></rect>
    <g transform="matrix(3.220238,0,-0.45257495,3.1508453,12.573648,14.377487)" id="g33" style="opacity:0.85;fill:#c0c0c0;stroke-width:0.961085">
      <polygon points="2,2 1,1 2,0 8,0 9,1 8,2 " fill="#444444" id="polygon27" style="fill:#c0c0c0;stroke-width:0.961085"></polygon>
      <polygon points="8,2 9,1 10,2 10,8 9,9 8,8 " fill="#444444" id="polygon28" style="fill:#c0c0c0;stroke-width:0.961085"></polygon>
      <polygon points="8,10 9,9 10,10 10,16 9,17 8,16 " fill="#444444" id="polygon29" style="fill:#c0c0c0;stroke-width:0.961085"></polygon>
      <polygon points="8,16 9,17 8,18 2,18 1,17 2,16 " fill="#444444" id="polygon30" style="fill:#c0c0c0;stroke-width:0.961085"></polygon>
      <polygon points="2,16 1,17 0,16 0,10 1,9 2,10 " fill="#444444" id="polygon31" style="fill:#c0c0c0;stroke-width:0.961085"></polygon>
      <polygon points="2,8 1,9 0,8 0,2 1,1 2,2 " fill="#444444" id="polygon32" style="fill:#c0c0c0;stroke-width:0.961085"></polygon>
      <polygon points="2,10 1,9 2,8 8,8 9,9 8,10 " fill="#444444" id="polygon33" style="fill:#c0c0c0;stroke-width:0.961085"></polygon>
    </g>
    <ellipse cx="43.334068" cy="67.280571" fill="#444444" id="circle33" style="opacity:0.85;fill:#c0c0c0;stroke-width:3.7795" rx="3.5382862" ry="3.4620399"></ellipse>
    <g transform="matrix(3.220238,0,-0.45257495,3.1508453,63.063799,14.377487)" id="g40" style="opacity:0.85;fill:#c0c0c0;stroke-width:0.961085">
      <polygon points="2,2 1,1 2,0 8,0 9,1 8,2 " fill="#444444" id="polygon34" style="fill:#c0c0c0;stroke-width:0.961085"></polygon>
      <polygon points="8,2 9,1 10,2 10,8 9,9 8,8 " fill="#444444" id="polygon35" style="fill:#c0c0c0;stroke-width:0.961085"></polygon>
      <polygon points="8,10 9,9 10,10 10,16 9,17 8,16 " fill="#444444" id="polygon36" style="fill:#c0c0c0;stroke-width:0.961085"></polygon>
      <polygon points="8,16 9,17 8,18 2,18 1,17 2,16 " fill="#444444" id="polygon37" style="fill:#c0c0c0;stroke-width:0.961085"></polygon>
      <polygon points="2,16 1,17 0,16 0,10 1,9 2,10 " fill="#444444" id="polygon38" style="fill:#c0c0c0;stroke-width:0.961085"></polygon>
      <polygon points="2,8 1,9 0,8 0,2 1,1 2,2 " fill="#444444" id="polygon39" style="fill:#c0c0c0;stroke-width:0.961085"></polygon>
      <polygon points="2,10 1,9 2,8 8,8 9,9 8,10 " fill="#444444" id="polygon40" style="fill:#c0c0c0;stroke-width:0.961085"></polygon>
    </g>
    <ellipse cx="93.824219" cy="67.280571" fill="#444444" id="circle40" style="opacity:0.85;fill:#c0c0c0;stroke-width:3.7795" rx="3.5382862" ry="3.4620399"></ellipse>
    <rect height="7.8739209" width="49.999397" id="rect40" x="24.409157" y="5.0416479" style="opacity:0.85;fill:url(#pattern50);stroke-width:3.7795"></rect>
    <rect height="7.8739209" width="49.999397" id="rect41" x="24.409157" y="75.03228" style="opacity:0.85;fill:url(#pattern51);stroke-width:3.7795"></rect>
    
    
    
    
    
    
    
    
    
    
    <g id="g50" transform="translate(-20.583471,-11.895533)">
      
      
      
      
      
      
      
      
      
      
    </g>
  </g>
</svg>
