<svg xmlns="http://www.w3.org/2000/svg" viewBox="0 0 70 124.99033"><defs id="defs35"></defs><!-- Retouche brochage dht22 : déplace chaque pastille rouge sur un CROISEMENT (lignes foncées = 50 px). Garde les id pin-<nom>. Marge 20 px. --><rect style="fill:#c0c0c0;stroke:none;stroke-width:0.7;stroke-linecap:round;opacity:1" id="rect35" width="53.11512" height="58.499859" x="7.9640961" y="21.872482"></rect><path id="rect36" style="fill:#ebebeb;fill-opacity:1;stroke:none;stroke-width:0.7;stroke-linecap:round;opacity:1" d="M 4.666474,20.017572 V 82.26604 H 8.823712 V 24.71225 H 59.560957 V 82.26604 H 63.718195 V 20.017572 Z"></path><rect x="18.523701" y="94.564323" width="2.9525969" height="25.435682" rx="0.79567999" id="rect28" ry="0.79568005" style="opacity:1;fill:#cccccc;stroke-width:0.835464;stroke-linecap:round"></rect><rect x="28.523163" y="94.564323" width="2.9525969" height="25.435682" rx="0.79567999" id="rect29" ry="0.79568005" style="opacity:1;fill:#cccccc;stroke-width:0.835464;stroke-linecap:round"></rect><rect x="38.522625" y="94.564323" width="2.9525969" height="25.435682" rx="0.79567999" id="rect30" ry="0.79568005" style="opacity:1;fill:#cccccc;stroke-width:0.835464;stroke-linecap:round"></rect><rect x="48.522087" y="94.564323" width="2.9525969" height="25.435682" rx="0.79567999" id="rect31" ry="0.79568005" style="opacity:1;fill:#cccccc;stroke-width:0.835464;stroke-linecap:round"></rect><path d="M 63.718116,94.66934 V 20.017422 M 63.718116,20.017422 C 63.718116,19.596172 59.509681,0.482417 53.238365,0.490291 L 15.504177,0.557219 C 9.165935,0.557219 4.666178,19.596172 4.666178,20.017422 V 94.66934 C 4.666178,95.09059 5.004742,95.42523 5.422043,95.42523 H 62.962251 A 0.75586481,0.75588894 0 0 0 63.718116,94.66934 M 34.448039,3.935098 H 34.463786 C 38.715526,3.935098 42.164159,7.269671 42.164159,11.383754 42.164159,15.497837 38.715526,18.832409 34.463786,18.832409 30.212047,18.832409 26.763413,15.497837 26.763413,11.383754 26.763413,7.273607 30.200236,3.942972 34.448039,3.935098 Z M 24.023404,34.296637 H 27.696434 A 0.82672714,0.82675353 0 0 1 28.527097,35.123391 V 38.804412 A 0.82672714,0.82675353 0 0 1 27.70037,39.631166 H 24.023404 A 0.82672714,0.82675353 0 0 1 23.188803,38.804412 V 35.123391 A 0.82672714,0.82675353 0 0 1 24.023404,34.292701 Z M 32.558377,34.296637 H 36.235345 A 0.82672714,0.82675353 0 0 1 37.062072,35.123391 V 38.804412 A 0.82672714,0.82675353 0 0 1 36.235345,39.631166 H 32.558377 A 0.82672714,0.82675353 0 0 1 31.73165,38.804412 V 35.123391 A 0.82672714,0.82675353 0 0 1 32.558377,34.292701 Z M 41.030362,34.296637 H 44.711266 A 0.82672714,0.82675353 0 0 1 45.537993,35.123391 V 38.804412 A 0.82672714,0.82675353 0 0 1 44.711266,39.631166 H 41.030362 A 0.82672714,0.82675353 0 0 1 40.203635,38.804412 V 35.123391 A 0.82672714,0.82675353 0 0 1 41.030362,34.292701 Z M 63.694496,34.296637 V 39.635102 M 63.694496,39.635102 H 51.029823 A 2.1770481,2.1771176 0 0 1 48.848838,37.454048 V 36.473755 A 2.1652377,2.1653069 0 0 1 51.029823,34.296637 H 63.694496 M 4.666178,34.296637 H 17.586742 C 18.795339,34.296637 19.767727,35.269057 19.767727,36.473755 V 37.457985 A 2.1731113,2.1731807 0 0 1 17.586742,39.635102 H 4.666178 M 4.666178,43.784618 H 17.586742 C 18.795339,43.784618 19.767727,44.757038 19.767727,45.965673 V 46.945966 A 2.1731113,2.1731807 0 0 1 17.586742,49.127021 H 4.666178 M 24.023404,43.784618 H 27.696434 A 0.82672714,0.82675353 0 0 1 28.527097,44.615308 V 48.292393 A 0.82672714,0.82675353 0 0 1 27.70037,49.123083 H 24.023404 A 0.82672714,0.82675353 0 0 1 23.188803,48.29633 V 44.615308 A 0.82672714,0.82675353 0 0 1 24.023404,43.788555 Z M 32.558377,43.784618 H 36.235345 A 0.82672714,0.82675353 0 0 1 37.066008,44.615308 V 48.292393 A 0.82672714,0.82675353 0 0 1 36.235345,49.123083 H 32.558377 A 0.82672714,0.82675353 0 0 1 31.73165,48.29633 V 44.615308 A 0.82672714,0.82675353 0 0 1 32.558377,43.788555 Z M 41.034298,43.784618 H 44.711266 A 0.82672714,0.82675353 0 0 1 45.537993,44.615308 V 48.292393 A 0.82672714,0.82675353 0 0 1 44.711266,49.123083 H 41.034298 A 0.82672714,0.82675353 0 0 1 40.203635,48.29633 V 44.615308 A 0.82672714,0.82675353 0 0 1 41.030362,43.788555 Z M 51.029823,43.784618 H 63.694496 V 49.123083 H 51.029823 A 2.1731113,2.1731807 0 0 1 48.848838,46.945966 V 45.961735 C 48.848838,44.757038 49.821227,43.784618 51.029823,43.784618 Z M 4.666178,53.536373 H 17.586742 C 18.795339,53.536373 19.76379,54.508793 19.76379,55.717427 V 56.697721 A 2.1731113,2.1731807 0 0 1 17.586742,58.874838 H 4.666178 M 24.019466,53.536373 H 27.696434 A 0.82672714,0.82675353 0 0 1 28.527097,54.367063 V 58.044148 A 0.82672714,0.82675353 0 0 1 27.70037,58.874838 H 24.019466 A 0.82672714,0.82675353 0 0 1 23.192739,58.048085 V 54.367063 A 0.82672714,0.82675353 0 0 1 24.019466,53.540309 Z M 32.558377,53.536373 H 36.231407 A 0.82672714,0.82675353 0 0 1 37.066008,54.367063 V 58.044148 A 0.82672714,0.82675353 0 0 1 36.231407,58.874838 H 32.558377 A 0.82672714,0.82675353 0 0 1 31.727713,58.048085 V 54.367063 A 0.82672714,0.82675353 0 0 1 32.55444,53.540309 Z M 41.030362,53.536373 H 44.707329 A 0.82672714,0.82675353 0 0 1 45.537993,54.367063 V 58.044148 A 0.82672714,0.82675353 0 0 1 44.711266,58.874838 H 41.030362 A 0.82672714,0.82675353 0 0 1 40.203635,58.048085 V 54.367063 A 0.82672714,0.82675353 0 0 1 41.030362,53.540309 Z M 63.694496,58.874838 H 51.029823 A 2.1731113,2.1731807 0 0 1 48.848838,56.697721 V 55.71349 C 48.848838,54.508793 49.821227,53.536373 51.029823,53.536373 H 63.694496 M 63.694496,68.461242 H 51.025886 A 2.1770481,2.1771176 0 0 1 48.848838,66.280188 V 65.299894 C 48.848838,64.095197 49.821227,63.122777 51.025886,63.122777 H 63.694496 M 4.666178,63.122777 H 17.586742 C 18.795339,63.122777 19.76379,64.095197 19.76379,65.299894 V 66.284125 A 2.1731113,2.1731807 0 0 1 17.586742,68.461242 H 4.666178 M 24.019466,63.122777 H 27.696434 A 0.82672714,0.82675353 0 0 1 28.527097,63.953467 V 67.630552 A 0.82672714,0.82675353 0 0 1 27.70037,68.457306 H 24.019466 A 0.82672714,0.82675353 0 0 1 23.192739,67.630552 V 63.953467 A 0.82672714,0.82675353 0 0 1 24.019466,63.126713 Z M 32.558377,63.122777 H 36.235345 A 0.82672714,0.82675353 0 0 1 37.062072,63.953467 V 67.630552 A 0.82672714,0.82675353 0 0 1 36.235345,68.457306 H 32.558377 A 0.82672714,0.82675353 0 0 1 31.727713,67.630552 V 63.953467 A 0.82672714,0.82675353 0 0 1 32.558377,63.126713 Z M 41.030362,63.122777 H 44.707329 A 0.82672714,0.82675353 0 0 1 45.537993,63.953467 V 67.630552 A 0.82672714,0.82675353 0 0 1 44.711266,68.457306 H 41.030362 A 0.82672714,0.82675353 0 0 1 40.203635,67.630552 V 63.953467 A 0.82672714,0.82675353 0 0 1 41.030362,63.126713 Z M 4.666178,72.49265 H 17.586742 C 18.795339,72.49265 19.76379,73.46507 19.76379,74.673704 V 75.657935 A 2.1731113,2.1731807 0 0 1 17.586742,77.831115 H 4.666178 M 24.019466,72.496587 H 27.696434 A 0.82672714,0.82675353 0 0 1 28.527097,73.32334 V 77.000425 A 0.82672714,0.82675353 0 0 1 27.70037,77.831115 H 24.019466 A 0.82672714,0.82675353 0 0 1 23.192739,77.004362 V 73.327278 A 0.82672714,0.82675353 0 0 1 24.019466,72.496587 Z M 32.558377,72.496587 H 36.231407 A 0.82672714,0.82675353 0 0 1 37.066008,73.32334 V 77.000425 A 0.82672714,0.82675353 0 0 1 36.231407,77.831115 H 32.558377 A 0.82672714,0.82675353 0 0 1 31.727713,77.004362 V 73.327278 A 0.82672714,0.82675353 0 0 1 32.55444,72.496587 Z M 41.030362,72.496587 H 44.707329 A 0.82672714,0.82675353 0 0 1 45.537993,73.32334 V 77.000425 A 0.82672714,0.82675353 0 0 1 44.711266,77.831115 H 41.030362 A 0.82672714,0.82675353 0 0 1 40.203635,77.004362 V 73.327278 A 0.82672714,0.82675353 0 0 1 41.030362,72.496587 Z M 63.694496,77.831115 H 51.025886 A 2.1731113,2.1731807 0 0 1 48.848838,75.653998 V 74.669768 C 48.848838,73.46507 49.821227,72.496587 51.025886,72.496587 H 63.694496 M 45.766327,20.107971 V 28.981793 A 0.75586481,0.75588894 0 0 1 45.006526,29.741619 H 41.660249 A 0.75586481,0.75588894 0 0 1 40.900448,28.981793 V 20.107971 H 36.869168 V 29.107775 A 0.75586481,0.75588894 0 0 1 36.113303,29.863664 H 32.76309 A 0.75586481,0.75588894 0 0 1 32.003289,29.107775 V 20.107971 H 27.853906 V 29.107775 A 0.75586481,0.75588894 0 0 1 27.094104,29.863664 H 23.747828 A 0.75586481,0.75588894 0 0 1 22.988026,29.107775 V 20.107971 C 4.599252,19.985927 4.666178,20.017422 4.666178,20.017422 M 63.718116,20.017422 45.766327,20.107971 V 20.107971" fill="#f2f2f2" stroke="#000000" stroke-linecap="round" stroke-width="0.39784" id="path31" style="opacity:1"></path><g id="g1"><g id="g32" transform="matrix(0.9895425,0,0,0.98957409,-15.321511,-19.588586)" style="stroke-width:1.01055"></g><g id="g33" transform="matrix(0.9895425,0,0,0.98957409,-15.321511,-19.588586)" style="stroke-width:1.01055"></g><g id="g34" transform="matrix(0.9895425,0,0,0.98957409,-15.321511,-19.588586)" style="stroke-width:1.01055"></g><g id="g35" transform="matrix(0.9895425,0,0,0.98957409,-15.321511,-19.588586)" style="stroke-width:1.01055"></g></g></svg>
