<svg
   viewBox="0 0 285 330"
   version="1.1"
   id="kpt4-svg124"
   xmlns:xlink="http://www.w3.org/1999/xlink"
   xmlns="http://www.w3.org/2000/svg">
  <defs
     id="kpt4-defs124">
    
    
    
    
    
    
    
    <defs
       id="kpt4-defs78">
      <pattern
         id="kpt4-wires"
         width="2.54"
         height="8"
         patternUnits="userSpaceOnUse">
        <rect
           width="2.54"
           height="8"
           fill="#eee"
           id="kpt4-rect70" />
        <rect
           x="0.77"
           width="1"
           height="6"
           fill="#d9d5bc"
           id="kpt4-rect71" />
        <circle
           cx="1.27"
           cy="6"
           r="0.75"
           fill="#d9d5bc"
           id="kpt4-circle71" />
        <rect
           x="0.52"
           y="6"
           width="1.5"
           height="2"
           fill="#d9d5bc"
           id="kpt4-rect72" />
      </pattern>
      <pattern
         id="kpt4-wires-marks"
         width="2.54"
         height="8"
         patternUnits="userSpaceOnUse">
        <rect
           x="0.52"
           y="6"
           width="1.5"
           height="2"
           fill="#746d41"
           id="kpt4-rect73" />
      </pattern>
      
      <pattern
         id="kpt4-pins-female"
         width="2.54"
         height="2.54"
         patternUnits="userSpaceOnUse">
        <rect
           x="0"
           y="0"
           width="2.54"
           height="2.54"
           fill="#333"
           id="kpt4-rect74" />
        <rect
           x="1.079"
           y="0.896"
           width="0.762"
           height="0.762"
           style="fill: #191919"
           id="kpt4-rect75" />
        <path
           transform="translate(1.079, 1.658) rotate(180 0 0)"
           d="m 0 0 v 0.762 l 0.433,0.433 c 0.046,-0.046 0.074,-0.109 0.074,-0.179 v -1.27 c 0,-0.070 -0.028,-0.133 -0.074,-0.179 z"
           style="opacity: 0.25"
           id="kpt4-path75" />
        <path
           transform="translate(1.841, 1.658) rotate(90 0 0)"
           d="m 0 0 v 0.762 l 0.433,0.433 c 0.046,-0.046 0.074,-0.109 0.074,-0.179 v -1.27 c 0,-0.070 -0.028,-0.133 -0.074,-0.179 z"
           style="opacity: 0.3; fill: #fff"
           id="kpt4-path76" />
        <path
           transform="translate(1.841, 0.896)"
           d="m 0 0 v 0.762 l 0.433,0.433 c 0.046,-0.046 0.074,-0.109 0.074,-0.179 v -1.27 c 0,-0.070 -0.028,-0.133 -0.074,-0.179 z"
           style="opacity: 0.15; fill: #fff"
           id="kpt4-path77" />
        <path
           transform="translate(1.079, 0.896) rotate(270 0 0)"
           d="m 0 0 v 0.762 l 0.433,0.433 c 0.046,-0.046 0.074,-0.109 0.074,-0.179 v -1.27 c 0,-0.070 -0.028,-0.133 -0.074,-0.179 z"
           style="opacity: 0.35"
           id="kpt4-path78" />
      </pattern>
      <filter
         id="kpt4-shadow">
        <feDropShadow
           dx="0"
           dy="0"
           stdDeviation="0.5"
           flood-color="#ffff99" />
      </filter>
    </defs>
    
    <linearGradient
       xlink:href="#kpt4-linearGradient26"
       id="kpt4-linearGradient27"
       x1="261.40884"
       y1="59.078766"
       x2="466.11627"
       y2="320.7941"
       gradientUnits="userSpaceOnUse"
       gradientTransform="translate(-247.73021,-9.757145)" />
    <linearGradient
       id="kpt4-linearGradient26">
      <stop
         style="stop-color:#2b2b2b;stop-opacity:1;"
         offset="0"
         id="kpt4-stop26" />
      <stop
         style="stop-color:#090909;stop-opacity:1;"
         offset="1"
         id="kpt4-stop27" />
    </linearGradient>
    <linearGradient
       gradientTransform="matrix(1.4398466,0,0,1.0988969,7.0457,-826.38659)"
       xlink:href="#kpt4-linearGradient6581"
       id="kpt4-linearGradient4336"
       y1="980.17365"
       x1="29.102362"
       y2="838.81934"
       gradientUnits="userSpaceOnUse"
       x2="150.80315" />
    <linearGradient
       id="kpt4-linearGradient6581">
      <stop
         offset="0"
         style="stop-color:#000000;stop-opacity:1;"
         id="kpt4-stop6583" />
      <stop
         offset="1"
         style="stop-color:#000000;stop-opacity:0;"
         id="kpt4-stop6585" />
    </linearGradient>
    <linearGradient
       xlink:href="#kpt4-linearGradient15"
       id="kpt4-linearGradient1"
       gradientUnits="userSpaceOnUse"
       x1="502.07037"
       y1="83.806641"
       x2="533.69537"
       y2="116.29086" />
    <linearGradient
       id="kpt4-linearGradient15">
      <stop
         style="stop-color:#575757;stop-opacity:1;"
         offset="0"
         id="kpt4-stop15" />
      <stop
         style="stop-color:#000000;stop-opacity:1;"
         offset="1"
         id="kpt4-stop16" />
    </linearGradient>
    <filter
       style="color-interpolation-filters:sRGB"
       id="kpt4-filter9"
       x="-0.0027648327"
       y="-0.0027648"
       width="1.0055297"
       height="1.0055296">
      <feGaussianBlur
         stdDeviation="0.03786093"
         id="kpt4-feGaussianBlur9" />
    </filter>
    <radialGradient
       xlink:href="#kpt4-linearGradient17"
       id="kpt4-radialGradient19"
       cx="517.29242"
       cy="98.758011"
       fx="517.29242"
       fy="98.758011"
       r="16.523367"
       gradientTransform="matrix(1,0,0,1.0000118,0,-0.00119921)"
       gradientUnits="userSpaceOnUse" />
    <linearGradient
       id="kpt4-linearGradient17">
      <stop
         style="stop-color:#424242;stop-opacity:1;"
         offset="0"
         id="kpt4-stop17" />
      <stop
         style="stop-color:#1a1a1a;stop-opacity:1;"
         offset="1"
         id="kpt4-stop18" />
    </linearGradient>
    <linearGradient
       id="kpt4-linearGradient3"
       gradientTransform="scale(0.99999408,1.0000059)"
       x1="500.61251"
       y1="83.243449"
       x2="533.65944"
       y2="83.243449"
       gradientUnits="userSpaceOnUse">
      <stop
         style="stop-color:#575757;stop-opacity:1;"
         offset="0"
         id="kpt4-stop1" />
      <stop
         style="stop-color:#000000;stop-opacity:1;"
         offset="1"
         id="kpt4-stop2" />
    </linearGradient>
    <filter
       style="color-interpolation-filters:sRGB"
       id="kpt4-filter9-1"
       x="-0.0027648327"
       y="-0.0027648"
       width="1.0055297"
       height="1.0055296">
      <feGaussianBlur
         stdDeviation="0.03786093"
         id="kpt4-feGaussianBlur9-5" />
    </filter>
    <radialGradient
       xlink:href="#kpt4-linearGradient17"
       id="kpt4-radialGradient19-2"
       cx="517.29242"
       cy="98.758011"
       fx="517.29242"
       fy="98.758011"
       r="16.523367"
       gradientTransform="matrix(1,0,0,1.0000118,0,-0.00119921)"
       gradientUnits="userSpaceOnUse" />
    <linearGradient
       id="kpt4-linearGradient4"
       gradientTransform="scale(0.99999408,1.0000059)"
       x1="500.61251"
       y1="83.243449"
       x2="533.65944"
       y2="83.243449"
       gradientUnits="userSpaceOnUse">
      <stop
         style="stop-color:#424242;stop-opacity:1;"
         offset="0"
         id="kpt4-stop3" />
      <stop
         style="stop-color:#1a1a1a;stop-opacity:1;"
         offset="1"
         id="kpt4-stop4" />
    </linearGradient>
    <filter
       style="color-interpolation-filters:sRGB"
       id="kpt4-filter9-7"
       x="-0.0027648327"
       y="-0.0027648"
       width="1.0055297"
       height="1.0055296">
      <feGaussianBlur
         stdDeviation="0.03786093"
         id="kpt4-feGaussianBlur9-6" />
    </filter>
    <radialGradient
       xlink:href="#kpt4-linearGradient17"
       id="kpt4-radialGradient19-1"
       cx="517.29242"
       cy="98.758011"
       fx="517.29242"
       fy="98.758011"
       r="16.523367"
       gradientTransform="matrix(1,0,0,1.0000118,0,-0.00119921)"
       gradientUnits="userSpaceOnUse" />
    <filter
       style="color-interpolation-filters:sRGB"
       id="kpt4-filter9-4"
       x="-0.0027648327"
       y="-0.0027648"
       width="1.0055297"
       height="1.0055296">
      <feGaussianBlur
         stdDeviation="0.03786093"
         id="kpt4-feGaussianBlur9-1" />
    </filter>
    <radialGradient
       xlink:href="#kpt4-linearGradient17"
       id="kpt4-radialGradient19-13"
       cx="517.29242"
       cy="98.758011"
       fx="517.29242"
       fy="98.758011"
       r="16.523367"
       gradientTransform="matrix(1,0,0,1.0000118,0,-0.00119921)"
       gradientUnits="userSpaceOnUse" />
    <filter
       style="color-interpolation-filters:sRGB"
       id="kpt4-filter9-1-7"
       x="-0.0027648327"
       y="-0.0027648"
       width="1.0055297"
       height="1.0055296">
      <feGaussianBlur
         stdDeviation="0.03786093"
         id="kpt4-feGaussianBlur9-5-9" />
    </filter>
    <radialGradient
       xlink:href="#kpt4-linearGradient17"
       id="kpt4-radialGradient19-2-3"
       cx="517.29242"
       cy="98.758011"
       fx="517.29242"
       fy="98.758011"
       r="16.523367"
       gradientTransform="matrix(1,0,0,1.0000118,0,-0.00119921)"
       gradientUnits="userSpaceOnUse" />
    <filter
       style="color-interpolation-filters:sRGB"
       id="kpt4-filter9-7-0"
       x="-0.0027648327"
       y="-0.0027648"
       width="1.0055297"
       height="1.0055296">
      <feGaussianBlur
         stdDeviation="0.03786093"
         id="kpt4-feGaussianBlur9-6-2" />
    </filter>
    <radialGradient
       xlink:href="#kpt4-linearGradient17"
       id="kpt4-radialGradient19-1-8"
       cx="517.29242"
       cy="98.758011"
       fx="517.29242"
       fy="98.758011"
       r="16.523367"
       gradientTransform="matrix(1,0,0,1.0000118,0,-0.00119921)"
       gradientUnits="userSpaceOnUse" />
    <linearGradient
       xlink:href="#kpt4-linearGradient15"
       id="kpt4-linearGradient7"
       gradientUnits="userSpaceOnUse"
       gradientTransform="scale(0.99999408,1.0000059)"
       x1="500.61252"
       y1="83.243446"
       x2="533.65942"
       y2="83.243446" />
    <filter
       style="color-interpolation-filters:sRGB"
       id="kpt4-filter9-44"
       x="-0.0027648327"
       y="-0.0027648"
       width="1.0055297"
       height="1.0055296">
      <feGaussianBlur
         stdDeviation="0.03786093"
         id="kpt4-feGaussianBlur9-60" />
    </filter>
    <radialGradient
       xlink:href="#kpt4-linearGradient17"
       id="kpt4-radialGradient19-6"
       cx="517.29242"
       cy="98.758011"
       fx="517.29242"
       fy="98.758011"
       r="16.523367"
       gradientTransform="matrix(1,0,0,1.0000118,0,-0.00119921)"
       gradientUnits="userSpaceOnUse" />
    <filter
       style="color-interpolation-filters:sRGB"
       id="kpt4-filter9-1-6"
       x="-0.0027648327"
       y="-0.0027648"
       width="1.0055297"
       height="1.0055296">
      <feGaussianBlur
         stdDeviation="0.03786093"
         id="kpt4-feGaussianBlur9-5-3" />
    </filter>
    <radialGradient
       xlink:href="#kpt4-linearGradient17"
       id="kpt4-radialGradient19-2-7"
       cx="517.29242"
       cy="98.758011"
       fx="517.29242"
       fy="98.758011"
       r="16.523367"
       gradientTransform="matrix(1,0,0,1.0000118,0,-0.00119921)"
       gradientUnits="userSpaceOnUse" />
    <filter
       style="color-interpolation-filters:sRGB"
       id="kpt4-filter9-7-3"
       x="-0.0027648327"
       y="-0.0027648"
       width="1.0055297"
       height="1.0055296">
      <feGaussianBlur
         stdDeviation="0.03786093"
         id="kpt4-feGaussianBlur9-6-5" />
    </filter>
    <radialGradient
       xlink:href="#kpt4-linearGradient17"
       id="kpt4-radialGradient19-1-9"
       cx="517.29242"
       cy="98.758011"
       fx="517.29242"
       fy="98.758011"
       r="16.523367"
       gradientTransform="matrix(1,0,0,1.0000118,0,-0.00119921)"
       gradientUnits="userSpaceOnUse" />
    <filter
       style="color-interpolation-filters:sRGB"
       id="kpt4-filter9-6"
       x="-0.0027648327"
       y="-0.0027648"
       width="1.0055297"
       height="1.0055296">
      <feGaussianBlur
         stdDeviation="0.03786093"
         id="kpt4-feGaussianBlur9-0" />
    </filter>
    <radialGradient
       xlink:href="#kpt4-linearGradient17"
       id="kpt4-radialGradient19-16"
       cx="517.29242"
       cy="98.758011"
       fx="517.29242"
       fy="98.758011"
       r="16.523367"
       gradientTransform="matrix(1,0,0,1.0000118,0,-0.00119921)"
       gradientUnits="userSpaceOnUse" />
    <filter
       style="color-interpolation-filters:sRGB"
       id="kpt4-filter9-1-2"
       x="-0.0027648327"
       y="-0.0027648"
       width="1.0055297"
       height="1.0055296">
      <feGaussianBlur
         stdDeviation="0.03786093"
         id="kpt4-feGaussianBlur9-5-0" />
    </filter>
    <radialGradient
       xlink:href="#kpt4-linearGradient17"
       id="kpt4-radialGradient19-2-0"
       cx="517.29242"
       cy="98.758011"
       fx="517.29242"
       fy="98.758011"
       r="16.523367"
       gradientTransform="matrix(1,0,0,1.0000118,0,-0.00119921)"
       gradientUnits="userSpaceOnUse" />
    <filter
       style="color-interpolation-filters:sRGB"
       id="kpt4-filter9-7-1"
       x="-0.0027648327"
       y="-0.0027648"
       width="1.0055297"
       height="1.0055296">
      <feGaussianBlur
         stdDeviation="0.03786093"
         id="kpt4-feGaussianBlur9-6-7" />
    </filter>
    <radialGradient
       xlink:href="#kpt4-linearGradient17"
       id="kpt4-radialGradient19-1-7"
       cx="517.29242"
       cy="98.758011"
       fx="517.29242"
       fy="98.758011"
       r="16.523367"
       gradientTransform="matrix(1,0,0,1.0000118,0,-0.00119921)"
       gradientUnits="userSpaceOnUse" />
    <linearGradient
       xlink:href="#kpt4-linearGradient15"
       id="kpt4-linearGradient2"
       gradientUnits="userSpaceOnUse"
       x1="502.07037"
       y1="83.806641"
       x2="533.69537"
       y2="116.29086" />
    <linearGradient
       xlink:href="#kpt4-linearGradient15"
       id="kpt4-linearGradient5"
       gradientUnits="userSpaceOnUse"
       x1="502.07037"
       y1="83.806641"
       x2="533.69537"
       y2="116.29086" />
    <linearGradient
       xlink:href="#kpt4-linearGradient3"
       id="kpt4-linearGradient6"
       gradientUnits="userSpaceOnUse"
       gradientTransform="scale(0.99999408,1.0000059)"
       x1="500.61251"
       y1="83.243449"
       x2="533.65944"
       y2="83.243449" />
    <linearGradient
       xlink:href="#kpt4-linearGradient4"
       id="kpt4-linearGradient8"
       gradientUnits="userSpaceOnUse"
       gradientTransform="scale(0.99999408,1.0000059)"
       x1="500.61251"
       y1="83.243449"
       x2="533.65944"
       y2="83.243449" />
    <linearGradient
       xlink:href="#kpt4-linearGradient15"
       id="kpt4-linearGradient9"
       gradientUnits="userSpaceOnUse"
       x1="502.07037"
       y1="83.806641"
       x2="533.69537"
       y2="116.29086" />
    <linearGradient
       xlink:href="#kpt4-linearGradient3"
       id="kpt4-linearGradient10"
       gradientUnits="userSpaceOnUse"
       gradientTransform="scale(0.99999408,1.0000059)"
       x1="500.61251"
       y1="83.243449"
       x2="533.65944"
       y2="83.243449" />
    <linearGradient
       xlink:href="#kpt4-linearGradient3"
       id="kpt4-linearGradient11"
       gradientUnits="userSpaceOnUse"
       gradientTransform="scale(0.99999408,1.0000059)"
       x1="500.61251"
       y1="83.243449"
       x2="533.65944"
       y2="83.243449" />
    <linearGradient
       xlink:href="#kpt4-linearGradient4"
       id="kpt4-linearGradient12"
       gradientUnits="userSpaceOnUse"
       gradientTransform="scale(0.99999408,1.0000059)"
       x1="500.61251"
       y1="83.243449"
       x2="533.65944"
       y2="83.243449" />
    <linearGradient
       xlink:href="#kpt4-linearGradient15"
       id="kpt4-linearGradient13"
       gradientUnits="userSpaceOnUse"
       x1="502.07037"
       y1="83.806641"
       x2="533.69537"
       y2="116.29086" />
    <linearGradient
       xlink:href="#kpt4-linearGradient3"
       id="kpt4-linearGradient14"
       gradientUnits="userSpaceOnUse"
       gradientTransform="scale(0.99999408,1.0000059)"
       x1="500.61251"
       y1="83.243449"
       x2="533.65944"
       y2="83.243449" />
    <filter
       style="color-interpolation-filters:sRGB"
       id="kpt4-filter9-7-4"
       x="-0.0027648327"
       y="-0.0027648"
       width="1.0055297"
       height="1.0055296">
      <feGaussianBlur
         stdDeviation="0.03786093"
         id="kpt4-feGaussianBlur9-6-8" />
    </filter>
    <radialGradient
       xlink:href="#kpt4-linearGradient17"
       id="kpt4-radialGradient19-1-82"
       cx="517.29242"
       cy="98.758011"
       fx="517.29242"
       fy="98.758011"
       r="16.523367"
       gradientTransform="matrix(1,0,0,1.0000118,0,-0.00119921)"
       gradientUnits="userSpaceOnUse" />
    <filter
       style="color-interpolation-filters:sRGB"
       id="kpt4-filter9-7-0-1"
       x="-0.0027648327"
       y="-0.0027648"
       width="1.0055297"
       height="1.0055296">
      <feGaussianBlur
         stdDeviation="0.03786093"
         id="kpt4-feGaussianBlur9-6-2-1" />
    </filter>
    <radialGradient
       xlink:href="#kpt4-linearGradient17"
       id="kpt4-radialGradient19-1-8-5"
       cx="517.29242"
       cy="98.758011"
       fx="517.29242"
       fy="98.758011"
       r="16.523367"
       gradientTransform="matrix(1,0,0,1.0000118,0,-0.00119921)"
       gradientUnits="userSpaceOnUse" />
    <filter
       style="color-interpolation-filters:sRGB"
       id="kpt4-filter9-7-3-6"
       x="-0.0027648327"
       y="-0.0027648"
       width="1.0055297"
       height="1.0055296">
      <feGaussianBlur
         stdDeviation="0.03786093"
         id="kpt4-feGaussianBlur9-6-5-1" />
    </filter>
    <radialGradient
       xlink:href="#kpt4-linearGradient17"
       id="kpt4-radialGradient19-1-9-4"
       cx="517.29242"
       cy="98.758011"
       fx="517.29242"
       fy="98.758011"
       r="16.523367"
       gradientTransform="matrix(1,0,0,1.0000118,0,-0.00119921)"
       gradientUnits="userSpaceOnUse" />
    <linearGradient
       xlink:href="#kpt4-linearGradient15"
       id="kpt4-linearGradient1-3"
       gradientUnits="userSpaceOnUse"
       x1="502.07037"
       y1="83.806641"
       x2="533.69537"
       y2="116.29086"
       gradientTransform="translate(-298.14015,163.43342)" />
    <filter
       style="color-interpolation-filters:sRGB"
       id="kpt4-filter9-7-1-1"
       x="-0.0027648327"
       y="-0.0027648"
       width="1.0055297"
       height="1.0055296">
      <feGaussianBlur
         stdDeviation="0.03786093"
         id="kpt4-feGaussianBlur9-6-7-6" />
    </filter>
    <radialGradient
       xlink:href="#kpt4-linearGradient17"
       id="kpt4-radialGradient19-1-7-8"
       cx="517.29242"
       cy="98.758011"
       fx="517.29242"
       fy="98.758011"
       r="16.523367"
       gradientTransform="matrix(1,0,0,1.0000118,0,-0.00119921)"
       gradientUnits="userSpaceOnUse" />
    <linearGradient
       xlink:href="#kpt4-linearGradient15"
       id="kpt4-linearGradient16"
       gradientUnits="userSpaceOnUse"
       gradientTransform="matrix(0.99999408,0,0,1.0000059,-298.14015,-0.842235)"
       x1="500.61252"
       y1="83.243446"
       x2="533.65942"
       y2="83.243446" />
    <linearGradient
       xlink:href="#kpt4-linearGradient15"
       id="kpt4-linearGradient18"
       gradientUnits="userSpaceOnUse"
       gradientTransform="matrix(0.99999408,0,0,1.0000059,-298.14015,53.916316)"
       x1="500.61252"
       y1="83.243446"
       x2="533.65942"
       y2="83.243446" />
    <linearGradient
       xlink:href="#kpt4-linearGradient15"
       id="kpt4-linearGradient19"
       gradientUnits="userSpaceOnUse"
       gradientTransform="matrix(0.99999408,0,0,1.0000059,-298.14015,108.67487)"
       x1="500.61252"
       y1="83.243446"
       x2="533.65942"
       y2="83.243446" />
  </defs>
  
  <path
     id="kpt4-rect4676"
     style="fill:#008000;fill-opacity:1;stroke:none;stroke-width:0.264;stroke-linejoin:round;stroke-miterlimit:4;stroke-dasharray:none;stroke-opacity:1"
     d="M 60.82617,313.75186 V 329.99209 H 228.95508 V 313.75186 Z M 99.9375,318.59365 A 1.4499999,1.4499367 0 0 1 101.38672,320.04288 1.4499999,1.4499367 0 0 1 99.9375,321.49209 1.4499999,1.4499367 0 0 1 98.48828,320.04288 1.4499999,1.4499367 0 0 1 99.9375,318.59365 Z M 109.9375,318.59365 A 1.4499999,1.4499367 0 0 1 111.38672,320.04288 1.4499999,1.4499367 0 0 1 109.9375,321.49209 1.4499999,1.4499367 0 0 1 108.48828,320.04288 1.4499999,1.4499367 0 0 1 109.9375,318.59365 Z M 119.9375,318.59365 A 1.4499999,1.4499367 0 0 1 121.38672,320.04288 1.4499999,1.4499367 0 0 1 119.9375,321.49209 1.4499999,1.4499367 0 0 1 118.48828,320.04288 1.4499999,1.4499367 0 0 1 119.9375,318.59365 Z M 129.9375,318.59365 A 1.4499999,1.4499367 0 0 1 131.38672,320.04288 1.4499999,1.4499367 0 0 1 129.9375,321.49209 1.4499999,1.4499367 0 0 1 128.48828,320.04288 1.4499999,1.4499367 0 0 1 129.9375,318.59365 Z M 139.9375,318.59365 A 1.4499999,1.4499367 0 0 1 141.38672,320.04288 1.4499999,1.4499367 0 0 1 139.9375,321.49209 1.4499999,1.4499367 0 0 1 138.48828,320.04288 1.4499999,1.4499367 0 0 1 139.9375,318.59365 Z M 149.9375,318.59365 A 1.4499999,1.4499367 0 0 1 151.38672,320.04288 1.4499999,1.4499367 0 0 1 149.9375,321.49209 1.4499999,1.4499367 0 0 1 148.48828,320.04288 1.4499999,1.4499367 0 0 1 149.9375,318.59365 Z M 159.9375,318.59365 A 1.4499999,1.4499367 0 0 1 161.38672,320.04288 1.4499999,1.4499367 0 0 1 159.9375,321.49209 1.4499999,1.4499367 0 0 1 158.48828,320.04288 1.4499999,1.4499367 0 0 1 159.9375,318.59365 Z M 169.9375,318.59365 A 1.4499999,1.4499367 0 0 1 171.38672,320.04288 1.4499999,1.4499367 0 0 1 169.9375,321.49405 1.4499999,1.4499367 0 0 1 168.48828,320.04288 1.4499999,1.4499367 0 0 1 169.9375,318.59365 Z M 179.9375,318.59365 A 1.4499999,1.4499367 0 0 1 181.38672,320.04288 1.4499999,1.4499367 0 0 1 179.9375,321.49209 1.4499999,1.4499367 0 0 1 178.48828,320.04288 1.4499999,1.4499367 0 0 1 179.9375,318.59365 Z M 189.9375,318.59365 A 1.4499999,1.4499367 0 0 1 191.38672,320.04288 1.4499999,1.4499367 0 0 1 189.9375,321.49209 1.4499999,1.4499367 0 0 1 188.48828,320.04288 1.4499999,1.4499367 0 0 1 189.9375,318.59365 Z" />
  <path
     id="kpt4-circle2"
     style="fill:#ffbf00;fill-opacity:1;stroke:none;stroke-width:1.44"
     d="M 109.9375,317.04317 A 3,2.9998691 0 0 0 106.9375,320.04317 3,2.9998691 0 0 0 109.9375,323.04317 3,2.9998691 0 0 0 112.9375,320.04317 3,2.9998691 0 0 0 109.9375,317.04317 Z M 109.9375,318.59395 A 1.4499999,1.4499367 0 0 1 111.38672,320.04317 1.4499999,1.4499367 0 0 1 109.9375,321.49239 1.4499999,1.4499367 0 0 1 108.48828,320.04317 1.4499999,1.4499367 0 0 1 109.9375,318.59395 Z" />
  
  <path
     id="kpt4-circle2-14"
     style="fill:#ffbf00;fill-opacity:1;stroke:none;stroke-width:1.44"
     d="M 119.9375,317.04317 A 3,2.9998691 0 0 0 116.9375,320.04317 3,2.9998691 0 0 0 119.9375,323.04317 3,2.9998691 0 0 0 122.9375,320.04317 3,2.9998691 0 0 0 119.9375,317.04317 Z M 119.9375,318.59395 A 1.4499999,1.4499367 0 0 1 121.38672,320.04317 1.4499999,1.4499367 0 0 1 119.9375,321.49239 1.4499999,1.4499367 0 0 1 118.48828,320.04317 1.4499999,1.4499367 0 0 1 119.9375,318.59395 Z" />
  <path
     id="kpt4-circle2-89"
     style="fill:#ffbf00;fill-opacity:1;stroke:none;stroke-width:1.44"
     d="M 99.9375,317.04317 A 3,2.9998691 0 0 0 96.9375,320.04317 3,2.9998691 0 0 0 99.9375,323.04317 3,2.9998691 0 0 0 102.9375,320.04317 3,2.9998691 0 0 0 99.9375,317.04317 Z M 99.9375,318.59395 A 1.4499999,1.4499367 0 0 1 101.38672,320.04317 1.4499999,1.4499367 0 0 1 99.9375,321.49239 1.4499999,1.4499367 0 0 1 98.48828,320.04317 1.4499999,1.4499367 0 0 1 99.9375,318.59395 Z" />
  <path
     id="kpt4-circle2-6"
     style="fill:#ffbf00;fill-opacity:1;stroke:none;stroke-width:1.44"
     d="M 189.9375,317.04317 A 3,2.9998691 0 0 0 186.9375,320.04317 3,2.9998691 0 0 0 189.9375,323.04317 3,2.9998691 0 0 0 192.9375,320.04317 3,2.9998691 0 0 0 189.9375,317.04317 Z M 189.9375,318.59395 A 1.4499999,1.4499367 0 0 1 191.38672,320.04317 1.4499999,1.4499367 0 0 1 189.9375,321.49239 1.4499999,1.4499367 0 0 1 188.48828,320.04317 1.4499999,1.4499367 0 0 1 189.9375,318.59395 Z" />
  <path
     style="fill:#ffbf00;fill-opacity:1;stroke:#ffbf00;stroke-width:2;stroke-linecap:butt;stroke-dasharray:none;stroke-opacity:1"
     d="M 109.9375,318.59395 C 109.9375,310.04317 109.9375,310.04317 109.9375,310.04317"
     id="kpt4-path7" />
  <path
     style="fill:#ffbf00;fill-opacity:1;stroke:#008000;stroke-width:2;stroke-linecap:butt;stroke-dasharray:none;stroke-opacity:0.473251"
     d="M 109.9375,310.04317 V 317.04317 317.04317"
     id="kpt4-path8" />
  <path
     style="fill:#ffbf00;fill-opacity:1;stroke:#ffbf00;stroke-width:2;stroke-linecap:butt;stroke-dasharray:none;stroke-opacity:1"
     d="M 119.9375,318.59395 C 119.9375,310.04317 119.9375,310.04317 119.9375,310.04317"
     id="kpt4-path7-2" />
  <path
     id="kpt4-circle2-5"
     style="fill:#ffbf00;fill-opacity:1;stroke:none;stroke-width:1.44"
     d="M 129.9375,317.04317 A 3,2.9998691 0 0 0 126.9375,320.04317 3,2.9998691 0 0 0 129.9375,323.04317 3,2.9998691 0 0 0 132.9375,320.04317 3,2.9998691 0 0 0 129.9375,317.04317 Z M 129.9375,318.59395 A 1.4499999,1.4499367 0 0 1 131.38672,320.04317 1.4499999,1.4499367 0 0 1 129.9375,321.49239 1.4499999,1.4499367 0 0 1 128.48828,320.04317 1.4499999,1.4499367 0 0 1 129.9375,318.59395 Z" />
  <path
     style="fill:#ffbf00;fill-opacity:1;stroke:#008000;stroke-width:2;stroke-linecap:butt;stroke-dasharray:none;stroke-opacity:0.473251"
     d="M 119.9375,310.04317 V 317.04317 317.04317"
     id="kpt4-path8-3" />
  <path
     style="fill:#ffbf00;fill-opacity:1;stroke:#ffbf00;stroke-width:2;stroke-linecap:butt;stroke-dasharray:none;stroke-opacity:1"
     d="M 129.9375,318.59395 C 129.9375,310.04317 129.9375,310.04317 129.9375,310.04317"
     id="kpt4-path7-7" />
  <path
     id="kpt4-circle2-7"
     style="fill:#ffbf00;fill-opacity:1;stroke:none;stroke-width:1.44"
     d="M 139.9375,317.04317 A 3,2.9998691 0 0 0 136.9375,320.04317 3,2.9998691 0 0 0 139.9375,323.04317 3,2.9998691 0 0 0 142.9375,320.04317 3,2.9998691 0 0 0 139.9375,317.04317 Z M 139.9375,318.59395 A 1.4499999,1.4499367 0 0 1 141.38672,320.04317 1.4499999,1.4499367 0 0 1 139.9375,321.49239 1.4499999,1.4499367 0 0 1 138.48828,320.04317 1.4499999,1.4499367 0 0 1 139.9375,318.59395 Z" />
  <path
     style="fill:#ffbf00;fill-opacity:1;stroke:#008000;stroke-width:2;stroke-linecap:butt;stroke-dasharray:none;stroke-opacity:0.473251"
     d="M 129.9375,310.04317 V 317.04317 317.04317"
     id="kpt4-path8-6" />
  <path
     style="fill:#ffbf00;fill-opacity:1;stroke:#ffbf00;stroke-width:2;stroke-linecap:butt;stroke-dasharray:none;stroke-opacity:1"
     d="M 139.9375,318.59395 C 139.9375,310.04317 139.9375,310.04317 139.9375,310.04317"
     id="kpt4-path7-9" />
  <path
     id="kpt4-circle2-3"
     style="fill:#ffbf00;fill-opacity:1;stroke:none;stroke-width:1.44"
     d="M 149.9375,317.04317 A 3,2.9998691 0 0 0 146.9375,320.04317 3,2.9998691 0 0 0 149.9375,323.04317 3,2.9998691 0 0 0 152.9375,320.04317 3,2.9998691 0 0 0 149.9375,317.04317 Z M 149.9375,318.59395 A 1.4499999,1.4499367 0 0 1 151.38672,320.04317 1.4499999,1.4499367 0 0 1 149.9375,321.49239 1.4499999,1.4499367 0 0 1 148.48828,320.04317 1.4499999,1.4499367 0 0 1 149.9375,318.59395 Z" />
  <path
     style="fill:#ffbf00;fill-opacity:1;stroke:#008000;stroke-width:2;stroke-linecap:butt;stroke-dasharray:none;stroke-opacity:0.473251"
     d="M 139.9375,310.04317 V 317.04317 317.04317"
     id="kpt4-path8-5" />
  <path
     style="fill:#ffbf00;fill-opacity:1;stroke:#ffbf00;stroke-width:2;stroke-linecap:butt;stroke-dasharray:none;stroke-opacity:1"
     d="M 149.9375,318.59395 C 149.9375,310.04317 149.9375,310.04317 149.9375,310.04317"
     id="kpt4-path7-4" />
  <path
     id="kpt4-circle2-4"
     style="fill:#ffbf00;fill-opacity:1;stroke:none;stroke-width:1.44"
     d="M 159.9375,317.04317 A 3,2.9998691 0 0 0 156.9375,320.04317 3,2.9998691 0 0 0 159.9375,323.04317 3,2.9998691 0 0 0 162.9375,320.04317 3,2.9998691 0 0 0 159.9375,317.04317 Z M 159.9375,318.59395 A 1.4499999,1.4499367 0 0 1 161.38672,320.04317 1.4499999,1.4499367 0 0 1 159.9375,321.49239 1.4499999,1.4499367 0 0 1 158.48828,320.04317 1.4499999,1.4499367 0 0 1 159.9375,318.59395 Z" />
  <path
     style="fill:#ffbf00;fill-opacity:1;stroke:#008000;stroke-width:2;stroke-linecap:butt;stroke-dasharray:none;stroke-opacity:0.473251"
     d="M 149.9375,310.04317 V 317.04317 317.04317"
     id="kpt4-path8-1" />
  <path
     style="fill:#ffbf00;fill-opacity:1;stroke:#ffbf00;stroke-width:2;stroke-linecap:butt;stroke-dasharray:none;stroke-opacity:1"
     d="M 159.9375,318.59395 C 159.9375,310.04317 159.9375,310.04317 159.9375,310.04317"
     id="kpt4-path7-27" />
  <path
     id="kpt4-circle2-8"
     style="fill:#ffbf00;fill-opacity:1;stroke:none;stroke-width:1.44"
     d="M 169.9375,317.04317 A 3,2.9998691 0 0 0 166.9375,320.04317 3,2.9998691 0 0 0 169.9375,323.04317 3,2.9998691 0 0 0 172.9375,320.04317 3,2.9998691 0 0 0 169.9375,317.04317 Z M 169.9375,318.59395 A 1.4499999,1.4499367 0 0 1 171.38672,320.04317 1.4499999,1.4499367 0 0 1 169.9375,321.49239 1.4499999,1.4499367 0 0 1 168.48828,320.04317 1.4499999,1.4499367 0 0 1 169.9375,318.59395 Z" />
  <path
     style="fill:#ffbf00;fill-opacity:1;stroke:#008000;stroke-width:2;stroke-linecap:butt;stroke-dasharray:none;stroke-opacity:0.473251"
     d="M 159.9375,310.04317 V 317.04317 317.04317"
     id="kpt4-path8-7" />
  <path
     style="fill:#ffbf00;fill-opacity:1;stroke:#ffbf00;stroke-width:2;stroke-linecap:butt;stroke-dasharray:none;stroke-opacity:1"
     d="M 169.9375,318.59395 C 169.9375,310.04317 169.9375,310.04317 169.9375,310.04317"
     id="kpt4-path7-6" />
  <path
     style="fill:#ffbf00;fill-opacity:1;stroke:#008000;stroke-width:2;stroke-linecap:butt;stroke-dasharray:none;stroke-opacity:0.473251"
     d="M 169.9375,310.04317 V 317.04317 317.04317"
     id="kpt4-path8-50" />
  <path
     style="fill:none;fill-opacity:1;stroke:#ffbf00;stroke-width:2;stroke-linecap:butt;stroke-dasharray:none;stroke-opacity:1"
     d="M 180,317.96895 V 315.63105 L 187.25,309.54317"
     id="kpt4-path7-48" />
  <path
     style="fill:none;fill-opacity:1;stroke:#007e00;stroke-width:2;stroke-linecap:butt;stroke-dasharray:none;stroke-opacity:0.47451"
     d="M 179.96875,317.96895 180,315.63105 187.25,309.54317"
     id="kpt4-path9" />
  <path
     id="kpt4-rect4541"
     style="fill:url(#kpt4-linearGradient27);fill-opacity:1;stroke:#000000;stroke-width:0.496899;stroke-linejoin:round;stroke-miterlimit:4;stroke-dasharray:none;stroke-opacity:1"
     d="M 19.03151,48.584652 C 15.49395,48.584652 12.64674,51.431865 12.64674,54.969417 V 307.15497 C 12.64674,310.69253 15.49395,313.54169 19.03151,313.54169 H 270.74974 C 274.2873,313.54169 277.13451,310.69253 277.13451,307.15497 V 54.969417 C 277.13451,51.431861 274.2873,48.584652 270.74974,48.584652 H 166.78522 V 58.840511 H 119.0196 V 48.584652 Z M 18.99245,54.586605 C 20.65178,54.472868 22.05974,55.78751 22.0569,57.447933 22.0569,61.265699 16.32057,61.265699 16.32057,57.447933 16.318,55.940767 17.48627,54.689666 18.99245,54.586605 Z M 271.73802,54.586605 C 273.39735,54.472861 274.80532,55.787506 274.80248,57.447933 274.80248,61.265699 269.06615,61.265699 269.06615,57.447933 269.06358,55.94077 270.23184,54.689671 271.73802,54.586605 Z M 18.99245,304.0202 C 20.65178,303.90646 22.05974,305.22111 22.0569,306.88153 22.0569,310.6993 16.32057,310.6993 16.32057,306.88153 16.318,305.37436 17.48627,304.12326 18.99245,304.0202 Z M 271.73802,304.0202 C 273.39735,303.90646 274.80532,305.2211 274.80248,306.88153 274.80248,310.6993 269.06615,310.6993 269.06615,306.88153 269.06358,305.37437 270.23184,304.12327 271.73802,304.0202 Z" />
  <path
     id="kpt4-path25"
     style="fill:#000000;fill-opacity:1;stroke:#000000;stroke-width:0.496899;stroke-linejoin:round;stroke-miterlimit:4;stroke-dasharray:none;stroke-opacity:1"
     d="M 24.57263,52.318788 C 26.63166,54.526881 26.89238,58.161309 25.09493,60.602431 23.37238,63.183381 19.69588,64.182379 16.90938,62.808954 V 300.44082 C 19.86767,299.0057 23.78409,300.21704 25.3767,303.10279 26.51706,304.96098 26.59821,307.39952 25.6401,309.35136 H 265.61689 C 264.23644,306.63004 265.07946,303.04628 267.52099,301.21748 269.05389,300.03899 271.11619,299.54882 273.00455,300.00279 V 63.278134 C 270.24706,63.907152 267.1878,62.566075 265.82492,60.079198 264.22825,57.404949 264.89592,53.666009 267.32744,51.714716 H 170.63645 V 58.197275 C 169.49784,59.389779 168.4232,60.672309 167.24479,61.809032 166.41125,62.172898 165.44277,61.891554 164.55157,61.980066 H 119.04382 C 117.85128,60.841407 116.56884,59.766803 115.43206,58.588428 115.06817,57.754825 115.34952,56.786316 115.26102,55.895141 V 51.714716 H 23.92754 C 24.14269,51.916066 24.35766,52.117437 24.57263,52.318788 Z" />
  <rect
     width="232.86156"
     x="28.40543"
     y="66.17028"
     ry="11.844769"
     height="229.78563"
     style="fill:#2b2424;fill-opacity:1;stroke:url(#kpt4-linearGradient4336);stroke-width:0.264001;stroke-linejoin:round;stroke-miterlimit:4;stroke-dasharray:none;stroke-opacity:1"
     id="kpt4-rect5092"
     rx="11.844768" />
  <rect
     width="1.0989448"
     x="117.23816"
     y="189.87715"
     fill="none"
     height="8.8841305"
     id="kpt4-rect17"
     style="stroke-width:1" />
  <rect
     width="5.4947238"
     x="117.23816"
     y="189.87715"
     fill="none"
     height="5.4944844"
     id="kpt4-rect18"
     style="stroke-width:1" />
  <rect
     width="5.4947238"
     x="117.23816"
     y="189.87715"
     fill="none"
     height="5.4944844"
     id="kpt4-rect19"
     style="stroke-width:1" />
  <rect
     width="5.4947238"
     x="117.23816"
     y="189.87715"
     fill="none"
     height="5.4944844"
     id="kpt4-rect20"
     style="stroke-width:1" />
  <rect
     width="5.4947238"
     x="117.23816"
     y="189.87715"
     fill="none"
     height="5.4944844"
     id="kpt4-rect21"
     style="stroke-width:1" />
  <rect
     width="5.4947238"
     x="117.23816"
     y="189.87715"
     fill="none"
     height="5.4944844"
     id="kpt4-rect22"
     style="stroke-width:1" />
  <rect
     width="5.4947238"
     x="117.23816"
     y="189.87715"
     fill="none"
     height="5.4944844"
     id="kpt4-rect23"
     style="stroke-width:1" />
  <rect
     width="5.4947238"
     x="117.23816"
     y="189.87715"
     fill="none"
     height="5.4944844"
     id="kpt4-rect24"
     style="stroke-width:1" />
  <rect
     width="5.4947238"
     x="117.23816"
     y="189.87715"
     fill="none"
     height="5.4944844"
     id="kpt4-rect25"
     style="stroke-width:1" />
  <rect
     width="5.4947238"
     x="117.23816"
     y="189.87715"
     fill="none"
     height="5.4944844"
     id="kpt4-rect26"
     style="stroke-width:1" />
  <g
     id="kpt4-g19-2"
     transform="translate(-399.03566,-0.842235)">
    <rect
       width="32.865002"
       x="500.70041"
       y="83.334808"
       ry="2"
       height="32.865391"
       style="fill:url(#kpt4-linearGradient5);fill-opacity:1;stroke:none;stroke-width:1.13461;filter:url(#kpt4-filter9-1)"
       id="kpt4-rect4577-824-3"
       rx="2" />
    <rect
       width="32.865002"
       x="502.22379"
       y="84.858192"
       ry="2.2043536"
       height="32.865391"
       style="fill:url(#kpt4-radialGradient19-2);stroke:none;stroke-width:1.25054;filter:url(#kpt4-filter9-1)"
       id="kpt4-rect15-2"
       rx="2.2043536"
       transform="matrix(0.90729551,0,0,0.90729551,46.558402,7.9669855)" />
  </g>
  <g
     id="kpt4-g19-2-5"
     transform="translate(-399.03566,53.916316)">
    <rect
       width="32.865002"
       x="500.70041"
       y="83.334808"
       ry="2"
       height="32.865391"
       style="fill:url(#kpt4-linearGradient9);fill-opacity:1;stroke:none;stroke-width:1.13461;filter:url(#kpt4-filter9-1-7)"
       id="kpt4-rect4577-824-3-0"
       rx="2" />
    <rect
       width="32.865002"
       x="502.22379"
       y="84.858192"
       ry="2.2043536"
       height="32.865391"
       style="fill:url(#kpt4-radialGradient19-2-3);stroke:none;stroke-width:1.25054;filter:url(#kpt4-filter9-1-7)"
       id="kpt4-rect15-2-9"
       rx="2.2043536"
       transform="matrix(0.90729551,0,0,0.90729551,46.558402,7.9669855)" />
  </g>
  <g
     id="kpt4-g19-2-6"
     transform="translate(-399.03566,108.67487)">
    <rect
       width="32.865002"
       x="500.70041"
       y="83.334808"
       ry="2"
       height="32.865391"
       style="fill:url(#kpt4-linearGradient11);fill-opacity:1;stroke:none;stroke-width:1.13461;filter:url(#kpt4-filter9-1-6)"
       id="kpt4-rect4577-824-3-1"
       rx="2" />
    <rect
       width="32.865002"
       x="502.22379"
       y="84.858192"
       ry="2.2043536"
       height="32.865391"
       style="fill:url(#kpt4-radialGradient19-2-7);stroke:none;stroke-width:1.25054;filter:url(#kpt4-filter9-1-6)"
       id="kpt4-rect15-2-5"
       rx="2.2043536"
       transform="matrix(0.90729551,0,0,0.90729551,46.558402,7.9669855)" />
  </g>
  <g
     id="kpt4-g19-2-9"
     transform="translate(-399.03566,163.43342)">
    <rect
       width="32.865002"
       x="500.70041"
       y="83.334808"
       ry="2"
       height="32.865391"
       style="fill:url(#kpt4-linearGradient14);fill-opacity:1;stroke:none;stroke-width:1.13461;filter:url(#kpt4-filter9-1-2)"
       id="kpt4-rect4577-824-3-8"
       rx="2" />
    <rect
       width="32.865002"
       x="502.22379"
       y="84.858192"
       ry="2.2043536"
       height="32.865391"
       style="fill:url(#kpt4-radialGradient19-2-0);stroke:none;stroke-width:1.25054;filter:url(#kpt4-filter9-1-2)"
       id="kpt4-rect15-2-1"
       rx="2.2043536"
       transform="matrix(0.90729551,0,0,0.90729551,46.558402,7.9669855)" />
  </g>
  <g
     style="font-style:normal;font-variant:normal;font-weight:normal;font-stretch:normal;font-size:32px;line-height:125%;font-family:'Droid Sans';-inkscape-font-specification:'Droid Sans';letter-spacing:0px;word-spacing:0px;fill:#ffffff;fill-opacity:1;stroke:none;stroke-width:1.10327"
     id="kpt4-text5024"
     xml:space="preserve"
     transform="matrix(0.99015695,0,0,0.82968615,16.86673,-599.61016)">
   <path
   d="M 91.232599,930.8195 Q 92.702859,930.8195 93.706939,931.32154 94.746879,931.78772 95.392359,932.64836 96.037839,933.509 96.324719,934.69238 96.647459,935.8399 96.647459,937.20258 96.647459,938.99558 95.966119,940.46584 95.284779,941.9361 94.280699,943.22706 93.276619,944.51802 92.093239,945.73726 90.909859,946.92064 89.869919,948.24746 88.865839,949.53842 88.184499,951.04454 87.503159,952.5148 87.467299,954.34366 V 954.63054 H 96.432299 V 956.13666 H 85.817739 V 954.91742 Q 85.817739,952.6941 86.499079,951.00868 87.180419,949.32326 88.184499,947.96058 89.224439,946.56204 90.407819,945.37866 91.591199,944.15942 92.595279,942.94018 93.635219,941.72094 94.316559,940.35826 94.997899,938.99558 94.997899,937.2743 94.997899,935.08684 94.137259,933.72416 93.312479,932.32562 91.160879,932.32562 90.120939,932.32562 89.403739,932.72008 88.686539,933.07868 88.220359,933.76002 87.790039,934.4055 87.574879,935.302 87.395579,936.16264 87.395579,937.16672 V 938.888 H 85.817739 V 937.2743 Q 85.817739,935.91162 86.104619,934.72824 86.427359,933.54486 87.072839,932.68422 87.718319,931.82358 88.722399,931.32154 89.762339,930.8195 91.232599,930.8195 Z"
   id="kpt4-tspan5026"
   style="font-size:35.86px;line-height:125%;font-family:'Bebas Neue';-inkscape-font-specification:'Bebas Neue';stroke:#ffffff"
   transform="scale(1.120617,0.89236552)"
   aria-label="2" />
  </g>
  <g
     style="font-style:normal;font-variant:normal;font-weight:normal;font-stretch:normal;font-size:32px;line-height:125%;font-family:'Droid Sans';-inkscape-font-specification:'Droid Sans';letter-spacing:0px;word-spacing:0px;fill:#ffffff;fill-opacity:1;stroke:none;stroke-width:1.10327"
     id="kpt4-text5040"
     xml:space="preserve"
     transform="matrix(0.99015695,0,0,0.82968615,17.32468,-586.54279)">
   <path
   d="M 87.323572,997.61881 Q 87.969052,996.57887 88.973132,996.14855 89.977212,995.68237 91.375752,995.68237 92.666712,995.68237 93.599072,996.14855 94.531432,996.61473 95.105192,997.43951 95.714812,998.26429 95.965832,999.41181 96.252712,1000.5235 96.252712,1001.8144 V 1006.1176 Q 96.252712,1007.4803 95.929972,1008.6637 95.643092,1009.8112 94.961752,1010.6719 94.316272,1011.4966 93.276332,1011.9987 92.236392,1012.4649 90.801992,1012.4649 89.367592,1012.4649 88.327652,1011.9987 87.323572,1011.4966 86.642232,1010.6719 85.996752,1009.8112 85.674012,1008.6637 85.387132,1007.4803 85.387132,1006.1176 V 1004.755 H 86.964972 V 1006.1894 Q 86.964972,1007.1934 87.180132,1008.0541 87.395292,1008.9147 87.825612,1009.5602 88.291792,1010.2057 89.008992,1010.5643 89.726192,1010.9229 90.766132,1010.9229 91.806072,1010.9229 92.523272,1010.5643 93.276332,1010.2057 93.706652,1009.5602 94.172832,1008.9147 94.387992,1008.0541 94.603152,1007.1934 94.603152,1006.1894 V 1001.9579 Q 94.603152,1000.9538 94.387992,1000.0932 94.172832,999.23251 93.706652,998.58703 93.276332,997.94155 92.523272,997.58295 91.806072,997.22435 90.766132,997.22435 87.969052,997.22435 87.180132,1000.0932 V 1000.5235 H 85.638152 L 86.283632,987.11183 H 95.714812 V 988.65381 H 87.789752 Z"
   id="kpt4-tspan5042"
   style="font-size:35.86px;line-height:125%;font-family:'Bebas Neue';-inkscape-font-specification:'Bebas Neue';stroke:#ffffff"
   transform="scale(1.120617,0.89236552)"
   aria-label="5" />
  </g>
  <g
     style="font-style:normal;font-variant:normal;font-weight:normal;font-stretch:normal;font-size:32px;line-height:125%;font-family:'Droid Sans';-inkscape-font-specification:'Droid Sans';letter-spacing:0px;word-spacing:0px;fill:#ffffff;fill-opacity:1;stroke:none;stroke-width:1.10327"
     id="kpt4-text5052"
     xml:space="preserve"
     transform="matrix(0.99015695,0,0,0.82968615,16.99992,-573.67782)">
   <path
   d="M 91.112587,1043.6058 Q 93.945527,1043.6058 95.379927,1045.2554 96.814327,1046.9049 96.814327,1049.702 V 1050.4909 Q 96.814327,1052.4274 96.025407,1053.8618 95.272347,1055.2603 93.479347,1055.7624 95.308207,1056.3003 96.061267,1057.7347 96.814327,1059.1691 96.814327,1061.1414 V 1062.9344 Q 96.814327,1065.6956 95.379927,1067.4169 93.981387,1069.1381 91.112587,1069.1381 88.207927,1069.1381 86.809387,1067.4527 85.410846,1065.7314 85.410846,1062.9344 V 1061.1414 Q 85.410846,1059.1332 86.128046,1057.7347 86.881107,1056.3361 88.781687,1055.7624 86.952827,1055.2603 86.163906,1053.8976 85.410846,1052.4991 85.410846,1050.4909 V 1049.702 Q 85.410846,1046.9049 86.809387,1045.2554 88.243787,1043.6058 91.112587,1043.6058 Z M 91.112587,1045.1119 Q 89.068567,1045.1119 88.064487,1046.3312 87.060407,1047.5146 87.060407,1049.7379 V 1050.7778 Q 87.060407,1055.081 91.112587,1055.081 95.164767,1055.081 95.164767,1050.7778 V 1049.7379 Q 95.164767,1047.5146 94.124827,1046.3312 93.120747,1045.1119 91.112587,1045.1119 Z M 91.112587,1056.5871 Q 87.060407,1056.5871 87.060407,1060.9979 V 1062.8985 Q 87.060407,1065.086 88.064487,1066.3769 89.068567,1067.632 91.112587,1067.632 93.156607,1067.632 94.124827,1066.3769 95.128907,1065.086 95.164767,1062.8985 V 1060.9979 Q 95.164767,1056.5871 91.112587,1056.5871 Z"
   id="kpt4-tspan5054"
   style="font-size:35.86px;line-height:125%;font-family:'Bebas Neue';-inkscape-font-specification:'Bebas Neue';stroke:#ffffff"
   transform="scale(1.120617,0.89236552)"
   aria-label="8" />
  </g>
  <g
     style="font-style:normal;font-variant:normal;font-weight:normal;font-stretch:normal;font-size:32px;line-height:125%;font-family:'Droid Sans';-inkscape-font-specification:'Droid Sans';letter-spacing:0px;word-spacing:0px;fill:#ffffff;fill-opacity:1;stroke:none;stroke-width:1.10327"
     id="kpt4-text5060"
     xml:space="preserve"
     transform="matrix(0.99015695,0,0,0.82968615,17.50298,-560.73032)">
   <path
   d="M 85.136779,1106.4252 Q 85.136779,1105.0267 85.459519,1103.8791 85.782259,1102.6958 86.463599,1101.871 87.144939,1101.0103 88.184879,1100.5442 89.22482,1100.078 90.65922,1100.078 92.09362,1100.078 93.13356,1100.5442 94.1735,1101.0103 94.85484,1101.871 95.53618,1102.6958 95.85892,1103.8791 96.18166,1105.0267 96.18166,1106.4252 V 1119.2631 Q 96.18166,1120.6258 95.85892,1121.8091 95.53618,1122.9567 94.85484,1123.8173 94.1735,1124.6421 93.13356,1125.1441 92.09362,1125.6103 90.65922,1125.6103 89.22482,1125.6103 88.184879,1125.1441 87.144939,1124.6421 86.463599,1123.8173 85.782259,1122.9567 85.459519,1121.8091 85.136779,1120.6258 85.136779,1119.2631 Z M 86.786339,1119.3348 Q 86.786339,1121.4147 87.682839,1122.7774 88.579339,1124.1042 90.65922,1124.1042 92.7391,1124.1042 93.6356,1122.7774 94.5321,1121.4147 94.5321,1119.3348 V 1106.3176 Q 94.5321,1104.2736 93.6356,1102.9468 92.7391,1101.5841 90.65922,1101.5841 88.579339,1101.5841 87.682839,1102.9468 86.786339,1104.2736 86.786339,1106.3176 Z"
   id="kpt4-tspan5062"
   style="font-size:35.86px;font-family:'Bebas Neue';-inkscape-font-specification:'Bebas Neue';stroke:#ffffff"
   transform="scale(1.120617,0.89236552)"
   aria-label="0" />
  </g>
  <g
     id="kpt4-g19-9"
     transform="translate(-349.41477,-0.842235)">
    <rect
       width="32.865002"
       x="500.70041"
       y="83.334808"
       ry="2"
       height="32.865391"
       style="fill:url(#kpt4-linearGradient6);fill-opacity:1;stroke:none;stroke-width:1.13461;filter:url(#kpt4-filter9-7)"
       id="kpt4-rect4577-824-5"
       rx="2" />
    <rect
       width="32.865002"
       x="502.22379"
       y="84.858192"
       ry="2.2043536"
       height="32.865391"
       style="fill:url(#kpt4-radialGradient19-1);stroke:none;stroke-width:1.25054;filter:url(#kpt4-filter9-7)"
       id="kpt4-rect15-4"
       rx="2.2043536"
       transform="matrix(0.90729551,0,0,0.90729551,46.558402,7.9669855)" />
  </g>
  <g
     id="kpt4-g19-9-0"
     transform="translate(-349.41477,53.916316)">
    <rect
       width="32.865002"
       x="500.70041"
       y="83.334808"
       ry="2"
       height="32.865391"
       style="fill:url(#kpt4-linearGradient10);fill-opacity:1;stroke:none;stroke-width:1.13461;filter:url(#kpt4-filter9-7-0)"
       id="kpt4-rect4577-824-5-0"
       rx="2" />
    <rect
       width="32.865002"
       x="502.22379"
       y="84.858192"
       ry="2.2043536"
       height="32.865391"
       style="fill:url(#kpt4-radialGradient19-1-8);stroke:none;stroke-width:1.25054;filter:url(#kpt4-filter9-7-0)"
       id="kpt4-rect15-4-6"
       rx="2.2043536"
       transform="matrix(0.90729551,0,0,0.90729551,46.558402,7.9669855)" />
  </g>
  <g
     id="kpt4-g19-9-4"
     transform="translate(-349.41477,108.67487)">
    <rect
       width="32.865002"
       x="500.70041"
       y="83.334808"
       ry="2"
       height="32.865391"
       style="fill:url(#kpt4-linearGradient12);fill-opacity:1;stroke:none;stroke-width:1.13461;filter:url(#kpt4-filter9-7-3)"
       id="kpt4-rect4577-824-5-2"
       rx="2" />
    <rect
       width="32.865002"
       x="502.22379"
       y="84.858192"
       ry="2.2043536"
       height="32.865391"
       style="fill:url(#kpt4-radialGradient19-1-9);stroke:none;stroke-width:1.25054;filter:url(#kpt4-filter9-7-3)"
       id="kpt4-rect15-4-0"
       rx="2.2043536"
       transform="matrix(0.90729551,0,0,0.90729551,46.558402,7.9669855)" />
  </g>
  <g
     id="kpt4-g19-9-8"
     transform="translate(-349.41477,163.43342)">
    <rect
       width="32.865002"
       x="500.70041"
       y="83.334808"
       ry="2"
       height="32.865391"
       style="fill:url(#kpt4-linearGradient1);fill-opacity:1;stroke:none;stroke-width:1.13461;filter:url(#kpt4-filter9-7-1)"
       id="kpt4-rect4577-824-5-26"
       rx="2" />
    <rect
       width="32.865002"
       x="502.22379"
       y="84.858192"
       ry="2.2043536"
       height="32.865391"
       style="fill:url(#kpt4-radialGradient19-1-7);stroke:none;stroke-width:1.25054;filter:url(#kpt4-filter9-7-1)"
       id="kpt4-rect15-4-60"
       rx="2.2043536"
       transform="matrix(0.90729551,0,0,0.90729551,46.558402,7.9669855)" />
  </g>
  <g
     style="font-style:normal;font-variant:normal;font-weight:normal;font-stretch:normal;font-size:32px;line-height:125%;font-family:'Droid Sans';-inkscape-font-specification:'Droid Sans';letter-spacing:0px;word-spacing:0px;fill:#ffffff;fill-opacity:1;stroke:none;stroke-width:1.10327"
     id="kpt4-text5032"
     xml:space="preserve"
     transform="matrix(0.99015695,0,0,0.82968615,9.86053,-598.90574)">
   <path
   d="M 142.26703,929.76048 Q 143.70143,929.76048 144.70551,930.26252 145.74545,930.7287 146.39093,931.58934 147.07227,932.41412 147.35915,933.5975 147.68189,934.74502 147.68189,936.1077 V 936.71732 Q 147.68189,938.58204 146.82125,939.98058 145.96061,941.34326 144.34691,941.91702 146.06819,942.41906 146.85711,943.78174 147.68189,945.14442 147.68189,947.00914 V 948.94558 Q 147.68189,950.30826 147.35915,951.49164 147.07227,952.63916 146.39093,953.4998 145.74545,954.32458 144.70551,954.82662 143.70143,955.2928 142.26703,955.2928 140.83263,955.2928 139.79269,954.82662 138.78861,954.32458 138.10727,953.4998 137.46179,952.63916 137.13905,951.49164 136.85217,950.30826 136.85217,948.94558 V 947.51118 H 138.43001 V 949.0173 Q 138.43001,950.05724 138.60931,950.91788 138.82447,951.77852 139.29065,952.424 139.75683,953.06948 140.47403,953.42808 141.19123,953.78668 142.23117,953.78668 144.31105,953.78668 145.17169,952.424 146.03233,951.06132 146.03233,948.90972 V 946.97328 Q 146.03233,945.00098 145.06411,943.92518 144.13175,942.81352 142.30289,942.7418 H 140.61747 V 941.23568 H 142.37461 Q 144.09589,941.1281 145.06411,940.01644 146.03233,938.86892 146.03233,937.04006 V 936.14356 Q 146.03233,933.99196 145.17169,932.62928 144.31105,931.2666 142.23117,931.2666 140.15129,931.2666 139.29065,932.62928 138.43001,933.9561 138.43001,936.00012 V 937.0042 H 136.85217 V 936.1077 Q 136.85217,934.74502 137.13905,933.5975 137.46179,932.41412 138.10727,931.58934 138.78861,930.7287 139.79269,930.26252 140.83263,929.76048 142.26703,929.76048 Z"
   id="kpt4-tspan5034"
   style="font-size:35.86px;line-height:125%;font-family:'Bebas Neue';-inkscape-font-specification:'Bebas Neue';stroke:#ffffff"
   transform="scale(1.120617,0.89236552)"
   aria-label="3" />
  </g>
  <g
     style="font-style:normal;font-variant:normal;font-weight:normal;font-stretch:normal;font-size:32px;line-height:125%;font-family:'Droid Sans';-inkscape-font-specification:'Droid Sans';letter-spacing:0px;word-spacing:0px;fill:#ffffff;fill-opacity:1;stroke:none;stroke-width:1.10327"
     id="kpt4-text5044"
     xml:space="preserve"
     transform="matrix(0.99015695,0,0,0.82968615,10.33417,-586.61258)">
   <path
   d="M 141.85808,987.11643 Q 143.29248,987.11643 144.29656,987.58261 145.3365,988.04879 145.98198,988.87357 146.66332,989.69835 146.9502,990.84587 147.27294,991.99339 147.27294,993.35607 V 993.64295 H 145.6951 V 993.24849 Q 145.6951,991.24033 144.83446,989.94937 143.97382,988.62255 141.89394,988.62255 140.81814,988.62255 140.06508,988.98115 139.34788,989.33975 138.84584,989.98523 138.37966,990.63071 138.1645,991.56307 137.94934,992.45957 137.94934,993.57123 V 999.38055 Q 138.55896,998.34061 139.63476,997.73099 140.71056,997.08551 142.43184,997.08551 143.75866,997.08551 144.69102,997.55169 145.62338,998.01787 146.19714,998.84265 146.80676,999.66743 147.09364,1000.7791 147.38052,1001.8908 147.38052,1003.2176 V 1006.3015 Q 147.38052,1007.6642 147.05778,1008.8476 146.73504,1009.9951 146.0537,1010.8558 145.37236,1011.6805 144.33242,1012.1826 143.29248,1012.6488 141.85808,1012.6488 140.38782,1012.6488 139.34788,1012.1826 138.30794,1011.6805 137.6266,1010.8558 136.94526,1009.9951 136.62252,1008.8476 136.29978,1007.6642 136.29978,1006.3015 V 993.53537 Q 136.29978,992.13683 136.62252,990.95345 136.94526,989.77007 137.59074,988.90943 138.27208,988.04879 139.31202,987.58261 140.38782,987.11643 141.85808,987.11643 Z M 141.85808,998.62749 Q 139.74234,998.62749 138.84584,999.99017 137.94934,1001.317 137.94934,1003.3252 V 1006.3733 Q 137.94934,1008.4531 138.84584,1009.78 139.74234,1011.1068 141.85808,1011.1068 143.93796,1011.1068 144.83446,1009.78 145.73096,1008.4531 145.73096,1006.3733 V 1003.3252 Q 145.73096,1001.317 144.83446,999.99017 143.93796,998.62749 141.85808,998.62749 Z"
   id="kpt4-tspan5046"
   style="font-size:35.86px;line-height:125%;font-family:'Bebas Neue';-inkscape-font-specification:'Bebas Neue';stroke:#ffffff"
   transform="scale(1.120617,0.89236552)"
   aria-label="6" />
  </g>
  <g
     style="font-style:normal;font-variant:normal;font-weight:normal;font-stretch:normal;font-size:32px;line-height:125%;font-family:'Droid Sans';-inkscape-font-specification:'Droid Sans';letter-spacing:0px;word-spacing:0px;fill:#ffffff;fill-opacity:1;stroke:none;stroke-width:1.10327"
     id="kpt4-text5056"
     xml:space="preserve"
     transform="matrix(0.99015695,0,0,0.82968615,10.26759,-573.65188)">
   <path
   d="M 141.90019,1043.5529 Q 143.33459,1043.5529 144.37453,1044.0549 145.45033,1044.5211 146.09581,1045.3817 146.77715,1046.2065 147.09989,1047.3899 147.42263,1048.5374 147.42263,1049.9359 V 1062.7021 Q 147.42263,1064.1006 147.09989,1065.284 146.81301,1066.4674 146.13167,1067.328 145.45033,1068.1528 144.41039,1068.6549 143.37045,1069.121 141.90019,1069.121 140.46579,1069.121 139.42585,1068.6549 138.38591,1068.1887 137.70457,1067.3639 137.05909,1066.5391 136.73635,1065.3916 136.41361,1064.2082 136.41361,1062.8455 V 1062.5228 H 137.99145 V 1062.9173 Q 137.99145,1064.9613 138.88795,1066.2881 139.78445,1067.6149 141.86433,1067.6149 143.98007,1067.6149 144.87657,1066.2522 145.77307,1064.8896 145.77307,1062.6304 V 1056.4625 Q 145.16345,1057.861 144.08765,1058.5065 143.01185,1059.1161 141.32643,1059.1161 139.99961,1059.1161 139.06725,1058.6499 138.13489,1058.1837 137.52527,1057.3948 136.95151,1056.57 136.66463,1055.4584 136.37775,1054.3109 136.37775,1052.984 V 1049.9359 Q 136.37775,1048.5374 136.70049,1047.3899 137.02323,1046.2065 137.70457,1045.3817 138.38591,1044.5211 139.42585,1044.0549 140.46579,1043.5529 141.90019,1043.5529 Z M 141.90019,1045.0948 Q 139.82031,1045.0948 138.92381,1046.4575 138.02731,1047.7843 138.02731,1049.8284 V 1052.8765 Q 138.02731,1054.9205 138.92381,1056.2832 139.82031,1057.61 141.90019,1057.61 143.98007,1057.61 144.87657,1056.2832 145.77307,1054.9205 145.77307,1052.8765 V 1049.8284 Q 145.77307,1047.7843 144.87657,1046.4575 143.98007,1045.0948 141.90019,1045.0948 Z"
   id="kpt4-tspan5058"
   style="font-size:35.86px;line-height:125%;font-family:'Bebas Neue';-inkscape-font-specification:'Bebas Neue';stroke:#ffffff"
   transform="scale(1.120617,0.89236552)"
   aria-label="9" />
  </g>
  <g
     style="font-style:normal;font-variant:normal;font-weight:normal;font-stretch:normal;font-size:32px;line-height:125%;font-family:'Droid Sans';-inkscape-font-specification:'Droid Sans';letter-spacing:0px;word-spacing:0px;fill:#ffffff;fill-opacity:1;stroke:none;stroke-width:1.10327"
     id="kpt4-text5064"
     xml:space="preserve"
     transform="matrix(0.99015695,0,0,0.82968615,11.42715,-560.69742)">
   <path
   d="M 144.87147,1108.0483 144.01083,1116.1885 H 146.19829 L 146.09071,1117.4077 H 143.90325 L 143.04261,1125.3687 H 141.64407 L 142.50471,1117.4077 H 138.27323 L 137.44845,1125.3687 H 136.04991 L 136.91055,1117.4077 H 134.54379 L 134.65137,1116.1885 H 137.01813 L 137.87877,1108.0483 H 135.47615 L 135.58373,1106.829 H 137.98635 L 138.66769,1100.2308 H 140.06623 L 139.38489,1106.829 H 143.58051 L 144.26185,1100.2308 H 145.66039 L 144.97905,1106.829 H 147.16651 L 147.05893,1108.0483 Z M 143.47293,1108.0483 H 139.24145 L 138.41667,1116.1885 H 142.61229 Z"
   id="kpt4-tspan5066"
   style="font-size:35.86px;line-height:125%;font-family:'Bebas Neue';-inkscape-font-specification:'Bebas Neue';stroke:#ffffff"
   transform="scale(1.120617,0.89236552)"
   aria-label="#" />
  </g>
  <rect
     width="32.865002"
     x="202.56026"
     y="82.492577"
     ry="2"
     height="32.865391"
     style="fill:url(#kpt4-linearGradient16);fill-opacity:1;stroke:none;stroke-width:1.13461;filter:url(#kpt4-filter9-7-4)"
     id="kpt4-rect4577-824-5-8"
     rx="2" />
  <rect
     width="32.865002"
     x="502.22379"
     y="84.858192"
     ry="2.2043536"
     height="32.865391"
     style="fill:url(#kpt4-radialGradient19-1-82);stroke:none;stroke-width:1.25054;filter:url(#kpt4-filter9-7-4)"
     id="kpt4-rect15-4-9"
     rx="2.2043536"
     transform="matrix(0.90729551,0,0,0.90729551,-251.58175,7.1247505)" />
  <rect
     width="32.865002"
     x="202.56026"
     y="137.25113"
     ry="2"
     height="32.865391"
     style="fill:url(#kpt4-linearGradient18);fill-opacity:1;stroke:none;stroke-width:1.13461;filter:url(#kpt4-filter9-7-0-1)"
     id="kpt4-rect4577-824-5-0-7"
     rx="2" />
  <rect
     width="32.865002"
     x="502.22379"
     y="84.858192"
     ry="2.2043536"
     height="32.865391"
     style="fill:url(#kpt4-radialGradient19-1-8-5);stroke:none;stroke-width:1.25054;filter:url(#kpt4-filter9-7-0-1)"
     id="kpt4-rect15-4-6-9"
     rx="2.2043536"
     transform="matrix(0.90729551,0,0,0.90729551,-251.58175,61.883302)" />
  <rect
     width="32.865002"
     x="202.56026"
     y="192.00967"
     ry="2"
     height="32.865391"
     style="fill:url(#kpt4-linearGradient19);fill-opacity:1;stroke:none;stroke-width:1.13461;filter:url(#kpt4-filter9-7-3-6)"
     id="kpt4-rect4577-824-5-2-4"
     rx="2" />
  <rect
     width="32.865002"
     x="502.22379"
     y="84.858192"
     ry="2.2043536"
     height="32.865391"
     style="fill:url(#kpt4-radialGradient19-1-9-4);stroke:none;stroke-width:1.25054;filter:url(#kpt4-filter9-7-3-6)"
     id="kpt4-rect15-4-0-3"
     rx="2.2043536"
     transform="matrix(0.90729551,0,0,0.90729551,-251.58175,116.64186)" />
  <rect
     width="32.865002"
     x="202.56026"
     y="246.76823"
     ry="2"
     height="32.865391"
     style="fill:url(#kpt4-linearGradient1-3);fill-opacity:1;stroke:none;stroke-width:1.13461;filter:url(#kpt4-filter9-7-1-1)"
     id="kpt4-rect4577-824-5-26-2"
     rx="2" />
  <rect
     width="32.865002"
     x="502.22379"
     y="84.858192"
     ry="2.2043536"
     height="32.865391"
     style="fill:url(#kpt4-radialGradient19-1-7-8);stroke:none;stroke-width:1.25054;filter:url(#kpt4-filter9-7-1-1)"
     id="kpt4-rect15-4-60-3"
     rx="2.2043536"
     transform="matrix(0.90729551,0,0,0.90729551,-251.58175,171.40041)" />
  <g
     id="kpt4-g19"
     transform="translate(-448.65656,-0.842235)">
    <rect
       width="32.865002"
       x="500.70041"
       y="83.334808"
       ry="2"
       height="32.865391"
       style="fill:url(#kpt4-linearGradient2);fill-opacity:1;stroke:none;stroke-width:1.13461;filter:url(#kpt4-filter9)"
       id="kpt4-rect4577-824"
       rx="2" />
    <rect
       width="32.865002"
       x="502.22379"
       y="84.858192"
       ry="2.2043536"
       height="32.865391"
       style="fill:url(#kpt4-radialGradient19);stroke:none;stroke-width:1.25054;filter:url(#kpt4-filter9)"
       id="kpt4-rect15"
       rx="2.2043536"
       transform="matrix(0.90729551,0,0,0.90729551,46.558402,7.9669855)" />
  </g>
  <g
     id="kpt4-g19-24"
     transform="translate(-450.31143,53.916316)">
    <rect
       width="32.865002"
       x="500.70041"
       y="83.334808"
       ry="2"
       height="32.865391"
       style="fill:url(#kpt4-linearGradient8);fill-opacity:1;stroke:none;stroke-width:1.13461;filter:url(#kpt4-filter9-4)"
       id="kpt4-rect4577-824-8"
       rx="2" />
    <rect
       width="32.865002"
       x="502.22379"
       y="84.858192"
       ry="2.2043536"
       height="32.865391"
       style="fill:url(#kpt4-radialGradient19-13);stroke:none;stroke-width:1.25054;filter:url(#kpt4-filter9-4)"
       id="kpt4-rect15-6"
       rx="2.2043536"
       transform="matrix(0.90729551,0,0,0.90729551,46.558402,7.9669855)" />
  </g>
  <g
     id="kpt4-g19-0"
     transform="translate(-448.65656,108.67487)">
    <rect
       width="32.865002"
       x="500.70041"
       y="83.334808"
       ry="2"
       height="32.865391"
       style="fill:url(#kpt4-linearGradient7);fill-opacity:1;stroke:none;stroke-width:1.13461;filter:url(#kpt4-filter9-44)"
       id="kpt4-rect4577-824-7"
       rx="2" />
    <rect
       width="32.865002"
       x="502.22379"
       y="84.858192"
       ry="2.2043536"
       height="32.865391"
       style="fill:url(#kpt4-radialGradient19-6);stroke:none;stroke-width:1.25054;filter:url(#kpt4-filter9-44)"
       id="kpt4-rect15-63"
       rx="2.2043536"
       transform="matrix(0.90729551,0,0,0.90729551,46.558402,7.9669855)" />
  </g>
  <g
     id="kpt4-g19-3"
     transform="translate(-448.65656,163.43342)">
    <rect
       width="32.865002"
       x="500.70041"
       y="83.334808"
       ry="2"
       height="32.865391"
       style="fill:url(#kpt4-linearGradient13);fill-opacity:1;stroke:none;stroke-width:1.13461;filter:url(#kpt4-filter9-6)"
       id="kpt4-rect4577-824-35"
       rx="2" />
    <rect
       width="32.865002"
       x="502.22379"
       y="84.858192"
       ry="2.2043536"
       height="32.865391"
       style="fill:url(#kpt4-radialGradient19-16);stroke:none;stroke-width:1.25054;filter:url(#kpt4-filter9-6)"
       id="kpt4-rect15-9"
       rx="2.2043536"
       transform="matrix(0.90729551,0,0,0.90729551,46.558402,7.9669855)" />
  </g>
  <g
     style="font-style:normal;font-variant:normal;font-weight:normal;font-stretch:normal;font-size:32px;line-height:125%;font-family:'Droid Sans';-inkscape-font-specification:'Droid Sans';letter-spacing:0px;word-spacing:0px;fill:#ffffff;fill-opacity:1;stroke:none;stroke-width:1.10327"
     id="kpt4-text5020"
     xml:space="preserve"
     transform="matrix(0.99015695,0,0,0.82968615,23.67814,-599.54055)">
   <path
   d="M 41.503386,933.64808 Q 40.822046,934.54458 39.817966,935.11834 38.849746,935.65624 37.594646,935.76382 V 934.32942 Q 39.459366,934.18598 40.391726,933.21776 41.359946,932.21368 41.861986,930.81514 H 43.152946 V 955.953 H 41.503386 Z"
   id="kpt4-tspan5022"
   style="font-size:35.86px;line-height:125%;font-family:'Bebas Neue';-inkscape-font-specification:'Bebas Neue';stroke:#ffffff"
   transform="scale(1.120617,0.89236552)"
   aria-label="1" />
  </g>
  <g
     style="font-style:normal;font-variant:normal;font-weight:normal;font-stretch:normal;font-size:32px;line-height:125%;font-family:'Droid Sans';-inkscape-font-specification:'Droid Sans';letter-spacing:0px;word-spacing:0px;fill:#ffffff;fill-opacity:1;stroke:none;stroke-width:1.10327"
     id="kpt4-text5036"
     xml:space="preserve"
     transform="matrix(0.99015695,0,0,0.82968615,21.74289,-586.64475)">
   <path
   d="M 44.660704,1006.9367 V 1012.495 H 43.047003 V 1006.9367 H 34.476463 V 1005.3947 L 42.795983,987.35713 H 44.660704 V 1005.4306 H 46.776444 V 1006.9367 Z M 35.982583,1005.4306 H 43.047003 V 990.44109 Z"
   id="kpt4-tspan5038"
   style="font-size:35.86px;line-height:125%;font-family:'Bebas Neue';-inkscape-font-specification:'Bebas Neue';stroke:#ffffff"
   transform="scale(1.120617,0.89236552)"
   aria-label="4" />
  </g>
  <g
     style="font-style:normal;font-variant:normal;font-weight:normal;font-stretch:normal;font-size:32px;line-height:125%;font-family:'Droid Sans';-inkscape-font-specification:'Droid Sans';letter-spacing:0px;word-spacing:0px;fill:#ffffff;fill-opacity:1;stroke:none;stroke-width:1.10327"
     id="kpt4-text5048"
     xml:space="preserve"
     transform="matrix(0.99015695,0,0,0.82968615,24.03206,-573.64528)">
   <path
   d="M 43.820111,1045.3011 H 34.604091 V 1043.7591 H 45.505531 V 1045.2652 L 38.441111,1068.897 H 36.755691 Z"
   id="kpt4-tspan5050"
   style="font-size:35.86px;line-height:125%;font-family:'Bebas Neue';-inkscape-font-specification:'Bebas Neue';stroke:#ffffff"
   transform="scale(1.120617,0.89236552)"
   aria-label="7" />
  </g>
  <path
     d="M 69.112949,263.85757 72.892978,268.85652 71.659494,269.83089 68.476311,264.36594 65.293138,269.78853 64.019861,268.85652 67.839682,263.85757 61.950793,262.37483 62.42827,260.80736 68.07842,263.05265 67.68052,256.57095 H 69.232319 L 68.874211,263.05265 74.524352,260.89209 75.001829,262.45956 Z"
     id="kpt4-tspan5070"
     style="font-size:41.0567px;line-height:125%;font-family:'Bebas Neue';-inkscape-font-specification:'Bebas Neue';letter-spacing:0px;word-spacing:0px;fill:#ffffff;stroke:#ffffff;stroke-width:0.999979"
     aria-label="*" />
  <path
     d="M 215.46478,104.2551 214.35287,108.39455 H 213.01856 L 217.87926,89.673555 H 220.00778 L 224.96379,108.39455 H 223.50239 L 222.39048,104.2551 Z M 215.68717,103.18686 H 222.16809 L 218.89586,91.08898 Z"
     id="kpt4-text19"
     style="font-size:31.3514px;line-height:1;font-family:'Bebas Neue';-inkscape-font-specification:'Bebas Neue';fill:#ffffff;stroke:#ffffff;stroke-width:0.999996;stroke-linecap:round"
     aria-label="A" />
  <path
     d="M 218.81096,144.42357 Q 222.00253,144.42357 223.2953,145.43985 224.58808,146.45613 224.58808,148.40848 V 149.47824 Q 224.58808,151.00266 223.7801,151.93872 223.01251,152.87477 220.87135,153.16895 223.17411,153.46314 224.14369,154.53291 225.11327,155.57594 225.11327,157.1806 V 158.81199 Q 225.11327,160.84456 223.65889,161.99457 222.20452,163.14457 218.93217,163.14457 H 212.87227 V 144.42357 Z M 217.88179,152.68755 Q 219.13417,152.68755 220.02296,152.55383 220.95215,152.42012 221.55813,152.09918 222.16412,151.7515 222.44692,151.18987 222.72971,150.6015 222.72971,149.71893 V 148.51545 Q 222.72971,147.04451 221.88132,146.29568 221.03293,145.54683 218.77058,145.54683 H 214.73064 V 152.68755 Z M 218.93217,162.02131 Q 221.27533,162.02131 222.24492,161.19224 223.25491,160.36316 223.25491,158.78525 V 157.10036 Q 223.25491,155.28175 222.00253,154.55966 220.75014,153.81082 218.24537,153.81082 H 214.73064 V 162.02131 Z"
     id="kpt4-text19-7"
     style="font-size:31.3514px;line-height:1;font-family:'Bebas Neue';-inkscape-font-specification:'Bebas Neue';fill:#ffffff;stroke:#ffffff;stroke-width:0.999998;stroke-linecap:round"
     aria-label="B" />
  <path
     d="M 218.99278,199.18213 Q 220.6141,199.18213 221.74902,199.55025 222.92448,199.89206 223.65408,200.5231 224.4242,201.12785 224.74848,201.99555 225.11327,202.83693 225.11327,203.83609 V 205.36112 H 223.32983 V 203.75721 Q 223.32983,203.02099 223.08661,202.38995 222.88394,201.7589 222.35701,201.28562 221.83008,200.81233 221.01943,200.5494 220.20877,200.28646 219.03331,200.28646 217.85784,200.28646 217.04718,200.5494 216.23653,200.81233 215.70958,201.28562 215.18265,201.7589 214.93946,202.38995 214.73679,203.02099 214.73679,203.75721 V 213.32805 Q 214.73679,214.06428 214.93946,214.69532 215.18265,215.32637 215.70958,215.79965 216.23653,216.24664 217.04718,216.50958 217.85784,216.77251 219.03331,216.77251 220.20877,216.77251 221.01943,216.50958 221.83008,216.24664 222.35701,215.79965 222.88394,215.32637 223.08661,214.69532 223.32983,214.06428 223.32983,213.32805 V 211.14569 H 225.11327 V 213.24918 Q 225.11327,214.24833 224.74848,215.11602 224.4242,215.95742 223.65408,216.58845 222.92448,217.19322 221.74902,217.56132 220.6141,217.90313 218.99278,217.90313 217.37145,217.90313 216.19599,217.56132 215.06106,217.19322 214.29093,216.58845 213.56134,215.95742 213.19655,215.11602 212.87227,214.24833 212.87227,213.24918 V 203.83609 Q 212.87227,202.83693 213.19655,201.99555 213.56134,201.12785 214.29093,200.5231 215.06106,199.89206 216.19599,199.55025 217.37145,199.18213 218.99278,199.18213 Z"
     id="kpt4-text19-1"
     style="font-size:31.3514px;line-height:1;font-family:'Bebas Neue';-inkscape-font-specification:'Bebas Neue';fill:#ffffff;stroke:#ffffff;stroke-width:0.999999;stroke-linecap:round"
     aria-label="C" />
  <path
     d="M 218.97296,253.94068 Q 220.55756,253.94068 221.70638,254.28836 222.89482,254.60928 223.64749,255.22441 224.40018,255.83953 224.75671,256.69534 225.11327,257.55116 225.11327,258.59418 V 268.00818 Q 225.11327,269.05121 224.75671,269.90702 224.40018,270.76284 223.64749,271.37795 222.89482,271.99308 221.70638,272.34075 220.55756,272.66168 218.97296,272.66168 H 212.87227 V 253.94068 Z M 218.93335,271.53842 Q 221.27061,271.53842 222.26099,270.57563 223.29097,269.61283 223.29097,268.06167 V 258.5407 Q 223.29097,256.98953 222.26099,256.02674 221.231,255.06394 218.93335,255.06394 H 214.69456 V 271.53842 Z"
     id="kpt4-text19-5"
     style="font-size:31.3514px;line-height:1;font-family:'Bebas Neue';-inkscape-font-specification:'Bebas Neue';fill:#ffffff;stroke:#ffffff;stroke-width:0.999996;stroke-linecap:round"
     aria-label="D" />
  <path
     id="kpt4-circle2-2"
     style="fill:#ffbf00;fill-opacity:1;stroke:none;stroke-width:1.44"
     d="M 179.9375,317.04317 A 3,2.9998691 0 0 0 176.9375,320.04317 3,2.9998691 0 0 0 179.9375,323.04317 3,2.9998691 0 0 0 182.9375,320.04317 3,2.9998691 0 0 0 179.9375,317.04317 Z M 179.9375,318.59395 A 1.4499999,1.4499367 0 0 1 181.38672,320.04317 1.4499999,1.4499367 0 0 1 179.9375,321.49239 1.4499999,1.4499367 0 0 1 178.48828,320.04317 1.4499999,1.4499367 0 0 1 179.9375,318.59395 Z" />
  <circle
     id="kpt4-pin-R1"
     cx="110"
     cy="320"
     r="3.2"
     fill="#ee0000"
     fill-opacity="0.85"
     stroke="#770000"
     stroke-width="0.5"
     style="opacity:0.947" />
  <circle
     id="kpt4-pin-R2"
     cx="120"
     cy="320"
     r="3.2"
     fill="#ee0000"
     fill-opacity="0.85"
     stroke="#770000"
     stroke-width="0.5"
     style="opacity:0.947" />
  <circle
     id="kpt4-pin-R3"
     cx="130"
     cy="320"
     r="3.2"
     fill="#ee0000"
     fill-opacity="0.85"
     stroke="#770000"
     stroke-width="0.5"
     style="opacity:0.947" />
  <circle
     id="kpt4-pin-R4"
     cx="140"
     cy="320"
     r="3.2"
     fill="#ee0000"
     fill-opacity="0.85"
     stroke="#770000"
     stroke-width="0.5"
     style="opacity:0.947" />
  <circle
     id="kpt4-pin-C1"
     cx="150"
     cy="320"
     r="3.2"
     fill="#ee0000"
     fill-opacity="0.85"
     stroke="#770000"
     stroke-width="0.5"
     style="opacity:0.947" />
  <circle
     id="kpt4-pin-C2"
     cx="160"
     cy="320"
     r="3.2"
     fill="#ee0000"
     fill-opacity="0.85"
     stroke="#770000"
     stroke-width="0.5"
     style="opacity:0.947" />
  <circle
     id="kpt4-pin-C3"
     cx="170"
     cy="320"
     r="3.2"
     fill="#ee0000"
     fill-opacity="0.85"
     stroke="#770000"
     stroke-width="0.5"
     style="opacity:0.947" />
  <circle
     id="kpt4-pin-C4"
     cx="180"
     cy="320"
     r="3.2"
     fill="#ee0000"
     fill-opacity="0.85"
     stroke="#770000"
     stroke-width="0.5"
     style="opacity:0.947" />
  <text
     x="110"
     y="315"
     font-size="5px"
     fill="#aa0000"
     text-anchor="middle"
     font-family="sans-serif"
     id="kpt4-text117"
     style="opacity:0.947">R1</text>
  <text
     x="120"
     y="315"
     font-size="5px"
     fill="#aa0000"
     text-anchor="middle"
     font-family="sans-serif"
     id="kpt4-text118"
     style="opacity:0.947">R2</text>
  <text
     x="130"
     y="315"
     font-size="5px"
     fill="#aa0000"
     text-anchor="middle"
     font-family="sans-serif"
     id="kpt4-text119"
     style="opacity:0.947">R3</text>
  <text
     x="140"
     y="315"
     font-size="5px"
     fill="#aa0000"
     text-anchor="middle"
     font-family="sans-serif"
     id="kpt4-text120"
     style="opacity:0.947">R4</text>
  <text
     x="150"
     y="315"
     font-size="5px"
     fill="#aa0000"
     text-anchor="middle"
     font-family="sans-serif"
     id="kpt4-text121"
     style="opacity:0.947">C1</text>
  <text
     x="160"
     y="315"
     font-size="5px"
     fill="#aa0000"
     text-anchor="middle"
     font-family="sans-serif"
     id="kpt4-text122"
     style="opacity:0.947">C2</text>
  <text
     x="170"
     y="315"
     font-size="5px"
     fill="#aa0000"
     text-anchor="middle"
     font-family="sans-serif"
     id="kpt4-text123"
     style="opacity:0.947">C3</text>
  <text
     x="180"
     y="315"
     font-size="5px"
     fill="#aa0000"
     text-anchor="middle"
     font-family="sans-serif"
     id="kpt4-text124"
     style="opacity:0.947">C4</text>
</svg>
