<svg
   viewBox="0 0 220 330"
   version="1.1"
   id="kpt3-svg109"
   xmlns:xlink="http://www.w3.org/1999/xlink"
   xmlns="http://www.w3.org/2000/svg">
  <defs
     id="kpt3-defs109">
<defs
   id="kpt3-defs72">
  <pattern
     id="kpt3-wires"
     width="2.54"
     height="8"
     patternUnits="userSpaceOnUse">
    <rect
       width="2.54"
       height="8"
       fill="#eee"
       id="kpt3-rect64" />
    <rect
       x="0.77"
       width="1"
       height="6"
       fill="#d9d5bc"
       id="kpt3-rect65" />
    <circle
       cx="1.27"
       cy="6"
       r="0.75"
       fill="#d9d5bc"
       id="kpt3-circle65" />
    <rect
       x="0.52"
       y="6"
       width="1.5"
       height="2"
       fill="#d9d5bc"
       id="kpt3-rect66" />
  </pattern>
  <pattern
     id="kpt3-wires-marks"
     width="2.54"
     height="8"
     patternUnits="userSpaceOnUse">
    <rect
       x="0.52"
       y="6"
       width="1.5"
       height="2"
       fill="#746d41"
       id="kpt3-rect67" />
  </pattern>
  
  <pattern
     id="kpt3-pins-female"
     width="2.54"
     height="2.54"
     patternUnits="userSpaceOnUse">
    <rect
       x="0"
       y="0"
       width="2.54"
       height="2.54"
       fill="#333"
       id="kpt3-rect68" />
    <rect
       x="1.079"
       y="0.896"
       width="0.762"
       height="0.762"
       style="fill: #191919"
       id="kpt3-rect69" />
    <path
       transform="translate(1.079, 1.658) rotate(180 0 0)"
       d="m 0 0 v 0.762 l 0.433,0.433 c 0.046,-0.046 0.074,-0.109 0.074,-0.179 v -1.27 c 0,-0.070 -0.028,-0.133 -0.074,-0.179 z"
       style="opacity: 0.25"
       id="kpt3-path69" />
    <path
       transform="translate(1.841, 1.658) rotate(90 0 0)"
       d="m 0 0 v 0.762 l 0.433,0.433 c 0.046,-0.046 0.074,-0.109 0.074,-0.179 v -1.27 c 0,-0.070 -0.028,-0.133 -0.074,-0.179 z"
       style="opacity: 0.3; fill: #fff"
       id="kpt3-path70" />
    <path
       transform="translate(1.841, 0.896)"
       d="m 0 0 v 0.762 l 0.433,0.433 c 0.046,-0.046 0.074,-0.109 0.074,-0.179 v -1.27 c 0,-0.070 -0.028,-0.133 -0.074,-0.179 z"
       style="opacity: 0.15; fill: #fff"
       id="kpt3-path71" />
    <path
       transform="translate(1.079, 0.896) rotate(270 0 0)"
       d="m 0 0 v 0.762 l 0.433,0.433 c 0.046,-0.046 0.074,-0.109 0.074,-0.179 v -1.27 c 0,-0.070 -0.028,-0.133 -0.074,-0.179 z"
       style="opacity: 0.35"
       id="kpt3-path72" />
  </pattern>
  <filter
     id="kpt3-shadow">
    <feDropShadow
       dx="0"
       dy="0"
       stdDeviation="0.5"
       flood-color="#ffff99" />
  </filter>
</defs>

false
        

<linearGradient
   xlink:href="#kpt3-linearGradient26"
   id="kpt3-linearGradient27"
   x1="261.40884"
   y1="59.078766"
   x2="466.11627"
   y2="320.7941"
   gradientUnits="userSpaceOnUse"
   gradientTransform="translate(-254.95312,-9.800315)" />
<linearGradient
   id="kpt3-linearGradient26">
  <stop
     style="stop-color:#2b2b2b;stop-opacity:1;"
     offset="0"
     id="kpt3-stop26" />
  <stop
     style="stop-color:#090909;stop-opacity:1;"
     offset="1"
     id="kpt3-stop27" />
</linearGradient>
<linearGradient
   gradientTransform="matrix(1.0989448,0,0,1.0988969,4.87999,-826.42976)"
   xlink:href="#kpt3-linearGradient6581"
   id="kpt3-linearGradient4336"
   y1="980.17365"
   x1="29.102362"
   y2="838.81934"
   gradientUnits="userSpaceOnUse"
   x2="150.80315" />
<linearGradient
   id="kpt3-linearGradient6581">
  <stop
     offset="0"
     style="stop-color:#000000;stop-opacity:1;"
     id="kpt3-stop6583" />
  <stop
     offset="1"
     style="stop-color:#000000;stop-opacity:0;"
     id="kpt3-stop6585" />
</linearGradient>
<linearGradient
   xlink:href="#kpt3-linearGradient15"
   id="kpt3-linearGradient16"
   x1="502.07037"
   y1="83.806641"
   x2="533.69537"
   y2="116.29086"
   gradientUnits="userSpaceOnUse" />
<linearGradient
   id="kpt3-linearGradient15">
  <stop
     style="stop-color:#575757;stop-opacity:1;"
     offset="0"
     id="kpt3-stop15" />
  <stop
     style="stop-color:#000000;stop-opacity:1;"
     offset="1"
     id="kpt3-stop16" />
</linearGradient>
<filter
   style="color-interpolation-filters:sRGB"
   id="kpt3-filter9"
   x="-0.0027648327"
   y="-0.0027648"
   width="1.0055297"
   height="1.0055296">
  <feGaussianBlur
     stdDeviation="0.03786093"
     id="kpt3-feGaussianBlur9" />
</filter>
<radialGradient
   xlink:href="#kpt3-linearGradient17"
   id="kpt3-radialGradient19"
   cx="517.29242"
   cy="98.758011"
   fx="517.29242"
   fy="98.758011"
   r="16.523367"
   gradientTransform="matrix(1,0,0,1.0000118,0,-0.00119921)"
   gradientUnits="userSpaceOnUse" />
<linearGradient
   id="kpt3-linearGradient17">
  <stop
     style="stop-color:#424242;stop-opacity:1;"
     offset="0"
     id="kpt3-stop17" />
  <stop
     style="stop-color:#1a1a1a;stop-opacity:1;"
     offset="1"
     id="kpt3-stop18" />
</linearGradient>
<filter
   style="color-interpolation-filters:sRGB"
   id="kpt3-filter9-1"
   x="-0.0027648327"
   y="-0.0027648"
   width="1.0055297"
   height="1.0055296">
  <feGaussianBlur
     stdDeviation="0.03786093"
     id="kpt3-feGaussianBlur9-5" />
</filter>
<radialGradient
   xlink:href="#kpt3-linearGradient17"
   id="kpt3-radialGradient19-2"
   cx="517.29242"
   cy="98.758011"
   fx="517.29242"
   fy="98.758011"
   r="16.523367"
   gradientTransform="matrix(1,0,0,1.0000118,0,-0.00119921)"
   gradientUnits="userSpaceOnUse" />
<filter
   style="color-interpolation-filters:sRGB"
   id="kpt3-filter9-7"
   x="-0.0027648327"
   y="-0.0027648"
   width="1.0055297"
   height="1.0055296">
  <feGaussianBlur
     stdDeviation="0.03786093"
     id="kpt3-feGaussianBlur9-6" />
</filter>
<radialGradient
   xlink:href="#kpt3-linearGradient17"
   id="kpt3-radialGradient19-1"
   cx="517.29242"
   cy="98.758011"
   fx="517.29242"
   fy="98.758011"
   r="16.523367"
   gradientTransform="matrix(1,0,0,1.0000118,0,-0.00119921)"
   gradientUnits="userSpaceOnUse" />
<filter
   style="color-interpolation-filters:sRGB"
   id="kpt3-filter9-4"
   x="-0.0027648327"
   y="-0.0027648"
   width="1.0055297"
   height="1.0055296">
  <feGaussianBlur
     stdDeviation="0.03786093"
     id="kpt3-feGaussianBlur9-1" />
</filter>
<radialGradient
   xlink:href="#kpt3-linearGradient17"
   id="kpt3-radialGradient19-13"
   cx="517.29242"
   cy="98.758011"
   fx="517.29242"
   fy="98.758011"
   r="16.523367"
   gradientTransform="matrix(1,0,0,1.0000118,0,-0.00119921)"
   gradientUnits="userSpaceOnUse" />
<filter
   style="color-interpolation-filters:sRGB"
   id="kpt3-filter9-1-7"
   x="-0.0027648327"
   y="-0.0027648"
   width="1.0055297"
   height="1.0055296">
  <feGaussianBlur
     stdDeviation="0.03786093"
     id="kpt3-feGaussianBlur9-5-9" />
</filter>
<radialGradient
   xlink:href="#kpt3-linearGradient17"
   id="kpt3-radialGradient19-2-3"
   cx="517.29242"
   cy="98.758011"
   fx="517.29242"
   fy="98.758011"
   r="16.523367"
   gradientTransform="matrix(1,0,0,1.0000118,0,-0.00119921)"
   gradientUnits="userSpaceOnUse" />
<linearGradient
   id="kpt3-linearGradient22"
   gradientTransform="scale(0.99999408,1.0000059)"
   x1="500.61251"
   y1="83.243449"
   x2="533.65944"
   y2="83.243449"
   gradientUnits="userSpaceOnUse">
  <stop
     style="stop-color:#424242;stop-opacity:1;"
     offset="0"
     id="kpt3-stop19" />
  <stop
     style="stop-color:#1a1a1a;stop-opacity:1;"
     offset="1"
     id="kpt3-stop20" />
</linearGradient>
<linearGradient
   id="kpt3-linearGradient23"
   gradientTransform="scale(0.99999408,1.0000059)"
   x1="500.61251"
   y1="83.243449"
   x2="533.65944"
   y2="83.243449"
   gradientUnits="userSpaceOnUse">
  <stop
     style="stop-color:#575757;stop-opacity:1;"
     offset="0"
     id="kpt3-stop22" />
  <stop
     style="stop-color:#000000;stop-opacity:1;"
     offset="1"
     id="kpt3-stop23" />
</linearGradient>
<filter
   style="color-interpolation-filters:sRGB"
   id="kpt3-filter9-7-0"
   x="-0.0027648327"
   y="-0.0027648"
   width="1.0055297"
   height="1.0055296">
  <feGaussianBlur
     stdDeviation="0.03786093"
     id="kpt3-feGaussianBlur9-6-2" />
</filter>
<radialGradient
   xlink:href="#kpt3-linearGradient17"
   id="kpt3-radialGradient19-1-8"
   cx="517.29242"
   cy="98.758011"
   fx="517.29242"
   fy="98.758011"
   r="16.523367"
   gradientTransform="matrix(1,0,0,1.0000118,0,-0.00119921)"
   gradientUnits="userSpaceOnUse" />
<filter
   style="color-interpolation-filters:sRGB"
   id="kpt3-filter9-44"
   x="-0.0027648327"
   y="-0.0027648"
   width="1.0055297"
   height="1.0055296">
  <feGaussianBlur
     stdDeviation="0.03786093"
     id="kpt3-feGaussianBlur9-60" />
</filter>
<radialGradient
   xlink:href="#kpt3-linearGradient17"
   id="kpt3-radialGradient19-6"
   cx="517.29242"
   cy="98.758011"
   fx="517.29242"
   fy="98.758011"
   r="16.523367"
   gradientTransform="matrix(1,0,0,1.0000118,0,-0.00119921)"
   gradientUnits="userSpaceOnUse" />
<filter
   style="color-interpolation-filters:sRGB"
   id="kpt3-filter9-1-6"
   x="-0.0027648327"
   y="-0.0027648"
   width="1.0055297"
   height="1.0055296">
  <feGaussianBlur
     stdDeviation="0.03786093"
     id="kpt3-feGaussianBlur9-5-3" />
</filter>
<radialGradient
   xlink:href="#kpt3-linearGradient17"
   id="kpt3-radialGradient19-2-7"
   cx="517.29242"
   cy="98.758011"
   fx="517.29242"
   fy="98.758011"
   r="16.523367"
   gradientTransform="matrix(1,0,0,1.0000118,0,-0.00119921)"
   gradientUnits="userSpaceOnUse" />
<filter
   style="color-interpolation-filters:sRGB"
   id="kpt3-filter9-7-3"
   x="-0.0027648327"
   y="-0.0027648"
   width="1.0055297"
   height="1.0055296">
  <feGaussianBlur
     stdDeviation="0.03786093"
     id="kpt3-feGaussianBlur9-6-5" />
</filter>
<radialGradient
   xlink:href="#kpt3-linearGradient17"
   id="kpt3-radialGradient19-1-9"
   cx="517.29242"
   cy="98.758011"
   fx="517.29242"
   fy="98.758011"
   r="16.523367"
   gradientTransform="matrix(1,0,0,1.0000118,0,-0.00119921)"
   gradientUnits="userSpaceOnUse" />
<filter
   style="color-interpolation-filters:sRGB"
   id="kpt3-filter9-6"
   x="-0.0027648327"
   y="-0.0027648"
   width="1.0055297"
   height="1.0055296">
  <feGaussianBlur
     stdDeviation="0.03786093"
     id="kpt3-feGaussianBlur9-0" />
</filter>
<radialGradient
   xlink:href="#kpt3-linearGradient17"
   id="kpt3-radialGradient19-16"
   cx="517.29242"
   cy="98.758011"
   fx="517.29242"
   fy="98.758011"
   r="16.523367"
   gradientTransform="matrix(1,0,0,1.0000118,0,-0.00119921)"
   gradientUnits="userSpaceOnUse" />
<filter
   style="color-interpolation-filters:sRGB"
   id="kpt3-filter9-1-2"
   x="-0.0027648327"
   y="-0.0027648"
   width="1.0055297"
   height="1.0055296">
  <feGaussianBlur
     stdDeviation="0.03786093"
     id="kpt3-feGaussianBlur9-5-0" />
</filter>
<radialGradient
   xlink:href="#kpt3-linearGradient17"
   id="kpt3-radialGradient19-2-0"
   cx="517.29242"
   cy="98.758011"
   fx="517.29242"
   fy="98.758011"
   r="16.523367"
   gradientTransform="matrix(1,0,0,1.0000118,0,-0.00119921)"
   gradientUnits="userSpaceOnUse" />
<filter
   style="color-interpolation-filters:sRGB"
   id="kpt3-filter9-7-1"
   x="-0.0027648327"
   y="-0.0027648"
   width="1.0055297"
   height="1.0055296">
  <feGaussianBlur
     stdDeviation="0.03786093"
     id="kpt3-feGaussianBlur9-6-7" />
</filter>
<radialGradient
   xlink:href="#kpt3-linearGradient17"
   id="kpt3-radialGradient19-1-7"
   cx="517.29242"
   cy="98.758011"
   fx="517.29242"
   fy="98.758011"
   r="16.523367"
   gradientTransform="matrix(1,0,0,1.0000118,0,-0.00119921)"
   gradientUnits="userSpaceOnUse" />
<linearGradient
   xlink:href="#kpt3-linearGradient15"
   id="kpt3-linearGradient1"
   gradientUnits="userSpaceOnUse"
   x1="502.07037"
   y1="83.806641"
   x2="533.69537"
   y2="116.29086" />
<linearGradient
   xlink:href="#kpt3-linearGradient15"
   id="kpt3-linearGradient2"
   gradientUnits="userSpaceOnUse"
   x1="502.07037"
   y1="83.806641"
   x2="533.69537"
   y2="116.29086" />
<linearGradient
   xlink:href="#kpt3-linearGradient15"
   id="kpt3-linearGradient3"
   gradientUnits="userSpaceOnUse"
   x1="502.07037"
   y1="83.806641"
   x2="533.69537"
   y2="116.29086" />
<linearGradient
   xlink:href="#kpt3-linearGradient15"
   id="kpt3-linearGradient4"
   gradientUnits="userSpaceOnUse"
   x1="502.07037"
   y1="83.806641"
   x2="533.69537"
   y2="116.29086" />
<linearGradient
   xlink:href="#kpt3-linearGradient15"
   id="kpt3-linearGradient5"
   gradientUnits="userSpaceOnUse"
   x1="502.07037"
   y1="83.806641"
   x2="533.69537"
   y2="116.29086" />
<linearGradient
   xlink:href="#kpt3-linearGradient15"
   id="kpt3-linearGradient6"
   gradientUnits="userSpaceOnUse"
   x1="502.07037"
   y1="83.806641"
   x2="533.69537"
   y2="116.29086" />
<linearGradient
   xlink:href="#kpt3-linearGradient22"
   id="kpt3-linearGradient7"
   gradientUnits="userSpaceOnUse"
   gradientTransform="scale(0.99999408,1.0000059)"
   x1="500.61251"
   y1="83.243449"
   x2="533.65944"
   y2="83.243449" />
<linearGradient
   xlink:href="#kpt3-linearGradient15"
   id="kpt3-linearGradient8"
   gradientUnits="userSpaceOnUse"
   x1="502.07037"
   y1="83.806641"
   x2="533.69537"
   y2="116.29086" />
<linearGradient
   xlink:href="#kpt3-linearGradient15"
   id="kpt3-linearGradient9"
   gradientUnits="userSpaceOnUse"
   x1="502.07037"
   y1="83.806641"
   x2="533.69537"
   y2="116.29086" />
<linearGradient
   xlink:href="#kpt3-linearGradient22"
   id="kpt3-linearGradient10"
   gradientUnits="userSpaceOnUse"
   gradientTransform="scale(0.99999408,1.0000059)"
   x1="500.61251"
   y1="83.243449"
   x2="533.65944"
   y2="83.243449" />
</defs>
  
  <path
     id="kpt3-rect4676"
     style="fill:#008000;fill-opacity:1;stroke:none;stroke-width:0.264;stroke-linejoin:round;stroke-miterlimit:4;stroke-dasharray:none;stroke-opacity:1"
     d="M 25.93555,313.70868 V 329.94892 H 194.06446 V 313.70868 Z M 69.99688,318.55048 C 70.79711,318.55091 71.4457,319.19951 71.4461,319.9997 71.4457,320.79989 70.79711,321.44849 69.99688,321.44892 69.19665,321.44849 68.54806,320.79989 68.54766,319.9997 68.54806,319.19951 69.19665,318.55091 69.99688,318.55048 Z M 79.99688,318.55048 C 80.79711,318.55091 81.4457,319.19951 81.4461,319.9997 81.4457,320.79989 80.79711,321.44849 79.99688,321.44892 79.19665,321.44849 78.54806,320.79989 78.54766,319.9997 78.54806,319.19951 79.19665,318.55091 79.99688,318.55048 Z M 89.99688,318.55048 C 90.79711,318.55091 91.4457,319.19951 91.4461,319.9997 91.4457,320.79989 90.79711,321.44849 89.99688,321.44892 89.19665,321.44849 88.54806,320.79989 88.54766,319.9997 88.54806,319.19951 89.19665,318.55091 89.99688,318.55048 Z M 99.99688,318.55048 C 100.79711,318.55091 101.4457,319.19951 101.4461,319.9997 101.4457,320.79989 100.79711,321.44849 99.99688,321.44892 99.19665,321.44849 98.54806,320.79989 98.54766,319.9997 98.54806,319.19951 99.19665,318.55091 99.99688,318.55048 Z M 109.99688,318.55048 C 110.79711,318.55091 111.4457,319.19951 111.4461,319.9997 111.4457,320.79989 110.79711,321.44849 109.99688,321.44892 109.19665,321.44849 108.54806,320.79989 108.54766,319.9997 108.54806,319.19951 109.19665,318.55091 109.99688,318.55048 Z M 119.99688,318.55048 C 120.79711,318.55091 121.4457,319.19951 121.4461,319.9997 121.4457,320.79989 120.79711,321.44849 119.99688,321.44892 119.19665,321.44849 118.54806,320.79989 118.54766,319.9997 118.54806,319.19951 119.19665,318.55091 119.99688,318.55048 Z M 129.99688,318.55048 C 130.79711,318.55091 131.4457,319.19951 131.4461,319.9997 131.44678,320.80066 130.79787,321.45044 129.99688,321.45087 129.19589,321.45044 128.54698,320.80066 128.54766,319.9997 128.54806,319.19951 129.19665,318.55091 129.99688,318.55048 Z M 139.99688,318.55048 C 140.79711,318.55091 141.4457,319.19951 141.4461,319.9997 141.4457,320.79989 140.79711,321.44849 139.99688,321.44892 139.19665,321.44849 138.54806,320.79989 138.54766,319.9997 138.54806,319.19951 139.19665,318.55091 139.99688,318.55048 Z M 149.99688,318.55048 C 150.79711,318.55091 151.4457,319.19951 151.4461,319.9997 151.4457,320.79989 150.79711,321.44849 149.99688,321.44892 149.19665,321.44849 148.54806,320.79989 148.54766,319.9997 148.54806,319.19951 149.19665,318.55091 149.99688,318.55048 Z" />
  <g
     id="kpt3-g1"
     transform="translate(-220,-60)">
    <path
       id="kpt3-circle2-89"
       style="fill:#ffbf00;fill-opacity:1;stroke:none;stroke-width:1.44"
       d="M 290,376.99971 A 3,2.9998691 0 0 0 287,379.99971 3,2.9998691 0 0 0 290,382.99971 3,2.9998691 0 0 0 293,379.99971 3,2.9998691 0 0 0 290,376.99971 Z M 290,378.55048 A 1.4499999,1.4499367 0 0 1 291.44922,379.99971 1.4499999,1.4499367 0 0 1 290,381.44892 1.4499999,1.4499367 0 0 1 288.55078,379.99971 1.4499999,1.4499367 0 0 1 290,378.55048 Z" />
    <path
       id="kpt3-circle2-6"
       style="fill:#ffbf00;fill-opacity:1;stroke:none;stroke-width:1.44"
       d="M 370,377 A 3,2.9998691 0 0 0 367,380 3,2.9998691 0 0 0 370,383 3,2.9998691 0 0 0 373,380 3,2.9998691 0 0 0 370,377 Z M 370,378.55077 A 1.4499999,1.4499367 0 0 1 371.44922,380 1.4499999,1.4499367 0 0 1 370,381.44921 1.4499999,1.4499367 0 0 1 368.55078,380 1.4499999,1.4499367 0 0 1 370,378.55077 Z" />
    <g
       id="kpt3-g8-6"
       transform="translate(-30,50)">
      <path
         id="kpt3-circle2-14"
         style="fill:#ffbf00;fill-opacity:1;stroke:none;stroke-width:1.44"
         d="M 330,327 A 3,2.9998691 0 0 0 327,330 3,2.9998691 0 0 0 330,333 3,2.9998691 0 0 0 333,330 3,2.9998691 0 0 0 330,327 Z M 330,328.55078 A 1.4499999,1.4499367 0 0 1 331.44922,330 1.4499999,1.4499367 0 0 1 330,331.44922 1.4499999,1.4499367 0 0 1 328.55078,330 1.4499999,1.4499367 0 0 1 330,328.55078 Z" />
      <path
         style="fill:#ffbf00;fill-opacity:1;stroke:#ffbf00;stroke-width:2;stroke-linecap:butt;stroke-dasharray:none;stroke-opacity:1"
         d="M 330,328.55078 C 330,320 330,320 330,320"
         id="kpt3-path7-2" />
      <path
         style="fill:#ffbf00;fill-opacity:1;stroke:#008000;stroke-width:2;stroke-linecap:butt;stroke-dasharray:none;stroke-opacity:0.473251"
         d="M 330,320 V 327 327"
         id="kpt3-path8-3" />
    </g>
    <g
       id="kpt3-g8-68"
       transform="translate(-20,50)">
      <path
         id="kpt3-circle2-5"
         style="fill:#ffbf00;fill-opacity:1;stroke:none;stroke-width:1.44"
         d="M 330,327 A 3,2.9998691 0 0 0 327,330 3,2.9998691 0 0 0 330,333 3,2.9998691 0 0 0 333,330 3,2.9998691 0 0 0 330,327 Z M 330,328.55078 A 1.4499999,1.4499367 0 0 1 331.44922,330 1.4499999,1.4499367 0 0 1 330,331.44922 1.4499999,1.4499367 0 0 1 328.55078,330 1.4499999,1.4499367 0 0 1 330,328.55078 Z" />
      <path
         style="fill:#ffbf00;fill-opacity:1;stroke:#ffbf00;stroke-width:2;stroke-linecap:butt;stroke-dasharray:none;stroke-opacity:1"
         d="M 330,328.55078 C 330,320 330,320 330,320"
         id="kpt3-path7-7" />
      <path
         style="fill:#ffbf00;fill-opacity:1;stroke:#008000;stroke-width:2;stroke-linecap:butt;stroke-dasharray:none;stroke-opacity:0.473251"
         d="M 330,320 V 327 327"
         id="kpt3-path8-6" />
    </g>
    <g
       id="kpt3-g8-2"
       transform="translate(-10,50)">
      <path
         id="kpt3-circle2-7"
         style="fill:#ffbf00;fill-opacity:1;stroke:none;stroke-width:1.44"
         d="M 330,327 A 3,2.9998691 0 0 0 327,330 3,2.9998691 0 0 0 330,333 3,2.9998691 0 0 0 333,330 3,2.9998691 0 0 0 330,327 Z M 330,328.55078 A 1.4499999,1.4499367 0 0 1 331.44922,330 1.4499999,1.4499367 0 0 1 330,331.44922 1.4499999,1.4499367 0 0 1 328.55078,330 1.4499999,1.4499367 0 0 1 330,328.55078 Z" />
      <path
         style="fill:#ffbf00;fill-opacity:1;stroke:#ffbf00;stroke-width:2;stroke-linecap:butt;stroke-dasharray:none;stroke-opacity:1"
         d="M 330,328.55078 C 330,320 330,320 330,320"
         id="kpt3-path7-9" />
      <path
         style="fill:#ffbf00;fill-opacity:1;stroke:#008000;stroke-width:2;stroke-linecap:butt;stroke-dasharray:none;stroke-opacity:0.473251"
         d="M 330,320 V 327 327"
         id="kpt3-path8-5" />
    </g>
    <g
       id="kpt3-g8-23"
       transform="translate(0,50)">
      <path
         id="kpt3-circle2-3"
         style="fill:#ffbf00;fill-opacity:1;stroke:none;stroke-width:1.44"
         d="M 330,327 A 3,2.9998691 0 0 0 327,330 3,2.9998691 0 0 0 330,333 3,2.9998691 0 0 0 333,330 3,2.9998691 0 0 0 330,327 Z M 330,328.55078 A 1.4499999,1.4499367 0 0 1 331.44922,330 1.4499999,1.4499367 0 0 1 330,331.44922 1.4499999,1.4499367 0 0 1 328.55078,330 1.4499999,1.4499367 0 0 1 330,328.55078 Z" />
      <path
         style="fill:#ffbf00;fill-opacity:1;stroke:#ffbf00;stroke-width:2;stroke-linecap:butt;stroke-dasharray:none;stroke-opacity:1"
         d="M 330,328.55078 C 330,320 330,320 330,320"
         id="kpt3-path7-4" />
      <path
         style="fill:#ffbf00;fill-opacity:1;stroke:#008000;stroke-width:2;stroke-linecap:butt;stroke-dasharray:none;stroke-opacity:0.473251"
         d="M 330,320 V 327 327"
         id="kpt3-path8-1" />
    </g>
    <g
       id="kpt3-g8-7"
       transform="translate(10,50)">
      <path
         id="kpt3-circle2-4"
         style="fill:#ffbf00;fill-opacity:1;stroke:none;stroke-width:1.44"
         d="M 330,327 A 3,2.9998691 0 0 0 327,330 3,2.9998691 0 0 0 330,333 3,2.9998691 0 0 0 333,330 3,2.9998691 0 0 0 330,327 Z M 330,328.55078 A 1.4499999,1.4499367 0 0 1 331.44922,330 1.4499999,1.4499367 0 0 1 330,331.44922 1.4499999,1.4499367 0 0 1 328.55078,330 1.4499999,1.4499367 0 0 1 330,328.55078 Z" />
      <path
         style="fill:#ffbf00;fill-opacity:1;stroke:#ffbf00;stroke-width:2;stroke-linecap:butt;stroke-dasharray:none;stroke-opacity:1"
         d="M 330,328.55078 C 330,320 330,320 330,320"
         id="kpt3-path7-27" />
      <path
         style="fill:#ffbf00;fill-opacity:1;stroke:#008000;stroke-width:2;stroke-linecap:butt;stroke-dasharray:none;stroke-opacity:0.473251"
         d="M 330,320 V 327 327"
         id="kpt3-path8-7" />
    </g>
    <g
       id="kpt3-g8-9"
       transform="translate(20,50)">
      <path
         id="kpt3-circle2-8"
         style="fill:#ffbf00;fill-opacity:1;stroke:none;stroke-width:1.44"
         d="M 330,327 A 3,2.9998691 0 0 0 327,330 3,2.9998691 0 0 0 330,333 3,2.9998691 0 0 0 333,330 3,2.9998691 0 0 0 330,327 Z M 330,328.55078 A 1.4499999,1.4499367 0 0 1 331.44922,330 1.4499999,1.4499367 0 0 1 330,331.44922 1.4499999,1.4499367 0 0 1 328.55078,330 1.4499999,1.4499367 0 0 1 330,328.55078 Z" />
      <path
         style="fill:#ffbf00;fill-opacity:1;stroke:#ffbf00;stroke-width:2;stroke-linecap:butt;stroke-dasharray:none;stroke-opacity:1"
         d="M 330,328.55078 C 330,320 330,320 330,320"
         id="kpt3-path7-6" />
      <path
         style="fill:#ffbf00;fill-opacity:1;stroke:#008000;stroke-width:2;stroke-linecap:butt;stroke-dasharray:none;stroke-opacity:0.473251"
         d="M 330,320 V 327 327"
         id="kpt3-path8-50" />
    </g>
    <path
       style="fill:none;fill-opacity:1;stroke:#ffbf00;stroke-width:2;stroke-linecap:butt;stroke-dasharray:none;stroke-opacity:1"
       d="M 360.0625,377.92577 V 375.58788 L 367.3125,369.5"
       id="kpt3-path7-48" />
    <path
       style="fill:none;fill-opacity:1;stroke:#007e00;stroke-width:2;stroke-linecap:butt;stroke-dasharray:none;stroke-opacity:0.47451"
       d="M 360.03125,377.92577 360.0625,375.58788 367.3125,369.5"
       id="kpt3-path9" />
    <path
       id="kpt3-circle2-2"
       style="fill:#ffbf00;fill-opacity:1;stroke:none;stroke-width:1.44"
       d="M 360,377 A 3,2.9998691 0 0 0 357,380 3,2.9998691 0 0 0 360,383 3,2.9998691 0 0 0 363,380 3,2.9998691 0 0 0 360,377 Z M 360,378.55077 A 1.4499999,1.4499367 0 0 1 361.44922,380 1.4499999,1.4499367 0 0 1 360,381.44921 1.4499999,1.4499367 0 0 1 358.55078,380 1.4499999,1.4499367 0 0 1 360,378.55077 Z" />
  </g>
  <path
     id="kpt3-rect4541"
     style="fill:url(#kpt3-linearGradient27);fill-opacity:1;stroke:#000000;stroke-width:0.496899;stroke-linejoin:round;stroke-miterlimit:4;stroke-dasharray:none;stroke-opacity:1"
     d="M 11.8086,48.54148 C 8.27104,48.54148 5.42383,51.3887 5.42383,54.92625 V 307.11179 C 5.42383,310.64936 8.27104,313.49851 11.8086,313.49851 H 208.28516 C 211.82272,313.49851 214.66993,310.64936 214.66993,307.11179 V 54.92625 C 214.66993,51.38869 211.82272,48.54148 208.28516,48.54148 H 133.92969 V 58.79734 H 86.16407 V 48.54148 Z M 11.76954,54.54344 A 2.8679991,2.8631599 0 0 1 14.83399,57.40476 2.868165,2.8633255 0 0 1 9.09766,57.40476 2.8679991,2.8631599 0 0 1 11.76954,54.54344 Z M 209.27344,54.54344 A 2.8679991,2.8631599 0 0 1 212.3379,57.40476 2.868165,2.8633255 0 1 1 206.60157,57.40476 2.8679991,2.8631599 0 0 1 209.27344,54.54344 Z M 11.76954,303.97702 A 2.8679991,2.8631599 0 0 1 14.83399,306.83835 2.868165,2.8633255 0 0 1 9.09766,306.83835 2.8679991,2.8631599 0 0 1 11.76954,303.97702 Z M 209.27344,303.97702 A 2.8679991,2.8631599 0 0 1 212.3379,306.83835 2.868165,2.8633255 0 0 1 206.60157,306.83835 2.8679991,2.8631599 0 0 1 209.27344,303.97702 Z" />
  <path
     id="kpt3-path25"
     style="fill:#000000;fill-opacity:1;stroke:#000000;stroke-width:0.496899;stroke-linejoin:round;stroke-miterlimit:4;stroke-dasharray:none;stroke-opacity:1"
     d="M 16.369496,52.673218 C 18.430766,54.889732 18.69177,58.538044 16.892369,60.98848 15.167944,63.579289 11.487435,64.582097 8.6979078,63.203427 8.6979078,142.71645 8.6979078,222.22939 8.6979078,301.74256 11.659415,300.30195 15.580101,301.51793 17.174442,304.41468 18.316038,306.27999 18.397281,308.72783 17.438131,310.68712 79.424069,310.68712 141.41006,310.68712 203.39604,310.68712 202.01407,307.95541 202.85803,304.35797 205.30221,302.52218 206.83678,301.3392 208.90132,300.84716 210.79173,301.30287 210.79173,222.09337 210.79173,142.88393 210.79173,63.674406 208.03125,64.305821 204.96865,62.959623 203.6043,60.463251 202.00589,57.778794 202.67429,54.02558 205.10845,52.066837 182.55984,52.066837 160.01131,52.066837 137.46266,52.066837 137.46266,54.235937 137.46266,56.405037 137.46266,58.574145 136.32281,59.771202 135.247,61.058632 134.06731,62.199692 133.23286,62.56495 132.26332,62.282528 131.37116,62.371382 116.18535,62.371382 100.99972,62.371382 85.813884,62.371382 84.620045,61.22837 83.336207,60.149668 82.198192,58.966785 81.833911,58.130007 82.115561,57.157796 82.026971,56.263225 82.026971,54.864422 82.026971,53.465631 82.026971,52.066837 59.925881,52.066837 37.82489,52.066837 15.723701,52.066837 15.939091,52.268958 16.154293,52.471097 16.369496,52.673218 Z" />
  <rect
     width="1.0989448"
     x="110.01527"
     y="189.83398"
     fill="none"
     height="8.8841305"
     id="kpt3-rect17"
     style="stroke-width:1" />
  <rect
     width="5.4947238"
     x="110.01527"
     y="189.83398"
     fill="none"
     height="5.4944844"
     id="kpt3-rect18"
     style="stroke-width:1" />
  <rect
     width="5.4947238"
     x="110.01527"
     y="189.83398"
     fill="none"
     height="5.4944844"
     id="kpt3-rect19"
     style="stroke-width:1" />
  <rect
     width="5.4947238"
     x="110.01527"
     y="189.83398"
     fill="none"
     height="5.4944844"
     id="kpt3-rect20"
     style="stroke-width:1" />
  <rect
     width="5.4947238"
     x="110.01527"
     y="189.83398"
     fill="none"
     height="5.4944844"
     id="kpt3-rect21"
     style="stroke-width:1" />
  <rect
     width="5.4947238"
     x="110.01527"
     y="189.83398"
     fill="none"
     height="5.4944844"
     id="kpt3-rect22"
     style="stroke-width:1" />
  <rect
     width="5.4947238"
     x="110.01527"
     y="189.83398"
     fill="none"
     height="5.4944844"
     id="kpt3-rect23"
     style="stroke-width:1" />
  <rect
     width="5.4947238"
     x="110.01527"
     y="189.83398"
     fill="none"
     height="5.4944844"
     id="kpt3-rect24"
     style="stroke-width:1" />
  <rect
     width="5.4947238"
     x="110.01527"
     y="189.83398"
     fill="none"
     height="5.4944844"
     id="kpt3-rect25"
     style="stroke-width:1" />
  <rect
     width="5.4947238"
     x="110.01527"
     y="189.83398"
     fill="none"
     height="5.4944844"
     id="kpt3-rect26"
     style="stroke-width:1" />
  <rect
     width="177.72867"
     x="21.182562"
     y="66.127113"
     ry="11.844769"
     height="229.78563"
     style="fill:#2b2424;fill-opacity:1;stroke:url(#kpt3-linearGradient4336);stroke-width:0.264;stroke-linejoin:round;stroke-miterlimit:4;stroke-dasharray:none;stroke-opacity:1"
     id="kpt3-rect5092"
     rx="11.844769" />
  <g
     id="kpt3-g19"
     transform="translate(-455.87947,-0.885409)">
    <rect
       width="32.865002"
       x="500.70041"
       y="83.334808"
       ry="2"
       height="32.865391"
       style="fill:url(#kpt3-linearGradient1);fill-opacity:1;stroke:none;stroke-width:1.13461;filter:url(#kpt3-filter9)"
       id="kpt3-rect4577-824"
       rx="2" />
    <rect
       width="32.865002"
       x="502.22379"
       y="84.858192"
       ry="2.2043536"
       height="32.865391"
       style="fill:url(#kpt3-radialGradient19);stroke:none;stroke-width:1.25054;filter:url(#kpt3-filter9)"
       id="kpt3-rect15"
       rx="2.2043536"
       transform="matrix(0.90729551,0,0,0.90729551,46.558402,7.9669855)" />
  </g>
  <g
     id="kpt3-g19-2"
     transform="translate(-406.25857,-0.885409)">
    <rect
       width="32.865002"
       x="500.70041"
       y="83.334808"
       ry="2"
       height="32.865391"
       style="fill:url(#kpt3-linearGradient2);fill-opacity:1;stroke:none;stroke-width:1.13461;filter:url(#kpt3-filter9-1)"
       id="kpt3-rect4577-824-3"
       rx="2" />
    <rect
       width="32.865002"
       x="502.22379"
       y="84.858192"
       ry="2.2043536"
       height="32.865391"
       style="fill:url(#kpt3-radialGradient19-2);stroke:none;stroke-width:1.25054;filter:url(#kpt3-filter9-1)"
       id="kpt3-rect15-2"
       rx="2.2043536"
       transform="matrix(0.90729551,0,0,0.90729551,46.558402,7.9669855)" />
  </g>
  <g
     id="kpt3-g19-9"
     transform="translate(-356.63768,-0.885409)">
    <rect
       width="32.865002"
       x="500.70041"
       y="83.334808"
       ry="2"
       height="32.865391"
       style="fill:url(#kpt3-linearGradient3);fill-opacity:1;stroke:none;stroke-width:1.13461;filter:url(#kpt3-filter9-7)"
       id="kpt3-rect4577-824-5"
       rx="2" />
    <rect
       width="32.865002"
       x="502.22379"
       y="84.858192"
       ry="2.2043536"
       height="32.865391"
       style="fill:url(#kpt3-radialGradient19-1);stroke:none;stroke-width:1.25054;filter:url(#kpt3-filter9-7)"
       id="kpt3-rect15-4"
       rx="2.2043536"
       transform="matrix(0.90729551,0,0,0.90729551,46.558402,7.9669855)" />
  </g>
  <g
     id="kpt3-g19-24"
     transform="translate(-457.53434,53.873142)">
    <rect
       width="32.865002"
       x="500.70041"
       y="83.334808"
       ry="2"
       height="32.865391"
       style="fill:url(#kpt3-linearGradient4);fill-opacity:1;stroke:none;stroke-width:1.13461;filter:url(#kpt3-filter9-4)"
       id="kpt3-rect4577-824-8"
       rx="2" />
    <rect
       width="32.865002"
       x="502.22379"
       y="84.858192"
       ry="2.2043536"
       height="32.865391"
       style="fill:url(#kpt3-radialGradient19-13);stroke:none;stroke-width:1.25054;filter:url(#kpt3-filter9-4)"
       id="kpt3-rect15-6"
       rx="2.2043536"
       transform="matrix(0.90729551,0,0,0.90729551,46.558402,7.9669855)" />
  </g>
  <g
     id="kpt3-g19-2-5"
     transform="translate(-406.25857,53.873142)">
    <rect
       width="32.865002"
       x="500.70041"
       y="83.334808"
       ry="2"
       height="32.865391"
       style="fill:url(#kpt3-linearGradient5);fill-opacity:1;stroke:none;stroke-width:1.13461;filter:url(#kpt3-filter9-1-7)"
       id="kpt3-rect4577-824-3-0"
       rx="2" />
    <rect
       width="32.865002"
       x="502.22379"
       y="84.858192"
       ry="2.2043536"
       height="32.865391"
       style="fill:url(#kpt3-radialGradient19-2-3);stroke:none;stroke-width:1.25054;filter:url(#kpt3-filter9-1-7)"
       id="kpt3-rect15-2-9"
       rx="2.2043536"
       transform="matrix(0.90729551,0,0,0.90729551,46.558402,7.9669855)" />
  </g>
  <g
     id="kpt3-g19-9-0"
     transform="translate(-356.63768,53.873142)">
    <rect
       width="32.865002"
       x="500.70041"
       y="83.334808"
       ry="2"
       height="32.865391"
       style="fill:url(#kpt3-linearGradient6);fill-opacity:1;stroke:none;stroke-width:1.13461;filter:url(#kpt3-filter9-7-0)"
       id="kpt3-rect4577-824-5-0"
       rx="2" />
    <rect
       width="32.865002"
       x="502.22379"
       y="84.858192"
       ry="2.2043536"
       height="32.865391"
       style="fill:url(#kpt3-radialGradient19-1-8);stroke:none;stroke-width:1.25054;filter:url(#kpt3-filter9-7-0)"
       id="kpt3-rect15-4-6"
       rx="2.2043536"
       transform="matrix(0.90729551,0,0,0.90729551,46.558402,7.9669855)" />
  </g>
  <g
     id="kpt3-g19-0"
     transform="translate(-455.87947,108.63169)">
    <rect
       width="32.865002"
       x="500.70041"
       y="83.334808"
       ry="2"
       height="32.865391"
       style="fill:url(#kpt3-linearGradient7);fill-opacity:1;stroke:none;stroke-width:1.13461;filter:url(#kpt3-filter9-44)"
       id="kpt3-rect4577-824-7"
       rx="2" />
    <rect
       width="32.865002"
       x="502.22379"
       y="84.858192"
       ry="2.2043536"
       height="32.865391"
       style="fill:url(#kpt3-radialGradient19-6);stroke:none;stroke-width:1.25054;filter:url(#kpt3-filter9-44)"
       id="kpt3-rect15-63"
       rx="2.2043536"
       transform="matrix(0.90729551,0,0,0.90729551,46.558402,7.9669855)" />
  </g>
  <g
     id="kpt3-g19-2-6"
     transform="translate(-406.25857,108.63169)">
    <rect
       width="32.865002"
       x="500.70041"
       y="83.334808"
       ry="2"
       height="32.865391"
       style="fill:url(#kpt3-linearGradient23);fill-opacity:1;stroke:none;stroke-width:1.13461;filter:url(#kpt3-filter9-1-6)"
       id="kpt3-rect4577-824-3-1"
       rx="2" />
    <rect
       width="32.865002"
       x="502.22379"
       y="84.858192"
       ry="2.2043536"
       height="32.865391"
       style="fill:url(#kpt3-radialGradient19-2-7);stroke:none;stroke-width:1.25054;filter:url(#kpt3-filter9-1-6)"
       id="kpt3-rect15-2-5"
       rx="2.2043536"
       transform="matrix(0.90729551,0,0,0.90729551,46.558402,7.9669855)" />
  </g>
  <g
     id="kpt3-g19-9-4"
     transform="translate(-356.63768,108.63169)">
    <rect
       width="32.865002"
       x="500.70041"
       y="83.334808"
       ry="2"
       height="32.865391"
       style="fill:url(#kpt3-linearGradient8);fill-opacity:1;stroke:none;stroke-width:1.13461;filter:url(#kpt3-filter9-7-3)"
       id="kpt3-rect4577-824-5-2"
       rx="2" />
    <rect
       width="32.865002"
       x="502.22379"
       y="84.858192"
       ry="2.2043536"
       height="32.865391"
       style="fill:url(#kpt3-radialGradient19-1-9);stroke:none;stroke-width:1.25054;filter:url(#kpt3-filter9-7-3)"
       id="kpt3-rect15-4-0"
       rx="2.2043536"
       transform="matrix(0.90729551,0,0,0.90729551,46.558402,7.9669855)" />
  </g>
  <g
     id="kpt3-g19-3"
     transform="translate(-455.87947,163.39024)">
    <rect
       width="32.865002"
       x="500.70041"
       y="83.334808"
       ry="2"
       height="32.865391"
       style="fill:url(#kpt3-linearGradient9);fill-opacity:1;stroke:none;stroke-width:1.13461;filter:url(#kpt3-filter9-6)"
       id="kpt3-rect4577-824-35"
       rx="2" />
    <rect
       width="32.865002"
       x="502.22379"
       y="84.858192"
       ry="2.2043536"
       height="32.865391"
       style="fill:url(#kpt3-radialGradient19-16);stroke:none;stroke-width:1.25054;filter:url(#kpt3-filter9-6)"
       id="kpt3-rect15-9"
       rx="2.2043536"
       transform="matrix(0.90729551,0,0,0.90729551,46.558402,7.9669855)" />
  </g>
  <g
     id="kpt3-g19-2-9"
     transform="translate(-406.25857,163.39024)">
    <rect
       width="32.865002"
       x="500.70041"
       y="83.334808"
       ry="2"
       height="32.865391"
       style="fill:url(#kpt3-linearGradient10);fill-opacity:1;stroke:none;stroke-width:1.13461;filter:url(#kpt3-filter9-1-2)"
       id="kpt3-rect4577-824-3-8"
       rx="2" />
    <rect
       width="32.865002"
       x="502.22379"
       y="84.858192"
       ry="2.2043536"
       height="32.865391"
       style="fill:url(#kpt3-radialGradient19-2-0);stroke:none;stroke-width:1.25054;filter:url(#kpt3-filter9-1-2)"
       id="kpt3-rect15-2-1"
       rx="2.2043536"
       transform="matrix(0.90729551,0,0,0.90729551,46.558402,7.9669855)" />
  </g>
  <g
     id="kpt3-g19-9-8"
     transform="translate(-356.63768,163.39024)">
    <rect
       width="32.865002"
       x="500.70041"
       y="83.334808"
       ry="2"
       height="32.865391"
       style="fill:url(#kpt3-linearGradient16);fill-opacity:1;stroke:none;stroke-width:1.13461;filter:url(#kpt3-filter9-7-1)"
       id="kpt3-rect4577-824-5-26"
       rx="2" />
    <rect
       width="32.865002"
       x="502.22379"
       y="84.858192"
       ry="2.2043536"
       height="32.865391"
       style="fill:url(#kpt3-radialGradient19-1-7);stroke:none;stroke-width:1.25054;filter:url(#kpt3-filter9-7-1)"
       id="kpt3-rect15-4-60"
       rx="2.2043536"
       transform="matrix(0.90729551,0,0,0.90729551,46.558402,7.9669855)" />
  </g>
  <g
     style="font-style:normal;font-variant:normal;font-weight:normal;font-stretch:normal;font-size:32px;line-height:125%;font-family:'Droid Sans';-inkscape-font-specification:'Droid Sans';letter-spacing:0px;word-spacing:0px;fill:#ffffff;fill-opacity:1;stroke:none;stroke-width:1.10327"
     id="kpt3-text5020"
     xml:space="preserve"
     transform="matrix(0.99015695,0,0,0.82968615,16.45523,-599.58373)">
   <path
   d="M 41.503386,933.64808 Q 40.822046,934.54458 39.817966,935.11834 38.849746,935.65624 37.594646,935.76382 V 934.32942 Q 39.459366,934.18598 40.391726,933.21776 41.359946,932.21368 41.861986,930.81514 H 43.152946 V 955.953 H 41.503386 Z"
   id="kpt3-tspan5022"
   style="font-size:35.86px;line-height:125%;font-family:'Bebas Neue';-inkscape-font-specification:'Bebas Neue';stroke:#ffffff;stroke-width:1.10329"
   transform="scale(1.120617,0.89236552)"
   aria-label="1" />
  </g>
  <g
     style="font-style:normal;font-variant:normal;font-weight:normal;font-stretch:normal;font-size:32px;line-height:125%;font-family:'Droid Sans';-inkscape-font-specification:'Droid Sans';letter-spacing:0px;word-spacing:0px;fill:#ffffff;fill-opacity:1;stroke:none;stroke-width:1.10327"
     id="kpt3-text5024"
     xml:space="preserve"
     transform="matrix(0.99015695,0,0,0.82968615,9.64382,-599.65334)">
   <path
   d="M 91.232599,930.8195 Q 92.702859,930.8195 93.706939,931.32154 94.746879,931.78772 95.392359,932.64836 96.037839,933.509 96.324719,934.69238 96.647459,935.8399 96.647459,937.20258 96.647459,938.99558 95.966119,940.46584 95.284779,941.9361 94.280699,943.22706 93.276619,944.51802 92.093239,945.73726 90.909859,946.92064 89.869919,948.24746 88.865839,949.53842 88.184499,951.04454 87.503159,952.5148 87.467299,954.34366 V 954.63054 H 96.432299 V 956.13666 H 85.817739 V 954.91742 Q 85.817739,952.6941 86.499079,951.00868 87.180419,949.32326 88.184499,947.96058 89.224439,946.56204 90.407819,945.37866 91.591199,944.15942 92.595279,942.94018 93.635219,941.72094 94.316559,940.35826 94.997899,938.99558 94.997899,937.2743 94.997899,935.08684 94.137259,933.72416 93.312479,932.32562 91.160879,932.32562 90.120939,932.32562 89.403739,932.72008 88.686539,933.07868 88.220359,933.76002 87.790039,934.4055 87.574879,935.302 87.395579,936.16264 87.395579,937.16672 V 938.888 H 85.817739 V 937.2743 Q 85.817739,935.91162 86.104619,934.72824 86.427359,933.54486 87.072839,932.68422 87.718319,931.82358 88.722399,931.32154 89.762339,930.8195 91.232599,930.8195 Z"
   id="kpt3-tspan5026"
   style="font-size:35.86px;line-height:125%;font-family:'Bebas Neue';-inkscape-font-specification:'Bebas Neue';stroke:#ffffff;stroke-width:1.10329"
   transform="scale(1.120617,0.89236552)"
   aria-label="2" />
  </g>
  <g
     style="font-style:normal;font-variant:normal;font-weight:normal;font-stretch:normal;font-size:32px;line-height:125%;font-family:'Droid Sans';-inkscape-font-specification:'Droid Sans';letter-spacing:0px;word-spacing:0px;fill:#ffffff;fill-opacity:1;stroke:none;stroke-width:1.10327"
     id="kpt3-text5032"
     xml:space="preserve"
     transform="matrix(0.99015695,0,0,0.82968615,2.63762,-598.94892)">
   <path
   d="M 142.26703,929.76048 Q 143.70143,929.76048 144.70551,930.26252 145.74545,930.7287 146.39093,931.58934 147.07227,932.41412 147.35915,933.5975 147.68189,934.74502 147.68189,936.1077 V 936.71732 Q 147.68189,938.58204 146.82125,939.98058 145.96061,941.34326 144.34691,941.91702 146.06819,942.41906 146.85711,943.78174 147.68189,945.14442 147.68189,947.00914 V 948.94558 Q 147.68189,950.30826 147.35915,951.49164 147.07227,952.63916 146.39093,953.4998 145.74545,954.32458 144.70551,954.82662 143.70143,955.2928 142.26703,955.2928 140.83263,955.2928 139.79269,954.82662 138.78861,954.32458 138.10727,953.4998 137.46179,952.63916 137.13905,951.49164 136.85217,950.30826 136.85217,948.94558 V 947.51118 H 138.43001 V 949.0173 Q 138.43001,950.05724 138.60931,950.91788 138.82447,951.77852 139.29065,952.424 139.75683,953.06948 140.47403,953.42808 141.19123,953.78668 142.23117,953.78668 144.31105,953.78668 145.17169,952.424 146.03233,951.06132 146.03233,948.90972 V 946.97328 Q 146.03233,945.00098 145.06411,943.92518 144.13175,942.81352 142.30289,942.7418 H 140.61747 V 941.23568 H 142.37461 Q 144.09589,941.1281 145.06411,940.01644 146.03233,938.86892 146.03233,937.04006 V 936.14356 Q 146.03233,933.99196 145.17169,932.62928 144.31105,931.2666 142.23117,931.2666 140.15129,931.2666 139.29065,932.62928 138.43001,933.9561 138.43001,936.00012 V 937.0042 H 136.85217 V 936.1077 Q 136.85217,934.74502 137.13905,933.5975 137.46179,932.41412 138.10727,931.58934 138.78861,930.7287 139.79269,930.26252 140.83263,929.76048 142.26703,929.76048 Z"
   id="kpt3-tspan5034"
   style="font-size:35.86px;line-height:125%;font-family:'Bebas Neue';-inkscape-font-specification:'Bebas Neue';stroke:#ffffff;stroke-width:1.10329"
   transform="scale(1.120617,0.89236552)"
   aria-label="3" />
  </g>
  <g
     style="font-style:normal;font-variant:normal;font-weight:normal;font-stretch:normal;font-size:32px;line-height:125%;font-family:'Droid Sans';-inkscape-font-specification:'Droid Sans';letter-spacing:0px;word-spacing:0px;fill:#ffffff;fill-opacity:1;stroke:none;stroke-width:1.10327"
     id="kpt3-text5036"
     xml:space="preserve"
     transform="matrix(0.99015695,0,0,0.82968615,14.51998,-586.68793)">
   <path
   d="M 44.660704,1006.9367 V 1012.495 H 43.047003 V 1006.9367 H 34.476463 V 1005.3947 L 42.795983,987.35713 H 44.660704 V 1005.4306 H 46.776444 V 1006.9367 Z M 35.982583,1005.4306 H 43.047003 V 990.44109 Z"
   id="kpt3-tspan5038"
   style="font-size:35.86px;line-height:125%;font-family:'Bebas Neue';-inkscape-font-specification:'Bebas Neue';stroke:#ffffff;stroke-width:1.10329"
   transform="scale(1.120617,0.89236552)"
   aria-label="4" />
  </g>
  <g
     style="font-style:normal;font-variant:normal;font-weight:normal;font-stretch:normal;font-size:32px;line-height:125%;font-family:'Droid Sans';-inkscape-font-specification:'Droid Sans';letter-spacing:0px;word-spacing:0px;fill:#ffffff;fill-opacity:1;stroke:none;stroke-width:1.10327"
     id="kpt3-text5040"
     xml:space="preserve"
     transform="matrix(0.99015695,0,0,0.82968615,10.10177,-586.58597)">
   <path
   d="M 87.323572,997.61881 Q 87.969052,996.57887 88.973132,996.14855 89.977212,995.68237 91.375752,995.68237 92.666712,995.68237 93.599072,996.14855 94.531432,996.61473 95.105192,997.43951 95.714812,998.26429 95.965832,999.41181 96.252712,1000.5235 96.252712,1001.8144 V 1006.1176 Q 96.252712,1007.4803 95.929972,1008.6637 95.643092,1009.8112 94.961752,1010.6719 94.316272,1011.4966 93.276332,1011.9987 92.236392,1012.4649 90.801992,1012.4649 89.367592,1012.4649 88.327652,1011.9987 87.323572,1011.4966 86.642232,1010.6719 85.996752,1009.8112 85.674012,1008.6637 85.387132,1007.4803 85.387132,1006.1176 V 1004.755 H 86.964972 V 1006.1894 Q 86.964972,1007.1934 87.180132,1008.0541 87.395292,1008.9147 87.825612,1009.5602 88.291792,1010.2057 89.008992,1010.5643 89.726192,1010.9229 90.766132,1010.9229 91.806072,1010.9229 92.523272,1010.5643 93.276332,1010.2057 93.706652,1009.5602 94.172832,1008.9147 94.387992,1008.0541 94.603152,1007.1934 94.603152,1006.1894 V 1001.9579 Q 94.603152,1000.9538 94.387992,1000.0932 94.172832,999.23251 93.706652,998.58703 93.276332,997.94155 92.523272,997.58295 91.806072,997.22435 90.766132,997.22435 87.969052,997.22435 87.180132,1000.0932 V 1000.5235 H 85.638152 L 86.283632,987.11183 H 95.714812 V 988.65381 H 87.789752 Z"
   id="kpt3-tspan5042"
   style="font-size:35.86px;line-height:125%;font-family:'Bebas Neue';-inkscape-font-specification:'Bebas Neue';stroke:#ffffff;stroke-width:1.10329"
   transform="scale(1.120617,0.89236552)"
   aria-label="5" />
  </g>
  <g
     style="font-style:normal;font-variant:normal;font-weight:normal;font-stretch:normal;font-size:32px;line-height:125%;font-family:'Droid Sans';-inkscape-font-specification:'Droid Sans';letter-spacing:0px;word-spacing:0px;fill:#ffffff;fill-opacity:1;stroke:none;stroke-width:1.10327"
     id="kpt3-text5044"
     xml:space="preserve"
     transform="matrix(0.99015695,0,0,0.82968615,3.11126,-586.65576)">
   <path
   d="M 141.85808,987.11643 Q 143.29248,987.11643 144.29656,987.58261 145.3365,988.04879 145.98198,988.87357 146.66332,989.69835 146.9502,990.84587 147.27294,991.99339 147.27294,993.35607 V 993.64295 H 145.6951 V 993.24849 Q 145.6951,991.24033 144.83446,989.94937 143.97382,988.62255 141.89394,988.62255 140.81814,988.62255 140.06508,988.98115 139.34788,989.33975 138.84584,989.98523 138.37966,990.63071 138.1645,991.56307 137.94934,992.45957 137.94934,993.57123 V 999.38055 Q 138.55896,998.34061 139.63476,997.73099 140.71056,997.08551 142.43184,997.08551 143.75866,997.08551 144.69102,997.55169 145.62338,998.01787 146.19714,998.84265 146.80676,999.66743 147.09364,1000.7791 147.38052,1001.8908 147.38052,1003.2176 V 1006.3015 Q 147.38052,1007.6642 147.05778,1008.8476 146.73504,1009.9951 146.0537,1010.8558 145.37236,1011.6805 144.33242,1012.1826 143.29248,1012.6488 141.85808,1012.6488 140.38782,1012.6488 139.34788,1012.1826 138.30794,1011.6805 137.6266,1010.8558 136.94526,1009.9951 136.62252,1008.8476 136.29978,1007.6642 136.29978,1006.3015 V 993.53537 Q 136.29978,992.13683 136.62252,990.95345 136.94526,989.77007 137.59074,988.90943 138.27208,988.04879 139.31202,987.58261 140.38782,987.11643 141.85808,987.11643 Z M 141.85808,998.62749 Q 139.74234,998.62749 138.84584,999.99017 137.94934,1001.317 137.94934,1003.3252 V 1006.3733 Q 137.94934,1008.4531 138.84584,1009.78 139.74234,1011.1068 141.85808,1011.1068 143.93796,1011.1068 144.83446,1009.78 145.73096,1008.4531 145.73096,1006.3733 V 1003.3252 Q 145.73096,1001.317 144.83446,999.99017 143.93796,998.62749 141.85808,998.62749 Z"
   id="kpt3-tspan5046"
   style="font-size:35.86px;line-height:125%;font-family:'Bebas Neue';-inkscape-font-specification:'Bebas Neue';stroke:#ffffff;stroke-width:1.10329"
   transform="scale(1.120617,0.89236552)"
   aria-label="6" />
  </g>
  <g
     style="font-style:normal;font-variant:normal;font-weight:normal;font-stretch:normal;font-size:32px;line-height:125%;font-family:'Droid Sans';-inkscape-font-specification:'Droid Sans';letter-spacing:0px;word-spacing:0px;fill:#ffffff;fill-opacity:1;stroke:none;stroke-width:1.10327"
     id="kpt3-text5048"
     xml:space="preserve"
     transform="matrix(0.99015695,0,0,0.82968615,16.80915,-573.68846)">
   <path
   d="M 43.820111,1045.3011 H 34.604091 V 1043.7591 H 45.505531 V 1045.2652 L 38.441111,1068.897 H 36.755691 Z"
   id="kpt3-tspan5050"
   style="font-size:35.86px;line-height:125%;font-family:'Bebas Neue';-inkscape-font-specification:'Bebas Neue';stroke:#ffffff;stroke-width:1.10329"
   transform="scale(1.120617,0.89236552)"
   aria-label="7" />
  </g>
  <g
     style="font-style:normal;font-variant:normal;font-weight:normal;font-stretch:normal;font-size:32px;line-height:125%;font-family:'Droid Sans';-inkscape-font-specification:'Droid Sans';letter-spacing:0px;word-spacing:0px;fill:#ffffff;fill-opacity:1;stroke:none;stroke-width:1.10327"
     id="kpt3-text5052"
     xml:space="preserve"
     transform="matrix(0.99015695,0,0,0.82968615,9.77701,-573.721)">
   <path
   d="M 91.112587,1043.6058 Q 93.945527,1043.6058 95.379927,1045.2554 96.814327,1046.9049 96.814327,1049.702 V 1050.4909 Q 96.814327,1052.4274 96.025407,1053.8618 95.272347,1055.2603 93.479347,1055.7624 95.308207,1056.3003 96.061267,1057.7347 96.814327,1059.1691 96.814327,1061.1414 V 1062.9344 Q 96.814327,1065.6956 95.379927,1067.4169 93.981387,1069.1381 91.112587,1069.1381 88.207927,1069.1381 86.809387,1067.4527 85.410846,1065.7314 85.410846,1062.9344 V 1061.1414 Q 85.410846,1059.1332 86.128046,1057.7347 86.881107,1056.3361 88.781687,1055.7624 86.952827,1055.2603 86.163906,1053.8976 85.410846,1052.4991 85.410846,1050.4909 V 1049.702 Q 85.410846,1046.9049 86.809387,1045.2554 88.243787,1043.6058 91.112587,1043.6058 Z M 91.112587,1045.1119 Q 89.068567,1045.1119 88.064487,1046.3312 87.060407,1047.5146 87.060407,1049.7379 V 1050.7778 Q 87.060407,1055.081 91.112587,1055.081 95.164767,1055.081 95.164767,1050.7778 V 1049.7379 Q 95.164767,1047.5146 94.124827,1046.3312 93.120747,1045.1119 91.112587,1045.1119 Z M 91.112587,1056.5871 Q 87.060407,1056.5871 87.060407,1060.9979 V 1062.8985 Q 87.060407,1065.086 88.064487,1066.3769 89.068567,1067.632 91.112587,1067.632 93.156607,1067.632 94.124827,1066.3769 95.128907,1065.086 95.164767,1062.8985 V 1060.9979 Q 95.164767,1056.5871 91.112587,1056.5871 Z"
   id="kpt3-tspan5054"
   style="font-size:35.86px;line-height:125%;font-family:'Bebas Neue';-inkscape-font-specification:'Bebas Neue';stroke:#ffffff;stroke-width:1.10329"
   transform="scale(1.120617,0.89236552)"
   aria-label="8" />
  </g>
  <g
     style="font-style:normal;font-variant:normal;font-weight:normal;font-stretch:normal;font-size:32px;line-height:125%;font-family:'Droid Sans';-inkscape-font-specification:'Droid Sans';letter-spacing:0px;word-spacing:0px;fill:#ffffff;fill-opacity:1;stroke:none;stroke-width:1.10327"
     id="kpt3-text5056"
     xml:space="preserve"
     transform="matrix(0.99015695,0,0,0.82968615,3.04468,-573.69506)">
   <path
   d="M 141.90019,1043.5529 Q 143.33459,1043.5529 144.37453,1044.0549 145.45033,1044.5211 146.09581,1045.3817 146.77715,1046.2065 147.09989,1047.3899 147.42263,1048.5374 147.42263,1049.9359 V 1062.7021 Q 147.42263,1064.1006 147.09989,1065.284 146.81301,1066.4674 146.13167,1067.328 145.45033,1068.1528 144.41039,1068.6549 143.37045,1069.121 141.90019,1069.121 140.46579,1069.121 139.42585,1068.6549 138.38591,1068.1887 137.70457,1067.3639 137.05909,1066.5391 136.73635,1065.3916 136.41361,1064.2082 136.41361,1062.8455 V 1062.5228 H 137.99145 V 1062.9173 Q 137.99145,1064.9613 138.88795,1066.2881 139.78445,1067.6149 141.86433,1067.6149 143.98007,1067.6149 144.87657,1066.2522 145.77307,1064.8896 145.77307,1062.6304 V 1056.4625 Q 145.16345,1057.861 144.08765,1058.5065 143.01185,1059.1161 141.32643,1059.1161 139.99961,1059.1161 139.06725,1058.6499 138.13489,1058.1837 137.52527,1057.3948 136.95151,1056.57 136.66463,1055.4584 136.37775,1054.3109 136.37775,1052.984 V 1049.9359 Q 136.37775,1048.5374 136.70049,1047.3899 137.02323,1046.2065 137.70457,1045.3817 138.38591,1044.5211 139.42585,1044.0549 140.46579,1043.5529 141.90019,1043.5529 Z M 141.90019,1045.0948 Q 139.82031,1045.0948 138.92381,1046.4575 138.02731,1047.7843 138.02731,1049.8284 V 1052.8765 Q 138.02731,1054.9205 138.92381,1056.2832 139.82031,1057.61 141.90019,1057.61 143.98007,1057.61 144.87657,1056.2832 145.77307,1054.9205 145.77307,1052.8765 V 1049.8284 Q 145.77307,1047.7843 144.87657,1046.4575 143.98007,1045.0948 141.90019,1045.0948 Z"
   id="kpt3-tspan5058"
   style="font-size:35.86px;line-height:125%;font-family:'Bebas Neue';-inkscape-font-specification:'Bebas Neue';stroke:#ffffff;stroke-width:1.10329"
   transform="scale(1.120617,0.89236552)"
   aria-label="9" />
  </g>
  <g
     style="font-style:normal;font-variant:normal;font-weight:normal;font-stretch:normal;font-size:32px;line-height:125%;font-family:'Droid Sans';-inkscape-font-specification:'Droid Sans';letter-spacing:0px;word-spacing:0px;fill:#ffffff;fill-opacity:1;stroke:none;stroke-width:1.10327"
     id="kpt3-text5060"
     xml:space="preserve"
     transform="matrix(0.99015695,0,0,0.82968615,10.28007,-560.7735)">
   <path
   d="M 85.136779,1106.4252 Q 85.136779,1105.0267 85.459519,1103.8791 85.782259,1102.6958 86.463599,1101.871 87.144939,1101.0103 88.184879,1100.5442 89.22482,1100.078 90.65922,1100.078 92.09362,1100.078 93.13356,1100.5442 94.1735,1101.0103 94.85484,1101.871 95.53618,1102.6958 95.85892,1103.8791 96.18166,1105.0267 96.18166,1106.4252 V 1119.2631 Q 96.18166,1120.6258 95.85892,1121.8091 95.53618,1122.9567 94.85484,1123.8173 94.1735,1124.6421 93.13356,1125.1441 92.09362,1125.6103 90.65922,1125.6103 89.22482,1125.6103 88.184879,1125.1441 87.144939,1124.6421 86.463599,1123.8173 85.782259,1122.9567 85.459519,1121.8091 85.136779,1120.6258 85.136779,1119.2631 Z M 86.786339,1119.3348 Q 86.786339,1121.4147 87.682839,1122.7774 88.579339,1124.1042 90.65922,1124.1042 92.7391,1124.1042 93.6356,1122.7774 94.5321,1121.4147 94.5321,1119.3348 V 1106.3176 Q 94.5321,1104.2736 93.6356,1102.9468 92.7391,1101.5841 90.65922,1101.5841 88.579339,1101.5841 87.682839,1102.9468 86.786339,1104.2736 86.786339,1106.3176 Z"
   id="kpt3-tspan5062"
   style="font-size:35.86px;font-family:'Bebas Neue';-inkscape-font-specification:'Bebas Neue';stroke:#ffffff;stroke-width:1.10329"
   transform="scale(1.120617,0.89236552)"
   aria-label="0" />
  </g>
  <g
     style="font-style:normal;font-variant:normal;font-weight:normal;font-stretch:normal;font-size:32px;line-height:125%;font-family:'Droid Sans';-inkscape-font-specification:'Droid Sans';letter-spacing:0px;word-spacing:0px;fill:#ffffff;fill-opacity:1;stroke:none;stroke-width:1.10327"
     id="kpt3-text5064"
     xml:space="preserve"
     transform="matrix(0.99015695,0,0,0.82968615,4.20424,-560.7406)">
   <path
   d="M 144.87147,1108.0483 144.01083,1116.1885 H 146.19829 L 146.09071,1117.4077 H 143.90325 L 143.04261,1125.3687 H 141.64407 L 142.50471,1117.4077 H 138.27323 L 137.44845,1125.3687 H 136.04991 L 136.91055,1117.4077 H 134.54379 L 134.65137,1116.1885 H 137.01813 L 137.87877,1108.0483 H 135.47615 L 135.58373,1106.829 H 137.98635 L 138.66769,1100.2308 H 140.06623 L 139.38489,1106.829 H 143.58051 L 144.26185,1100.2308 H 145.66039 L 144.97905,1106.829 H 147.16651 L 147.05893,1108.0483 Z M 143.47293,1108.0483 H 139.24145 L 138.41667,1116.1885 H 142.61229 Z"
   id="kpt3-tspan5066"
   style="font-size:35.86px;line-height:125%;font-family:'Bebas Neue';-inkscape-font-specification:'Bebas Neue';stroke:#ffffff;stroke-width:1.10329"
   transform="scale(1.120617,0.89236552)"
   aria-label="#" />
  </g>
  <path
     d="M 63.860709,255.67337 67.761095,260.51806 66.488337,261.46237 63.203801,256.16605 59.919265,261.42131 58.605451,260.51806 62.546894,255.67337 56.470502,254.23639 56.963183,252.71729 62.793234,254.89329 62.382667,248.61162 H 63.983879 L 63.614368,254.89329 69.44442,252.7994 69.9371,254.3185 Z"
     id="kpt3-tspan5070"
     style="font-size:41.0567px;line-height:125%;font-family:'Bebas Neue';-inkscape-font-specification:'Bebas Neue';letter-spacing:0px;word-spacing:0px;fill:#ffffff;stroke:#ffffff"
     transform="scale(0.9691411,1.0318415)"
     aria-label="*" />
</svg>
