<svg xmlns="http://www.w3.org/2000/svg" viewBox="0 0 330 150">
  <defs id="defs93">
    
    <pattern xlink:href="#characters" id="pattern93" patternTransform="matrix(3.9785,0,0,3.9785,16.32,22.139999)"></pattern>
    <defs id="defs55">
      <pattern id="characters" width="3.55" height="5.95" patternUnits="userSpaceOnUse" x="12.45" y="12.55">
        <rect width="2.95" height="5.55" fill-opacity="0.05" id="rect55"></rect>
      </pattern>
      
    </defs>
  </defs>
  
  <!-- Retouche brochage lcd : déplace chaque pastille rouge sur un CROISEMENT (lignes foncées = 50 px). Garde les id pin-<nom>. Marge 20 px. -->
  <path d="" fill="#000000" id="path77" style="opacity:0.85;stroke-width:3.9785"></path>
  <g id="g127" transform="translate(-10,-20)">
    <rect fill="#087f45" width="318.28" height="143.226" id="rect56" x="16.32" y="22.139999" style="opacity:0.85;stroke-width:3.9785"></rect>
    <rect x="36.013573" y="44.817448" width="283.2692" height="100.2582" id="rect57" style="opacity:0.85;stroke-width:3.9785"></rect>
    <rect x="46.357677" y="63.118549" rx="5.9677501" ry="5.9677501" width="262.58099" height="63.655998" fill="#6cb201" id="rect58" style="opacity:0.85;stroke-width:3.9785"></rect>
    <rect x="46.357677" y="63.118549" rx="5.9677501" ry="5.9677501" width="262.58099" height="63.655998" opacity="0" id="rect59" style="stroke-width:3.9785"></rect>
    <text fill="#ffffff" font-size="5.92952px" font-family="monospace" id="text77" style="opacity:0.85;stroke-width:3.9785" x="16.741171" y="150.86661" transform="scale(0.99359526,1.006446)"><tspan x="40.459286" y="161.53976" id="tspan60" style="stroke-width:3.9785">1</tspan><tspan x="45.202904" y="153.63373" id="tspan61" style="stroke-width:3.9785">VSS</tspan><tspan x="55.876057" y="153.63373" id="tspan62" style="stroke-width:3.9785">VDD</tspan><tspan x="66.944504" y="153.63373" id="tspan63" style="stroke-width:3.9785">V0</tspan><tspan x="76.827057" y="153.63373" id="tspan64" style="stroke-width:3.9785">RS</tspan><tspan x="87.104904" y="153.63373" id="tspan65" style="stroke-width:3.9785">RW</tspan><tspan x="98.963959" y="153.63373" id="tspan66" style="stroke-width:3.9785">E</tspan><tspan x="106.4747" y="153.63373" id="tspan67" style="stroke-width:3.9785">D0</tspan><tspan x="116.75255" y="153.63373" id="tspan68" style="stroke-width:3.9785">D1</tspan><tspan x="127.0304" y="153.63373" id="tspan69" style="stroke-width:3.9785">D2</tspan><tspan x="136.91295" y="153.63373" id="tspan70" style="stroke-width:3.9785">D3</tspan><tspan x="147.1908" y="153.63373" id="tspan71" style="stroke-width:3.9785">D4</tspan><tspan x="157.46863" y="153.63373" id="tspan72" style="stroke-width:3.9785">D5</tspan><tspan x="167.74651" y="153.63373" id="tspan73" style="stroke-width:3.9785">D6</tspan><tspan x="178.02434" y="153.63373" id="tspan74" style="stroke-width:3.9785">D7</tspan><tspan x="189.09279" y="153.63373" id="tspan75" style="stroke-width:3.9785">A</tspan><tspan x="199.37065" y="153.63373" id="tspan76" style="stroke-width:3.9785">K</tspan><tspan x="206.48607" y="161.53976" id="tspan77" style="stroke-width:3.9785">16</tspan></text>
    <rect fill="url(#characters)" x="65.852325" y="72.070175" width="223.59171" height="45.75275" id="rect77" style="opacity:0.85;fill:url(#pattern93);stroke-width:3.9785"></rect>
    <g id="g126" transform="translate(-4.0527344e-7,-9.9999998)">
      <g id="g95" transform="translate(-10.028915,10.211273)">
        <path id="rect94" style="fill:#808f68;fill-opacity:0.976471;stroke-width:2.1;stroke-linecap:round" d="M 60.028915,156.34375 C 58.614087,156.34394 57.319058,157.13334 56.677353,158.38672 V 165.36719 H 63.380478 V 158.38672 C 62.738773,157.13334 61.443744,156.34394 60.028915,156.34375 Z"></path>
        <path style="fill:#000000;fill-opacity:0.974212;stroke-width:2.1;stroke-linecap:round" id="path95" d="M 61.815415,159.78873 C 61.815415,160.77538 61.015572,161.57523 60.028915,161.57523 59.042259,161.57523 58.242415,160.77538 58.242415,159.78873 58.242415,158.80207 59.042259,158.00223 60.028915,158.00223 61.015572,158.00223 61.815415,158.80207 61.815415,159.78873 Z"></path>
      </g>
      <g transform="translate(-0.02879,10.211273)" id="g97" style="display:inline">
        <path style="fill:#808f68;fill-opacity:0.976471;stroke-width:2.1;stroke-linecap:round" id="path96" d="M 60.028915,156.34375 C 58.614087,156.34394 57.319058,157.13334 56.677353,158.38672 V 165.36719 H 63.380478 V 158.38672 C 62.738773,157.13334 61.443744,156.34394 60.028915,156.34375 Z"></path>
        <path style="fill:#000000;fill-opacity:0.974212;stroke-width:2.1;stroke-linecap:round" id="path97" d="M 61.815415,159.78873 C 61.815415,160.77538 61.015572,161.57523 60.028915,161.57523 59.042259,161.57523 58.242415,160.77538 58.242415,159.78873 58.242415,158.80207 59.042259,158.00223 60.028915,158.00223 61.015572,158.00223 61.815415,158.80207 61.815415,159.78873 Z"></path>
      </g>
      <g transform="translate(9.971335,10.211273)" id="g99" style="display:inline">
        <path style="fill:#808f68;fill-opacity:0.976471;stroke-width:2.1;stroke-linecap:round" id="path98" d="M 60.028915,156.34375 C 58.614087,156.34394 57.319058,157.13334 56.677353,158.38672 V 165.36719 H 63.380478 V 158.38672 C 62.738773,157.13334 61.443744,156.34394 60.028915,156.34375 Z"></path>
        <path style="fill:#000000;fill-opacity:0.974212;stroke-width:2.1;stroke-linecap:round" id="path99" d="M 61.815415,159.78873 C 61.815415,160.77538 61.015572,161.57523 60.028915,161.57523 59.042259,161.57523 58.242415,160.77538 58.242415,159.78873 58.242415,158.80207 59.042259,158.00223 60.028915,158.00223 61.015572,158.00223 61.815415,158.80207 61.815415,159.78873 Z"></path>
      </g>
      <g transform="translate(19.97146,10.211273)" id="g101">
        <path style="fill:#808f68;fill-opacity:0.976471;stroke-width:2.1;stroke-linecap:round" id="path100" d="M 60.028915,156.34375 C 58.614087,156.34394 57.319058,157.13334 56.677353,158.38672 V 165.36719 H 63.380478 V 158.38672 C 62.738773,157.13334 61.443744,156.34394 60.028915,156.34375 Z"></path>
        <path style="fill:#000000;fill-opacity:0.974212;stroke-width:2.1;stroke-linecap:round" id="path101" d="M 61.815415,159.78873 C 61.815415,160.77538 61.015572,161.57523 60.028915,161.57523 59.042259,161.57523 58.242415,160.77538 58.242415,159.78873 58.242415,158.80207 59.042259,158.00223 60.028915,158.00223 61.015572,158.00223 61.815415,158.80207 61.815415,159.78873 Z"></path>
      </g>
      <g transform="translate(29.971585,10.211273)" id="g103">
        <path style="fill:#808f68;fill-opacity:0.976471;stroke-width:2.1;stroke-linecap:round" id="path102" d="M 60.028915,156.34375 C 58.614087,156.34394 57.319058,157.13334 56.677353,158.38672 V 165.36719 H 63.380478 V 158.38672 C 62.738773,157.13334 61.443744,156.34394 60.028915,156.34375 Z"></path>
        <path style="fill:#000000;fill-opacity:0.974212;stroke-width:2.1;stroke-linecap:round" id="path103" d="M 61.815415,159.78873 C 61.815415,160.77538 61.015572,161.57523 60.028915,161.57523 59.042259,161.57523 58.242415,160.77538 58.242415,159.78873 58.242415,158.80207 59.042259,158.00223 60.028915,158.00223 61.015572,158.00223 61.815415,158.80207 61.815415,159.78873 Z"></path>
      </g>
      <g transform="translate(39.97171,10.211273)" id="g105">
        <path style="fill:#808f68;fill-opacity:0.976471;stroke-width:2.1;stroke-linecap:round" id="path104" d="M 60.028915,156.34375 C 58.614087,156.34394 57.319058,157.13334 56.677353,158.38672 V 165.36719 H 63.380478 V 158.38672 C 62.738773,157.13334 61.443744,156.34394 60.028915,156.34375 Z"></path>
        <path style="fill:#000000;fill-opacity:0.974212;stroke-width:2.1;stroke-linecap:round" id="path105" d="M 61.815415,159.78873 C 61.815415,160.77538 61.015572,161.57523 60.028915,161.57523 59.042259,161.57523 58.242415,160.77538 58.242415,159.78873 58.242415,158.80207 59.042259,158.00223 60.028915,158.00223 61.015572,158.00223 61.815415,158.80207 61.815415,159.78873 Z"></path>
      </g>
      <g transform="translate(49.971835,10.211273)" id="g107">
        <path style="fill:#808f68;fill-opacity:0.976471;stroke-width:2.1;stroke-linecap:round" id="path106" d="M 60.028915,156.34375 C 58.614087,156.34394 57.319058,157.13334 56.677353,158.38672 V 165.36719 H 63.380478 V 158.38672 C 62.738773,157.13334 61.443744,156.34394 60.028915,156.34375 Z"></path>
        <path style="fill:#000000;fill-opacity:0.974212;stroke-width:2.1;stroke-linecap:round" id="path107" d="M 61.815415,159.78873 C 61.815415,160.77538 61.015572,161.57523 60.028915,161.57523 59.042259,161.57523 58.242415,160.77538 58.242415,159.78873 58.242415,158.80207 59.042259,158.00223 60.028915,158.00223 61.015572,158.00223 61.815415,158.80207 61.815415,159.78873 Z"></path>
      </g>
      <g transform="translate(59.97196,10.211273)" id="g109">
        <path style="fill:#808f68;fill-opacity:0.976471;stroke-width:2.1;stroke-linecap:round" id="path108" d="M 60.028915,156.34375 C 58.614087,156.34394 57.319058,157.13334 56.677353,158.38672 V 165.36719 H 63.380478 V 158.38672 C 62.738773,157.13334 61.443744,156.34394 60.028915,156.34375 Z"></path>
        <path style="fill:#000000;fill-opacity:0.974212;stroke-width:2.1;stroke-linecap:round" id="path109" d="M 61.815415,159.78873 C 61.815415,160.77538 61.015572,161.57523 60.028915,161.57523 59.042259,161.57523 58.242415,160.77538 58.242415,159.78873 58.242415,158.80207 59.042259,158.00223 60.028915,158.00223 61.015572,158.00223 61.815415,158.80207 61.815415,159.78873 Z"></path>
      </g>
      <g transform="translate(69.972085,10.211273)" id="g111">
        <path style="fill:#808f68;fill-opacity:0.976471;stroke-width:2.1;stroke-linecap:round" id="path110" d="M 60.028915,156.34375 C 58.614087,156.34394 57.319058,157.13334 56.677353,158.38672 V 165.36719 H 63.380478 V 158.38672 C 62.738773,157.13334 61.443744,156.34394 60.028915,156.34375 Z"></path>
        <path style="fill:#000000;fill-opacity:0.974212;stroke-width:2.1;stroke-linecap:round" id="path111" d="M 61.815415,159.78873 C 61.815415,160.77538 61.015572,161.57523 60.028915,161.57523 59.042259,161.57523 58.242415,160.77538 58.242415,159.78873 58.242415,158.80207 59.042259,158.00223 60.028915,158.00223 61.015572,158.00223 61.815415,158.80207 61.815415,159.78873 Z"></path>
      </g>
      <g transform="translate(79.97221,10.211273)" id="g113">
        <path style="fill:#808f68;fill-opacity:0.976471;stroke-width:2.1;stroke-linecap:round" id="path112" d="M 60.028915,156.34375 C 58.614087,156.34394 57.319058,157.13334 56.677353,158.38672 V 165.36719 H 63.380478 V 158.38672 C 62.738773,157.13334 61.443744,156.34394 60.028915,156.34375 Z"></path>
        <path style="fill:#000000;fill-opacity:0.974212;stroke-width:2.1;stroke-linecap:round" id="path113" d="M 61.815415,159.78873 C 61.815415,160.77538 61.015572,161.57523 60.028915,161.57523 59.042259,161.57523 58.242415,160.77538 58.242415,159.78873 58.242415,158.80207 59.042259,158.00223 60.028915,158.00223 61.015572,158.00223 61.815415,158.80207 61.815415,159.78873 Z"></path>
      </g>
      <g transform="translate(89.972335,10.211273)" id="g115">
        <path style="fill:#808f68;fill-opacity:0.976471;stroke-width:2.1;stroke-linecap:round" id="path114" d="M 60.028915,156.34375 C 58.614087,156.34394 57.319058,157.13334 56.677353,158.38672 V 165.36719 H 63.380478 V 158.38672 C 62.738773,157.13334 61.443744,156.34394 60.028915,156.34375 Z"></path>
        <path style="fill:#000000;fill-opacity:0.974212;stroke-width:2.1;stroke-linecap:round" id="path115" d="M 61.815415,159.78873 C 61.815415,160.77538 61.015572,161.57523 60.028915,161.57523 59.042259,161.57523 58.242415,160.77538 58.242415,159.78873 58.242415,158.80207 59.042259,158.00223 60.028915,158.00223 61.015572,158.00223 61.815415,158.80207 61.815415,159.78873 Z"></path>
      </g>
      <g transform="translate(99.97246,10.211273)" id="g117">
        <path style="fill:#808f68;fill-opacity:0.976471;stroke-width:2.1;stroke-linecap:round" id="path116" d="M 60.028915,156.34375 C 58.614087,156.34394 57.319058,157.13334 56.677353,158.38672 V 165.36719 H 63.380478 V 158.38672 C 62.738773,157.13334 61.443744,156.34394 60.028915,156.34375 Z"></path>
        <path style="fill:#000000;fill-opacity:0.974212;stroke-width:2.1;stroke-linecap:round" id="path117" d="M 61.815415,159.78873 C 61.815415,160.77538 61.015572,161.57523 60.028915,161.57523 59.042259,161.57523 58.242415,160.77538 58.242415,159.78873 58.242415,158.80207 59.042259,158.00223 60.028915,158.00223 61.015572,158.00223 61.815415,158.80207 61.815415,159.78873 Z"></path>
      </g>
      <g transform="translate(109.97258,10.211273)" id="g119">
        <path style="fill:#808f68;fill-opacity:0.976471;stroke-width:2.1;stroke-linecap:round" id="path118" d="M 60.028915,156.34375 C 58.614087,156.34394 57.319058,157.13334 56.677353,158.38672 V 165.36719 H 63.380478 V 158.38672 C 62.738773,157.13334 61.443744,156.34394 60.028915,156.34375 Z"></path>
        <path style="fill:#000000;fill-opacity:0.974212;stroke-width:2.1;stroke-linecap:round" id="path119" d="M 61.815415,159.78873 C 61.815415,160.77538 61.015572,161.57523 60.028915,161.57523 59.042259,161.57523 58.242415,160.77538 58.242415,159.78873 58.242415,158.80207 59.042259,158.00223 60.028915,158.00223 61.015572,158.00223 61.815415,158.80207 61.815415,159.78873 Z"></path>
      </g>
      <g transform="translate(119.97271,10.211273)" id="g121">
        <path style="fill:#808f68;fill-opacity:0.976471;stroke-width:2.1;stroke-linecap:round" id="path120" d="M 60.028915,156.34375 C 58.614087,156.34394 57.319058,157.13334 56.677353,158.38672 V 165.36719 H 63.380478 V 158.38672 C 62.738773,157.13334 61.443744,156.34394 60.028915,156.34375 Z"></path>
        <path style="fill:#000000;fill-opacity:0.974212;stroke-width:2.1;stroke-linecap:round" id="path121" d="M 61.815415,159.78873 C 61.815415,160.77538 61.015572,161.57523 60.028915,161.57523 59.042259,161.57523 58.242415,160.77538 58.242415,159.78873 58.242415,158.80207 59.042259,158.00223 60.028915,158.00223 61.015572,158.00223 61.815415,158.80207 61.815415,159.78873 Z"></path>
      </g>
      <g transform="translate(129.97283,10.211273)" id="g123">
        <path style="fill:#808f68;fill-opacity:0.976471;stroke-width:2.1;stroke-linecap:round" id="path122" d="M 60.028915,156.34375 C 58.614087,156.34394 57.319058,157.13334 56.677353,158.38672 V 165.36719 H 63.380478 V 158.38672 C 62.738773,157.13334 61.443744,156.34394 60.028915,156.34375 Z"></path>
        <path style="fill:#000000;fill-opacity:0.974212;stroke-width:2.1;stroke-linecap:round" id="path123" d="M 61.815415,159.78873 C 61.815415,160.77538 61.015572,161.57523 60.028915,161.57523 59.042259,161.57523 58.242415,160.77538 58.242415,159.78873 58.242415,158.80207 59.042259,158.00223 60.028915,158.00223 61.015572,158.00223 61.815415,158.80207 61.815415,159.78873 Z"></path>
      </g>
      <g transform="translate(139.97296,10.211273)" id="g125">
        <path style="fill:#808f68;fill-opacity:0.976471;stroke-width:2.1;stroke-linecap:round" id="path124" d="M 60.028915,156.34375 C 58.614087,156.34394 57.319058,157.13334 56.677353,158.38672 V 165.36719 H 63.380478 V 158.38672 C 62.738773,157.13334 61.443744,156.34394 60.028915,156.34375 Z"></path>
        <path style="fill:#000000;fill-opacity:0.974212;stroke-width:2.1;stroke-linecap:round" id="path125" d="M 61.815415,159.78873 C 61.815415,160.77538 61.015572,161.57523 60.028915,161.57523 59.042259,161.57523 58.242415,160.77538 58.242415,159.78873 58.242415,158.80207 59.042259,158.00223 60.028915,158.00223 61.015572,158.00223 61.815415,158.80207 61.815415,159.78873 Z"></path>
      </g>
    </g>
    
    
    
    
    
    
    
    
    
    
    
    
    
    
    
    
    
    
    
    
    
    
    
    
    
    
    
    
    
    
    
    
  </g>
</svg>
