<svg xmlns="http://www.w3.org/2000/svg" viewBox="0 0 150 165">
  <defs id="defs60"></defs>
  
  <!-- Retouche brochage led-ring : déplace chaque pastille rouge sur un CROISEMENT (lignes foncées = 50 px). Garde les id pin-<nom>. Marge 20 px. -->
  <g id="board" opacity="0.85" transform="matrix(3.937,0,0,3.937,1.239998,0.669998)">
    <defs id="defs40">
      <pattern id="pin-pattern" height="2" width="2.54" patternUnits="userSpaceOnUse">
        <rect x="1.02" y="0" height="2" width="0.5" fill="#aaa" id="rect40"></rect>
      </pattern>
    </defs>
    <rect fill="url(#pin-pattern)" height="4" width="10.16" transform="translate(13.652395,36.464791)" id="rect41" x="0" y="0"></rect>
    <circle fill="transparent" cx="18.732395" cy="18.732395" r="15.732395" stroke-width="6" stroke="#336633" id="circle41"></circle>
    <!--?lit$480109787$-->
    <!---->
    <rect class="pixel" width="5" height="5" fill="#ffffff" stroke="#000000" stroke-width="0.25" x="16.232395" y="0.5" id="rect42"></rect>
    <!---->
    <!---->
    <rect class="pixel" width="5" height="5" fill="#ffffff" stroke="#000000" stroke-width="0.25" x="16.232395" y="0.5" transform="rotate(22.5,18.732395,18.732395)" id="rect43"></rect>
    <!---->
    <!---->
    <rect class="pixel" width="5" height="5" fill="#ffffff" stroke="#000000" stroke-width="0.25" x="16.232395" y="0.5" transform="rotate(45,18.732395,18.732395)" id="rect44"></rect>
    <!---->
    <!---->
    <rect class="pixel" width="5" height="5" fill="#ffffff" stroke="#000000" stroke-width="0.25" x="16.232395" y="0.5" transform="rotate(67.5,18.732395,18.732395)" id="rect45"></rect>
    <!---->
    <!---->
    <rect class="pixel" width="5" height="5" fill="#ffffff" stroke="#000000" stroke-width="0.25" x="16.232395" y="0.5" transform="rotate(90,18.732395,18.732395)" id="rect46"></rect>
    <!---->
    <!---->
    <rect class="pixel" width="5" height="5" fill="#ffffff" stroke="#000000" stroke-width="0.25" x="16.232395" y="0.5" transform="rotate(112.5,18.732395,18.732395)" id="rect47"></rect>
    <!---->
    <!---->
    <rect class="pixel" width="5" height="5" fill="#ffffff" stroke="#000000" stroke-width="0.25" x="16.232395" y="0.5" transform="rotate(135,18.732395,18.732395)" id="rect48"></rect>
    <!---->
    <!---->
    <rect class="pixel" width="5" height="5" fill="#ffffff" stroke="#000000" stroke-width="0.25" x="16.232395" y="0.5" transform="rotate(157.5,18.732395,18.732395)" id="rect49"></rect>
    <!---->
    <!---->
    <rect class="pixel" width="5" height="5" fill="#ffffff" stroke="#000000" stroke-width="0.25" x="16.232395" y="0.5" transform="rotate(180,18.732395,18.732395)" id="rect50"></rect>
    <!---->
    <!---->
    <rect class="pixel" width="5" height="5" fill="#ffffff" stroke="#000000" stroke-width="0.25" x="16.232395" y="0.5" transform="rotate(-157.5,18.732395,18.732395)" id="rect51"></rect>
    <!---->
    <!---->
    <rect class="pixel" width="5" height="5" fill="#ffffff" stroke="#000000" stroke-width="0.25" x="16.232395" y="0.5" transform="rotate(-135,18.732395,18.732395)" id="rect52"></rect>
    <!---->
    <!---->
    <rect class="pixel" width="5" height="5" fill="#ffffff" stroke="#000000" stroke-width="0.25" x="16.232395" y="0.5" transform="rotate(-112.5,18.732395,18.732395)" id="rect53"></rect>
    <!---->
    <!---->
    <rect class="pixel" width="5" height="5" fill="#ffffff" stroke="#000000" stroke-width="0.25" x="16.232395" y="0.5" transform="rotate(-90,18.732395,18.732395)" id="rect54"></rect>
    <!---->
    <!---->
    <rect class="pixel" width="5" height="5" fill="#ffffff" stroke="#000000" stroke-width="0.25" x="16.232395" y="0.5" transform="rotate(-67.5,18.732395,18.732395)" id="rect55"></rect>
    <!---->
    <!---->
    <rect class="pixel" width="5" height="5" fill="#ffffff" stroke="#000000" stroke-width="0.25" x="16.232395" y="0.5" transform="rotate(-45,18.732395,18.732395)" id="rect56"></rect>
    <!---->
    <!---->
    <rect class="pixel" width="5" height="5" fill="#ffffff" stroke="#000000" stroke-width="0.25" x="16.232395" y="0.5" transform="rotate(-22.5,18.732395,18.732395)" id="rect57"></rect>
    <!---->
  </g>
  
  
  
  
  
  
  
  
</svg>
