<svg xmlns="http://www.w3.org/2000/svg" viewBox="0 0 30 50">
  <defs id="defs32">
    <filter id="light1" x="-1.2" y="-1.2" height="3.4" width="3.4">
      <feGaussianBlur stdDeviation="2" id="feGaussianBlur18"></feGaussianBlur>
    </filter>
    <filter id="light2" x="-0.48" y="-0.48" height="1.96" width="1.96">
      <feGaussianBlur stdDeviation="4" id="feGaussianBlur19"></feGaussianBlur>
    </filter>
  </defs>
  
  <!-- Retouche brochage led : déplace chaque pastille rouge sur un CROISEMENT (lignes foncées = 50 px). Garde les id pin-<nom>. Marge 20 px. -->
  <g id="g33">
    <rect x="8.786396" y="28.912838" width="2.4272096" height="11.08716" fill="#8c8c8c" id="rect19" style="opacity:0.85;stroke-width:1.1282"></rect>
    <path d="M 21.114083,40 C 21.114083,38.68362 20.134309,37.181046 18.97998,36.183665 18.510469,35.771792 17.626704,35.060324 17.626704,34.585413 V 28.449262 H 15.188213 V 34.932679 C 15.188213,36.119844 16.257205,37.039716 17.383916,38.015223 17.885107,38.436788 18.905406,39.41685 18.905406,39.999888" fill="#8c8c8c" id="path19" style="opacity:0.85;stroke-width:1.1282"></path>
    <path d="M 21.944705,20.585595 V 13.915 C 21.944705,9.500128 18.370567,5.917867 13.950844,5.917867 9.536761,5.917867 5.9545,9.493584 5.9545,13.915 V 29.313802 C 7.617242,31.17646 10.57651,32.419285 13.950844,32.419285 19.162563,32.419285 23.392298,29.46577 23.392298,25.80871 V 24.089897 C 23.391463,22.800816 22.857035,21.603457 21.944817,20.585595 Z" opacity="0.255" id="path20" style="stroke-width:1.1282"></path>
    <path d="M 21.944705,20.585595 V 13.915 C 21.944705,9.500128 18.370567,5.917867 13.950844,5.917867 9.536761,5.917867 5.9545,9.493584 5.9545,13.915 V 29.313802 C 7.617242,31.17646 10.57651,32.419285 13.950844,32.419285 19.162563,32.419285 23.392298,29.46577 23.392298,25.80871 V 24.089897 C 23.391463,22.800816 22.857035,21.603457 21.944817,20.585595 Z" fill="#e6e6e6" opacity="0.425" id="path21" style="stroke-width:1.1282"></path>
    <path d="M 21.944705,20.585595 V 24.089107 C 21.944705,27.179134 18.373049,29.690733 13.950844,29.690733 9.536761,29.690756 5.9545,27.187257 5.9545,24.089107 V 29.312222 C 7.617242,31.17567 10.57651,32.417706 13.950844,32.417706 19.162563,32.417706 23.392298,29.464191 23.392298,25.808033 L 23.392253,24.08922 C 23.391463,22.800929 22.857035,21.60357 21.944772,20.585708 Z" fill="#d1d1d1" opacity="0.765" id="path22" style="stroke-width:1.1282"></path>
    <g id="g24" transform="matrix(1.1282,0,0,1.1282,5.954726,5.917867)" style="opacity:0.85">
      <path d="M 14.173,13.001 V 16.1064 C 14.173,18.8453 11.0072,21.0715 7.0875,21.0715 3.175,21.07152 -2e-4,18.8525 -2e-4,16.1064 V 20.736 C 1.4736,22.3877 4.0966,23.4886 7.0875,23.4886 11.707,23.4886 15.4561,20.8707 15.4561,17.63 L 15.45606,16.1065 C 15.45536,14.9646 14.98166,13.9033 14.17306,13.0011 Z" opacity="0.7" id="path23"></path>
      <path d="M 14.173,13.001 V 16.1064 C 14.173,18.8453 11.0072,21.0715 7.0875,21.0715 3.175,21.07152 -2e-4,18.8525 -2e-4,16.1064 V 19.2118 C 1.4736,20.862 4.0966,21.9644 7.0875,21.9644 11.707,21.9644 15.4561,19.3465 15.4561,16.1058 15.45536,14.9646 14.98166,13.9033 14.1731,13.0011 Z" opacity="0.25" id="path24"></path>
      <ellipse cx="7.0876999" cy="16.106001" rx="7.0869999" ry="4.9608002" opacity="0.25" id="ellipse24"></ellipse>
    </g>
    <polygon points="2.2032,9.648 2.2032,16.107 3.1961,16.107 3.1961,13.095 6.0156,13.095 10.012,8.8049 3.407,8.8049 " fill="#666666" id="polygon24" transform="matrix(1.1282,0,0,1.1282,5.954726,5.917867)" style="opacity:0.85"></polygon>
    <polygon points="10.778,8.5241 11.215,9.0338 7.4117,13.095 11.06,13.095 11.06,16.107 11.974,16.107 11.974,8.5241 " fill="#666666" id="polygon25" transform="matrix(1.1282,0,0,1.1282,5.954726,5.917867)" style="opacity:0.85"></polygon>
    <path d="M 21.944705,20.585595 V 13.915 C 21.944705,9.500128 18.370567,5.917867 13.950844,5.917867 9.536761,5.917867 5.9545,9.493584 5.9545,13.915 V 29.313802 C 7.617242,31.17646 10.57651,32.419285 13.950844,32.419285 19.162563,32.419285 23.392298,29.46577 23.392298,25.80871 V 24.089897 C 23.391463,22.800816 22.857035,21.603457 21.944817,20.585595 Z" opacity="0.5525" fill="#ff0000" id="path25" style="stroke-width:1.1282"></path>
    <g fill="#ffffff" id="g28" transform="matrix(1.1282,0,0,1.1282,5.954726,5.917867)" style="opacity:0.85">
      <path d="M 10.388,3.7541 11.8244,3.4805 C 10.98272,2.3487 9.7422,1.5228 8.2827,1.242 L 8.53686,2.3227 C 9.30074,2.59342 9.94366,3.10318 10.38796,3.7541 Z" opacity="0.5" id="path26"></path>
      <path d="M 0.76824,19.926 V 21.4459 C 1.41696,21.9751 2.20174,22.42222 3.07584,22.7628 V 21.2378 C 2.19744,20.90156 1.41914,20.45586 0.76824,19.926 Z" opacity="0.5" id="path27"></path>
      <path d="M 11.073,20.21 C 10.8174,20.3324 10.54308,20.43968 10.26732,20.53976 10.209,20.5592 10.14996,20.58008 10.08948,20.59808 9.52572,20.77736 8.92808,20.91704 8.29448,20.99264 8.2196,21.00204 8.14328,21.01136 8.06984,21.01208 7.74944,21.04232 7.42616,21.0704 7.09928,21.0704 6.95096,21.0704 6.79184,21.05528 6.62768,21.04664 5.42748,20.98976 4.29708,20.732 3.33008,20.3072 L 3.33006,11.9177 V 7.0923 C 3.33006,5.6213 4.17822,4.3628 5.40366,3.7429 L 5.38134,3.68962 4.13354,2.17762 C 2.46384,3.18062 1.34354,5.00002 1.34354,7.08942 V 18.99442 C 1.29386,18.94474 1.03538,18.68554 0.8633,18.4645 L 0.55586,19.1521 C 1.95696,20.6339 4.36466,21.6138 7.09846,21.6138 8.77826,21.6138 10.33556,21.24012 11.60996,20.6116 L 11.08292,20.20264 11.07286,20.20984 Z" opacity="0.5" id="path28"></path>
    </g>
    <g id="g31" transform="translate(-25,-22)">


    </g>
    <g id="g32" transform="translate(-24.999999,-22)">


    </g>
  </g>
  <!-- Halo lumineux PAR-DESSUS le corps (z-order après #g33), plus brillant. -->
  <g class="light" style="display:none;opacity:1" id="g30" transform="matrix(1.1282,0,0,1.1282,5.954726,5.917867)">
    <circle cx="8" cy="10" filter="url(#light2)" fill="#ff8080" style="opacity:1" id="ellipse28" r="13"></circle>
    <circle cx="8" cy="10" fill="#ffffff" filter="url(#light1)" id="ellipse29" r="3"></circle>
    <circle cx="8" cy="10" fill="#ffffff" filter="url(#light1)" style="opacity:1" id="ellipse30" r="4.5"></circle>
  </g>
</svg>
