<svg xmlns="http://www.w3.org/2000/svg" viewBox="0 0 87.062523 80.5448">
  <defs id="defs46"></defs>
  
  <!-- Retouche brochage microsd : déplace chaque pastille rouge sur un CROISEMENT (lignes foncées = 50 px). Garde les id pin-<nom>. Marge 20 px. -->
  <g id="g6">
    <path d="M 0.078125,0.17578125 V 80.544922 H 85.109375 V 0.17578125 Z M 80,7.5507812 A 2.4499998,2.4499998 0 0 1 82.449219,10 2.4499998,2.4499998 0 0 1 80,12.449219 2.4499998,2.4499998 0 0 1 77.550781,10 2.4499998,2.4499998 0 0 1 80,7.5507812 Z M 80,17.550781 A 2.4499998,2.4499998 0 0 1 82.449219,20 2.4499998,2.4499998 0 0 1 80,22.449219 2.4499998,2.4499998 0 0 1 77.550781,20 2.4499998,2.4499998 0 0 1 80,17.550781 Z M 80,27.550781 A 2.4499998,2.4499998 0 0 1 82.449219,30 2.4499998,2.4499998 0 0 1 80,32.449219 2.4499998,2.4499998 0 0 1 77.550781,30 2.4499998,2.4499998 0 0 1 80,27.550781 Z M 80,37.550781 A 2.4499998,2.4499998 0 0 1 82.449219,40 2.4499998,2.4499998 0 0 1 80,42.449219 2.4499998,2.4499998 0 0 1 77.550781,40 2.4499998,2.4499998 0 0 1 80,37.550781 Z M 80,47.550781 A 2.4499998,2.4499998 0 0 1 82.449219,50 2.4499998,2.4499998 0 0 1 80,52.449219 2.4499998,2.4499998 0 0 1 77.550781,50 2.4499998,2.4499998 0 0 1 80,47.550781 Z M 80,57.550781 A 2.4499998,2.4499998 0 0 1 82.449219,60 2.4499998,2.4499998 0 0 1 80,62.449219 2.4499998,2.4499998 0 0 1 77.550781,60 2.4499998,2.4499998 0 0 1 80,57.550781 Z M 80,67.550781 A 2.4499998,2.4499998 0 0 1 82.449219,70 2.4499998,2.4499998 0 0 1 80,72.449219 2.4499998,2.4499998 0 0 1 77.550781,70 2.4499998,2.4499998 0 0 1 80,67.550781 Z" style="opacity:0.85;fill:#a1111b;stroke-width:3.937" id="path6"></path>
    <rect x="5.26684" y="18.300831" width="12.32281" height="31.732222" fill="#262626" stroke="#d5b7b5" stroke-width="0.913384" id="rect27" style="opacity:1"></rect>
    <rect x="16.132959" y="0.37448743" width="42.1259" height="70.078598" rx="3.0393641" ry="3.0393641" fill="#262626" id="rect28" style="opacity:1;stroke-width:3.937"></rect>
    <path d="M 14.99123,10.03313 8.6132897,10.14809 V 15.58115 C 10.479428,15.753591 10.526672,15.59178 10.538483,16.356739 10.548719,17.120517 10.26368,17.289808 5.8140827,17.368548 V 21.065391 C 7.3416387,21.137832 8.4321877,20.789014 8.4873057,21.896098 L 9.1802177,36.305518 7.5542367,38.014176 7.6357326,40.899997 8.0412436,41.348815 12.568794,41.470862 13.017612,41.022044 12.895565,38.014176 11.474308,36.427565 11.636906,22.175625 C 11.677457,21.159879 12.329818,21.061454 12.329818,21.061454 H 13.668398 C 14.097531,21.061454 14.443987,21.332713 14.443987,21.667752 V 42.494482 C 14.443987,42.831489 14.097531,43.10078 13.668398,43.10078 H 5.8337677 V 70.5023 H 26.306168 C 26.1479,64.95113 25.554201,49.59683 25.925066,46.8803 25.98609,46.431482 26.960497,46.619671 26.99593,46.761009 27.212859,47.635023 27.080969,56.800359 27.917188,69.005059 29.614035,69.926317 28.586478,66.426324 29.582539,66.505064 30.535293,66.578292 29.266792,69.694034 31.133717,69.005059 32.645525,53.257059 31.391984,46.170459 32.570722,46.524789 33.747885,46.880694 31.767574,67.627109 32.743163,70.501119 H 49.199823 C 49.199823,70.501119 48.530533,54.123199 48.077778,47.036599 48.038801,46.426364 49.939979,46.422427 49.916357,47.036599 49.659271,53.453909 50.232498,69.359389 50.232498,69.359389 52.330919,69.61805 50.893914,66.386954 52.043518,66.426324 53.141941,66.467269 51.842337,69.788522 53.567137,69.359389 53.567137,69.359389 54.425403,53.296429 54.456899,46.957859 54.459682,46.383057 55.933274,46.410616 55.921463,46.986599 55.832093,52.577139 55.405716,70.490489 55.405716,70.490489 H 59.382086 L 59.123819,14.191389 C 59.123819,14.191389 58.178939,14.040602 57.737995,14.196113 42.147475,19.707913 26.990025,18.369333 15.612095,14.076429 14.92312,13.241785 15.037293,10.166988 15.037293,10.166988 Z" fill="#dbded9" id="path28" style="opacity:1;stroke-width:3.937"></path>
    <rect x="23.06208" y="25.505539" width="15.62989" height="7.7558899" rx="1.1811" ry="1.1811" fill="#262626" stroke="#ebebeb" stroke-width="0.31496" id="rect29" style="opacity:1"></rect>
    <rect x="41.014797" y="25.505539" width="15.62989" height="7.7558899" rx="1.1811" ry="1.1811" fill="#262626" stroke="#ebebeb" stroke-width="0.31496" id="rect30" style="opacity:1"></rect>
    <path d="M 16.13296,4.9937695 C 16.13296,4.9937695 25.46365,6.2811685 36.88095,6.2811685 48.29825,6.2811685 58.21949,4.9937695 58.21949,4.9937695 V 7.2378595 C 58.21949,7.2378595 54.483277,8.5410065 36.88095,8.5252585 19.28256,8.5106916 16.13296,7.2378595 16.13296,7.2378595 Z" fill="#020202" stroke="#000000" stroke-width="0.106299" id="path30" style="opacity:1"></path>
    <g fill="#fcfff9" id="g33" transform="matrix(3.937,0,0,3.937,0.06999969,0.22999954)" style="opacity:1">
      <rect x="1.1900001" y="10.9" width="0.27500001" height="6.9499998" id="rect31"></rect>
      <rect x="1.1900001" y="4.3600001" width="0.27500001" height="0.94499999" id="rect32"></rect>
      <rect x="1.84" y="2.52" width="0.33000001" height="1.38" id="rect33"></rect>
    </g>
    <path d="M 80,6.0507812 A 3.95,3.95 0 0 0 76.050781,10 3.95,3.95 0 0 0 80,13.949219 3.95,3.95 0 0 0 83.949219,10 3.95,3.95 0 0 0 80,6.0507812 Z M 80,7.5507812 A 2.4499998,2.4499998 0 0 1 82.449219,10 2.4499998,2.4499998 0 0 1 80,12.449219 2.4499998,2.4499998 0 0 1 77.550781,10 2.4499998,2.4499998 0 0 1 80,7.5507812 Z" style="fill:#d2b386;fill-opacity:0.976471;stroke:#d2b386;stroke-width:0;stroke-linecap:round;stroke-opacity:0.976471" id="path5"></path>
    <path d="M 80,56.050781 A 3.95,3.95 0 0 0 76.050781,60 3.95,3.95 0 0 0 80,63.949219 3.95,3.95 0 0 0 83.949219,60 3.95,3.95 0 0 0 80,56.050781 Z M 80,57.550781 A 2.4499998,2.4499998 0 0 1 82.449219,60 2.4499998,2.4499998 0 0 1 80,62.449219 2.4499998,2.4499998 0 0 1 77.550781,60 2.4499998,2.4499998 0 0 1 80,57.550781 Z" style="fill:#d2b386;fill-opacity:0.976471;stroke:#d2b386;stroke-width:0;stroke-linecap:round;stroke-opacity:0.976471" id="path5-8"></path>
    <path d="M 80,46.050781 A 3.95,3.95 0 0 0 76.050781,50 3.95,3.95 0 0 0 80,53.949219 3.95,3.95 0 0 0 83.949219,50 3.95,3.95 0 0 0 80,46.050781 Z M 80,47.550781 A 2.4499998,2.4499998 0 0 1 82.449219,50 2.4499998,2.4499998 0 0 1 80,52.449219 2.4499998,2.4499998 0 0 1 77.550781,50 2.4499998,2.4499998 0 0 1 80,47.550781 Z" style="fill:#d2b386;fill-opacity:0.976471;stroke:#d2b386;stroke-width:0;stroke-linecap:round;stroke-opacity:0.976471" id="path5-5"></path>
    <path d="M 80,36.050781 A 3.95,3.95 0 0 0 76.050781,40 3.95,3.95 0 0 0 80,43.949219 3.95,3.95 0 0 0 83.949219,40 3.95,3.95 0 0 0 80,36.050781 Z M 80,37.550781 A 2.4499998,2.4499998 0 0 1 82.449219,40 2.4499998,2.4499998 0 0 1 80,42.449219 2.4499998,2.4499998 0 0 1 77.550781,40 2.4499998,2.4499998 0 0 1 80,37.550781 Z" style="fill:#d2b386;fill-opacity:0.976471;stroke:#d2b386;stroke-width:0;stroke-linecap:round;stroke-opacity:0.976471" id="path5-1"></path>
    <path d="M 80.000781,26.050781 A 3.95,3.95 0 0 0 76.051562,30 3.95,3.95 0 0 0 80.000781,33.949219 3.95,3.95 0 0 0 83.95,30 3.95,3.95 0 0 0 80.000781,26.050781 Z M 80.000781,27.550781 A 2.4499998,2.4499998 0 0 1 82.45,30 2.4499998,2.4499998 0 0 1 80.000781,32.449219 2.4499998,2.4499998 0 0 1 77.551562,30 2.4499998,2.4499998 0 0 1 80.000781,27.550781 Z" style="fill:#d2b386;fill-opacity:0.976471;stroke:#d2b386;stroke-width:0;stroke-linecap:round;stroke-opacity:0.976471" id="path5-11"></path>
    <path d="M 80.000781,16.050781 A 3.95,3.95 0 0 0 76.051562,20 3.95,3.95 0 0 0 80.000781,23.949219 3.95,3.95 0 0 0 83.95,20 3.95,3.95 0 0 0 80.000781,16.050781 Z M 80.000781,17.550781 A 2.4499998,2.4499998 0 0 1 82.45,20 2.4499998,2.4499998 0 0 1 80.000781,22.449219 2.4499998,2.4499998 0 0 1 77.551562,20 2.4499998,2.4499998 0 0 1 80.000781,17.550781 Z" style="fill:#d2b386;fill-opacity:0.976471;stroke:#d2b386;stroke-width:0;stroke-linecap:round;stroke-opacity:0.976471" id="path5-27"></path>
    <path d="M 80,66.050781 A 3.95,3.95 0 0 0 76.050781,70 3.95,3.95 0 0 0 80,73.949219 3.95,3.95 0 0 0 83.949219,70 3.95,3.95 0 0 0 80,66.050781 Z M 80,67.550781 A 2.4499998,2.4499998 0 0 1 82.449219,70 2.4499998,2.4499998 0 0 1 80,72.449219 2.4499998,2.4499998 0 0 1 77.550781,70 2.4499998,2.4499998 0 0 1 80,67.550781 Z" style="fill:#d2b386;fill-opacity:0.976471;stroke:#d2b386;stroke-width:0;stroke-linecap:round;stroke-opacity:0.976471" id="path5-2"></path>
    <g id="g3">
      <g id="g1">
        
        
        
        
        
        
        
      </g>
      <g id="g2">
        
        
        
        
        
        
        
      </g>
    </g>
  </g>
</svg>
