<svg xmlns="http://www.w3.org/2000/svg" viewBox="0 0 145.24001 77.485306">
  <defs id="defs58">
    <defs id="defs31"></defs>
    <clipPath clipPathUnits="userSpaceOnUse" id="clipPath58">
      <path d="M 28.769254,58.253123 C 27.784848,58.963562 26.553558,59.386493 25.216015,59.386493 21.982579,59.386493 19.369995,56.913497 19.369995,53.885275 19.369995,50.857053 21.982579,48.384057 25.216015,48.384057 26.2973,48.384057 27.308791,48.661149 28.176527,49.142415 30.37243,49.965358 31.628721,50.188282 34.113175,50.097654 34.113175,50.097654 31.890187,51.488323 32.06311,53.191503 32.218323,54.710301 35.24342,55.789503 35.24342,55.789503 32.703755,56.193682 30.892239,57.251008 28.769254,58.253123 Z" id="path58" style="stroke-width:1"></path>
    </clipPath>
  </defs>
  
  <!-- Retouche brochage ntc-temp : déplace chaque pastille rouge sur un CROISEMENT (lignes foncées = 50 px). Garde les id pin-<nom>. Marge 20 px. -->
  <path d="M 119.47801,2.7099991 H 25.286449 V 77.485308 H 119.47801 Z M 50.574759,61.371251 C 53.981117,61.371251 56.746831,64.088005 56.746831,67.494364 56.746831,70.900723 53.981117,73.665394 50.574759,73.665394 47.1684,73.665394 44.402686,70.900723 44.402686,67.494364 44.402686,64.088005 47.1684,61.371251 50.574759,61.371251 Z M 67.255501,53.079319 C 70.66186,53.079319 73.427573,55.843991 73.427573,59.25035 73.427573,62.656709 70.66186,65.422422 67.255501,65.422422 63.849142,65.422422 61.08447,62.656709 61.08447,59.25035 61.08447,55.843991 63.849142,53.079319 67.255501,53.079319 Z M 32.152294,54.45853 C 34.537787,54.45853 36.474307,56.39505 36.474307,58.779502 36.474307,61.164995 34.537787,63.101515 32.152294,63.101515 29.767843,63.101515 27.831322,61.164995 27.831322,58.779502 27.831322,56.39505 29.767843,54.45853 32.152294,54.45853 Z M 94.56471,55.120009 C 96.69082,55.120009 98.41691,56.846106 98.41691,58.972216 98.41691,61.098326 96.69082,62.824423 94.56471,62.824423 92.4386,62.824423 90.7125,61.098326 90.7125,58.972216 90.7125,56.846106 92.4386,55.120009 94.56471,55.120009 Z M 82.68933,46.637446 C 84.81544,46.637446 86.54153,48.363543 86.54153,50.489653 86.54153,52.615763 84.81544,54.341859 82.68933,54.341859 80.56322,54.341859 78.837121,52.615763 78.837121,50.489653 78.837121,48.363543 80.56322,46.637446 82.68933,46.637446 Z M 67.255501,44.750928 C 69.38161,44.750928 71.107707,46.477024 71.107707,48.603134 71.107707,50.729244 69.38161,52.455341 67.255501,52.455341 65.129391,52.455341 63.403294,50.729244 63.403294,48.603134 63.403294,46.477024 65.129391,44.750928 67.255501,44.750928 Z M 67.255501,28.110812 C 69.38161,28.110812 71.107707,29.836909 71.107707,31.963018 71.107707,34.089128 69.38161,35.815225 67.255501,35.815225 65.129391,35.815225 63.403294,34.089128 63.403294,31.963018 63.403294,29.836909 65.129391,28.110812 67.255501,28.110812 Z M 82.68933,24.774247 C 84.81544,24.774247 86.54153,26.500344 86.54153,28.626453 86.54153,30.752563 84.81544,32.47866 82.68933,32.47866 80.56322,32.47866 78.837121,30.752563 78.837121,28.626453 78.837121,26.500344 80.56322,24.774247 82.68933,24.774247 Z M 67.255501,14.772885 C 70.66186,14.772885 73.427573,17.537557 73.427573,20.943916 73.427573,24.350275 70.66186,27.115988 67.255501,27.115988 63.849142,27.115988 61.08447,24.350275 61.08447,20.943916 61.08447,17.537557 63.849142,14.772885 67.255501,14.772885 Z M 32.152294,17.093793 C 34.537787,17.093793 36.474307,19.030313 36.474307,21.414764 36.474307,23.800257 34.537787,25.736778 32.152294,25.736778 29.767843,25.736778 27.831322,23.800257 27.831322,21.414764 27.831322,19.030313 29.767843,17.093793 32.152294,17.093793 Z M 94.56471,17.393802 C 96.69082,17.393802 98.41691,19.119899 98.41691,21.246009 98.41691,23.372118 96.69082,25.098215 94.56471,25.098215 92.4386,25.098215 90.7125,23.372118 90.7125,21.246009 90.7125,19.119899 92.4386,17.393802 94.56471,17.393802 Z M 44.402686,11.45507 C 44.402686,9.7518911 47.489243,6.5288711 50.574759,6.5288711 53.660274,6.5288711 56.746831,9.7518911 56.746831,11.45507 56.746831,14.861429 53.981117,18.873016 50.574759,18.873016 47.1684,18.873016 44.402686,14.861429 44.402686,11.45507 Z" fill="#0f3661" id="path32" style="opacity:0.85;stroke-width:1.0417"></path>
  <path d="M 108.17556,25.212802 V 54.982505 H 116.91438 V 25.212802 Z" fill="none" stroke="#ffffff" stroke-width="0.93753px" id="path33" style="opacity:0.85"></path>
  <path d="M 99.887785,47.634353 V 32.534912 H 94.90118 V 47.634353 Z" fill="#bbb9b9" id="path40" style="opacity:0.85;stroke-width:1.0417"></path>
  <path d="M 100.06177,43.895692 V 36.273573 H 94.72721 V 43.895692 Z" fill="#29261c" id="path41" style="opacity:0.85;stroke-width:1.0417"></path>
  <circle cx="32.147087" cy="21.414764" r="4.3220134" stroke-width="2.60425px" id="circle41" style="opacity:0.85;fill:none;stroke:#bbb9b9;stroke-linejoin:miter"></circle>
  <circle cx="32.147087" cy="58.779503" r="4.3220134" stroke-width="2.60425px" id="circle42" style="opacity:0.85;fill:none;stroke:#bbb9b9;stroke-linejoin:miter"></circle>
  <circle cx="67.250298" cy="59.250351" r="6.1720729" stroke-width="0.989615px" id="circle43" style="opacity:0.85;fill:none;stroke:#bbb9b9;stroke-linejoin:miter"></circle>
  <circle cx="67.250298" cy="20.943916" r="6.1720729" stroke-width="0.989615px" id="circle44" style="opacity:0.85;fill:none;stroke:#bbb9b9;stroke-linejoin:miter"></circle>
  <circle cx="67.250298" cy="31.96302" r="3.8522065" stroke-width="2.32299px" id="circle45" style="opacity:0.85;fill:none;stroke:#bbb9b9;stroke-linejoin:miter"></circle>
  <circle cx="67.250298" cy="48.603134" r="3.8522065" stroke-width="2.32299px" id="circle46" style="opacity:0.85;fill:none;stroke:#bbb9b9;stroke-linejoin:miter"></circle>
  <circle cx="50.56955" cy="67.494362" r="6.1720729" stroke-width="0.781275px" id="circle47" style="opacity:0.85;fill:none;stroke:#bbb9b9;stroke-linejoin:miter"></circle>
  <circle cx="50.56955" cy="12.700943" r="6.1720729" stroke-width="0.781275px" id="circle48" style="opacity:0.85;fill:none;stroke:#bbb9b9;stroke-linejoin:miter"></circle>
  <ellipse cx="50.225792" cy="29.166054" rx="6.6408377" ry="5.0407867" fill="#bababa" id="ellipse48" style="opacity:0.85;stroke-width:1.0417"></ellipse>
  <ellipse cx="50.225792" cy="51.02821" rx="6.6408377" ry="5.0407867" fill="#bbb9b9" id="ellipse49" style="opacity:0.85;stroke-width:1.0417"></ellipse>
  <circle cx="50.225792" cy="29.166054" r="2.7209203" fill="#eceee9" id="circle49" style="opacity:0.85;stroke-width:1.0417"></circle>
  <circle cx="50.225792" cy="51.02821" r="2.7209203" fill="#eceee9" id="circle50" style="opacity:0.85;stroke-width:1.0417"></circle>
  <path d="M 50.225789,29.166054 C 41.029661,33.632863 29.586587,38.549688 10.641189,41.034142" fill="none" stroke="#d6d8d4" stroke-linejoin="miter" stroke-width="0.989615px" id="path50" style="opacity:0.85"></path>
  <path d="M 50.225789,50.546946 C 40.34839,45.106147 28.920941,44.283204 10.641189,45.558245" fill="none" stroke="#d8d8d3" stroke-linejoin="miter" stroke-width="0.989615px" id="path51" style="opacity:0.85"></path>
  <path d="M 10.382734,48.056771 C 9.3983281,48.76721 8.1670383,49.190141 6.8294953,49.190141 3.5960593,49.190141 0.98347532,46.717145 0.98347532,43.688923 0.98347532,40.660701 3.5960593,38.187705 6.8294953,38.187705 7.9107803,38.187705 8.9222709,38.464797 9.7900071,38.946063 11.98591,39.769006 13.242201,39.99193 15.726655,39.901302 15.726655,39.901302 13.503667,41.291971 13.67659,42.995151 13.831803,44.513949 16.8569,45.59315 16.8569,45.59315 14.317235,45.99733 12.505719,47.054656 10.382734,48.056771 Z" fill="#151312" id="path52" style="opacity:0.85;stroke-width:1.0417"></path>
  <path d="M 30.135965,49.9789 C 29.493236,49.9789 28.798422,49.898689 28.161943,49.9789 25.791034,50.274743 23.20866,51.86021 21.464854,53.397759 20.702329,54.069656 20.057517,54.785304 19.533542,55.65929 19.35437,55.958258 19.155405,56.244725 18.984566,56.546818 18.976232,56.559319 18.760601,56.959332 18.726224,56.923914 18.567886,56.766617 18.68039,55.887422 18.68039,55.724917 18.68039,54.272787 18.696015,52.918577 19.035609,51.496657 19.488749,49.593471 19.938763,47.116308 21.542981,45.770432 22.160709,45.252707 23.021154,45.026658 23.770136,44.790192 24.800377,44.466224 25.953539,44.217257 27.046282,44.367262 28.873424,44.618312 30.289094,46.564207 30.61723,48.292388 30.700566,48.730943 30.533894,49.221584 30.533894,49.657015" fill="#615a59" id="path53" style="opacity:0.85;stroke-width:1.0417" clip-path="url(#clipPath58)" transform="translate(-18.38652,-10.196352)"></path>
  <circle cx="94.559486" cy="21.24601" id="circle53" r="0" style="opacity:0.85;fill:none;stroke:#bbb9b9;stroke-width:2.32299px;stroke-linejoin:miter"></circle>
  <circle cx="94.559486" cy="58.972214" id="circle54" r="0" style="opacity:0.85;fill:none;stroke:#bbb9b9;stroke-width:2.32299px;stroke-linejoin:miter"></circle>
  <path d="M 82.68412,45.448867 C 86.34986,45.448867 89.32496,47.707272 89.32496,50.489653 89.32496,53.270992 86.34986,55.530439 82.68412,55.530439 79.019419,55.530439 76.043282,53.270992 76.043282,50.489653 76.043282,47.707272 79.019419,45.448867 82.68412,45.448867 Z M 82.68412,46.637446 C 84.81023,46.637446 86.53633,48.363543 86.53633,50.489653 86.53633,52.615763 84.81023,54.341859 82.68412,54.341859 80.55801,54.341859 78.831913,52.615763 78.831913,50.489653 78.831913,48.363543 80.55801,46.637446 82.68412,46.637446 Z" fill="#bbb9b9" id="path54" style="opacity:0.85;stroke-width:1.0417"></path>
  <path d="M 82.68412,23.585667 C 86.34986,23.585667 89.32496,25.845114 89.32496,28.626453 89.32496,31.408834 86.34986,33.66724 82.68412,33.66724 79.019419,33.66724 76.043282,31.408834 76.043282,28.626453 76.043282,25.845114 79.019419,23.585667 82.68412,23.585667 Z M 82.68412,24.774247 C 84.81023,24.774247 86.53633,26.500344 86.53633,28.626453 86.53633,30.752563 84.81023,32.47866 82.68412,32.47866 80.55801,32.47866 78.831913,30.752563 78.831913,28.626453 78.831913,26.500344 80.55801,24.774247 82.68412,24.774247 Z" fill="#bbb9b9" id="path55" style="opacity:0.85;stroke-width:1.0417"></path>
  <path d="M 93.02403,49.026064 V 31.169243 H 101.76494 V 49.026064 Z" fill="none" stroke="#ffffff" stroke-linejoin="miter" stroke-width="0.677105px" id="path56" style="opacity:0.85"></path>
  <g id="g59" transform="translate(-20,-9.9999999)">
    <path d="M 129.13392,36.528469 V 43.355771 H 135.96123 V 36.528469 Z" id="path36" style="opacity:0.85;fill:#29261c;stroke-width:1.0417"></path>
    <path d="M 132.75904,38.441031 C 132.36111,38.441031 131.97881,38.599369 131.69755,38.880628 131.41629,39.162929 131.25795,39.544191 131.25795,39.94212 131.25795,40.34005 131.41629,40.722354 131.69755,41.003613 131.97881,41.284872 132.36111,41.44321 132.75904,41.44321 H 159.9797 C 160.22346,41.44321 160.42138,41.245287 160.42138,41.002571 V 38.882711 C 160.42138,38.638954 160.22346,38.441031 159.9797,38.441031 Z" id="path39" style="opacity:0.85;fill:#9f9f9f;stroke-width:1.0417"></path>
    <g id="g56" transform="translate(-0.63000488,-7.2900009)">
      
      
    </g>
  </g>
  <g id="g61" transform="translate(-20,-9.9999999)">
    <path d="M 129.13392,46.673586 V 53.500888 H 135.96123 V 46.673586 Z" id="path35" style="opacity:0.85;fill:#29261c;stroke-width:1.0417"></path>
    <path d="M 132.75904,48.587189 C 132.36111,48.587189 131.97881,48.744485 131.69755,49.026786 131.41629,49.308045 131.25795,49.689307 131.25795,50.087237 V 50.088278 C 131.25795,50.486208 131.41629,50.86747 131.69755,51.148729 131.97881,51.429988 132.36111,51.588326 132.75904,51.588326 H 159.9797 C 160.22346,51.588326 160.42138,51.391445 160.42138,51.147687 V 49.027828 C 160.42138,48.78407 160.22346,48.587189 159.9797,48.587189 Z" id="path38" style="opacity:0.85;fill:#9f9f9f;stroke-width:1.0417"></path>
    <g id="g57" transform="translate(-0.63000488,-7.2900009)">
      
      
    </g>
  </g>
  <g id="g60" transform="translate(-20,-10.110001)">
    <path d="M 129.13392,56.803077 V 63.630378 H 135.96123 V 56.803077 Z" id="path34" style="opacity:0.85;fill:#29261c;stroke-width:1.0417"></path>
    <path d="M 132.75904,58.716679 C 132.36111,58.716679 131.97881,58.873976 131.69755,59.156277 131.41629,59.437536 131.25795,59.818798 131.25795,60.216728 V 60.217769 C 131.25795,60.615699 131.41629,60.996961 131.69755,61.27822 131.97881,61.559479 132.36111,61.717817 132.75904,61.717817 H 159.9797 C 160.22346,61.717817 160.42138,61.520936 160.42138,61.277178 V 59.157319 C 160.42138,58.913561 160.22346,58.716679 159.9797,58.716679 Z" id="path37" style="opacity:0.85;fill:#9f9f9f;stroke-width:1.0417"></path>
    <g id="g58" transform="translate(-0.63000488,-7.2900009)">
      
      
    </g>
  </g>
</svg>
