<svg xmlns="http://www.w3.org/2000/svg" viewBox="0 0 190 140"><defs id="defs54"></defs><!-- Retouche brochage oled-ssd1306 : déplace chaque pastille rouge sur un CROISEMENT (lignes foncées = 50 px). Garde les id pin-<nom>. Marge 20 px. --><g id="g59" transform="translate(-0.90527375,-0.08202905)"><path id="rect55" style="fill:#006989;fill-opacity:1;stroke-width:0.7;stroke-linecap:round" d="M 24.523438,6.2050781 C 16.213437,6.2050781 9.5234375,12.895078 9.5234375,21.205078 V 118.95898 C 9.5234375,127.26898 16.213437,133.95898 24.523438,133.95898 H 67.880859 V 131.17578 H 68.044922 V 128.88477 C 68.044922,127.58755 69.089499,126.54297 70.386719,126.54297 H 70.634766 C 71.931986,126.54297 72.974609,127.58755 72.974609,128.88477 V 131.17578 H 119.00195 V 129.17188 C 119.00195,127.87465 120.04459,126.83008 121.3418,126.83008 H 121.58984 C 122.88706,126.83008 123.93164,127.87465 123.93164,129.17188 123.93164,131.70618 123.93061,133.17836 123.92969,133.95898 H 167.28711 C 175.59711,133.95898 182.28711,127.26898 182.28711,118.95898 V 21.205078 C 182.28711,12.895078 175.59711,6.2050781 167.28711,6.2050781 Z M 123.91797,132.37109 C 123.91628,132.13752 123.91476,132.43333 123.91406,133.95898 H 123.92383 C 123.9219,133.36763 123.91966,132.60467 123.91797,132.37109 Z"></path><g transform="matrix(1.1612493,0,0,1.1127642,16.359839,12.775173)" fill="#59340a" stroke="#be9b72" stroke-width="0.527821px" id="g38" style="opacity:0.85"><circle cx="130" cy="6" r="5.5" id="circle35" style="stroke-width:0.527821px"></circle><circle cx="6" cy="6" r="5.5" id="circle36" style="stroke-width:0.527821px"></circle><circle cx="130" cy="96" r="5.5" id="circle37" style="stroke-width:0.527821px"></circle><circle cx="6" cy="96" r="5.5" id="circle38" style="stroke-width:0.527821px"></circle></g><rect x="33.871834" y="35.628571" fill="#1a1a1a" width="122.84178" height="68.742867" id="rect38" style="opacity:0.85;stroke-width:0.8993"></rect><ellipse stroke="#262626" cx="130" cy="20" id="circle39" style="opacity:0.85;fill:#9d9d9a;stroke-width:0.4" rx="4.0643725" ry="3.8946748"></ellipse><ellipse stroke="#007adb" cx="120" cy="20" id="circle40" style="opacity:0.85;fill:#9d9d9a;stroke-width:0.4" rx="4.0643725" ry="3.8946748"></ellipse><ellipse stroke="#9d5b96" cx="110" cy="20" id="circle41" style="opacity:0.85;fill:#9d9d9a;stroke-width:0.4" rx="4.0643725" ry="3.8946748"></ellipse><ellipse stroke="#009e9b" cx="100" cy="20" id="circle42" style="opacity:0.85;fill:#9d9d9a;stroke-width:0.4" rx="4.0643725" ry="3.8946748"></ellipse><ellipse stroke="#e8d977" cx="90" cy="20" id="circle43" style="opacity:0.85;fill:#9d9d9a;stroke-width:0.4" rx="4.0643725" ry="3.8946748"></ellipse><ellipse stroke="#c08540" cx="80" cy="20" id="circle44" style="opacity:0.85;fill:#9d9d9a;stroke-width:0.4" rx="4.0643725" ry="3.8946748"></ellipse><ellipse stroke="#b4aeab" cx="70" cy="20" id="circle45" style="opacity:0.85;fill:#9d9d9a;stroke-width:0.4" rx="4.0643725" ry="3.8946748"></ellipse><ellipse stroke="#e7dbdb" cx="60" cy="20" id="circle46" style="opacity:0.85;fill:#9d9d9a;stroke-width:0.4" rx="4.0643725" ry="3.8946748"></ellipse><g id="g47" style="stroke-width:0.879702" transform="matrix(1.1612493,0,0,1.1127642,-5.6105855,-16.164836)"></g><g id="g48" style="stroke-width:0.879702" transform="matrix(1.1612493,0,0,1.1127642,-6.0618291,-16.164836)"></g><g id="g49" style="stroke-width:0.879702" transform="matrix(1.1612493,0,0,1.1127642,-6.5130729,-16.164836)"></g><g id="g50" style="stroke-width:0.879702" transform="matrix(1.1612493,0,0,1.1127642,-8.1255659,-16.164836)"></g><g id="g51" style="stroke-width:0.879702" transform="matrix(1.1612493,0,0,1.1127642,-9.7380588,-16.164836)"></g><g id="g52" style="stroke-width:0.879702" transform="matrix(1.1612493,0,0,1.1127642,-10.189303,-16.164836)"></g><g id="g53" style="stroke-width:0.879702" transform="matrix(1.1612493,0,0,1.1127642,-11.801796,-16.164836)"></g><g id="g54" style="stroke-width:0.879702" transform="matrix(1.1612493,0,0,1.1127642,-13.414289,-15.608454)"></g><path id="rect54" style="fill:#1a2124;fill-opacity:1;stroke-width:0.7;stroke-linecap:round" d="M 66.02161,106.90168 V 120.85719 H 76.02161 V 133.04533 H 116.02161 V 120.85719 H 126.02161 V 106.90168 Z"></path><text xml:space="preserve" style="font-style:normal;font-variant:normal;font-weight:normal;font-stretch:normal;font-size:6.76741px;line-height:1;font-family:Alef;-inkscape-font-specification:Alef;writing-mode:lr-tb;direction:ltr;fill:#ffffff;fill-opacity:1;stroke-width:0.699998;stroke-linecap:round" x="52.845814" y="14.262586" id="text57"><tspan id="tspan57" x="52.845814" y="14.262586" style="stroke-width:0.699998">SDA</tspan></text><text xml:space="preserve" style="font-style:normal;font-variant:normal;font-weight:normal;font-stretch:normal;font-size:6.76741px;line-height:1;font-family:Alef;-inkscape-font-specification:Alef;writing-mode:lr-tb;direction:ltr;fill:#ffffff;fill-opacity:1;stroke-width:0.699998;stroke-linecap:round" x="65.031487" y="30.999756" id="text57-2"><tspan id="tspan57-4" x="65.031487" y="30.999756" style="stroke-width:0.699998">SCL</tspan></text><text xml:space="preserve" style="font-style:normal;font-variant:normal;font-weight:normal;font-stretch:normal;font-size:6.76741px;line-height:1;font-family:Arial;-inkscape-font-specification:Arial;writing-mode:lr-tb;direction:ltr;fill:#ffffff;fill-opacity:1;stroke-width:0.699998;stroke-linecap:round" x="73.605911" y="14.312152" id="text57-2-8"><tspan id="tspan57-4-9" x="73.605911" y="14.312152" style="font-style:normal;font-variant:normal;font-weight:normal;font-stretch:normal;font-family:Arial;-inkscape-font-specification:Arial;stroke-width:0.699998">SA0</tspan></text><text xml:space="preserve" style="font-style:normal;font-variant:normal;font-weight:normal;font-stretch:normal;font-size:6.76741px;line-height:1;font-family:Alef;-inkscape-font-specification:Alef;writing-mode:lr-tb;direction:ltr;fill:#ffffff;fill-opacity:1;stroke-width:0.699998;stroke-linecap:round" x="83.823166" y="30.999756" id="text57-2-5"><tspan id="tspan57-4-1" x="83.823166" y="30.999756" style="stroke-width:0.699998">RST</tspan></text><text xml:space="preserve" style="font-style:normal;font-variant:normal;font-weight:normal;font-stretch:normal;font-size:6.76741px;line-height:1;font-family:Alef;-inkscape-font-specification:Alef;writing-mode:lr-tb;direction:ltr;fill:#ffffff;fill-opacity:1;stroke-width:0.699998;stroke-linecap:round" x="96.056931" y="14.262586" id="text57-2-5-1"><tspan id="tspan57-4-1-1" x="96.056931" y="14.262586" style="stroke-width:0.699998">CS</tspan></text><text xml:space="preserve" style="font-style:normal;font-variant:normal;font-weight:normal;font-stretch:normal;font-size:6.76741px;line-height:1;font-family:Alef;-inkscape-font-specification:Alef;writing-mode:lr-tb;direction:ltr;fill:#ffffff;fill-opacity:1;stroke-width:0.699998;stroke-linecap:round" x="103.76201" y="30.999756" id="text57-2-5-2"><tspan id="tspan57-4-1-7" x="103.76201" y="30.999756" style="stroke-width:0.699998">VDD</tspan></text><text xml:space="preserve" style="font-style:normal;font-variant:normal;font-weight:normal;font-stretch:normal;font-size:6.76741px;line-height:1;font-family:Alef;-inkscape-font-specification:Alef;writing-mode:lr-tb;direction:ltr;fill:#ffffff;fill-opacity:1;stroke-width:0.699998;stroke-linecap:round" x="113.23055" y="14.249368" id="text57-2-5-14"><tspan id="tspan57-4-1-2" x="113.23055" y="14.249368" style="stroke-width:0.699998">VIN</tspan></text><text xml:space="preserve" style="font-style:normal;font-variant:normal;font-weight:normal;font-stretch:normal;font-size:6.76741px;line-height:1;font-family:Alef;-inkscape-font-specification:Alef;writing-mode:lr-tb;direction:ltr;fill:#ffffff;fill-opacity:1;stroke-width:0.699998;stroke-linecap:round" x="124.41721" y="30.999756" id="text57-2-5-22"><tspan id="tspan57-4-1-16" x="124.41721" y="30.999756" style="stroke-width:0.699998">GND</tspan></text><text xml:space="preserve" style="font-style:normal;font-variant:normal;font-weight:normal;font-stretch:normal;font-size:8.31799px;line-height:1;font-family:Alef;-inkscape-font-specification:Alef;writing-mode:lr-tb;direction:ltr;fill:#ffffff;fill-opacity:1;stroke-width:0.7;stroke-linecap:round" x="52.204895" y="22.083122" id="text58"><tspan id="tspan58" x="52.204895" y="22.083122" style="stroke-width:0.7">1</tspan></text><text xml:space="preserve" style="font-style:normal;font-variant:normal;font-weight:normal;font-stretch:normal;font-size:8.31799px;line-height:1;font-family:Alef;-inkscape-font-specification:Alef;writing-mode:lr-tb;direction:ltr;fill:#ffffff;fill-opacity:1;stroke-width:0.7;stroke-linecap:round" x="134.90605" y="22.503489" id="text59"><tspan id="tspan59" x="134.90605" y="22.503489" style="stroke-width:0.7">8</tspan></text></g></svg>
