<svg xmlns="http://www.w3.org/2000/svg" viewBox="0 0 94.25 90">
  <defs id="defs35">
    <linearGradient id="linearGradient41">
      <stop style="stop-color:#858385;stop-opacity:1;" offset="0" id="stop41"></stop>
      <stop style="stop-color:#c3c2c3;stop-opacity:1;" offset="1" id="stop42"></stop>
    </linearGradient>
    <defs id="defs24">
      <filter id="outline">
        <feDropShadow id="glow" dx="0" dy="0" stdDeviation="0.5" flood-color="cyan"></feDropShadow>
      </filter>
    </defs>
    <radialGradient xlink:href="#linearGradient41" id="radialGradient42" cx="48.94521" cy="40.817902" fx="48.94521" fy="40.817902" r="26.008104" gradientTransform="matrix(1,0,0,0.99728324,0,0.11089237)" gradientUnits="userSpaceOnUse"></radialGradient>
  </defs>
  
  <!-- Retouche brochage pot : déplace chaque pastille rouge sur un CROISEMENT (lignes foncées = 50 px). Garde les id pin-<nom>. Marge 20 px. -->
  <g id="g42">
    <g stroke-width="0.143845" id="g26" transform="matrix(3.9406218,0,0,3.9418611,9.736025,9.0465)" style="opacity:0.85"></g>
    <path d="M 14.976562,9.638672 C 12.401136,9.638672 10.326172,11.711683 10.326172,14.287109 V 81.855469 C 10.326172,84.430895 12.401136,86.503906 14.976562,86.503906 H 82.519531 C 85.094958,86.503906 87.169922,84.430895 87.169922,81.855469 V 14.287109 C 87.169922,11.711683 85.094958,9.638672 82.519531,9.638672 Z M 16.355469,12.396484 A 3.9012156,3.7841866 0 0 1 20.257812,16.181641 3.9012156,3.7841866 0 0 1 16.355469,19.964844 3.9012156,3.7841866 0 0 1 12.455078,16.181641 3.9012156,3.7841866 0 0 1 16.355469,12.396484 Z M 80.943359,12.791016 A 3.9012156,3.7841866 0 0 1 84.84375,16.576172 3.9012156,3.7841866 0 0 1 80.943359,20.359375 3.9012156,3.7841866 0 0 1 77.041016,16.576172 3.9012156,3.7841866 0 0 1 80.943359,12.791016 Z M 15.568359,77.673828 A 3.9012156,3.7841866 0 0 1 19.46875,81.458984 3.9012156,3.7841866 0 0 1 15.568359,85.242187 3.9012156,3.7841866 0 0 1 11.666016,81.458984 3.9012156,3.7841866 0 0 1 15.568359,77.673828 Z M 80.548828,78.068359 A 3.9012156,3.7841866 0 0 1 84.451172,81.853516 3.9012156,3.7841866 0 0 1 80.548828,85.636719 3.9012156,3.7841866 0 0 1 76.648437,81.853516 3.9012156,3.7841866 0 0 1 80.548828,78.068359 Z M 40,78.5 A 1.5,1.5 0 0 1 41.5,80 1.5,1.5 0 0 1 40,81.5 1.5,1.5 0 0 1 38.5,80 1.5,1.5 0 0 1 40,78.5 Z M 50,78.5 A 1.5,1.5 0 0 1 51.5,80 1.5,1.5 0 0 1 50,81.5 1.5,1.5 0 0 1 48.5,80 1.5,1.5 0 0 1 50,78.5 Z M 60,78.5 A 1.5,1.5 0 0 1 61.5,80 1.5,1.5 0 0 1 60,81.5 1.5,1.5 0 0 1 58.5,80 1.5,1.5 0 0 1 60,78.5 Z" style="opacity:0.85;fill:#045881;stroke:#045881;stroke-width:1.13385" id="path35"></path>
    <rect x="31.015385" y="11.805803" width="35.859661" height="7.4895358" fill="#ccdae3" stroke-width="0.566928" id="rect25" style="opacity:1"></rect>
    <ellipse id="knob" rx="28.648321" ry="29.288027" fill="#e4e8eb" stroke-width="0.566928" cx="48.787586" cy="41.290924" style="opacity:1"></ellipse>
    <rect x="33.379757" y="76.058136" width="31.524975" height="7.8837223" fill-opacity="0" stroke="#ffffff" stroke-width="1.13385" id="rect26" style="opacity:0.85"></rect>
    <g id="g40" transform="translate(-10,-10)">
      <path d="M 49.933741,88.114344 A 1.8856526,1.8856526 0 0 0 48.048088,89.999997 1.8856526,1.8856526 0 0 0 49.933741,91.88565 1.8856526,1.8856526 0 0 0 51.819393,89.999997 1.8856526,1.8856526 0 0 0 49.933741,88.114344 Z M 49.995122,89.05717 A 0.94282634,0.94282634 0 0 1 50.937949,89.999997 0.94282634,0.94282634 0 0 1 49.995122,90.942823 0.94282634,0.94282634 0 0 1 49.052296,89.999997 0.94282634,0.94282634 0 0 1 49.995122,89.05717 Z" style="opacity:0.85;fill:#b3b1b0;stroke-width:0.566929" id="path36"></path>
      <path d="M 69.933653,88.114344 A 1.8856526,1.8856526 0 0 0 68.048,89.999997 1.8856526,1.8856526 0 0 0 69.933653,91.88565 1.8856526,1.8856526 0 0 0 71.819305,89.999997 1.8856526,1.8856526 0 0 0 69.933653,88.114344 Z M 69.995034,89.05717 A 0.94282634,0.94282634 0 0 1 70.937861,89.999997 0.94282634,0.94282634 0 0 1 69.995034,90.942823 0.94282634,0.94282634 0 0 1 69.052208,89.999997 0.94282634,0.94282634 0 0 1 69.995034,89.05717 Z" style="opacity:0.85;fill:#b3b1b0;stroke-width:0.566929" id="path36-2"></path>
      <path d="M 59.933653,88.114344 A 1.8856526,1.8856526 0 0 0 58.048,89.999997 1.8856526,1.8856526 0 0 0 59.933653,91.88565 1.8856526,1.8856526 0 0 0 61.819305,89.999997 1.8856526,1.8856526 0 0 0 59.933653,88.114344 Z M 59.995034,89.05717 A 0.94282634,0.94282634 0 0 1 60.937861,89.999997 0.94282634,0.94282634 0 0 1 59.995034,90.942823 0.94282634,0.94282634 0 0 1 59.052208,89.999997 0.94282634,0.94282634 0 0 1 59.995034,89.05717 Z" style="opacity:0.85;fill:#b3b1b0;stroke-width:0.566929" id="path36-6"></path>
    </g>
    <ellipse cx="48.94521" cy="40.817902" rx="26.008104" ry="25.937447" fill="#c3c2c3" stroke-width="0.566928" id="ellipse33" style="opacity:1;fill:url(#radialGradient42)"></ellipse>
    <rect id="rotating" x="49.142242" y="16.930222" width="1.6550611" height="12.219769" stroke-width="0.566928" style="opacity:0.85"></rect>
    <rect x="9.7360249" y="46.494179" width="3.9406219" height="3.9418612" fill="none" id="firefox-workaround" style="opacity:0.85;stroke-width:3.7795"></rect>
    
    
    
    
    
    
  </g>
</svg>
