<svg xmlns="http://www.w3.org/2000/svg" viewBox="0 0 40 45">
  <defs id="defs25">
    <defs id="defs17">
      <radialGradient id="a" cx="9.3299999" cy="122" r="4.25" gradientTransform="matrix(6.9622,-2.0329624,1.113952,3.8152856,-150.81828,55.822681)" gradientUnits="userSpaceOnUse">
        <stop stop-color="#808080" offset="0" id="stop16"></stop>
        <stop stop-color="#b5b5b5" offset="1" id="stop17"></stop>
      </radialGradient>
    </defs>
  </defs>
  
  <!-- Retouche brochage slide-switch : déplace chaque pastille rouge sur un CROISEMENT (lignes foncées = 50 px). Garde les id pin-<nom>. Marge 20 px. -->
  <g id="g26" transform="translate(-10,-19.999999)">
    <path id="rect19" style="opacity:0.85;fill:#aaaaaa;stroke-width:0.268;stroke-dasharray:none" d="M 39.005859,45.439058 V 59.911641 C 39.005859,60.458587 39.448992,60.900391 40,60.900391 40.551008,60.900391 40.994141,60.458587 40.994141,59.911641 V 45.439058 Z"></path>
    <rect x="29.0054" y="44.190292" width="1.9892" height="16.70928" rx="0.9946" ry="0.9946" id="rect17" style="opacity:0.85;fill:#aaaaaa;stroke-width:0.267746"></rect>
    <path id="rect18" style="opacity:0.85;fill:#aaaaaa;stroke-width:0.267747" d="M 19.005859,45.439058 V 59.911641 C 19.005859,60.458587 19.448992,60.900391 20,60.900391 20.551008,60.900391 20.994141,60.458587 20.994141,59.911641 V 45.439058 Z"></path>
    <g id="g23" transform="translate(-6.8400002,4.2099991)">
      
      
    </g>
    <g id="g24" transform="translate(-6.8400002,4.2099991)">
      
      
    </g>
    <g id="g25" transform="translate(-6.8400002,4.2099991)">
      
      
    </g>
    <path id="handle" d="M 23.992616,23.907956 24.569484,23.398721 25.273661,23.687155 25.965902,23.398721 26.566641,23.687155 27.179314,23.398721 27.780053,23.687155 28.289288,23.398721 28.822394,23.687155 29.311737,23.398721 29.888605,23.907956 29.888684,31.864756 H 24.000652 Z" stroke-width="0.247854" style="opacity:0.85"></path>
    <rect x="13.0918" y="31.594225" width="33.816399" height="13.844832" fill="url(#a)" stroke-width="0.218016" id="rect20" style="opacity:0.85;fill:#aaaaaa;fill-opacity:1"></rect>
    <rect x="13.219905" y="42.256336" width="6.1665196" height="3.2026119" stroke-width="0.253424" id="rect21" style="opacity:0.85"></rect>
    <rect x="40.74168" y="42.256336" width="6.1665196" height="3.2026119" stroke-width="0.253424" id="rect22" style="opacity:0.85"></rect>
    <rect x="23.236719" y="42.256336" width="13.805048" height="3.2026119" stroke-width="0.379937" id="rect23" style="opacity:0.85"></rect>
  </g>
</svg>
