<svg xmlns="http://www.w3.org/2000/svg" viewBox="0 0 105.82864 60">
  <defs id="defs68">
    <clipPath id="g">
      <path d="M 78.1,4.2 H 6.9 V 59.8 H 78.1 Z M 24,48 C 26.66,48 28.82,50.22 28.82,52.96 28.82,55.7 26.66,57.92 24,57.92 21.34,57.92 19.18,55.7 19.18,52.96 19.18,50.22 21.34,48 24,48 Z M 37.8,44.22 C 39.83,44.22 41.48,45.92 41.48,48 41.48,50.08 39.83,51.78 37.8,51.78 35.77,51.78 34.12,50.08 34.12,48 34.12,45.92 35.77,44.22 37.8,44.22 Z M 37.8,12.72 C 39.83,12.72 41.48,14.42 41.48,16.5 41.48,18.59 39.83,20.28 37.8,20.28 35.77,20.28 34.12,18.58 34.12,16.5 34.12,14.41 35.77,12.72 37.8,12.72 Z M 24,6.12 C 26.66,6.12 28.82,8.34 28.82,11.08 28.82,13.82 26.66,16.04 24,16.04 21.34,16.04 19.18,13.82 19.18,11.08 19.18,8.34 21.34,6.12 24,6.12 Z" id="path25"></path>
    </clipPath>
    <clipPath id="f">
      <path d="M 37.7,43.8 C 35.44,43.8 33.6,45.68 33.6,48.01 33.6,50.34 35.44,52.22 37.7,52.22 39.96,52.22 41.8,50.34 41.8,48.01 41.8,45.68 39.96,43.8 37.7,43.8 Z M 37.7,44.655 C 39.5,44.655 40.95,46.165 40.95,48.015 40.95,49.865 39.5,51.375 37.7,51.375 35.9,51.375 34.45,49.865 34.45,48.015 34.45,46.165 35.9,44.655 37.7,44.655 Z" id="path39"></path>
    </clipPath>
    <clipPath id="e">
      <path d="M 31.5,37.8 29.88,35.91 C 29.88,35.91 26.43,38.86 24.72,40.32 24.469,40.535 24.313,40.841 24.288,41.17 24.262,41.499 24.368,41.825 24.583,42.076 V 42.077 C 24.798,42.327 25.104,42.483 25.433,42.508 25.762,42.534 26.088,42.428 26.339,42.213 28.059,40.743 31.499,37.793 31.499,37.793 Z" id="path42"></path>
    </clipPath>
    <clipPath id="b">
      <path d="M 55,18.5 V 31.9 H 61.79 V 18.5 Z M 55.489,23.61 V 18.99 H 61.299 V 23.61 31.37 H 55.489 Z" id="path54"></path>
    </clipPath>
    <clipPath id="a">
      <path d="M 52.2,16.5 53.85,18.36 C 53.85,18.36 57.25,15.36 58.94,13.86 59.187,13.641 59.337,13.333 59.357,13.003 59.377,12.674 59.266,12.35 59.047,12.102 H 59.046 C 58.828,11.855 58.519,11.704 58.19,11.684 57.86,11.664 57.536,11.776 57.289,11.995 55.599,13.495 52.199,16.495 52.199,16.495 Z" id="path64"></path>
    </clipPath>
  </defs>
  
  <!-- Retouche brochage tilt : déplace chaque pastille rouge sur un CROISEMENT (lignes foncées = 50 px). Garde les id pin-<nom>. Marge 20 px. -->
  <!-- Corps déformable (bascule trapézoïdale en simulation) : broches g71/g70/g69 hors de ce groupe, jamais déformées. -->
  <g class="tilt-shape">
  <path d="M 82.221863,1.376465 H 8.726923 V 58.768581 H 82.221863 Z M 26.378095,46.58824 C 29.123833,46.58824 31.353455,48.879795 31.353455,51.708112 31.353455,54.536428 29.123833,56.827984 26.378095,56.827984 23.632357,56.827984 21.402736,54.536428 21.402736,51.708112 21.402736,48.879795 23.632357,46.58824 26.378095,46.58824 Z M 40.622901,42.686402 C 42.718333,42.686402 44.421516,44.441197 44.421516,46.58824 44.421516,48.735283 42.718333,50.490078 40.622901,50.490078 38.52747,50.490078 36.824286,48.735283 36.824286,46.58824 36.824286,44.441197 38.52747,42.686402 40.622901,42.686402 Z M 40.622901,10.171084 C 42.718333,10.171084 44.421516,11.925879 44.421516,14.072922 44.421516,16.230288 42.718333,17.97476 40.622901,17.97476 38.52747,17.97476 36.824286,16.219965 36.824286,14.072922 36.824286,11.915557 38.52747,10.171084 40.622901,10.171084 Z M 26.378095,3.358351 C 29.123833,3.358351 31.353455,5.649907 31.353455,8.478223 31.353455,11.30654 29.123833,13.598095 26.378095,13.598095 23.632357,13.598095 21.402736,11.30654 21.402736,8.478223 21.402736,5.649907 23.632357,3.358351 26.378095,3.358351 Z" fill="#19365e" id="path24" style="opacity:1;stroke-width:1.0421"></path>
  <g transform="matrix(1.0322323,0,0,1.0322323,1.625165,-2.958911)" clip-path="url(#g)" id="g26" style="opacity:1;stroke-width:1.00956">
    <path d="M 49.8,12.7 C 49.544,12.401 49.095,12.366 48.8,12.622 45.5,15.442 28.1,30.322 24.8,33.122 24.501,33.377 24.466,33.827 24.722,34.122 26.552,36.262 33.272,44.112 35.122,46.222 35.377,46.521 35.827,46.556 36.122,46.3 39.422,43.48 56.822,28.6 60.122,25.8 60.421,25.545 60.456,25.095 60.201,24.8 58.371,22.66 51.651,14.81 49.801,12.7 Z" fill="#1b2f4c" id="path26" style="stroke-width:1.00956"></path>
  </g>
  <g fill="#bbb9b9" id="g29" style="opacity:1;stroke-width:1.00956" transform="matrix(1.0322323,0,0,1.0322323,8.726923,1.376465)">
    <ellipse cx="18.5" cy="18.5" rx="5.21" ry="3.4400001" id="ellipse26" style="stroke-width:1.00956"></ellipse>
    <ellipse cx="42.299999" cy="18.5" rx="5.21" ry="3.4400001" id="ellipse27" style="stroke-width:1.00956"></ellipse>
    <ellipse cx="18.5" cy="37.200001" rx="5.21" ry="3.4400001" id="ellipse28" style="stroke-width:1.00956"></ellipse>
    <ellipse cx="42.299999" cy="37.200001" rx="5.21" ry="3.4400001" id="ellipse29" style="stroke-width:1.00956"></ellipse>
  </g>
  <path d="M 68.08028,15.311601 V 44.833445 H 76.740709 V 15.311601 Z" fill="none" stroke="#ffffff" stroke-width="0.93789px" id="path29" style="opacity:1"></path>
  </g>
  <g id="g71" transform="translate(-10,-20.05937)">
    <path d="M 79.009289,56.67881 V 63.439931 H 85.770411 V 56.67881 Z" id="path30" style="opacity:0.85;fill:#29261c;stroke-width:1.0421"></path>
    <path d="M 82.622102,58.640051 C 82.22779,58.640051 81.849993,58.79695 81.569225,59.075653 81.288458,59.354356 81.133623,59.733185 81.133623,60.12853 81.133623,60.523875 81.290523,60.90064 81.569225,61.181407 81.847928,61.46011 82.225725,61.617009 82.622102,61.617009 H 109.56337 C 109.80491,61.617009 110,61.420885 110,61.179342 V 59.073589 C 110,58.833078 109.80491,58.636954 109.56337,58.636954 H 82.622102 Z" id="path33" style="opacity:0.85;fill:#9f9f9f;stroke-width:1.0421"></path>
  </g>
  <g id="g70" transform="translate(-10,-20.010589)">
    <path d="M 79.009289,46.666156 V 53.427278 H 85.770411 V 46.666156 Z" id="path31" style="opacity:0.85;fill:#29261c;stroke-width:1.0421"></path>
    <path d="M 82.622102,48.524174 C 82.22779,48.524174 81.849993,48.681074 81.569225,48.959777 81.288458,49.238479 81.133623,49.617308 81.133623,50.012653 81.133623,50.407998 81.290523,50.784763 81.569225,51.06553 81.847928,51.344233 82.225725,51.501132 82.622102,51.501132 H 109.56337 C 109.80491,51.501132 110,51.305008 110,51.063466 V 48.957712 C 110,48.717202 109.80491,48.521078 109.56337,48.521078 H 82.622102 Z" id="path34" style="opacity:0.85;fill:#9f9f9f;stroke-width:1.0421"></path>
  </g>
  <g id="g69" transform="translate(-10,-20)">
    <path d="M 79.009289,36.653503 V 43.424947 H 85.770411 V 36.653503 Z" id="path32" style="opacity:0.85;fill:#29261c;stroke-width:1.0421"></path>
    <path d="M 82.622102,38.511521 C 82.22779,38.511521 81.849993,38.66842 81.569225,38.947123 81.288458,39.225826 81.133623,39.603623 81.133623,40 V 40.001032 C 81.133623,40.395345 81.290523,40.773142 81.569225,41.053909 81.847928,41.334677 82.225725,41.489511 82.622102,41.489511 H 109.56337 C 109.80491,41.489511 110,41.294419 110,41.052877 V 38.947123 C 110,38.705581 109.80491,38.510489 109.56337,38.510489 H 82.622102 Z" id="path35" style="opacity:0.85;fill:#9f9f9f;stroke-width:1.0421"></path>
  </g>
  <g class="tilt-shape">
  <g fill="#0e0f0d" stroke="#bbb9b9" stroke-linejoin="miter" stroke-width="1.84749px" r="2.59" id="g38" transform="matrix(1.0322323,0,0,1.0322323,8.726923,1.376465)" style="opacity:0.85">
    <circle cx="42.200001" cy="18.4" id="circle35" r="0" style="stroke-width:1.84749px"></circle>
    <circle cx="18.4" cy="18.4" id="circle36" r="0" style="stroke-width:1.84749px"></circle>
    <circle cx="18.4" cy="37.099998" id="circle37" r="0" style="stroke-width:1.84749px"></circle>
    <circle cx="42.200001" cy="37.099998" id="circle38" r="0" style="stroke-width:1.84749px"></circle>
  </g>
  <ellipse cx="26.378098" cy="51.646179" rx="4.9753599" ry="5.1198721" fill="none" stroke="#bbb9b9" stroke-linejoin="miter" stroke-width="1.16716px" id="ellipse38" style="opacity:1"></ellipse>
  <path d="M 40.519678,42.252864 C 38.186833,42.252864 36.287525,44.193461 36.287525,46.598562 36.287525,49.003663 38.186833,50.94426 40.519678,50.94426 42.852523,50.94426 44.75183,49.003663 44.75183,46.598562 44.75183,44.193461 42.852523,42.252864 40.519678,42.252864 Z M 40.519678,43.135423 C 42.377696,43.135423 43.874433,44.694093 43.874433,46.603723 43.874433,48.513353 42.377696,50.072024 40.519678,50.072024 38.66166,50.072024 37.164923,48.513353 37.164923,46.603723 37.164923,44.694093 38.66166,43.135423 40.519678,43.135423 Z" fill="#bbb9b9" id="path38" style="opacity:1;stroke-width:1.0421"></path>
  <g transform="matrix(1.0322323,0,0,1.0322323,1.625165,-2.958911)" clip-path="url(#f)" id="g40" style="opacity:1;stroke-width:1.00956">
    <path d="M 49.8,12.7 C 49.544,12.401 49.095,12.366 48.8,12.622 45.5,15.442 28.1,30.322 24.8,33.122 24.501,33.377 24.466,33.827 24.722,34.122 26.552,36.262 33.272,44.112 35.122,46.222 35.377,46.521 35.827,46.556 36.122,46.3 39.422,43.48 56.822,28.6 60.122,25.8 60.421,25.545 60.456,25.095 60.201,24.8 58.371,22.66 51.651,14.81 49.801,12.7 Z" fill="#8e8e8e" id="path40" style="stroke-width:1.00956"></path>
  </g>
  <ellipse cx="40.519676" cy="14.072922" rx="3.798615" ry="3.9018381" fill="none" stroke="#bbb9b9" stroke-linejoin="miter" stroke-width="0.896206px" id="ellipse40" style="opacity:1"></ellipse>
  <ellipse cx="26.378098" cy="8.4575787" rx="4.9753599" ry="5.1198721" fill="none" stroke="#bbb9b9" stroke-linejoin="miter" stroke-width="1.16716px" id="ellipse41" style="opacity:1"></ellipse>
  <path d="M 34.119838,36.05947 32.447621,34.108551 C 32.447621,34.108551 28.88642,37.153637 27.121303,38.660696 26.862212,38.882626 26.701184,39.198489 26.675378,39.538093 26.64854,39.877698 26.757957,40.214205 26.979887,40.473296 V 40.474328 C 27.201817,40.732386 27.51768,40.893414 27.857284,40.91922 28.196889,40.946058 28.533396,40.836641 28.792487,40.614711 30.567926,39.09733 34.118805,36.052245 34.118805,36.052245 Z" fill="#d2d2d2" id="path41" style="opacity:1;stroke-width:1.0421"></path>
  <g transform="matrix(1.0322323,0,0,1.0322323,1.625165,-2.958911)" clip-path="url(#e)" id="g43" style="opacity:1;stroke-width:1.00956">
    <path d="M 31,36.9 C 30.811,36.925 30.699,37.085 30.551,37.194 30.133,37.503 29.743,37.829 29.361,38.179 28.361,39.106 27.331,39.999 26.311,40.909 26.052,41.14 25.735,41.297 25.475,41.526 24.888,42.043 24.345,42.666 23.565,42.876 23.476,42.901 23.315,43 23.231,43 23.174,43 23.343,42.994 23.399,43 23.492,43.009 23.578,43.032 23.674,43.037 24.016,43.054 24.375,43.053 24.714,43.032 25.708,42.97 26.764,42.613 27.724,42.357 29.264,41.946 30.624,41.347 31.814,40.237 32.334,39.751 32.752,39.157 33.194,38.597 33.776,37.874 34.294,37.127 34.604,36.247 34.622,36.195 34.278,36.141 34.239,36.133 33.767,36.038 33.328,36.01 32.839,36.01 32.184,36.01 31.399,36.636 30.839,36.904 30.427,37.1 29.589,37.347 29.279,37.77" fill="#ececec" id="path43" style="stroke-width:1.00956"></path>
  </g>
  <g transform="matrix(1.0322323,0,0,1.0322323,1.625165,-2.958911)" id="g45" style="opacity:1;stroke-width:1.00956">
    <path d="M 56.6,33.8 V 44.7 H 60.2 V 33.8 Z" fill="#bbb9b9" id="path44" style="stroke-width:1.00956"></path>
    <path d="M 56.5,36.5 V 42 H 60.35 V 36.5 Z" fill="#29261c" id="path45" style="stroke-width:1.00956"></path>
  </g>
  <g transform="matrix(1.0322323,0,0,1.0322323,1.625165,-2.958911)" id="g52" style="opacity:1;stroke-width:1.00956">
    <path d="M 56.6,19.7 V 30.6 H 60.2 V 19.7 Z" fill="#bbb9b9" id="path46" style="stroke-width:1.00956"></path>
    <clipPath id="d">
      <path d="M 56.6,19.7 V 30.6 H 60.2 V 19.7 Z" id="path47"></path>
    </clipPath>
    <g clip-path="url(#d)" id="g48" style="stroke-width:1.00956">
      <path d="M 49.8,12.7 C 49.544,12.401 49.095,12.366 48.8,12.622 45.5,15.442 28.1,30.322 24.8,33.122 24.501,33.377 24.466,33.827 24.722,34.122 26.552,36.262 33.272,44.112 35.122,46.222 35.377,46.521 35.827,46.556 36.122,46.3 39.422,43.48 56.822,28.6 60.122,25.8 60.421,25.545 60.456,25.095 60.201,24.8 58.371,22.66 51.651,14.81 49.801,12.7 Z" fill="#9c9b9b" id="path48" style="stroke-width:1.00956"></path>
    </g>
    <path d="M 56.5,22.4 V 27.9 H 60.35 V 22.4 Z" fill="#29261c" id="path49" style="stroke-width:1.00956"></path>
    <clipPath id="c">
      <path d="M 56.5,22.4 V 27.9 H 60.35 V 22.4 Z" id="path50"></path>
    </clipPath>
    <g clip-path="url(#c)" id="g51" style="stroke-width:1.00956">
      <path d="M 49.8,12.7 C 49.544,12.401 49.095,12.366 48.8,12.622 45.5,15.442 28.1,30.322 24.8,33.122 24.501,33.377 24.466,33.827 24.722,34.122 26.552,36.262 33.272,44.112 35.122,46.222 35.377,46.521 35.827,46.556 36.122,46.3 39.422,43.48 56.822,28.6 60.122,25.8 60.421,25.545 60.456,25.095 60.201,24.8 58.371,22.66 51.651,14.81 49.801,12.7 Z" id="path51" style="stroke-width:1.00956"></path>
    </g>
  </g>
  <path d="M 65.19003,30.898309 V 44.214105 H 58.686966 V 30.898309 Z" fill="none" stroke="#ffffff" stroke-linejoin="miter" stroke-width="0.510629px" id="path52" style="opacity:1"></path>
  <path d="M 58.48052,16.137387 V 29.9693 H 65.489377 V 16.137387 Z M 58.985281,21.412094 V 16.643181 H 64.982551 V 21.412094 29.422217 H 58.985281 Z" fill="#ffffff" id="path53" style="opacity:1;stroke-width:1.0421"></path>
  <g transform="matrix(1.0322323,0,0,1.0322323,1.625165,-2.958911)" clip-path="url(#b)" id="g55" style="opacity:1;stroke-width:1.00956">
    <path d="M 49.8,12.7 C 49.544,12.401 49.095,12.366 48.8,12.622 45.5,15.442 28.1,30.322 24.8,33.122 24.501,33.377 24.466,33.827 24.722,34.122 26.552,36.262 33.272,44.112 35.122,46.222 35.377,46.521 35.827,46.556 36.122,46.3 39.422,43.48 56.822,28.6 60.122,25.8 60.421,25.545 60.456,25.095 60.201,24.8 58.371,22.66 51.651,14.81 49.801,12.7 Z" fill="#d4d4d4" id="path55" style="stroke-width:1.00956"></path>
  </g>
  <path d="M 72.312433,12.111681 V 7.280834" fill="none" stroke="#fffefe" stroke-linejoin="miter" stroke-width="0.885785px" id="path56" style="opacity:1"></path>
  <g fill="#a19e9e" id="g59" style="opacity:1;stroke-width:1.00956" transform="matrix(1.0322323,0,0,1.0322323,8.726923,1.376465)">
    <circle cx="4.6399999" cy="41.400002" r="2.8800001" id="circle56" style="stroke-width:1.00956"></circle>
    <circle cx="4.6399999" cy="14.2" r="2.8800001" id="circle57" style="stroke-width:1.00956"></circle>
    <circle cx="51.400002" cy="8.7399998" r="2.8800001" id="circle58" style="stroke-width:1.00956"></circle>
    <circle cx="51.400002" cy="45.599998" r="2.8800001" id="circle59" style="stroke-width:1.00956"></circle>
  </g>
  <g fill="#29261c" id="g63" style="opacity:1;stroke-width:1.00956" transform="matrix(1.0322323,0,0,1.0322323,8.726923,1.376465)">
    <circle cx="51.400002" cy="45.599998" r="1.47" id="circle60" style="stroke-width:1.00956"></circle>
    <circle cx="4.6399999" cy="41.400002" r="1.47" id="circle61" style="stroke-width:1.00956"></circle>
    <circle cx="4.6399999" cy="14.2" r="1.47" id="circle62" style="stroke-width:1.00956"></circle>
    <circle cx="51.400002" cy="8.7399998" r="1.47" id="circle63" style="stroke-width:1.00956"></circle>
  </g>
  <path d="M 55.590269,14.072922 57.293453,15.992874 C 57.293453,15.992874 60.803043,12.896177 62.547515,11.347829 62.802477,11.12177 62.957311,10.803843 62.977956,10.463206 62.998601,10.123602 62.884023,9.789158 62.657964,9.533165 H 62.656932 C 62.431905,9.278203 62.112945,9.122336 61.773341,9.101692 61.432704,9.081047 61.098261,9.196657 60.8433,9.422716 59.098827,10.971064 55.589237,14.067761 55.589237,14.067761 Z" fill="#d2d2d2" id="path63" style="opacity:1;stroke-width:1.0421"></path>
  <g transform="matrix(1.0322323,0,0,1.0322323,1.625165,-2.958911)" clip-path="url(#a)" id="g65" style="opacity:1;stroke-width:1.00956">
    <path d="M 52.8,17.4 C 52.988,17.372 53.097,17.21 53.244,17.098 53.657,16.782 54.041,16.45 54.414,16.098 55.4,15.155 56.414,14.238 57.414,13.318 57.669,13.083 57.983,12.92 58.239,12.688 58.818,12.161 59.349,11.528 60.129,11.308 60.217,11.282 60.377,11.181 60.461,11.179 60.518,11.178 60.349,11.187 60.293,11.182 60.2,11.175 60.113,11.152 60.017,11.149 59.675,11.138 59.316,11.145 58.977,11.172 57.984,11.251 56.937,11.625 55.987,11.897 54.457,12.334 53.097,12.957 51.937,14.087 51.425,14.581 51.017,15.187 50.577,15.747 50.008,16.48 49.497,17.237 49.207,18.117 49.19,18.17 49.535,18.218 49.574,18.225 50.048,18.313 50.487,18.332 50.974,18.324 51.628,18.313 52.394,17.675 52.954,17.397" fill="#ececec" id="path65" style="stroke-width:1.00956"></path>
  </g>
  <path d="M 52.287126,7.900173 C 52.022875,7.591536 51.559402,7.555408 51.254894,7.819659 47.848527,10.730554 29.887685,26.090171 26.481319,28.980421 26.172681,29.24364 26.136553,29.708145 26.400804,30.012653 28.28979,32.221631 35.226391,40.324654 37.13602,42.502664 37.400272,42.811302 37.864776,42.84743 38.168253,42.583178 41.574619,39.672283 59.535461,24.312667 62.941828,21.422416 63.250465,21.158165 63.286593,20.694692 63.022342,20.390184 61.133357,18.181207 54.196756,10.078183 52.287126,7.900173 Z" fill="#4a91ce" id="path66" style="opacity:1;stroke-width:1.0421"></path>
  </g>
  <g id="g66" style="stroke-width:1.00956" transform="matrix(0.99053093,0,0,0.99053093,-10.612587,-18.383074)">
    
    
  </g>
  <g id="g67" style="stroke-width:1.00956" transform="matrix(0.99053093,0,0,0.99053093,-10.612587,-18.496393)">
    
    
  </g>
  <g id="g68" style="stroke-width:1.00956" transform="matrix(0.99053093,0,0,0.99053093,-10.736406,-18.456295)">
    
    
  </g>
</svg>
