<svg xmlns="http://www.w3.org/2000/svg" xmlns:xlink="http://www.w3.org/1999/xlink" viewBox="20.57 127.01 45.04 66.65">
  <!-- Extrait de media/icones.svg (groupe Aide) — généré, ne pas retoucher ici. -->
  <defs>
    <linearGradient id="linearGradient5">
      <stop style="stop-color:#f0061c;stop-opacity:1;" offset="0" id="stop4" />
      <stop style="stop-color:#32dcff;stop-opacity:1;" offset="1" id="stop5" />
    </linearGradient>
    <linearGradient
       xlink:href="#linearGradient5"
       id="linearGradient4"
       x1="21.984964"
       y1="160.33749"
       x2="64.029167"
       y2="160.33749"
       gradientUnits="userSpaceOnUse"
       gradientTransform="translate(0.08749957)" />
  </defs>
  <path
     style="font-size:36px;line-height:1;font-family:'Arial Rounded MT Bold';-inkscape-font-specification:'Arial Rounded MT Bold, ';fill:#e9ecf0;fill-opacity:1;stroke:url(#linearGradient4);stroke-width:3;stroke-linecap:round;stroke-dasharray:none"
     d="M 22.072464,146.08451 Q 22.072464,142.09029 24.637164,138.01202 27.201854,133.89168 32.121024,131.20085 37.040194,128.51002 43.599104,128.51002 49.695514,128.51002 54.362424,130.78041 59.029324,133.00875 61.551984,136.87683 64.116664,140.74488 64.116664,145.28566 64.116664,148.85942 62.645134,151.55025 61.215614,154.24108 59.197494,156.21715 57.221424,158.1512 52.049984,162.77606 50.620494,164.07942 49.737564,165.0885 48.896664,166.0555 48.476224,166.8964 48.055784,167.69523 47.803514,168.53611 47.593294,169.33496 47.130804,171.39513 46.331974,175.76772 42.127564,175.76772 39.941244,175.76772 38.427664,174.33823 36.956124,172.90872 36.956124,170.09174 36.956124,166.56003 38.049274,163.99535 39.142414,161.38859 40.950314,159.45457 42.758224,157.47849 45.827444,154.78766 48.518274,152.43317 49.695514,151.25593 50.914784,150.03666 51.713634,148.5651 52.554514,147.09356 52.554514,145.36976 52.554514,142.00622 50.031854,139.69378 47.551244,137.38134 43.599104,137.38134 38.974244,137.38134 36.787924,139.73583 34.601634,142.04827 33.088044,146.58903 31.658534,151.34003 27.664344,151.34003 25.309874,151.34003 23.670144,149.7003 22.072464,148.01854 22.072464,146.08451 Z M 42.590024,192.16497 Q 40.025344,192.16497 38.091314,190.52524 36.199314,188.84348 36.199314,185.85833 36.199314,183.20955 38.049274,181.40165 39.899194,179.59374 42.590024,179.59374 45.238834,179.59374 47.046734,181.40165 48.854634,183.20955 48.854634,185.85833 48.854634,188.80143 46.962634,190.48321 45.070634,192.16497 42.590024,192.16497 Z"
     id="Aide" />
</svg>
