<?xml version="1.0" encoding="UTF-8" standalone="no"?>
<svg
   width="1122.5197"
   height="793.70081"
   viewBox="0 0 296.99999 210"
   version="1.1"
   id="svg8"
   inkscape:version="1.4.4 (dcaf3e7, 2026-05-05)"
   sodipodi:docname="icones.svg"
   xmlns:inkscape="http://www.inkscape.org/namespaces/inkscape"
   xmlns:sodipodi="http://sodipodi.sourceforge.net/DTD/sodipodi-0.dtd"
   xmlns:xlink="http://www.w3.org/1999/xlink"
   xmlns="http://www.w3.org/2000/svg"
   xmlns:svg="http://www.w3.org/2000/svg"
   xmlns:rdf="http://www.w3.org/1999/02/22-rdf-syntax-ns#"
   xmlns:cc="http://creativecommons.org/ns#"
   xmlns:dc="http://purl.org/dc/elements/1.1/">
  <sodipodi:namedview
     id="base"
     pagecolor="#ffffff"
     bordercolor="#666666"
     borderopacity="1.0"
     inkscape:pageopacity="0.0"
     inkscape:pageshadow="2"
     inkscape:zoom="0.70710685"
     inkscape:cx="553.66455"
     inkscape:cy="420.02139"
     inkscape:document-units="mm"
     inkscape:current-layer="layer3"
     showgrid="true"
     inkscape:window-width="1920"
     inkscape:window-height="1057"
     inkscape:window-x="-8"
     inkscape:window-y="-8"
     inkscape:window-maximized="1"
     inkscape:snap-grids="true"
     inkscape:pagecheckerboard="false"
     borderlayer="true"
     inkscape:snap-path-clip="true"
     inkscape:document-rotation="0"
     inkscape:showpageshadow="2"
     inkscape:deskcolor="#d1d1d1">
    <inkscape:grid
       type="xygrid"
       id="grid25"
       units="px"
       spacingx="0.26458333"
       spacingy="0.26458333"
       empspacing="10"
       snapvisiblegridlinesonly="false"
       originx="0"
       originy="0" />
  </sodipodi:namedview>
  <defs
     id="defs2">
    <linearGradient
       id="linearGradient5"
       inkscape:collect="always">
      <stop
         style="stop-color:#f0061c;stop-opacity:1;"
         offset="0"
         id="stop4" />
      <stop
         style="stop-color:#32dcff;stop-opacity:1;"
         offset="1"
         id="stop5" />
    </linearGradient>
    <linearGradient
       id="linearGradient33"
       inkscape:collect="always">
      <stop
         style="stop-color:#f0b71c;stop-opacity:1;"
         offset="0"
         id="stop32" />
      <stop
         style="stop-color:#32b932;stop-opacity:1;"
         offset="1"
         id="stop33" />
    </linearGradient>
    <linearGradient
       id="linearGradient7"
       inkscape:collect="always">
      <stop
         style="stop-color:#ff2fff;stop-opacity:1;"
         offset="0"
         id="stop7" />
      <stop
         style="stop-color:#ab09ff;stop-opacity:1;"
         offset="1"
         id="stop6" />
    </linearGradient>
    <linearGradient
       id="linearGradient3"
       inkscape:collect="always">
      <stop
         style="stop-color:#ab09ff;stop-opacity:1;"
         offset="0"
         id="stop2" />
      <stop
         style="stop-color:#ff2fff;stop-opacity:1;"
         offset="1"
         id="stop3" />
    </linearGradient>
    <linearGradient
       id="linearGradient35"
       inkscape:collect="always">
      <stop
         style="stop-color:#364aff;stop-opacity:1;"
         offset="0"
         id="stop34" />
      <stop
         style="stop-color:#892fff;stop-opacity:1;"
         offset="1"
         id="stop35" />
    </linearGradient>
    <linearGradient
       id="linearGradient17"
       inkscape:collect="always">
      <stop
         style="stop-color:#bd4a00;stop-opacity:1;"
         offset="0"
         id="stop17" />
      <stop
         style="stop-color:#89a500;stop-opacity:1;"
         offset="1"
         id="stop18" />
    </linearGradient>
    <inkscape:path-effect
       effect="simplify"
       id="path-effect6"
       is_visible="true"
       lpeversion="1.3"
       threshold="8,510638"
       steps="1"
       smooth_angles="360"
       helper_size="0"
       simplify_individual_paths="false"
       simplify_just_coalesce="false" />
    <inkscape:path-effect
       effect="simplify"
       id="path-effect5"
       is_visible="true"
       lpeversion="1.3"
       threshold="8,510638"
       steps="1"
       smooth_angles="360"
       helper_size="0"
       simplify_individual_paths="false"
       simplify_just_coalesce="false" />
    <inkscape:path-effect
       effect="simplify"
       id="path-effect3"
       is_visible="true"
       lpeversion="1.3"
       threshold="8,510638"
       steps="1"
       smooth_angles="360"
       helper_size="0"
       simplify_individual_paths="false"
       simplify_just_coalesce="false" />
    <linearGradient
       inkscape:collect="always"
       xlink:href="#linearGradient17"
       id="linearGradient20"
       x1="109.43211"
       y1="75.035416"
       x2="109.43211"
       y2="99.324997"
       gradientUnits="userSpaceOnUse"
       gradientTransform="translate(99.818703,2.7068097)" />
    <linearGradient
       inkscape:collect="always"
       xlink:href="#linearGradient17"
       id="linearGradient23"
       gradientUnits="userSpaceOnUse"
       x1="92.436737"
       y1="41.994026"
       x2="92.436737"
       y2="85.263321"
       gradientTransform="translate(99.818703,2.7068097)" />
    <linearGradient
       inkscape:collect="always"
       xlink:href="#linearGradient17"
       id="linearGradient25"
       gradientUnits="userSpaceOnUse"
       x1="108.34687"
       y1="120.13918"
       x2="108.34687"
       y2="138.88789" />
    <linearGradient
       inkscape:collect="always"
       xlink:href="#linearGradient17"
       id="linearGradient26"
       gradientUnits="userSpaceOnUse"
       x1="108.34687"
       y1="120.13918"
       x2="108.34687"
       y2="138.88789" />
    <linearGradient
       inkscape:collect="always"
       xlink:href="#linearGradient17"
       id="linearGradient27"
       gradientUnits="userSpaceOnUse"
       gradientTransform="translate(99.818717,2.7068105)"
       x1="92.436737"
       y1="41.994026"
       x2="92.436737"
       y2="85.263321" />
    <inkscape:path-effect
       effect="simplify"
       id="path-effect5-1"
       is_visible="true"
       lpeversion="1.3"
       threshold="8"
       steps="1"
       smooth_angles="360"
       helper_size="0"
       simplify_individual_paths="false"
       simplify_just_coalesce="false" />
    <inkscape:path-effect
       effect="simplify"
       id="path-effect6-2"
       is_visible="true"
       lpeversion="1.3"
       threshold="8"
       steps="1"
       smooth_angles="360"
       helper_size="0"
       simplify_individual_paths="false"
       simplify_just_coalesce="false" />
    <linearGradient
       inkscape:collect="always"
       xlink:href="#linearGradient35"
       id="linearGradient34"
       x1="91.81041"
       y1="35.702068"
       x2="91.81041"
       y2="93.414597"
       gradientUnits="userSpaceOnUse" />
    <inkscape:path-effect
       effect="perspective-envelope"
       up_left_point="10,28.9"
       up_right_point="72.2,28.9"
       down_left_point="-1.0438154e-07,58.582886"
       down_right_point="62.197265,58.582886"
       id="path-effect5-0"
       is_visible="true"
       lpeversion="1"
       deform_type="envelope_deformation"
       horizontal_mirror="false"
       vertical_mirror="false"
       overflow_perspective="false" />
    <linearGradient
       inkscape:collect="always"
       xlink:href="#linearGradient3"
       id="linearGradient2"
       x1="-1.0524441"
       y1="33.750977"
       x2="72.873299"
       y2="33.750977"
       gradientUnits="userSpaceOnUse" />
    <linearGradient
       inkscape:collect="always"
       xlink:href="#linearGradient7"
       id="linearGradient6"
       x1="4.7904353"
       y1="129.44685"
       x2="106.74401"
       y2="129.44685"
       gradientUnits="userSpaceOnUse" />
    <linearGradient
       inkscape:collect="always"
       xlink:href="#linearGradient3"
       id="linearGradient8"
       gradientUnits="userSpaceOnUse"
       x1="-1.0524441"
       y1="33.750977"
       x2="72.873299"
       y2="33.750977" />
    <linearGradient
       inkscape:collect="always"
       xlink:href="#linearGradient3"
       id="linearGradient9"
       gradientUnits="userSpaceOnUse"
       x1="-1.0524441"
       y1="33.750977"
       x2="72.873299"
       y2="33.750977" />
    <linearGradient
       inkscape:collect="always"
       xlink:href="#linearGradient7"
       id="linearGradient10"
       gradientUnits="userSpaceOnUse"
       x1="4.7904353"
       y1="129.44685"
       x2="106.74401"
       y2="129.44685" />
    <linearGradient
       inkscape:collect="always"
       xlink:href="#linearGradient7"
       id="linearGradient11"
       gradientUnits="userSpaceOnUse"
       x1="4.7904353"
       y1="129.44685"
       x2="106.74401"
       y2="129.44685" />
    <linearGradient
       inkscape:collect="always"
       xlink:href="#linearGradient35"
       id="linearGradient12"
       gradientUnits="userSpaceOnUse"
       x1="91.81041"
       y1="35.702068"
       x2="91.81041"
       y2="93.414597" />
    <linearGradient
       inkscape:collect="always"
       xlink:href="#linearGradient35"
       id="linearGradient13"
       gradientUnits="userSpaceOnUse"
       x1="91.81041"
       y1="35.702068"
       x2="91.81041"
       y2="93.414597" />
    <linearGradient
       inkscape:collect="always"
       xlink:href="#linearGradient35"
       id="linearGradient14"
       gradientUnits="userSpaceOnUse"
       x1="91.81041"
       y1="35.702068"
       x2="91.81041"
       y2="93.414597" />
    <linearGradient
       inkscape:collect="always"
       xlink:href="#linearGradient35"
       id="linearGradient15"
       gradientUnits="userSpaceOnUse"
       x1="91.81041"
       y1="35.702068"
       x2="91.81041"
       y2="93.414597" />
    <linearGradient
       inkscape:collect="always"
       xlink:href="#linearGradient33"
       id="linearGradient16"
       gradientUnits="userSpaceOnUse"
       x1="91.81041"
       y1="35.702068"
       x2="91.81041"
       y2="93.414597"
       gradientTransform="matrix(1.0999858,0,0,1.1211376,155.3996,4.3503909)" />
    <linearGradient
       inkscape:collect="always"
       xlink:href="#linearGradient33"
       id="linearGradient18"
       gradientUnits="userSpaceOnUse"
       x1="91.81041"
       y1="35.702068"
       x2="91.81041"
       y2="93.414597"
       gradientTransform="matrix(1.0999858,0,0,1.1211376,155.3996,4.3503909)" />
    <linearGradient
       inkscape:collect="always"
       xlink:href="#linearGradient33"
       id="linearGradient21"
       gradientUnits="userSpaceOnUse"
       x1="91.81041"
       y1="35.702068"
       x2="91.81041"
       y2="93.414597"
       gradientTransform="matrix(1.0999858,0,0,1.1211376,155.3996,4.3503909)" />
    <linearGradient
       inkscape:collect="always"
       xlink:href="#linearGradient33"
       id="linearGradient32"
       gradientUnits="userSpaceOnUse"
       gradientTransform="matrix(1.0999858,0,0,1.1211376,155.3996,4.3503909)"
       x1="91.81041"
       y1="35.702068"
       x2="91.81041"
       y2="93.414597" />
    <linearGradient
       inkscape:collect="always"
       xlink:href="#linearGradient35"
       id="linearGradient37"
       x1="227.97632"
       y1="78.345619"
       x2="274.76978"
       y2="78.477913"
       gradientUnits="userSpaceOnUse" />
    <linearGradient
       inkscape:collect="always"
       xlink:href="#linearGradient5"
       id="linearGradient4"
       x1="21.984964"
       y1="160.33749"
       x2="64.029167"
       y2="160.33749"
       gradientUnits="userSpaceOnUse"
       gradientTransform="translate(0.08749957)" />
  </defs>
  <metadata
     id="metadata5">
    <rdf:RDF>
      <cc:Work
         rdf:about="">
        <dc:format>image/svg+xml</dc:format>
        <dc:type
           rdf:resource="http://purl.org/dc/dcmitype/StillImage" />
        <cc:license
           rdf:resource="http://creativecommons.org/publicdomain/zero/1.0/" />
      </cc:Work>
      <cc:License
         rdf:about="http://creativecommons.org/publicdomain/zero/1.0/">
        <cc:permits
           rdf:resource="http://creativecommons.org/ns#Reproduction" />
        <cc:permits
           rdf:resource="http://creativecommons.org/ns#Distribution" />
        <cc:permits
           rdf:resource="http://creativecommons.org/ns#DerivativeWorks" />
      </cc:License>
    </rdf:RDF>
  </metadata>
  <g
     inkscape:groupmode="layer"
     id="layer2"
     inkscape:label="Images-Gravures" />
  <g
     inkscape:label="Marquage"
     inkscape:groupmode="layer"
     id="layer1" />
  <g
     inkscape:groupmode="layer"
     id="layer3"
     inkscape:label="Découpes">
    <g
       id="Nouveau"
       transform="translate(-150.69831,6.5405836)">
      <path
         d="M 196.99159,37.631812 H 177.72094 C 174.28614,37.631812 171.5208,40.39715 171.5208,43.83195 V 88.839022 C 171.5208,92.273822 174.28614,95.03916 177.72094,95.03916 H 206.78944 C 210.22424,95.03916 212.98958,92.273822 212.98958,88.839022 V 52.977645 Z"
         style="fill:#e9ecf0;stroke:url(#linearGradient23);stroke-width:1.8;stroke-linecap:round"
         id="path27"
         sodipodi:nodetypes="csssssscc" />
      <path
         d="M 212.98958,52.977645 H 203.19173 C 199.75693,52.977645 196.99159,50.212307 196.99159,46.777507 V 37.631812"
         style="fill:none;stroke:url(#linearGradient27);stroke-width:1.8;stroke-linecap:round"
         id="path27-1"
         sodipodi:nodetypes="cssc" />
      <g
         id="g29">
        <circle
           style="fill:#e9ecf0;stroke:none;stroke-width:1.8;stroke-linecap:round;stroke-dasharray:none"
           id="path4-2"
           cx="209.25082"
           cy="89.887016"
           r="13.229167" />
        <circle
           style="fill:#e9ecf0;stroke:url(#linearGradient20);stroke-width:1.8;stroke-linecap:round;stroke-dasharray:none"
           id="path4"
           cx="209.25082"
           cy="89.887016"
           r="11.244792" />
        <path
           style="fill:#e9ecf0;stroke:url(#linearGradient25);stroke-width:3.1383;stroke-linecap:round;stroke-dasharray:none"
           d="M 108.47916,121.70833 C 108.47916,126.9118 108.47916,132.11527 108.47916,137.31874"
           id="path5"
           inkscape:path-effect="#path-effect5"
           inkscape:original-d="M 108.47916,121.70833 V 137.31874"
           transform="matrix(0.79661015,0,0,0.79661015,122.9406,-13.284778)" />
        <path
           style="fill:#e9ecf0;stroke:url(#linearGradient26);stroke-width:3.1383;stroke-linecap:round;stroke-dasharray:none"
           d="M 100.54166,129.64583 C 105.74513,129.64583 110.94861,129.64583 116.15208,129.64583"
           id="path6"
           inkscape:path-effect="#path-effect6"
           inkscape:original-d="M 100.54166,129.64583 H 116.15208"
           transform="matrix(0.79661015,0,0,0.79661015,122.9406,-13.284778)" />
      </g>
    </g>
    <g
       id="Enregistrer"
       transform="matrix(1.0999858,0,0,1.1211376,84.21817,4.0858078)"
       style="fill:#e9ecf0;fill-opacity:1;stroke:url(#linearGradient34);stroke-width:1.62087;stroke-dasharray:none">
      <path
         id="rect26"
         style="fill:#e9ecf0;fill-opacity:1;stroke:url(#linearGradient12);stroke-width:1.62087;stroke-linecap:round;stroke-dasharray:none;stroke-opacity:1"
         d="M 65.764461,37.041667 C 64.656461,37.041667 63.764583,37.933545 63.764583,39.041545 V 90.075122 C 63.764583,91.183122 64.656461,92.075 65.764461,92.075 H 117.85637 C 118.96437,92.075 119.85625,91.183122 119.85625,90.075122 V 46.566667 L 110.33125,37.041667 Z" />
      <rect
         style="fill:#e9ecf0;fill-opacity:1;stroke:url(#linearGradient13);stroke-width:1.62087;stroke-linecap:round;stroke-dasharray:none;stroke-opacity:1"
         id="rect27"
         width="35.241665"
         height="18.240995"
         x="74.454163"
         y="73.834" />
      <rect
         style="fill:#e9ecf0;fill-opacity:1;stroke:url(#linearGradient14);stroke-width:1.62087;stroke-linecap:round;stroke-dasharray:none;stroke-opacity:1"
         id="rect27-5-5"
         width="35.241669"
         height="19.037981"
         x="73.660408"
         y="37.041664" />
      <rect
         style="fill:#e9ecf0;fill-opacity:1;stroke:url(#linearGradient15);stroke-width:1.62087;stroke-linecap:round;stroke-dasharray:none;stroke-opacity:1"
         id="rect28"
         width="2.6458333"
         height="9.5249996"
         x="102.39375"
         y="37.041664" />
    </g>
    <g
       id="Ouvrir"
       transform="translate(22.668976,13.047948)">
      <g
         id="g8"
         transform="matrix(0.86720487,0,0,0.86744778,61.719532,38.456122)"
         style="fill:#e9ecf0;fill-opacity:1;stroke:url(#linearGradient2);stroke-width:2.10489;stroke-dasharray:none">
        <path
           id="rect1-94"
           style="fill:#e9ecf0;fill-opacity:1;stroke:url(#linearGradient8);stroke-width:2.10489;stroke-linecap:round;stroke-dasharray:none"
           d="M 2,8.9101562 C 0.892,8.9101562 0,9.8021562 0,10.910156 V 21.982422 32.65625 51.033203 C 0,55.22092 3.3708771,58.591797 7.5585938,58.591797 H 54.638672 C 58.826389,58.591797 62.197266,55.22092 62.197266,51.033203 V 21.982422 C 62.197266,17.794705 58.826389,14.421875 54.638672,14.421875 H 18.328125 V 10.910156 C 18.328125,9.8021562 17.436125,8.9101562 16.328125,8.9101562 Z" />
        <path
           id="rect1-9"
           style="fill:#e9ecf0;fill-opacity:1;stroke:url(#linearGradient9);stroke-width:2.10489;stroke-linecap:round;stroke-dasharray:none"
           d="M 34.385837,28.9 C 33.277789,28.9 32.206189,29.432935 31.983147,30.094924 L 31.27584,32.194208 H 16.451042 C 12.263161,32.194208 8.211704,34.208179 7.3687936,36.71018 L 1.5214058,54.066914 C 0.67849542,56.568915 3.3728298,58.582886 7.5605467,58.582886 H 54.63867 C 58.826387,58.582886 62.875945,56.568915 63.719086,54.066914 L 67.41786,43.090886 C 67.418129,43.090096 67.418381,43.089343 67.418647,43.088552 L 69.568073,36.71018 71.797326,30.094924 C 72.020407,29.432935 71.30796,28.9 70.199911,28.9 Z"
           inkscape:path-effect="#path-effect5-0"
           inkscape:original-d="M 24.384765,8.9101562 C 23.276765,8.9101562 22.384765,9.8021552 22.384765,10.910156 V 14.423827 H 7.5605461 C 3.3728291,14.423827 -9.3705098e-7,17.794704 -9.3705098e-7,21.982421 V 51.033202 C -9.3705098e-7,55.220919 3.3728291,58.591796 7.5605461,58.591796 H 54.638671 C 58.826388,58.591796 62.197265,55.220919 62.197265,51.033202 V 32.662109 C 62.197267,32.660786 62.197265,32.659525 62.197265,32.658202 V 21.982421 10.910156 C 62.197265,9.8021552 61.305265,8.9101562 60.197265,8.9101562 Z" />
      </g>
      <g
         id="path5-8"
         style="fill:url(#linearGradient6);fill-opacity:1;stroke:none;stroke-width:0.445681;stroke-opacity:1"
         transform="matrix(0.59319096,0,0,0.59413282,58.877881,-17.22679)">
        <path
           id="path8"
           style="baseline-shift:baseline;display:inline;overflow:visible;vector-effect:none;fill:url(#linearGradient10);fill-opacity:1;stroke:none;stroke-width:0.445681;stroke-linecap:round;stroke-opacity:1;enable-background:accumulate;stop-color:#000000;stop-opacity:1"
           d="M 4.7904355,109.65045 C 49.469053,100.05482 50.071407,108.71198 67.84847,136.35419 68.096521,136.73989 47.11135,147.01305 47.11135,147.01305 L 95.718615,168.23104 106.74401,113.21892 87.8442,124.62164 C 79.369135,91.341201 49.016772,75.702989 4.7904355,109.65045 Z"
           sodipodi:nodetypes="csccccc" />
        <g
           id="g6"
           style="fill:url(#linearGradient11);fill-opacity:1;stroke:none;stroke-width:0.445681;stroke-opacity:1" />
      </g>
    </g>
    <g
       id="SVG">
      <g
         id="g33">
        <path
           id="rect26-3"
           style="fill:#e9ecf0;fill-opacity:1;stroke:url(#linearGradient16);stroke-width:1.79996;stroke-linecap:round;stroke-dasharray:none;stroke-opacity:1"
           d="M 227.73957,45.879197 C 226.52079,45.879197 225.53974,46.879115 225.53974,48.121335 V 105.337 C 225.53974,106.57922 226.52079,107.57914 227.73957,107.57914 H 285.03993 C 286.25872,107.57914 287.23977,106.57922 287.23977,105.337 V 56.558032 L 276.76241,45.879197 Z" />
        <rect
           style="fill:#e9ecf0;fill-opacity:1;stroke:url(#linearGradient18);stroke-width:1.79996;stroke-linecap:round;stroke-dasharray:none;stroke-opacity:1"
           id="rect27-2"
           width="38.765331"
           height="20.450666"
           x="237.29813"
           y="87.128464" />
        <rect
           style="fill:#e9ecf0;fill-opacity:1;stroke:url(#linearGradient32);stroke-width:1.79996;stroke-linecap:round;stroke-dasharray:none;stroke-opacity:1"
           id="rect27-5-5-2"
           width="38.765335"
           height="21.344196"
           x="236.425"
           y="45.879192" />
        <rect
           style="fill:#e9ecf0;fill-opacity:1;stroke:url(#linearGradient21);stroke-width:1.79996;stroke-linecap:round;stroke-dasharray:none;stroke-opacity:1"
           id="rect28-1"
           width="2.9103789"
           height="10.678835"
           x="268.03128"
           y="45.879192" />
      </g>
      <path
         d="M 227.97632,81.911286 H 233.9191 Q 234.16457,82.944813 234.81052,83.396981 235.45648,83.849149 236.73547,83.849149 237.80775,83.849149 238.41495,83.487415 239.03506,83.112761 239.03506,82.466807 239.03506,81.433279 236.46416,80.787325 235.9474,80.658134 235.6761,80.593538 233.57029,80.050936 232.31714,79.611687 231.0769,79.159519 230.50846,78.771946 229.41034,77.983882 228.85482,76.885759 228.31222,75.787636 228.31222,74.379454 228.31222,71.550173 230.44387,69.935287 232.57552,68.3204 236.30914,68.3204 239.97816,68.3204 242.08397,69.870691 244.18978,71.408063 244.46108,74.289021 H 238.66041 Q 238.5183,73.44928 237.9111,73.035869 237.31682,72.622458 236.20578,72.622458 235.22393,72.622458 234.74593,72.945435 234.26792,73.268412 234.26792,73.927286 234.26792,74.87038 236.77422,75.503416 236.99385,75.568012 237.11012,75.59385 237.47185,75.684283 238.20824,75.865151 241.52845,76.704892 242.54906,77.389604 243.81513,78.229345 244.39649,79.301629 244.97785,80.373914 244.97785,81.833771 244.97785,84.986029 242.76868,86.67843 240.57244,88.370831 236.46416,88.370831 232.67887,88.370831 230.45679,86.67843 228.24762,84.986029 227.97632,81.911286 Z M 246.1664,68.811326 H 252.41924 L 255.62318,81.097383 259.05966,68.811326 H 265.06703 L 258.65916,87.841149 H 252.57427 Z M 281.28049,87.841149 280.98335,86.200424 Q 279.94983,87.298547 278.48997,87.841149 277.03011,88.370831 275.09225,88.370831 271.00981,88.370831 268.65854,85.696579 266.30727,83.009408 266.30727,78.345616 266.30727,73.578471 268.92984,70.955895 271.55242,68.3204 276.2808,68.3204 280.0015,68.3204 282.27526,70.16783 284.56194,72.01526 284.98827,75.374225 H 279.1876 Q 278.83878,74.237344 278.05072,73.643066 277.27557,73.048788 276.12577,73.048788 274.29126,73.048788 273.37401,74.456969 272.46967,75.865151 272.46967,78.655675 272.46967,81.239493 273.38693,82.518483 274.30418,83.797473 276.17745,83.797473 277.52104,83.797473 278.45121,83.177357 279.3943,82.544321 279.61393,81.484956 H 276.86216 V 77.415442 H 285.22082 V 87.841149 Z"
         id="text33"
         style="font-size:26.4583px;line-height:1;font-family:'Swis721 Blk BT';-inkscape-font-specification:'Swis721 Blk BT';fill:url(#linearGradient37);stroke-width:1.79996;stroke-linecap:round"
         aria-label="SVG" />
    </g>
    <path
       style="font-size:36px;line-height:1;font-family:'Arial Rounded MT Bold';-inkscape-font-specification:'Arial Rounded MT Bold, ';fill:#e9ecf0;fill-opacity:1;stroke:url(#linearGradient4);stroke-width:3;stroke-linecap:round;stroke-dasharray:none"
       d="M 22.072464,146.08451 Q 22.072464,142.09029 24.637164,138.01202 27.201854,133.89168 32.121024,131.20085 37.040194,128.51002 43.599104,128.51002 49.695514,128.51002 54.362424,130.78041 59.029324,133.00875 61.551984,136.87683 64.116664,140.74488 64.116664,145.28566 64.116664,148.85942 62.645134,151.55025 61.215614,154.24108 59.197494,156.21715 57.221424,158.1512 52.049984,162.77606 50.620494,164.07942 49.737564,165.0885 48.896664,166.0555 48.476224,166.8964 48.055784,167.69523 47.803514,168.53611 47.593294,169.33496 47.130804,171.39513 46.331974,175.76772 42.127564,175.76772 39.941244,175.76772 38.427664,174.33823 36.956124,172.90872 36.956124,170.09174 36.956124,166.56003 38.049274,163.99535 39.142414,161.38859 40.950314,159.45457 42.758224,157.47849 45.827444,154.78766 48.518274,152.43317 49.695514,151.25593 50.914784,150.03666 51.713634,148.5651 52.554514,147.09356 52.554514,145.36976 52.554514,142.00622 50.031854,139.69378 47.551244,137.38134 43.599104,137.38134 38.974244,137.38134 36.787924,139.73583 34.601634,142.04827 33.088044,146.58903 31.658534,151.34003 27.664344,151.34003 25.309874,151.34003 23.670144,149.7003 22.072464,148.01854 22.072464,146.08451 Z M 42.590024,192.16497 Q 40.025344,192.16497 38.091314,190.52524 36.199314,188.84348 36.199314,185.85833 36.199314,183.20955 38.049274,181.40165 39.899194,179.59374 42.590024,179.59374 45.238834,179.59374 47.046734,181.40165 48.854634,183.20955 48.854634,185.85833 48.854634,188.80143 46.962634,190.48321 45.070634,192.16497 42.590024,192.16497 Z"
       id="Aide"
       aria-label="?" />
  </g>
</svg>
