<svg xmlns="http://www.w3.org/2000/svg" width="135" height="123" viewBox="0 0 135 123">
  <!-- Retouche brochage 7seg-2dig : déplace chaque pastille rouge sur un CROISEMENT (lignes foncées = 50 px). Garde les id pin-<nom>. Marge 20 px. -->
  <rect width="135" height="123" fill="#fff"/>
  <g id="grid"><line x1="0" y1="0" x2="0" y2="123" stroke="#7fb0ff" stroke-width="0.7"/><line x1="10" y1="0" x2="10" y2="123" stroke="#cfe3ff" stroke-width="0.4"/><line x1="20" y1="0" x2="20" y2="123" stroke="#cfe3ff" stroke-width="0.4"/><line x1="30" y1="0" x2="30" y2="123" stroke="#cfe3ff" stroke-width="0.4"/><line x1="40" y1="0" x2="40" y2="123" stroke="#cfe3ff" stroke-width="0.4"/><line x1="50" y1="0" x2="50" y2="123" stroke="#7fb0ff" stroke-width="0.7"/><line x1="60" y1="0" x2="60" y2="123" stroke="#cfe3ff" stroke-width="0.4"/><line x1="70" y1="0" x2="70" y2="123" stroke="#cfe3ff" stroke-width="0.4"/><line x1="80" y1="0" x2="80" y2="123" stroke="#cfe3ff" stroke-width="0.4"/><line x1="90" y1="0" x2="90" y2="123" stroke="#cfe3ff" stroke-width="0.4"/><line x1="100" y1="0" x2="100" y2="123" stroke="#7fb0ff" stroke-width="0.7"/><line x1="110" y1="0" x2="110" y2="123" stroke="#cfe3ff" stroke-width="0.4"/><line x1="120" y1="0" x2="120" y2="123" stroke="#cfe3ff" stroke-width="0.4"/><line x1="130" y1="0" x2="130" y2="123" stroke="#cfe3ff" stroke-width="0.4"/><line x1="0" y1="0" x2="135" y2="0" stroke="#7fb0ff" stroke-width="0.7"/><line x1="0" y1="10" x2="135" y2="10" stroke="#cfe3ff" stroke-width="0.4"/><line x1="0" y1="20" x2="135" y2="20" stroke="#cfe3ff" stroke-width="0.4"/><line x1="0" y1="30" x2="135" y2="30" stroke="#cfe3ff" stroke-width="0.4"/><line x1="0" y1="40" x2="135" y2="40" stroke="#cfe3ff" stroke-width="0.4"/><line x1="0" y1="50" x2="135" y2="50" stroke="#7fb0ff" stroke-width="0.7"/><line x1="0" y1="60" x2="135" y2="60" stroke="#cfe3ff" stroke-width="0.4"/><line x1="0" y1="70" x2="135" y2="70" stroke="#cfe3ff" stroke-width="0.4"/><line x1="0" y1="80" x2="135" y2="80" stroke="#cfe3ff" stroke-width="0.4"/><line x1="0" y1="90" x2="135" y2="90" stroke="#cfe3ff" stroke-width="0.4"/><line x1="0" y1="100" x2="135" y2="100" stroke="#7fb0ff" stroke-width="0.7"/><line x1="0" y1="110" x2="135" y2="110" stroke="#cfe3ff" stroke-width="0.4"/><line x1="0" y1="120" x2="135" y2="120" stroke="#cfe3ff" stroke-width="0.4"/></g>
  <g id="board" opacity="0.85" transform="translate(20,20) scale(3.7795) translate(0 0)">
        <defs>
          <pattern id="pin-pattern" height="2" width="2.54" patternUnits="userSpaceOnUse">
            <!--?lit$222531578$--><circle cx="1.27" cy="1" r="0.5" fill="#aaa"></circle>
          </pattern>
        </defs>
        <rect x="0" height="20.5" y="0" width="25.1"></rect>
        <!--?lit$222531578$--><!---->
      <g transform="skewX(-8) translate(3.5, 2.4) scale(0.81)">
        <polygon points="2 0 8 0 9 1 8 2 2 2 1 1" fill="#444"></polygon>
        <polygon points="10 2 10 8 9 9 8 8 8 2 9 1" fill="#444"></polygon>
        <polygon points="10 10 10 16 9 17 8 16 8 10 9 9" fill="#444"></polygon>
        <polygon points="8 18 2 18 1 17 2 16 8 16 9 17" fill="#444"></polygon>
        <polygon points="0 16 0 10 1 9 2 10 2 16 1 17" fill="#444"></polygon>
        <polygon points="0 8 0 2 1 1 2 2 2 8 1 9" fill="#444"></polygon>
        <polygon points="2 8 8 8 9 9 8 10 2 10 1 9" fill="#444"></polygon>
      </g>
      <circle r="0.89" cx="10.9" cy="16" fill="#444"></circle>
    <!----><!---->
      <g transform="skewX(-8) translate(16.2, 2.4) scale(0.81)">
        <polygon points="2 0 8 0 9 1 8 2 2 2 1 1" fill="#444"></polygon>
        <polygon points="10 2 10 8 9 9 8 8 8 2 9 1" fill="#444"></polygon>
        <polygon points="10 10 10 16 9 17 8 16 8 10 9 9" fill="#444"></polygon>
        <polygon points="8 18 2 18 1 17 2 16 8 16 9 17" fill="#444"></polygon>
        <polygon points="0 16 0 10 1 9 2 10 2 16 1 17" fill="#444"></polygon>
        <polygon points="0 8 0 2 1 1 2 2 2 8 1 9" fill="#444"></polygon>
        <polygon points="2 8 8 8 9 9 8 10 2 10 1 9" fill="#444"></polygon>
      </g>
      <circle r="0.89" cx="23.6" cy="16" fill="#444"></circle>
    <!----><!-- -->
        <!--?lit$222531578$--><!-- -->
        <!--?lit$222531578$-->
      <g fill="url(#pin-pattern)" transform="translate(6.200000000000001, 0)">
        <rect height="2" width="12.7"></rect>
        <rect height="2" width="12.7" transform="translate(0, 18)"></rect>
      </g>
    
      </g>
  <g id="pins"><circle id="pin-DIG1" cx="67.44" cy="23.78" r="3.2" fill="#e00" fill-opacity="0.85" stroke="#700" stroke-width="0.5"/><text x="67.44" y="18.78" font-size="5" fill="#a00" text-anchor="middle" font-family="sans-serif">DIG1</text><circle id="pin-DIG2" cx="77.04" cy="23.78" r="3.2" fill="#e00" fill-opacity="0.85" stroke="#700" stroke-width="0.5"/><text x="77.04" y="18.78" font-size="5" fill="#a00" text-anchor="middle" font-family="sans-serif">DIG2</text><circle id="pin-A" cx="48.24" cy="23.78" r="3.2" fill="#e00" fill-opacity="0.85" stroke="#700" stroke-width="0.5"/><text x="48.24" y="18.78" font-size="5" fill="#a00" text-anchor="middle" font-family="sans-serif">A</text><circle id="pin-B" cx="57.84" cy="23.78" r="3.2" fill="#e00" fill-opacity="0.85" stroke="#700" stroke-width="0.5"/><text x="57.84" y="18.78" font-size="5" fill="#a00" text-anchor="middle" font-family="sans-serif">B</text><circle id="pin-C" cx="48.24" cy="91.82" r="3.2" fill="#e00" fill-opacity="0.85" stroke="#700" stroke-width="0.5"/><text x="48.24" y="86.82" font-size="5" fill="#a00" text-anchor="middle" font-family="sans-serif">C</text><circle id="pin-D" cx="77.04" cy="91.82" r="3.2" fill="#e00" fill-opacity="0.85" stroke="#700" stroke-width="0.5"/><text x="77.04" y="86.82" font-size="5" fill="#a00" text-anchor="middle" font-family="sans-serif">D</text><circle id="pin-E" cx="67.44" cy="91.82" r="3.2" fill="#e00" fill-opacity="0.85" stroke="#700" stroke-width="0.5"/><text x="67.44" y="86.82" font-size="5" fill="#a00" text-anchor="middle" font-family="sans-serif">E</text><circle id="pin-F" cx="86.64" cy="23.78" r="3.2" fill="#e00" fill-opacity="0.85" stroke="#700" stroke-width="0.5"/><text x="86.64" y="18.78" font-size="5" fill="#a00" text-anchor="middle" font-family="sans-serif">F</text><circle id="pin-G" cx="86.64" cy="91.82" r="3.2" fill="#e00" fill-opacity="0.85" stroke="#700" stroke-width="0.5"/><text x="86.64" y="86.82" font-size="5" fill="#a00" text-anchor="middle" font-family="sans-serif">G</text><circle id="pin-DP" cx="57.84" cy="91.82" r="3.2" fill="#e00" fill-opacity="0.85" stroke="#700" stroke-width="0.5"/><text x="57.84" y="86.82" font-size="5" fill="#a00" text-anchor="middle" font-family="sans-serif">DP</text></g>
</svg>
