<?xml version="1.0" encoding="UTF-8" standalone="no"?>
<svg
   width="77"
   height="124"
   viewBox="0 0 77 124"
   version="1.1"
   id="svg22"
   sodipodi:docname="buzzer.edit.svg"
   inkscape:version="1.4.3 (0d15f75, 2025-12-25)"
   xmlns:inkscape="http://www.inkscape.org/namespaces/inkscape"
   xmlns:sodipodi="http://sodipodi.sourceforge.net/DTD/sodipodi-0.dtd"
   xmlns="http://www.w3.org/2000/svg"
   xmlns:svg="http://www.w3.org/2000/svg">
  <defs
     id="defs22" />
  <sodipodi:namedview
     id="namedview22"
     pagecolor="#ffffff"
     bordercolor="#666666"
     borderopacity="1.0"
     inkscape:showpageshadow="2"
     inkscape:pageopacity="0.0"
     inkscape:pagecheckerboard="0"
     inkscape:deskcolor="#d1d1d1"
     showgrid="true"
     inkscape:zoom="4.8585079"
     inkscape:cx="-9.5708397"
     inkscape:cy="69.980333"
     inkscape:window-width="1920"
     inkscape:window-height="1057"
     inkscape:window-x="-8"
     inkscape:window-y="-8"
     inkscape:window-maximized="1"
     inkscape:current-layer="svg22">
    <inkscape:grid
       id="grid22"
       units="px"
       originx="0"
       originy="0"
       spacingx="10"
       spacingy="10"
       empcolor="#3f3fff"
       empopacity="0.25098039"
       color="#3f3fff"
       opacity="0.1254902"
       empspacing="1"
       enabled="true"
       visible="true" />
  </sodipodi:namedview>
  <!-- Retouche brochage buzzer : déplace chaque pastille rouge sur un CROISEMENT (lignes foncées = 50 px). Garde les id pin-<nom>. Marge 20 px. -->
  <g
     id="board"
     opacity="0.85"
     transform="translate(23,16)">
    <path
       d="M 8,0 C 3,0 2,1 2,1 V 5.09 C 1.85,5.04 1.67,5 1.5,5 0.67,5 0,5.67 0,6.5 0,7.33 0.67,8 1.5,8 2.33,8 3,7.33 3,6.5 V 2.53 C 3.73,2.3 4.99,2.09 7,2.03 V 4.09 C 6.85,4.04 6.67,4 6.5,4 5.67,4 5,4.67 5,5.5 5,6.33 5.67,7 6.5,7 7.33,7 8,6.33 8,5.5 Z"
       id="path21" />
  </g>
  <g
     id="g21"
     transform="translate(3,-4)">
    <circle
       id="pin-1"
       cx="47"
       cy="104"
       r="3.2"
       fill="#ee0000"
       fill-opacity="0.85"
       stroke="#770000"
       stroke-width="0.5" />
    <text
       x="47"
       y="99"
       font-size="5px"
       fill="#aa0000"
       text-anchor="middle"
       font-family="sans-serif"
       id="text21">1</text>
  </g>
  <g
     id="g22"
     transform="translate(3,-4)">
    <circle
       id="pin-2"
       cx="57"
       cy="104"
       r="3.2"
       fill="#ee0000"
       fill-opacity="0.85"
       stroke="#770000"
       stroke-width="0.5" />
    <text
       x="57"
       y="99"
       font-size="5px"
       fill="#aa0000"
       text-anchor="middle"
       font-family="sans-serif"
       id="text22">2</text>
  </g>
</svg>
