<?xml version="1.0" encoding="UTF-8" standalone="no"?>
<svg
   width="151.24445"
   height="70"
   viewBox="0 0 151.24445 70"
   version="1.1"
   id="svg41"
   sodipodi:docname="gas-sensor.edit.svg"
   inkscape:version="1.4.3 (0d15f75, 2025-12-25)"
   xmlns:inkscape="http://www.inkscape.org/namespaces/inkscape"
   xmlns:sodipodi="http://sodipodi.sourceforge.net/DTD/sodipodi-0.dtd"
   xmlns:xlink="http://www.w3.org/1999/xlink"
   xmlns="http://www.w3.org/2000/svg"
   xmlns:svg="http://www.w3.org/2000/svg">
  <defs
     id="defs41" />
  <sodipodi:namedview
     id="namedview41"
     pagecolor="#ffffff"
     bordercolor="#666666"
     borderopacity="1.0"
     inkscape:showpageshadow="2"
     inkscape:pageopacity="0.0"
     inkscape:pagecheckerboard="0"
     inkscape:deskcolor="#d1d1d1"
     showgrid="true"
     inkscape:zoom="6.0245498"
     inkscape:cx="99.094542"
     inkscape:cy="58.095628"
     inkscape:window-width="1920"
     inkscape:window-height="1057"
     inkscape:window-x="-8"
     inkscape:window-y="-8"
     inkscape:window-maximized="1"
     inkscape:current-layer="svg41">
    <inkscape:grid
       id="grid41"
       units="px"
       originx="-8.7555573"
       originy="-10"
       spacingx="10"
       spacingy="10"
       empcolor="#3f3fff"
       empopacity="0.25098039"
       color="#3f3fff"
       opacity="0.1254902"
       empspacing="1"
       enabled="true"
       visible="true" />
  </sodipodi:namedview>
  <!-- Retouche brochage gas-sensor : déplace chaque pastille rouge sur un CROISEMENT (lignes foncées = 50 px). Garde les id pin-<nom>. Marge 20 px. -->
  <g
     id="g42"
     transform="translate(-8.7555571,-10)">
    <g
       id="board"
       opacity="0.85"
       transform="matrix(1.0276658,0,0,1.0277316,8.7555571,14.7202)"
       style="stroke-width:0.972658"><defs
   id="defs30">
  <pattern
     id="a"
     width="4.1"
     height="4.1"
     patternUnits="userSpaceOnUse">
    <path
       d="m0 0v4.09h0.4v-0.85l0.42 0.381v0.469h0.4v-0.0996l0.109 0.0996h0.711v-0.799l0.42 0.379v0.42h0.398v-0.0488l0.0547 0.0488h0.766v-0.75l0.42 0.381v0.369h0.4v-4.09h-0.4v0.311l-0.334-0.311h-0.598l0.111 0.0996v0.9l-0.42-0.379v-0.621h-0.398v0.25l-0.277-0.25h-0.6l0.0566 0.0508v0.9l-0.42-0.381v-0.57h-0.4v0.201l-0.223-0.201zm0.4 0.359 0.42 0.381v0.9l-0.42-0.381zm1.64 0.0508 0.42 0.391v0.889l-0.42-0.379zm1.64 0.0605 0.42 0.379v0.891l-0.42-0.381zm-2.46 0.639 0.42 0.381v0.9l-0.42-0.381zm1.64 0.0508 0.42 0.381v0.898l-0.42-0.379zm-2.46 0.641 0.42 0.379v0.9l-0.42-0.379zm1.64 0.0488 0.42 0.381v0.9l-0.42-0.381zm1.64 0.0508 0.42 0.379v0.9l-0.42-0.379zm-2.46 0.65 0.42 0.379v0.9l-0.42-0.379zm1.64 0.0488 0.42 0.381v0.9l-0.42-0.381z"
       fill="#949392"
       id="path29" />
  </pattern>
  <g
     id="pin">
    <path
       fill="#c6bf95"
       d="M 29,4.6 C 29.382,4.6 29.748,4.448 30.02,4.178 30.292,3.908 30.442,3.542 30.442,3.158 V 3.157 C 30.442,2.775 30.29,2.409 30.02,2.137 29.75,1.865 29.384,1.715 29,1.715 H 2.9 C 2.666,1.715 2.477,1.904 2.477,2.138 V 4.178 C 2.477,4.412 2.666,4.601 2.9,4.601 H 29 Z"
       id="path30" />
    <rect
       x="0"
       y="0"
       width="6.9000001"
       height="6.9000001"
       id="rect30" />
  </g>
</defs>
<!-- Board -->
<path
   d="M 113,0 H 0 V 59.5 H 113 Z M 111.4,53.2 C 111.4,55.82 109.28,57.94 106.66,57.94 104.04,57.94 101.92,55.82 101.92,53.2 101.92,50.58 104.04,48.46 106.66,48.46 109.28,48.46 111.4,50.58 111.4,53.2 Z M 1.4,53.2 C 1.4,55.82 3.52,57.94 6.14,57.94 8.76,57.94 10.88,55.82 10.88,53.2 10.88,50.58 8.76,48.46 6.14,48.46 3.52,48.46 1.4,50.58 1.4,53.2 Z M 106.4,1.6 C 109.02,1.6 111.14,3.72 111.14,6.34 111.14,8.96 109.02,11.08 106.4,11.08 103.78,11.08 101.66,8.96 101.66,6.34 101.66,3.72 103.78,1.6 106.4,1.6 Z M 5.4,1.6 C 2.78,1.6 0.66,3.72 0.66,6.34 0.66,8.96 2.78,11.08 5.4,11.08 8.02,11.08 10.14,8.96 10.14,6.34 10.14,3.72 8.02,1.6 5.4,1.6 Z"
   fill="#0664af"
   id="path31"
   style="stroke-width:0.972658" />
<!-- Pins -->
<use
   xlink:href="#pin"
   x="107"
   y="12"
   id="use31"
   style="stroke-width:0.972658" />
<use
   xlink:href="#pin"
   x="107"
   y="21.299999"
   id="use32"
   style="stroke-width:0.972658" />
<use
   xlink:href="#pin"
   x="107"
   y="31.1"
   id="use33"
   style="stroke-width:0.972658" />
<use
   xlink:href="#pin"
   x="107"
   y="40.900002"
   id="use34"
   style="stroke-width:0.972658" />
<!-- Sensor -->
<circle
   cx="47.700001"
   cy="29.799999"
   r="31.200001"
   fill="none"
   stroke="#ffffff"
   stroke-width="0.389063px"
   id="circle34" />
<circle
   cx="47.700001"
   cy="29.799999"
   r="28.799999"
   fill="#dedede"
   id="circle35"
   style="stroke-width:0.972658" />
<circle
   cx="47.700001"
   cy="29.799999"
   r="25.799999"
   fill="#d0ccc4"
   id="circle36"
   style="stroke-width:0.972658" />
<circle
   cx="47.700001"
   cy="29.799999"
   r="21.4"
   fill="#bab3ad"
   id="circle37"
   style="stroke-width:0.972658" />
<circle
   cx="47.700001"
   cy="29.799999"
   r="21.4"
   fill="url(#a)"
   id="circle38"
   style="stroke-width:0.972658" />
<!-- LEDs -->
<rect
   style="opacity:1;fill:#999999;stroke-width:1.53164;paint-order:stroke markers fill"
   id="rect17"
   width="8.5262499"
   height="3.8281121"
   x="81.321793"
   y="5.8179226" />
<rect
   style="opacity:1;fill:#e6e6e6;stroke-width:1.99968;paint-order:stroke markers fill"
   id="rect18"
   width="4.8444595"
   height="3.8281121"
   x="83.162689"
   y="5.8179226" />
<!--?lit$095661215$-->
false
        <rect
   style="fill:#999999;stroke-width:1.53164;paint-order:stroke markers fill"
   id="rect17-9"
   width="8.5262499"
   height="3.8281121"
   x="81.018036"
   y="48.700188" />
<rect
   style="fill:#e6e6e6;stroke-width:1.99968;paint-order:stroke markers fill"
   id="rect18-0"
   width="4.8444595"
   height="3.8281121"
   x="82.858932"
   y="48.700188" />
<!--?lit$095661215$-->
false
        
      </g>
    <g
       id="g38"
       style="stroke-width:0.989968"
       transform="matrix(1.010101,0,0,1.0101657,-8.585857,-6.871048)">
      <circle
         id="pin-AOUT"
         cx="157"
         cy="36.5"
         r="3.2"
         fill="#ee0000"
         fill-opacity="0.85"
         stroke="#770000"
         stroke-width="0.494984" />
      <text
         x="157"
         y="31.5"
         font-size="5px"
         fill="#aa0000"
         text-anchor="middle"
         font-family="sans-serif"
         id="text38"
         style="stroke-width:0.989968">AOUT</text>
    </g>
    <g
       id="g39"
       style="stroke-width:0.989968"
       transform="matrix(1.010101,0,0,1.0101657,-8.585857,-6.871048)">
      <circle
         id="pin-DOUT"
         cx="157"
         cy="46.400002"
         r="3.2"
         fill="#ee0000"
         fill-opacity="0.85"
         stroke="#770000"
         stroke-width="0.494984" />
      <text
         x="157"
         y="41.400002"
         font-size="5px"
         fill="#aa0000"
         text-anchor="middle"
         font-family="sans-serif"
         id="text39"
         style="stroke-width:0.989968">DOUT</text>
    </g>
    <g
       id="g40"
       style="stroke-width:0.989968"
       transform="matrix(1.010101,0,0,1.0101657,-8.585857,-6.871048)">
      <circle
         id="pin-GND"
         cx="157"
         cy="56.5"
         r="3.2"
         fill="#ee0000"
         fill-opacity="0.85"
         stroke="#770000"
         stroke-width="0.494984" />
      <text
         x="157"
         y="51.5"
         font-size="5px"
         fill="#aa0000"
         text-anchor="middle"
         font-family="sans-serif"
         id="text40"
         style="stroke-width:0.989968">GND</text>
    </g>
    <g
       id="g41"
       style="stroke-width:0.989968"
       transform="matrix(1.010101,0,0,1.0101657,-8.585857,-6.871048)">
      <circle
         id="pin-VCC"
         cx="157"
         cy="66.199997"
         r="3.2"
         fill="#ee0000"
         fill-opacity="0.85"
         stroke="#770000"
         stroke-width="0.494984" />
      <text
         x="157"
         y="61.200001"
         font-size="5px"
         fill="#aa0000"
         text-anchor="middle"
         font-family="sans-serif"
         id="text41"
         style="stroke-width:0.989968">VCC</text>
    </g>
  </g>
</svg>
