<?xml version="1.0" encoding="UTF-8" standalone="no"?>
<svg
   width="110"
   height="85"
   viewBox="0 0 110 85"
   version="1.1"
   id="svg64"
   sodipodi:docname="heartbeat.edit.svg"
   inkscape:version="1.4.3 (0d15f75, 2025-12-25)"
   xmlns:inkscape="http://www.inkscape.org/namespaces/inkscape"
   xmlns:sodipodi="http://sodipodi.sourceforge.net/DTD/sodipodi-0.dtd"
   xmlns="http://www.w3.org/2000/svg"
   xmlns:svg="http://www.w3.org/2000/svg">
  <defs
     id="defs64">
    <clipPath
       id="c">
      <path
         d="M 44.3,19.6 H 25.3 V 38.7 C 25.3,43.94 29.54,48.18 34.78,48.18 40.02,48.18 44.26,43.94 44.26,38.7 Z"
         id="path52" />
    </clipPath>
    <clipPath
       id="b">
      <path
         d="M 42.3,19.6 H 27.3 V 38.4 C 27.3,40.38 28.089,42.29 29.49,43.69 30.89,45.09 32.8,45.88 34.78,45.88 36.76,45.88 38.67,45.092 40.07,43.69 41.47,42.29 42.26,40.38 42.26,38.4 Z"
         id="path55" />
    </clipPath>
  </defs>
  <sodipodi:namedview
     id="namedview64"
     pagecolor="#ffffff"
     bordercolor="#666666"
     borderopacity="1.0"
     inkscape:showpageshadow="2"
     inkscape:pageopacity="0.0"
     inkscape:pagecheckerboard="0"
     inkscape:deskcolor="#d1d1d1"
     showgrid="true"
     inkscape:zoom="5.0204581"
     inkscape:cx="46.808477"
     inkscape:cy="13.146211"
     inkscape:window-width="1920"
     inkscape:window-height="1057"
     inkscape:window-x="-8"
     inkscape:window-y="-8"
     inkscape:window-maximized="1"
     inkscape:current-layer="svg64">
    <inkscape:grid
       id="grid64"
       units="px"
       originx="0"
       originy="0"
       spacingx="10"
       spacingy="10"
       empcolor="#3f3fff"
       empopacity="0.25098039"
       color="#3f3fff"
       opacity="0.1254902"
       empspacing="1"
       enabled="true"
       visible="true" />
  </sodipodi:namedview>
  <!-- Retouche brochage heartbeat : déplace chaque pastille rouge sur un CROISEMENT (lignes foncées = 50 px). Garde les id pin-<nom>. Marge 20 px. -->
  <g
     transform="matrix(0,-1.021793,1.021793,0,-112.96516,197.53114)"
     id="g26"
     style="opacity:0.85;stroke-width:0.979161" />
  <g
     id="g67"
     transform="translate(-2.4969482e-8,-9.961172)">
    <circle
       id="pin-GND"
       cx="100"
       cy="30"
       r="3.298969"
       fill="#ee0000"
       fill-opacity="0.85"
       stroke="#770000"
       stroke-width="0.5" />
    <text
       x="100"
       y="24.84536"
       font-size="5.15464px"
       fill="#aa0000"
       text-anchor="middle"
       font-family="sans-serif"
       id="text61"
       style="stroke-width:1">GND</text>
    <circle
       id="pin-VCC"
       cx="100"
       cy="40"
       r="3.298969"
       fill="#ee0000"
       fill-opacity="0.85"
       stroke="#770000"
       stroke-width="0.5" />
    <text
       x="100"
       y="34.84536"
       font-size="5.15464px"
       fill="#aa0000"
       text-anchor="middle"
       font-family="sans-serif"
       id="text62"
       style="stroke-width:1">VCC</text>
    <circle
       id="pin-OUT"
       cx="100"
       cy="50"
       r="3.298969"
       fill="#ee0000"
       fill-opacity="0.85"
       stroke="#770000"
       stroke-width="0.5" />
    <text
       x="100"
       y="44.84536"
       font-size="5.15464px"
       fill="#aa0000"
       text-anchor="middle"
       font-family="sans-serif"
       id="text63"
       style="stroke-width:1">OUT</text>
    <path
       d="M 82.401662,11.564811 H 9.65 V 68.376502 H 82.401662 Z M 18.43742,53.867041 C 21.145171,53.867041 23.331808,56.063896 23.331808,58.76143 23.331808,61.458963 21.134953,63.655818 18.43742,63.655818 15.739886,63.655818 13.543031,61.458963 13.543031,58.76143 13.543031,56.053678 15.739886,53.867041 18.43742,53.867041 Z M 18.43742,16.367238 C 21.145171,16.367238 23.331808,18.564093 23.331808,21.261627 23.331808,23.95916 21.134953,26.156015 18.43742,26.156015 15.739886,26.156015 13.543031,23.95916 13.543031,21.261627 13.543031,18.553875 15.739886,16.367238 18.43742,16.367238 Z"
       fill="#19365e"
       id="path26"
       style="opacity:0.85;stroke-width:1.0005" />
    <circle
       cx="32.742523"
       cy="59.486904"
       r="3.3003914"
       fill="#bbb9b9"
       id="circle26"
       style="opacity:0.85;stroke-width:1.0005" />
    <circle
       cx="43.777889"
       cy="59.486904"
       r="3.3003914"
       fill="#bbb9b9"
       id="circle27"
       style="opacity:0.85;stroke-width:1.0005" />
    <path
       d="M 68.403097,25.359016 V 54.582296 H 76.975941 V 25.359016 Z"
       fill="none"
       stroke="#ffffff"
       stroke-width="0.900448px"
       id="path27"
       style="opacity:0.85" />
    <g
       id="g66"
       transform="translate(0,0.07708)">
      <path
         d="M 69.322711,46.510132 V 53.202876 H 76.015455 V 46.510132 Z"
         id="path28"
         style="opacity:0.85;fill:#29261c;stroke-width:1.0005" />
      <path
         d="M 72.898987,48.451538 C 72.508662,48.451538 72.134686,48.606851 71.856758,48.882735 71.57883,49.158619 71.425561,49.533617 71.425561,49.924964 71.425561,50.316311 71.580874,50.689265 71.856758,50.967193 72.132642,51.243077 72.506618,51.398389 72.898987,51.398389 H 99.567784 C 99.806884,51.398389 100,51.204249 100,50.965149 V 48.880691 C 100,48.642614 99.806884,48.448473 99.567784,48.448473 H 72.898987 Z"
         id="path31"
         style="opacity:0.85;fill:#9f9f9f;stroke-width:1.0005" />
    </g>
    <g
       id="g65"
       transform="translate(0,0.0548885)">
      <path
         d="M 69.322711,36.598739 V 43.291484 H 76.015455 V 36.598739 Z"
         id="path29"
         style="opacity:0.85;fill:#29261c;stroke-width:1.0005" />
      <path
         d="M 72.898987,38.437967 C 72.508662,38.437967 72.134686,38.593279 71.856758,38.869164 71.57883,39.145048 71.425561,39.520046 71.425561,39.911392 71.425561,40.302739 71.580874,40.675694 71.856758,40.953621 72.132642,41.229505 72.506618,41.384818 72.898987,41.384818 H 99.567784 C 99.806884,41.384818 100,41.190677 100,40.951578 V 38.86712 C 100,38.629042 99.806884,38.434902 99.567784,38.434902 H 72.898987 Z"
         id="path32"
         style="opacity:0.85;fill:#9f9f9f;stroke-width:1.0005" />
    </g>
    <g
       id="g64"
       transform="translate(0,-0.038828)">
      <path
         d="M 69.322711,26.687347 V 33.390309 H 76.015455 V 26.687347 Z"
         id="path30"
         style="opacity:0.85;fill:#29261c;stroke-width:1.0005" />
      <path
         d="M 72.898987,28.526575 C 72.508662,28.526575 72.134686,28.681887 71.856758,28.957771 71.57883,29.233656 71.425561,29.607632 71.425561,30 V 30.001022 C 71.425561,30.391347 71.580874,30.765323 71.856758,31.043251 72.132642,31.321179 72.506618,31.474448 72.898987,31.474448 H 99.567784 C 99.806884,31.474448 100,31.281329 100,31.042229 V 28.957771 C 100,28.718672 99.806884,28.525553 99.567784,28.525553 H 72.898987 Z"
         id="path33"
         style="opacity:0.85;fill:#9f9f9f;stroke-width:1.0005" />
    </g>
    <g
       transform="matrix(1.021793,0,0,1.021793,2.6200642,7.2732804)"
       fill="#0e0f0d"
       stroke="#bbb9b9"
       stroke-linejoin="miter"
       stroke-width="1.79187px"
       id="g38"
       style="opacity:0.85">
      <circle
         cx="29.799999"
         cy="22.6"
         r="2.5899999"
         id="circle33"
         style="stroke-width:1.79187px" />
      <circle
         cx="29.799999"
         cy="12.2"
         r="2.5899999"
         id="circle34"
         style="stroke-width:1.79187px" />
      <circle
         cx="29.799999"
         cy="41.299999"
         r="2.5899999"
         id="circle35"
         style="stroke-width:1.79187px" />
      <circle
         cx="39.900002"
         cy="22.6"
         r="2.5899999"
         id="circle36"
         style="stroke-width:1.79187px" />
      <circle
         cx="39.900002"
         cy="12.2"
         r="2.5899999"
         id="circle37"
         style="stroke-width:1.79187px" />
      <circle
         cx="39.900002"
         cy="41.299999"
         r="2.5899999"
         id="circle38"
         style="stroke-width:1.79187px" />
    </g>
    <circle
       cx="18.416985"
       cy="21.190102"
       r="4.8943882"
       fill="none"
       stroke="#bbb9b9"
       stroke-linejoin="miter"
       stroke-width="1.10055px"
       id="circle39"
       style="opacity:0.85" />
    <circle
       cx="18.416985"
       cy="58.771648"
       r="4.8943882"
       fill="none"
       stroke="#bbb9b9"
       stroke-linejoin="miter"
       stroke-width="1.10055px"
       id="circle40"
       style="opacity:0.85" />
    <g
       transform="matrix(1.021793,0,0,1.021793,2.6200642,7.2732804)"
       id="g45"
       style="opacity:0.85;stroke-width:0.979161">
      <rect
         x="26.5"
         y="59.799999"
         width="16.4"
         height="20.9"
         fill="#d3d9de"
         id="rect40"
         style="stroke-width:0.979161" />
      <circle
         cx="34.799999"
         cy="64.300003"
         r="2.3699999"
         fill="#a8b2c8"
         id="circle41"
         style="stroke-width:0.979161" />
      <path
         d="M 40.7,62.8 H 37.95 V 82 C 37.95,82.364 38.095,82.713 38.353,82.971 38.61,83.229 38.96,83.373 39.324,83.373 H 39.325 C 39.689,83.373 40.039,83.229 40.296,82.971 40.554,82.713 40.699,82.364 40.699,82 V 62.8 Z"
         fill="#b9c5de"
         id="path41"
         style="stroke-width:0.979161" />
      <rect
         x="37.900002"
         y="62.799999"
         width="2.75"
         height="17.9"
         fill="#a8b2c8"
         id="rect41"
         style="stroke-width:0.979161" />
      <path
         d="M 32.4,69.5 H 29.65 V 82 C 29.65,82.364 29.795,82.713 30.052,82.971 30.31,83.229 30.659,83.373 31.024,83.373 31.389,83.373 31.738,83.229 31.996,82.971 32.253,82.713 32.398,82.364 32.398,82 V 69.5 Z"
         fill="#b9c5de"
         id="path42"
         style="stroke-width:0.979161" />
      <g
         fill="#a8b2c8"
         id="g44"
         style="stroke-width:0.979161">
        <rect
           x="29.6"
           y="69.5"
           width="2.75"
           height="11.2"
           id="rect42"
           style="stroke-width:0.979161" />
        <path
           d="M 35.5,72.2 C 35.642,72.2 35.777,72.144 35.877,72.044 35.978,71.944 36.034,71.808 36.034,71.667 V 69.987 C 36.034,69.845 35.978,69.71 35.877,69.61 35.777,69.51 35.642,69.453 35.5,69.453 H 31.53 C 31.166,69.453 30.816,69.598 30.559,69.856 30.301,70.113 30.156,70.463 30.156,70.827 V 70.828 C 30.156,71.192 30.301,71.541 30.559,71.799 30.816,72.057 31.166,72.201 31.53,72.201 H 35.5 Z"
           id="path43"
           style="stroke-width:0.979161" />
        <path
           d="M 38.8,65.5 C 38.941,65.5 39.077,65.444 39.177,65.344 39.277,65.244 39.334,65.108 39.334,64.967 V 63.287 C 39.334,63.145 39.277,63.01 39.177,62.91 39.077,62.809 38.941,62.753 38.8,62.753 H 34.83 C 34.466,62.753 34.116,62.898 33.858,63.156 33.601,63.413 33.456,63.763 33.456,64.127 V 64.128 C 33.456,64.492 33.601,64.841 33.858,65.099 34.116,65.357 34.466,65.501 34.83,65.501 H 38.8 Z"
           id="path44"
           style="stroke-width:0.979161" />
      </g>
    </g>
    <path
       d="M 42.143017,26.891706 H 44.687282 V 19.953732 C 44.687282,19.61654 44.553427,19.292631 44.314328,19.054554 44.07625,18.815454 43.752341,18.681599 43.41515,18.681599 H 43.414128 C 43.076936,18.681599 42.753028,18.815454 42.51495,19.054554 42.27585,19.292631 42.141996,19.61654 42.141996,19.953732 Z"
       fill="#d2d2d2"
       id="path45"
       style="opacity:0.85;stroke-width:1.0005" />
    <path
       d="M 31.822908,26.891706 H 34.367173 V 19.953732 C 34.367173,19.61654 34.233318,19.292631 33.994218,19.054554 33.75614,18.815454 33.432232,18.681599 33.09504,18.681599 H 33.094019 C 32.756827,18.681599 32.432919,18.815454 32.194841,19.054554 31.955741,19.292631 31.821886,19.61654 31.821886,19.953732 Z"
       fill="#d2d2d2"
       id="path46"
       style="opacity:0.85;stroke-width:1.0005" />
    <g
       transform="matrix(1.021793,0,0,1.021793,2.6200642,7.2732804)"
       id="g47"
       style="opacity:0.85;stroke-width:0.979161">
      <rect
         x="47"
         y="29.200001"
         width="13.4"
         height="4.4299998"
         fill="#bbb9b9"
         id="rect46"
         style="stroke-width:0.979161" />
      <rect
         x="50.299999"
         y="29"
         width="6.77"
         height="4.7399998"
         fill="#29261c"
         id="rect47"
         style="stroke-width:0.979161" />
    </g>
    <g
       transform="matrix(1.021793,0,0,1.021793,2.6200642,7.2732804)"
       id="g49"
       style="opacity:0.85;stroke-width:0.979161">
      <rect
         x="47"
         y="20"
         width="13.4"
         height="4.4299998"
         fill="#bbb9b9"
         id="rect48"
         style="stroke-width:0.979161" />
      <rect
         x="50.299999"
         y="19.9"
         width="6.77"
         height="4.7399998"
         fill="#29261c"
         id="rect49"
         style="stroke-width:0.979161" />
    </g>
    <path
       d="M 49.397748,35.372588 H 65.644256 V 43.301702 H 49.397748 Z"
       fill="none"
       stroke="#ffffff"
       stroke-linejoin="miter"
       stroke-width="0.6003px"
       id="path49"
       style="opacity:0.85" />
    <path
       d="M 49.397748,25.972092 H 65.644256 V 33.901206 H 49.397748 Z"
       fill="none"
       stroke="#ffffff"
       stroke-linejoin="miter"
       stroke-width="0.6003px"
       id="path50"
       style="opacity:0.85" />
    <path
       d="M 47.865058,27.300423 H 28.450991 V 46.816669 C 28.450991,52.170865 32.783394,56.503267 38.137589,56.503267 43.491784,56.503267 47.824186,52.170865 47.824186,46.816669 Z"
       fill="#fdfefe"
       id="path51"
       style="opacity:0.85;stroke-width:1.0005" />
    <g
       transform="matrix(1.021793,0,0,1.021793,2.6200642,7.2732804)"
       clip-path="url(#c)"
       id="g53"
       style="opacity:0.85;stroke-width:0.979161">
      <path
         d="M 30.6,18.1 C 30.6,26.22 29.12,34.3 30.337,42.4 30.725,44.98 31.477,47.34 32.927,49.51 33.405,50.228 33.883,51.01 34.437,51.67 34.638,51.906 34.853,52.045 35.109,52.199 35.211,52.26 35.547,52.356 35.428,52.356 32.328,52.356 29.898,49.856 27.938,47.716 23.728,43.126 22.578,39.416 22.058,33.216 21.98,32.295 21.656,31.316 21.705,30.406 21.778,29.046 22.283,27.616 22.626,26.296 23.19,24.136 23.706,22.116 25.136,20.376 25.553,19.868 25.681,19.106 26.216,18.686 26.84,18.192 28.646,17.964 29.316,18.406 29.505,18.53 30.145,18.685 30.145,18.966"
         fill="#ffffff"
         id="path53"
         style="stroke-width:0.979161" />
    </g>
    <path
       d="M 45.821472,27.300423 H 30.494577 V 46.510132 C 30.494577,48.533282 31.300772,50.484906 32.732304,51.915417 34.162814,53.345927 36.114439,54.153143 38.137589,54.153143 40.160739,54.153143 42.112364,53.34797 43.542874,51.915417 44.973384,50.484906 45.7806,48.533282 45.7806,46.510132 Z"
       fill="#d5d5d5"
       id="path54"
       style="opacity:0.85;stroke-width:1.0005" />
    <g
       transform="matrix(1.021793,0,0,1.021793,2.6200642,7.2732804)"
       clip-path="url(#b)"
       id="g61"
       style="opacity:0.85;stroke-width:0.979161">
      <g
         fill="#b1b1b1"
         id="g57"
         style="stroke-width:0.979161">
        <path
           d="M 31.4,29.6 V 19.6 H 28.38 V 33.3 H 41.28 L 37.61,29.65 Z"
           id="path56"
           style="stroke-width:0.979161" />
        <path
           d="M 41.3,30.4 38.12,27.2 V 19.64 H 41.3 Z"
           id="path57"
           style="stroke-width:0.979161" />
      </g>
      <path
         d="M 30.6,18.1 C 30.6,26.22 29.12,34.3 30.337,42.4 30.725,44.98 31.477,47.34 32.927,49.51 33.405,50.228 33.883,51.01 34.437,51.67 34.638,51.906 34.853,52.045 35.109,52.199 35.211,52.26 35.547,52.356 35.428,52.356 32.328,52.356 29.898,49.856 27.938,47.716 23.728,43.126 22.578,39.416 22.058,33.216 21.98,32.295 21.656,31.316 21.705,30.406 21.778,29.046 22.283,27.616 22.626,26.296 23.19,24.136 23.706,22.116 25.136,20.376 25.553,19.868 25.681,19.106 26.216,18.686 26.84,18.192 28.646,17.964 29.316,18.406 29.505,18.53 30.145,18.685 30.145,18.966"
         fill="#e2e2e2"
         id="path58"
         style="stroke-width:0.979161" />
      <clipPath
         id="a">
        <path
           d="M 30.6,18.1 C 30.6,26.22 29.12,34.3 30.337,42.4 30.725,44.98 31.477,47.34 32.927,49.51 33.405,50.228 33.883,51.01 34.437,51.67 34.638,51.906 34.853,52.045 35.109,52.199 35.211,52.26 35.547,52.356 35.428,52.356 32.328,52.356 29.898,49.856 27.938,47.716 23.728,43.126 22.578,39.416 22.058,33.216 21.98,32.295 21.656,31.316 21.705,30.406 21.778,29.046 22.283,27.616 22.626,26.296 23.19,24.136 23.706,22.116 25.136,20.376 25.553,19.868 25.681,19.106 26.216,18.686 26.84,18.192 28.646,17.964 29.316,18.406 29.505,18.53 30.145,18.685 30.145,18.966"
           id="path59" />
      </clipPath>
      <g
         clip-path="url(#a)"
         id="g60"
         style="stroke-width:0.979161">
        <path
           d="M 31.4,29.6 V 19.6 H 28.38 V 33.3 H 41.28 L 37.61,29.65 Z"
           fill="#c7c7c7"
           id="path60"
           style="stroke-width:0.979161" />
      </g>
    </g>
    <rect
       x="27.327019"
       y="23.519789"
       width="21.764191"
       height="3.7601984"
       fill="#fdfefe"
       id="rect61"
       style="opacity:0.85;stroke-width:1.0005" />
    <path
       d="M 75.044752,21.159447 H 70.262761"
       fill="none"
       stroke="#fffefe"
       stroke-linejoin="miter"
       stroke-width="0.850425px"
       id="path61"
       style="opacity:0.85" />
    <rect
       style="fill:#ffffff;fill-opacity:0.63473;stroke-width:0.699999;stroke-linecap:round"
       id="rect64"
       width="18.843378"
       height="24.890892"
       x="28.654593"
       y="68.376495" />
  </g>
  <rect
     style="fill:#f8e45c;fill-opacity:0.618911;stroke-width:2.1;stroke-linecap:round"
     id="rect1"
     width="110"
     height="85"
     x="0"
     y="0" />
</svg>
