<?xml version="1.0" encoding="UTF-8" standalone="no"?>
<svg
   width="183.0705"
   height="305.5112"
   viewBox="0 0 183.0705 305.5112"
   version="1.1"
   id="svg76"
   sodipodi:docname="ili9341.edit.svg"
   inkscape:version="1.4.3 (0d15f75, 2025-12-25)"
   xmlns:inkscape="http://www.inkscape.org/namespaces/inkscape"
   xmlns:sodipodi="http://sodipodi.sourceforge.net/DTD/sodipodi-0.dtd"
   xmlns:xlink="http://www.w3.org/1999/xlink"
   xmlns="http://www.w3.org/2000/svg"
   xmlns:svg="http://www.w3.org/2000/svg">
  <defs
     id="defs76" />
  <sodipodi:namedview
     id="namedview76"
     pagecolor="#ffffff"
     bordercolor="#666666"
     borderopacity="1.0"
     inkscape:showpageshadow="2"
     inkscape:pageopacity="0.0"
     inkscape:pagecheckerboard="0"
     inkscape:deskcolor="#d1d1d1"
     inkscape:zoom="2.4624277"
     inkscape:cx="227.82394"
     inkscape:cy="191.68075"
     inkscape:window-width="1920"
     inkscape:window-height="1057"
     inkscape:window-x="-8"
     inkscape:window-y="-8"
     inkscape:window-maximized="1"
     inkscape:current-layer="svg76" />
  <!-- Retouche brochage ili9341 : déplace chaque pastille rouge sur un CROISEMENT (lignes foncées = 50 px). Garde les id pin-<nom>. Marge 20 px. -->
  <g
     id="g76"
     transform="translate(-20.000003,-20.000013)">
    <g
       id="board"
       opacity="0.85"
       transform="matrix(3.937,0,0,3.937,20,20)">
      <!-- Board -->
      <path
         d="M 8.8e-7,3.37e-6 V 77.600003 H 46.500001 V 3.37e-6 Z M 43.100001,1.7800034 A 1.8,1.8 0 0 1 44.900001,3.5800034 1.8,1.8 0 0 1 43.100001,5.3800034 1.8,1.8 0 0 1 41.300001,3.5800034 1.8,1.8 0 0 1 43.100001,1.7800034 Z M 3.7000009,1.8746034 A 1.8,1.8 0 0 1 5.5000009,3.6746034 1.8,1.8 0 0 1 3.7000009,5.4746034 1.8,1.8 0 0 1 1.9000009,3.6746034 1.8,1.8 0 0 1 3.7000009,1.8746034 Z M 3.7000009,72.574603 A 1.8,1.8 0 0 1 5.5000009,74.374603 1.8,1.8 0 0 1 3.7000009,76.174603 1.8,1.8 0 0 1 1.9000009,74.374603 1.8,1.8 0 0 1 3.7000009,72.574603 Z M 43.100001,72.669203 A 1.8,1.8 0 0 1 44.900001,74.469203 1.8,1.8 0 0 1 43.100001,76.269203 1.8,1.8 0 0 1 41.300001,74.469203 1.8,1.8 0 0 1 43.100001,72.669203 Z M 12.100001,75.349203 H 13.510001 V 76.689203 H 12.100001 Z M 14.630001,75.349203 H 16.040001 V 76.689203 H 14.630001 Z M 17.190001,75.349203 H 18.600001 V 76.689203 H 17.190001 Z M 19.730001,75.349203 H 21.140001 V 76.689203 H 19.730001 Z M 32.430001,75.349203 H 33.840001 V 76.689203 H 32.430001 Z M 22.330001,75.361103 H 23.740001 V 76.701103 H 22.330001 Z M 24.870001,75.373003 H 26.280001 V 76.713003 H 24.870001 Z M 29.950001,75.373003 H 31.360001 V 76.713003 H 29.950001 Z M 27.420001,75.384403 H 28.830001 V 76.724403 H 27.420001 Z"
         fill="#931917"
         stroke-width="0"
         id="path58" />
      <!-- LCD Panel -->
      <path
         d="M 0.17,5.65 V 70.25 H 46.27 V 5.65 Z M 6.63,68.55 H 41.33 V 70.25 H 6.63 Z"
         fill="#f6e1f1"
         id="path59" />
      <rect
         x="11.2"
         y="66.699997"
         width="24.200001"
         height="6.2399998"
         rx="1"
         ry="1"
         fill="#bdab16"
         opacity="0.4"
         id="rect59" />
      <rect
         x="1.62"
         y="6.79"
         width="43.299999"
         height="61.900002"
         id="rect60" />
      <rect
         x="10.8"
         y="74.599998"
         width="24.200001"
         height="2.8299999"
         fill="none"
         stroke="#ffffff"
         stroke-width="0.27"
         id="rect61" />
      <!-- Pins -->
      <g
         fill="#cccccc"
         id="g67">
        <path
           d="M 11.8,75 V 76.99 H 13.78 V 75 Z M 12.788,75.397 A 0.6,0.6 0 0 1 12.7921,75.397 0.6,0.6 0 0 1 13.3921,75.997 0.6,0.6 0 0 1 12.7921,76.597 0.6,0.6 0 0 1 12.1921,75.997 0.6,0.6 0 0 1 12.7881,75.397 Z"
           id="path61" />
        <path
           id="round-pin"
           d="M 15.3,75 A 1,1 0 0 0 14.313,76 1,1 0 0 0 15.313,77 1,1 0 0 0 16.313,76 1,1 0 0 0 15.313,75 1,1 0 0 0 15.2996,75 Z M 15.3093,75.4 A 0.6,0.6 0 0 1 15.3134,75.4 0.6,0.6 0 0 1 15.9134,76 0.6,0.6 0 0 1 15.3134,76.6 0.6,0.6 0 0 1 14.7134,76 0.6,0.6 0 0 1 15.3094,75.4 Z" />
        <use
           xlink:href="#round-pin"
           x="2.54"
           id="use61" />
        <use
           xlink:href="#round-pin"
           x="5.0799999"
           id="use62" />
        <use
           xlink:href="#round-pin"
           x="7.6199999"
           id="use63" />
        <use
           xlink:href="#round-pin"
           x="10.16"
           id="use64" />
        <use
           xlink:href="#round-pin"
           x="12.7"
           id="use65" />
        <use
           xlink:href="#round-pin"
           x="15.24"
           id="use66" />
        <use
           xlink:href="#round-pin"
           x="17.780001"
           id="use67" />
      </g>
    </g>
    <circle
       id="pin-VCC"
       cx="70.309998"
       cy="319.17001"
       r="3.2"
       fill="#ee0000"
       fill-opacity="0.85"
       stroke="#770000"
       stroke-width="0.5" />
    <text
       x="70.309998"
       y="314.17001"
       font-size="5px"
       fill="#aa0000"
       text-anchor="middle"
       font-family="sans-serif"
       id="text67">VCC</text>
    <circle
       id="pin-GND"
       cx="80.309998"
       cy="319.17001"
       r="3.2"
       fill="#ee0000"
       fill-opacity="0.85"
       stroke="#770000"
       stroke-width="0.5" />
    <text
       x="80.309998"
       y="314.17001"
       font-size="5px"
       fill="#aa0000"
       text-anchor="middle"
       font-family="sans-serif"
       id="text68">GND</text>
    <circle
       id="pin-CS"
       cx="90.309998"
       cy="319.17001"
       r="3.2"
       fill="#ee0000"
       fill-opacity="0.85"
       stroke="#770000"
       stroke-width="0.5" />
    <text
       x="90.309998"
       y="314.17001"
       font-size="5px"
       fill="#aa0000"
       text-anchor="middle"
       font-family="sans-serif"
       id="text69">CS</text>
    <circle
       id="pin-RST"
       cx="100.32"
       cy="319.17001"
       r="3.2"
       fill="#ee0000"
       fill-opacity="0.85"
       stroke="#770000"
       stroke-width="0.5" />
    <text
       x="100.32"
       y="314.17001"
       font-size="5px"
       fill="#aa0000"
       text-anchor="middle"
       font-family="sans-serif"
       id="text70">RST</text>
    <circle
       id="pin-D/C"
       cx="110.32"
       cy="319.17001"
       r="3.2"
       fill="#ee0000"
       fill-opacity="0.85"
       stroke="#770000"
       stroke-width="0.5" />
    <text
       x="110.32"
       y="314.17001"
       font-size="5px"
       fill="#aa0000"
       text-anchor="middle"
       font-family="sans-serif"
       id="text71">D/C</text>
    <circle
       id="pin-MOSI"
       cx="120.32"
       cy="319.17001"
       r="3.2"
       fill="#ee0000"
       fill-opacity="0.85"
       stroke="#770000"
       stroke-width="0.5" />
    <text
       x="120.32"
       y="314.17001"
       font-size="5px"
       fill="#aa0000"
       text-anchor="middle"
       font-family="sans-serif"
       id="text72">MOSI</text>
    <circle
       id="pin-SCK"
       cx="130.32001"
       cy="319.17001"
       r="3.2"
       fill="#ee0000"
       fill-opacity="0.85"
       stroke="#770000"
       stroke-width="0.5" />
    <text
       x="130.32001"
       y="314.17001"
       font-size="5px"
       fill="#aa0000"
       text-anchor="middle"
       font-family="sans-serif"
       id="text73">SCK</text>
    <circle
       id="pin-LED"
       cx="140.32001"
       cy="319.17001"
       r="3.2"
       fill="#ee0000"
       fill-opacity="0.85"
       stroke="#770000"
       stroke-width="0.5" />
    <text
       x="140.32001"
       y="314.17001"
       font-size="5px"
       fill="#aa0000"
       text-anchor="middle"
       font-family="sans-serif"
       id="text74">LED</text>
    <circle
       id="pin-MISO"
       cx="150.32001"
       cy="319.17001"
       r="3.2"
       fill="#ee0000"
       fill-opacity="0.85"
       stroke="#770000"
       stroke-width="0.5" />
    <text
       x="150.32001"
       y="314.17001"
       font-size="5px"
       fill="#aa0000"
       text-anchor="middle"
       font-family="sans-serif"
       id="text75">MISO</text>
  </g>
</svg>
