<?xml version="1.0" encoding="UTF-8" standalone="no"?>
<svg
   width="200"
   height="310"
   viewBox="0 0 200 310"
   version="1.1"
   id="svg76"
   sodipodi:docname="ili9341.edit.OK.svg"
   inkscape:version="1.4.3 (0d15f75, 2025-12-25)"
   xmlns:inkscape="http://www.inkscape.org/namespaces/inkscape"
   xmlns:sodipodi="http://sodipodi.sourceforge.net/DTD/sodipodi-0.dtd"
   xmlns:xlink="http://www.w3.org/1999/xlink"
   xmlns="http://www.w3.org/2000/svg"
   xmlns:svg="http://www.w3.org/2000/svg">
  <defs
     id="defs76" />
  <sodipodi:namedview
     id="namedview76"
     pagecolor="#ffffff"
     bordercolor="#666666"
     borderopacity="1.0"
     inkscape:showpageshadow="2"
     inkscape:pageopacity="0.0"
     inkscape:pagecheckerboard="0"
     inkscape:deskcolor="#d1d1d1"
     inkscape:zoom="8"
     inkscape:cx="97.375"
     inkscape:cy="268"
     inkscape:window-width="1920"
     inkscape:window-height="1057"
     inkscape:window-x="-8"
     inkscape:window-y="-8"
     inkscape:window-maximized="1"
     inkscape:current-layer="svg76"
     showgrid="true">
    <inkscape:grid
       id="grid1"
       units="px"
       originx="10"
       originy="0"
       spacingx="10"
       spacingy="10"
       empcolor="#3f3fff"
       empopacity="0.25098039"
       color="#3f3fff"
       opacity="0.1254902"
       empspacing="1"
       enabled="true"
       visible="true" />
  </sodipodi:namedview>
  <!-- Retouche brochage ili9341 : déplace chaque pastille rouge sur un CROISEMENT (lignes foncées = 50 px). Garde les id pin-<nom>. Marge 20 px. -->
  <g
     id="g10">
    <path
       id="path9"
       style="fill:#a82a29;stroke-width:2.1;stroke-linecap:round"
       d="M 4,0.82414325 V 306.33586 L 198.48759,306.33619 V 0.82447649 Z M 24.153612,8.1858065 C 24.461244,8.1859038 24.768541,8.2061304 25.073532,8.2463565 25.378559,8.286461 25.680634,8.3464826 25.977822,8.4260365 26.275665,8.5057623 26.567959,8.6049351 26.852822,8.7229165 27.42197,8.9586315 27.957781,9.2679037 28.446572,9.6428365 29.428598,10.395945 30.195152,11.394215 30.669232,12.537366 31.023797,13.393101 31.206547,14.310304 31.20658,15.236586 31.206483,15.544218 31.186256,15.851515 31.14603,16.156506 30.98467,17.38394 30.5028,18.54727 29.749312,19.529556 29.561546,19.773736 29.357983,20.005352 29.139932,20.222916 V 20.224866 C 28.922306,20.442244 28.690691,20.64515 28.446572,20.832286 27.464846,21.585462 26.302232,22.06708 25.075482,22.228776 24.769846,22.269084 24.461895,22.289307 24.153612,22.289316 22.601262,22.289365 21.092268,21.777214 19.860641,20.832286 19.616462,20.644523 19.384846,20.440963 19.167282,20.222916 18.94997,20.005918 18.747064,19.774956 18.559861,19.531506 V 19.529556 C 17.996284,18.795124 17.582821,17.956917 17.343061,17.062756 V 17.060806 C 17.18366,16.465833 17.102892,15.852542 17.102821,15.236586 17.103204,13.684902 17.615336,12.176661 18.559861,10.945566 V 10.943616 C 18.934801,10.455088 19.372114,10.017776 19.860641,9.6428365 H 19.862591 C 20.350777,9.2680508 20.885924,8.9587834 21.454392,8.7229165 22.310127,8.3683513 23.22733,8.1858398 24.153612,8.1858065 Z M 179.37822,8.1858065 C 179.68585,8.1859038 179.99315,8.2061304 180.29814,8.2463565 180.60317,8.286461 180.90524,8.3464826 181.20243,8.4260365 181.50027,8.5057623 181.79257,8.6049351 182.07743,8.7229165 182.64658,8.9586315 183.18239,9.2679037 183.67118,9.6428365 183.9153,9.829972 184.14691,10.032879 184.36454,10.250256 H 184.3665 C 184.58388,10.467882 184.78678,10.699497 184.97392,10.943616 185.34885,11.432407 185.65813,11.968218 185.89384,12.537366 186.24841,13.393101 186.43092,14.310304 186.43095,15.236586 186.43085,15.544218 186.41063,15.851515 186.3704,16.156506 186.20904,17.38394 185.72741,18.54727 184.97392,19.529556 V 19.531506 C 184.59838,20.02016 184.1604,20.457478 183.67118,20.832286 182.68945,21.585462 181.52684,22.06708 180.30009,22.228776 179.99445,22.269084 179.6865,22.289307 179.37822,22.289316 178.45259,22.28903 177.53608,22.106527 176.68095,21.752216 176.11112,21.51665 175.57465,21.20737 175.08525,20.832286 174.84107,20.644523 174.60945,20.440963 174.39189,20.222916 174.17457,20.005918 173.97167,19.774956 173.78446,19.531506 V 19.529556 C 173.22089,18.795124 172.80743,17.956917 172.56767,17.062756 V 17.060806 C 172.40827,16.465833 172.3275,15.852542 172.32743,15.236586 172.32781,13.684903 172.83994,12.176662 173.78446,10.945566 V 10.943616 C 174.1594,10.455088 174.59672,10.017775 175.08525,9.6428365 H 175.0872 C 175.57599,9.2679037 176.1118,8.9586315 176.68095,8.7229165 177.53608,8.3686024 178.45259,8.1860958 179.37822,8.1858065 Z M 24.153612,286.5276 C 24.461244,286.52769 24.768541,286.54792 25.073532,286.58814 27.247281,286.87393 29.164465,288.15446 30.261032,290.05299 30.880374,291.12538 31.206408,292.34195 31.206342,293.58033 31.206066,294.81805 30.880043,296.03391 30.261032,297.10572 29.165313,299.00449 27.248885,300.28572 25.075482,300.57252 24.769846,300.61283 24.461895,300.63305 24.153612,300.63306 21.96144,300.63254 19.894167,299.61262 18.559861,297.8733 17.996284,297.13887 17.582821,296.30066 17.343061,295.4065 V 295.40455 C 17.18366,294.80958 17.102892,294.19629 17.102821,293.58033 17.102892,292.96437 17.18366,292.35108 17.343061,291.75611 V 291.75416 C 17.582821,290.86 17.996284,290.02179 18.559861,289.28736 19.894167,287.54804 21.96144,286.52812 24.153612,286.5276 Z M 179.37822,286.5276 C 179.68585,286.52769 179.99315,286.54792 180.29814,286.58814 181.83745,286.7909 183.26683,287.49598 184.36454,288.594 H 184.3665 C 184.58388,288.81163 184.78678,289.04324 184.97392,289.28736 185.16099,289.53115 185.33193,289.7869 185.48564,290.05299 186.10498,291.12538 186.43102,292.34195 186.43095,293.58033 186.43067,294.81805 186.10465,296.03391 185.48564,297.10572 185.332,297.37247 185.16106,297.62888 184.97392,297.8733 184.78615,298.11748 184.58259,298.3491 184.36454,298.56666 183.26735,299.6643 181.83871,300.36935 180.30009,300.57252 179.99445,300.61283 179.6865,300.63305 179.37822,300.63306 178.45259,300.63277 177.53608,300.45026 176.68095,300.09595 175.53709,299.62217 174.53811,298.85559 173.78446,297.8733 173.22089,297.13887 172.80743,296.30066 172.56767,295.4065 V 295.40455 C 172.40827,294.80958 172.3275,294.19629 172.32743,293.58033 172.3275,292.96437 172.40827,292.35108 172.56767,291.75611 V 291.75416 C 172.80743,290.86 173.22089,290.02179 173.78446,289.28736 174.53757,288.30534 175.53585,287.53879 176.679,287.06471 177.53474,286.71014 178.45194,286.52763 179.37822,286.5276 Z M 119.9915,297.64478 C 121.28906,297.645 122.34089,298.69683 122.34111,299.99439 122.34089,301.29195 121.28906,302.34378 119.9915,302.344 118.69394,302.34378 117.64211,301.29195 117.64189,299.99439 117.64211,298.69683 118.69394,297.645 119.9915,297.64478 Z M 60.024702,297.66627 C 61.32379,297.66541 62.377125,298.71874 62.376262,300.01783 62.376047,301.31616 61.323028,302.3683 60.024702,302.36744 58.727137,302.36722 57.675307,301.31539 57.675092,300.01783 57.67423,298.7195 58.726376,297.66649 60.024702,297.66627 Z M 80.024702,297.66627 C 81.32379,297.66541 82.377125,298.71874 82.376262,300.01783 82.376047,301.31616 81.323028,302.3683 80.024702,302.36744 78.727137,302.36722 77.675307,301.31539 77.675092,300.01783 77.67423,298.7195 78.726376,297.66649 80.024702,297.66627 Z M 110.0247,297.66627 C 111.32379,297.66541 112.37712,298.71874 112.37626,300.01783 112.37604,301.31616 111.32303,302.3683 110.0247,302.36744 108.72714,302.36722 107.67531,301.31539 107.67509,300.01783 107.67423,298.7195 108.72637,297.66649 110.0247,297.66627 Z M 140.0247,297.66627 C 141.32379,297.66541 142.37712,298.71874 142.37626,300.01783 142.37604,301.31616 141.32303,302.3683 140.0247,302.36744 138.72714,302.36722 137.67531,301.31539 137.67509,300.01783 137.67423,298.7195 138.72637,297.66649 140.0247,297.66627 Z M 69.958292,297.6858 C 71.256618,297.68602 72.308764,298.73903 72.307902,300.03736 72.307687,301.33492 71.255857,302.38675 69.958292,302.38697 68.660727,302.38675 67.608897,301.33492 67.608682,300.03736 67.60782,298.73903 68.659966,297.68602 69.958292,297.6858 Z M 89.958292,297.6858 C 91.256618,297.68602 92.308764,298.73903 92.307902,300.03736 92.307687,301.33492 91.255857,302.38675 89.958292,302.38697 88.660727,302.38675 87.608897,301.33492 87.608682,300.03736 87.60782,298.73903 88.659966,297.68602 89.958292,297.6858 Z M 129.95829,297.6858 C 131.25662,297.68602 132.30876,298.73903 132.3079,300.03736 132.30768,301.33492 131.25585,302.38675 129.95829,302.38697 128.66073,302.38675 127.6089,301.33492 127.60868,300.03736 127.60782,298.73903 128.65996,297.68602 129.95829,297.6858 Z M 99.827432,297.74635 C 101.12576,297.74548 102.17878,298.79762 102.179,300.09595 102.17879,301.39428 101.12576,302.44643 99.827432,302.44556 98.529867,302.44534 97.478037,301.39351 97.477822,300.09595 97.478043,298.79839 98.529871,297.74657 99.827432,297.74635 Z"
       sodipodi:nodetypes="cccccccsccccccccccscccccccccccccccssccccccccccscccccccccccccccccsccscccccccccccccccccccscccccccccccccccccccccccccccccccccccccccccccccccccccccccc" />
    <path
       d="M 10.315059,23.051735 V 277.38193 H 191.81076 V 23.051735 Z M 35.748079,270.68903 H 172.36198 V 277.38193 H 35.748079 Z"
       fill="#f6e1f1"
       id="path59"
       style="opacity:0.85;stroke-width:3.937" />
    <rect
       x="53.74017"
       y="263.40558"
       width="95.275406"
       height="24.566879"
       rx="3.937"
       ry="3.937"
       fill="#bdab16"
       opacity="0.34"
       id="rect59"
       style="stroke-width:3.937" />
    <rect
       x="16.023708"
       y="27.539915"
       width="170.47209"
       height="243.7003"
       id="rect60"
       style="opacity:0.85;stroke-width:3.937" />
    <rect
       x="52.165371"
       y="294.50787"
       width="95.275406"
       height="11.141709"
       fill="none"
       stroke="#ffffff"
       stroke-width="1.06299"
       id="rect61"
       style="opacity:0.85" />
    <text
       x="59.955765"
       y="294.97769"
       font-size="5px"
       fill="#aa0000"
       text-anchor="middle"
       font-family="sans-serif"
       id="text67">VCC</text>
    <text
       x="69.955765"
       y="294.97769"
       font-size="5px"
       fill="#aa0000"
       text-anchor="middle"
       font-family="sans-serif"
       id="text68">GND</text>
    <text
       x="79.955765"
       y="294.97769"
       font-size="5px"
       fill="#aa0000"
       text-anchor="middle"
       font-family="sans-serif"
       id="text69">CS</text>
    <text
       x="89.965767"
       y="294.97769"
       font-size="5px"
       fill="#aa0000"
       text-anchor="middle"
       font-family="sans-serif"
       id="text70">RST</text>
    <text
       x="99.965767"
       y="294.97769"
       font-size="5px"
       fill="#aa0000"
       text-anchor="middle"
       font-family="sans-serif"
       id="text71">D/C</text>
    <text
       x="109.96577"
       y="294.97769"
       font-size="5px"
       fill="#aa0000"
       text-anchor="middle"
       font-family="sans-serif"
       id="text72">MOSI</text>
    <text
       x="119.96577"
       y="294.97769"
       font-size="5px"
       fill="#aa0000"
       text-anchor="middle"
       font-family="sans-serif"
       id="text73">SCK</text>
    <text
       x="129.96576"
       y="294.97769"
       font-size="5px"
       fill="#aa0000"
       text-anchor="middle"
       font-family="sans-serif"
       id="text74">LED</text>
    <text
       x="139.96577"
       y="294.97769"
       font-size="5px"
       fill="#aa0000"
       text-anchor="middle"
       font-family="sans-serif"
       id="text75">MISO</text>
    <g
       fill="#cccccc"
       id="g67"
       transform="matrix(3.937,0,0,3.937,9.645769,0.807685)"
       style="opacity:0.85">
      <path
         d="M 11.8,75 V 76.99 H 13.78 V 75 Z M 12.788,75.397 A 0.6,0.6 0 0 1 12.7921,75.397 0.6,0.6 0 0 1 13.3921,75.997 0.6,0.6 0 0 1 12.7921,76.597 0.6,0.6 0 0 1 12.1921,75.997 0.6,0.6 0 0 1 12.7881,75.397 Z"
         id="path61" />
      <path
         id="round-pin"
         d="M 15.3,75 A 1,1 0 0 0 14.313,76 1,1 0 0 0 15.313,77 1,1 0 0 0 16.313,76 1,1 0 0 0 15.313,75 1,1 0 0 0 15.2996,75 Z M 15.3093,75.4 A 0.6,0.6 0 0 1 15.3134,75.4 0.6,0.6 0 0 1 15.9134,76 0.6,0.6 0 0 1 15.3134,76.6 0.6,0.6 0 0 1 14.7134,76 0.6,0.6 0 0 1 15.3094,75.4 Z" />
      <use
         xlink:href="#round-pin"
         x="2.54"
         id="use61" />
      <use
         xlink:href="#round-pin"
         x="5.0799999"
         id="use62" />
      <use
         xlink:href="#round-pin"
         x="7.6199999"
         id="use63" />
      <use
         xlink:href="#round-pin"
         x="10.16"
         id="use64" />
      <use
         xlink:href="#round-pin"
         x="12.7"
         id="use65" />
      <use
         xlink:href="#round-pin"
         x="15.24"
         id="use66" />
      <use
         xlink:href="#round-pin"
         x="17.780001"
         id="use67" />
    </g>
    <g
       id="g1"
       transform="translate(10)">
      <circle
         id="pin-VCC"
         cx="49.955765"
         cy="299.97769"
         r="3.2"
         fill="#ee0000"
         fill-opacity="0.85"
         stroke="#770000"
         stroke-width="0.5" />
      <circle
         id="pin-GND"
         cx="59.955765"
         cy="299.97769"
         r="3.2"
         fill="#ee0000"
         fill-opacity="0.85"
         stroke="#770000"
         stroke-width="0.5" />
      <circle
         id="pin-CS"
         cx="69.955765"
         cy="299.97769"
         r="3.2"
         fill="#ee0000"
         fill-opacity="0.85"
         stroke="#770000"
         stroke-width="0.5" />
      <circle
         id="pin-RST"
         cx="79.965767"
         cy="299.97769"
         r="3.2"
         fill="#ee0000"
         fill-opacity="0.85"
         stroke="#770000"
         stroke-width="0.5" />
      <circle
         id="pin-D/C"
         cx="89.965767"
         cy="299.97769"
         r="3.2"
         fill="#ee0000"
         fill-opacity="0.85"
         stroke="#770000"
         stroke-width="0.5" />
      <circle
         id="pin-MOSI"
         cx="99.965767"
         cy="299.97769"
         r="3.2"
         fill="#ee0000"
         fill-opacity="0.85"
         stroke="#770000"
         stroke-width="0.5" />
      <circle
         id="pin-SCK"
         cx="109.96577"
         cy="299.97769"
         r="3.2"
         fill="#ee0000"
         fill-opacity="0.85"
         stroke="#770000"
         stroke-width="0.5" />
      <circle
         id="pin-LED"
         cx="119.96577"
         cy="299.97769"
         r="3.2"
         fill="#ee0000"
         fill-opacity="0.85"
         stroke="#770000"
         stroke-width="0.5" />
      <circle
         id="pin-MISO"
         cx="129.96577"
         cy="299.97769"
         r="3.2"
         fill="#ee0000"
         fill-opacity="0.85"
         stroke="#770000"
         stroke-width="0.5" />
    </g>
  </g>
</svg>
