<svg xmlns="http://www.w3.org/2000/svg" width="148" height="166" viewBox="0 0 148 166">
  <!-- Retouche brochage joystick : déplace chaque pastille rouge sur un CROISEMENT (lignes foncées = 50 px). Garde les id pin-<nom>. Marge 20 px. -->
  <rect width="148" height="166" fill="#fff"/>
  <g id="grid"><line x1="0" y1="0" x2="0" y2="166" stroke="#7fb0ff" stroke-width="0.7"/><line x1="10" y1="0" x2="10" y2="166" stroke="#cfe3ff" stroke-width="0.4"/><line x1="20" y1="0" x2="20" y2="166" stroke="#cfe3ff" stroke-width="0.4"/><line x1="30" y1="0" x2="30" y2="166" stroke="#cfe3ff" stroke-width="0.4"/><line x1="40" y1="0" x2="40" y2="166" stroke="#cfe3ff" stroke-width="0.4"/><line x1="50" y1="0" x2="50" y2="166" stroke="#7fb0ff" stroke-width="0.7"/><line x1="60" y1="0" x2="60" y2="166" stroke="#cfe3ff" stroke-width="0.4"/><line x1="70" y1="0" x2="70" y2="166" stroke="#cfe3ff" stroke-width="0.4"/><line x1="80" y1="0" x2="80" y2="166" stroke="#cfe3ff" stroke-width="0.4"/><line x1="90" y1="0" x2="90" y2="166" stroke="#cfe3ff" stroke-width="0.4"/><line x1="100" y1="0" x2="100" y2="166" stroke="#7fb0ff" stroke-width="0.7"/><line x1="110" y1="0" x2="110" y2="166" stroke="#cfe3ff" stroke-width="0.4"/><line x1="120" y1="0" x2="120" y2="166" stroke="#cfe3ff" stroke-width="0.4"/><line x1="130" y1="0" x2="130" y2="166" stroke="#cfe3ff" stroke-width="0.4"/><line x1="140" y1="0" x2="140" y2="166" stroke="#cfe3ff" stroke-width="0.4"/><line x1="0" y1="0" x2="148" y2="0" stroke="#7fb0ff" stroke-width="0.7"/><line x1="0" y1="10" x2="148" y2="10" stroke="#cfe3ff" stroke-width="0.4"/><line x1="0" y1="20" x2="148" y2="20" stroke="#cfe3ff" stroke-width="0.4"/><line x1="0" y1="30" x2="148" y2="30" stroke="#cfe3ff" stroke-width="0.4"/><line x1="0" y1="40" x2="148" y2="40" stroke="#cfe3ff" stroke-width="0.4"/><line x1="0" y1="50" x2="148" y2="50" stroke="#7fb0ff" stroke-width="0.7"/><line x1="0" y1="60" x2="148" y2="60" stroke="#cfe3ff" stroke-width="0.4"/><line x1="0" y1="70" x2="148" y2="70" stroke="#cfe3ff" stroke-width="0.4"/><line x1="0" y1="80" x2="148" y2="80" stroke="#cfe3ff" stroke-width="0.4"/><line x1="0" y1="90" x2="148" y2="90" stroke="#cfe3ff" stroke-width="0.4"/><line x1="0" y1="100" x2="148" y2="100" stroke="#7fb0ff" stroke-width="0.7"/><line x1="0" y1="110" x2="148" y2="110" stroke="#cfe3ff" stroke-width="0.4"/><line x1="0" y1="120" x2="148" y2="120" stroke="#cfe3ff" stroke-width="0.4"/><line x1="0" y1="130" x2="148" y2="130" stroke="#cfe3ff" stroke-width="0.4"/><line x1="0" y1="140" x2="148" y2="140" stroke="#cfe3ff" stroke-width="0.4"/><line x1="0" y1="150" x2="148" y2="150" stroke="#7fb0ff" stroke-width="0.7"/><line x1="0" y1="160" x2="148" y2="160" stroke="#cfe3ff" stroke-width="0.4"/></g>
  <g id="board" opacity="0.85" transform="translate(20,20) scale(3.9370) translate(0.00,0.00)">
        <defs>
          <filter id="noise" primitiveUnits="objectBoundingBox">
            <feTurbulence baseFrequency="2 2" type="fractalNoise"></feTurbulence>
            <feColorMatrix values=".1 0 0 0 .1
                      .1 0 0 0 .1
                      .1 0 0 0 .1
                      0 0 0 0 1"></feColorMatrix>
            <feComposite in2="SourceGraphic" operator="lighter"></feComposite>
            <feComposite result="body" in2="SourceAlpha" operator="in"></feComposite>
          </filter>
          <radialGradient id="g-knob" cx="13.6" cy="13.6" r="10.6" gradientUnits="userSpaceOnUse">
            <stop offset="0"></stop>
            <stop offset="0.9"></stop>
            <stop stop-color="#777" offset="1"></stop>
          </radialGradient>
          <radialGradient id="g-knob-base" cx="13.6" cy="13.6" r="13.6" gradientUnits="userSpaceOnUse">
            <stop offset="0"></stop>
            <stop stop-color="#444" offset=".8"></stop>
            <stop stop-color="#555" offset=".9"></stop>
            <stop offset="1"></stop>
          </radialGradient>
          <path id="pin" fill="silver" stroke="#a2a2a2" stroke-width=".024" d="M8.726 29.801a.828.828 0 00-.828.829.828.828 0 00.828.828.828.828 0 00.829-.828.828.828 0 00-.829-.829zm-.004.34a.49.49 0 01.004 0 .49.49 0 01.49.489.49.49 0 01-.49.49.49.49 0 01-.489-.49.49.49 0 01.485-.49z"></path>
        </defs>
        <path d="M1.3 0v31.7h25.5V0zm2.33.683a1.87 1.87 0 01.009 0 1.87 1.87 0 011.87 1.87 1.87 1.87 0 01-1.87 1.87 1.87 1.87 0 01-1.87-1.87 1.87 1.87 0 011.87-1.87zm20.5 0a1.87 1.87 0 01.009 0 1.87 1.87 0 011.87 1.87 1.87 1.87 0 01-1.87 1.87 1.87 1.87 0 01-1.87-1.87 1.87 1.87 0 011.87-1.87zm-20.5 26.8a1.87 1.87 0 01.009 0 1.87 1.87 0 011.87 1.87 1.87 1.87 0 01-1.87 1.87 1.87 1.87 0 01-1.87-1.87 1.87 1.87 0 011.87-1.87zm20.4 0a1.87 1.87 0 01.009 0 1.87 1.87 0 011.87 1.87 1.87 1.87 0 01-1.87 1.87 1.87 1.87 0 01-1.87-1.87 1.87 1.87 0 011.87-1.87zm-12.7 2.66a.489.489 0 01.004 0 .489.489 0 01.489.489.489.489 0 01-.489.489.489.489 0 01-.489-.489.489.489 0 01.485-.489zm2.57 0a.489.489 0 01.004 0 .489.489 0 01.489.489.489.489 0 01-.489.489.489.489 0 01-.489-.489.489.489 0 01.485-.489zm2.49.013a.489.489 0 01.004 0 .489.489 0 01.489.489.489.489 0 01-.489.489.489.489 0 01-.489-.489.489.489 0 01.485-.489zm-7.62.007a.489.489 0 01.004 0 .489.489 0 01.489.489.489.489 0 01-.489.489.489.489 0 01-.489-.49.489.489 0 01.485-.488zm10.2.013a.489.489 0 01.004 0 .489.489 0 01.489.489.489.489 0 01-.489.489.489.489 0 01-.489-.49.489.489 0 01.485-.488z" fill="#bd1e34"></path>
        <g fill="#fff" font-family="sans-serif" stroke-width=".03">
          
          
        </g>
        <ellipse cx="13.6" cy="13.7" rx="13.6" ry="13.7" fill="url(#g-knob-base)"></ellipse>
        <path d="M48.2 65.5s.042.179-.093.204c-.094.017-.246-.077-.322-.17-.094-.115-.082-.205-.009-.285.11-.122.299-.075.299-.075s-.345-.303-.705-.054c-.32.22-.228.52.06.783.262.237.053.497-.21.463-.18-.023-.252-.167-.21-.256.038-.076.167-.122.167-.122s-.149-.06-.324.005c-.157.06-.286.19-.276.513v1.51s.162-.2.352-.403c.214-.229.311-.384.53-.366.415.026.714-.159.918-.454.391-.569.085-1.2-.178-1.29" fill="#fff"></path>
        <circle id="knob" cx="13.6" cy="13.6" r="10.6" fill="url(#g-knob)" filter="url(#noise)" tabindex="0" transform="translate(0, 0)"></circle>
        <g fill="none" stroke="#fff" stroke-width=".142">
          <path d="M7.8 31.7l-.383-.351v-1.31l.617-.656h1.19l.721.656.675-.656h1.18l.708.656.662-.656h1.25l.643.656.63-.656h1.21l.695.656.636-.656h1.17l.753.656v1.3l-.416.39"></path>
          <path d="M9.5 31.7l.381-.344.381.331M12.1 31.7l.381-.344.381.331M14.7 31.7l.381-.344.381.331M17.2 31.7l.381-.344.381.331" stroke-linecap="square" stroke-linejoin="bevel"></path>
        </g>
        <g class="controls" stroke-width="0.6" stroke-linejoin="bevel" fill="#aaa">
          <rect class="region" y="8.5" x="1" height="10" width="7"></rect>
          <path d="m 7.022,11.459 -3.202,2.497 3.202,2.497"></path>

          <rect class="region" y="1.38" x="7.9" height="7" width="10"></rect>
          <path d="m 16.615,7.095 -2.497,-3.202 -2.497,3.202"></path>

          <rect class="region" y="8.5" x="18" height="10" width="7"></rect>
          <path d="m 19.980,16.101 3.202,-2.497 -3.202,-2.497"></path>

          <rect class="region" y="17" x="7.9" height="7" width="10"></rect>
          <path d="m 11.620,20.112 2.497,3.202 2.497,-3.202"></path>

          <circle cx="13.6" cy="13.6" r="3" stroke="#aaa" class=""></circle>
        </g>
        <use xlink:href="#pin" x="0"></use>
        <use xlink:href="#pin" x="2.54"></use>
        <use xlink:href="#pin" x="5.08"></use>
        <use xlink:href="#pin" x="7.62"></use>
        <use xlink:href="#pin" x="10.16"></use>
      </g>
  <g id="pins"><g><circle id="pin-VCC" cx="54.38" cy="140.63" r="3.2" fill="#e00" fill-opacity="0.85" stroke="#700" stroke-width="0.5"/><text x="54.38" y="135.63" font-size="5" fill="#a00" text-anchor="middle" font-family="sans-serif">VCC</text></g><g><circle id="pin-VERT" cx="64.38" cy="140.63" r="3.2" fill="#e00" fill-opacity="0.85" stroke="#700" stroke-width="0.5"/><text x="64.38" y="135.63" font-size="5" fill="#a00" text-anchor="middle" font-family="sans-serif">VERT</text></g><g><circle id="pin-HORZ" cx="74.38" cy="140.63" r="3.2" fill="#e00" fill-opacity="0.85" stroke="#700" stroke-width="0.5"/><text x="74.38" y="135.63" font-size="5" fill="#a00" text-anchor="middle" font-family="sans-serif">HORZ</text></g><g><circle id="pin-SEL" cx="84.38" cy="140.63" r="3.2" fill="#e00" fill-opacity="0.85" stroke="#700" stroke-width="0.5"/><text x="84.38" y="135.63" font-size="5" fill="#a00" text-anchor="middle" font-family="sans-serif">SEL</text></g><g><circle id="pin-GND" cx="94.38" cy="140.63" r="3.2" fill="#e00" fill-opacity="0.85" stroke="#700" stroke-width="0.5"/><text x="94.38" y="135.63" font-size="5" fill="#a00" text-anchor="middle" font-family="sans-serif">GND</text></g></g>
</svg>