<svg xmlns="http://www.w3.org/2000/svg" width="306" height="384" viewBox="0 0 306 384">
  <!-- Retouche brochage keypad-4col : déplace chaque pastille rouge sur un CROISEMENT (lignes foncées = 50 px). Garde les id pin-<nom>. Marge 20 px. -->
  <rect width="306" height="384" fill="#fff"/>
  <g id="grid"><line x1="0" y1="0" x2="0" y2="384" stroke="#7fb0ff" stroke-width="0.7"/><line x1="10" y1="0" x2="10" y2="384" stroke="#cfe3ff" stroke-width="0.4"/><line x1="20" y1="0" x2="20" y2="384" stroke="#cfe3ff" stroke-width="0.4"/><line x1="30" y1="0" x2="30" y2="384" stroke="#cfe3ff" stroke-width="0.4"/><line x1="40" y1="0" x2="40" y2="384" stroke="#cfe3ff" stroke-width="0.4"/><line x1="50" y1="0" x2="50" y2="384" stroke="#7fb0ff" stroke-width="0.7"/><line x1="60" y1="0" x2="60" y2="384" stroke="#cfe3ff" stroke-width="0.4"/><line x1="70" y1="0" x2="70" y2="384" stroke="#cfe3ff" stroke-width="0.4"/><line x1="80" y1="0" x2="80" y2="384" stroke="#cfe3ff" stroke-width="0.4"/><line x1="90" y1="0" x2="90" y2="384" stroke="#cfe3ff" stroke-width="0.4"/><line x1="100" y1="0" x2="100" y2="384" stroke="#7fb0ff" stroke-width="0.7"/><line x1="110" y1="0" x2="110" y2="384" stroke="#cfe3ff" stroke-width="0.4"/><line x1="120" y1="0" x2="120" y2="384" stroke="#cfe3ff" stroke-width="0.4"/><line x1="130" y1="0" x2="130" y2="384" stroke="#cfe3ff" stroke-width="0.4"/><line x1="140" y1="0" x2="140" y2="384" stroke="#cfe3ff" stroke-width="0.4"/><line x1="150" y1="0" x2="150" y2="384" stroke="#7fb0ff" stroke-width="0.7"/><line x1="160" y1="0" x2="160" y2="384" stroke="#cfe3ff" stroke-width="0.4"/><line x1="170" y1="0" x2="170" y2="384" stroke="#cfe3ff" stroke-width="0.4"/><line x1="180" y1="0" x2="180" y2="384" stroke="#cfe3ff" stroke-width="0.4"/><line x1="190" y1="0" x2="190" y2="384" stroke="#cfe3ff" stroke-width="0.4"/><line x1="200" y1="0" x2="200" y2="384" stroke="#7fb0ff" stroke-width="0.7"/><line x1="210" y1="0" x2="210" y2="384" stroke="#cfe3ff" stroke-width="0.4"/><line x1="220" y1="0" x2="220" y2="384" stroke="#cfe3ff" stroke-width="0.4"/><line x1="230" y1="0" x2="230" y2="384" stroke="#cfe3ff" stroke-width="0.4"/><line x1="240" y1="0" x2="240" y2="384" stroke="#cfe3ff" stroke-width="0.4"/><line x1="250" y1="0" x2="250" y2="384" stroke="#7fb0ff" stroke-width="0.7"/><line x1="260" y1="0" x2="260" y2="384" stroke="#cfe3ff" stroke-width="0.4"/><line x1="270" y1="0" x2="270" y2="384" stroke="#cfe3ff" stroke-width="0.4"/><line x1="280" y1="0" x2="280" y2="384" stroke="#cfe3ff" stroke-width="0.4"/><line x1="290" y1="0" x2="290" y2="384" stroke="#cfe3ff" stroke-width="0.4"/><line x1="300" y1="0" x2="300" y2="384" stroke="#7fb0ff" stroke-width="0.7"/><line x1="0" y1="0" x2="306" y2="0" stroke="#7fb0ff" stroke-width="0.7"/><line x1="0" y1="10" x2="306" y2="10" stroke="#cfe3ff" stroke-width="0.4"/><line x1="0" y1="20" x2="306" y2="20" stroke="#cfe3ff" stroke-width="0.4"/><line x1="0" y1="30" x2="306" y2="30" stroke="#cfe3ff" stroke-width="0.4"/><line x1="0" y1="40" x2="306" y2="40" stroke="#cfe3ff" stroke-width="0.4"/><line x1="0" y1="50" x2="306" y2="50" stroke="#7fb0ff" stroke-width="0.7"/><line x1="0" y1="60" x2="306" y2="60" stroke="#cfe3ff" stroke-width="0.4"/><line x1="0" y1="70" x2="306" y2="70" stroke="#cfe3ff" stroke-width="0.4"/><line x1="0" y1="80" x2="306" y2="80" stroke="#cfe3ff" stroke-width="0.4"/><line x1="0" y1="90" x2="306" y2="90" stroke="#cfe3ff" stroke-width="0.4"/><line x1="0" y1="100" x2="306" y2="100" stroke="#7fb0ff" stroke-width="0.7"/><line x1="0" y1="110" x2="306" y2="110" stroke="#cfe3ff" stroke-width="0.4"/><line x1="0" y1="120" x2="306" y2="120" stroke="#cfe3ff" stroke-width="0.4"/><line x1="0" y1="130" x2="306" y2="130" stroke="#cfe3ff" stroke-width="0.4"/><line x1="0" y1="140" x2="306" y2="140" stroke="#cfe3ff" stroke-width="0.4"/><line x1="0" y1="150" x2="306" y2="150" stroke="#7fb0ff" stroke-width="0.7"/><line x1="0" y1="160" x2="306" y2="160" stroke="#cfe3ff" stroke-width="0.4"/><line x1="0" y1="170" x2="306" y2="170" stroke="#cfe3ff" stroke-width="0.4"/><line x1="0" y1="180" x2="306" y2="180" stroke="#cfe3ff" stroke-width="0.4"/><line x1="0" y1="190" x2="306" y2="190" stroke="#cfe3ff" stroke-width="0.4"/><line x1="0" y1="200" x2="306" y2="200" stroke="#7fb0ff" stroke-width="0.7"/><line x1="0" y1="210" x2="306" y2="210" stroke="#cfe3ff" stroke-width="0.4"/><line x1="0" y1="220" x2="306" y2="220" stroke="#cfe3ff" stroke-width="0.4"/><line x1="0" y1="230" x2="306" y2="230" stroke="#cfe3ff" stroke-width="0.4"/><line x1="0" y1="240" x2="306" y2="240" stroke="#cfe3ff" stroke-width="0.4"/><line x1="0" y1="250" x2="306" y2="250" stroke="#7fb0ff" stroke-width="0.7"/><line x1="0" y1="260" x2="306" y2="260" stroke="#cfe3ff" stroke-width="0.4"/><line x1="0" y1="270" x2="306" y2="270" stroke="#cfe3ff" stroke-width="0.4"/><line x1="0" y1="280" x2="306" y2="280" stroke="#cfe3ff" stroke-width="0.4"/><line x1="0" y1="290" x2="306" y2="290" stroke="#cfe3ff" stroke-width="0.4"/><line x1="0" y1="300" x2="306" y2="300" stroke="#7fb0ff" stroke-width="0.7"/><line x1="0" y1="310" x2="306" y2="310" stroke="#cfe3ff" stroke-width="0.4"/><line x1="0" y1="320" x2="306" y2="320" stroke="#cfe3ff" stroke-width="0.4"/><line x1="0" y1="330" x2="306" y2="330" stroke="#cfe3ff" stroke-width="0.4"/><line x1="0" y1="340" x2="306" y2="340" stroke="#cfe3ff" stroke-width="0.4"/><line x1="0" y1="350" x2="306" y2="350" stroke="#7fb0ff" stroke-width="0.7"/><line x1="0" y1="360" x2="306" y2="360" stroke="#cfe3ff" stroke-width="0.4"/><line x1="0" y1="370" x2="306" y2="370" stroke="#cfe3ff" stroke-width="0.4"/><line x1="0" y1="380" x2="306" y2="380" stroke="#cfe3ff" stroke-width="0.4"/></g>
  <g id="board" opacity="0.85" transform="translate(20,20) scale(3.7795) translate(0 0)">
        <defs>
          <pattern id="wires" width="2.54" height="8" patternUnits="userSpaceOnUse">
            <rect width="2.54" height="8" fill="#eee"></rect>
            <rect x="0.77" width="1" height="6" fill="#d9d5bc"></rect>
            <circle cx="1.27" cy="6" r="0.75" fill="#d9d5bc"></circle>
            <rect x="0.52" y="6" width="1.5" height="2" fill="#d9d5bc"></rect>
          </pattern>
          <pattern id="wires-marks" width="2.54" height="8" patternUnits="userSpaceOnUse">
            <rect x="0.52" y="6" width="1.5" height="2" fill="#746d41"></rect>
          </pattern>
          <!--?lit$450055887$-->
  <pattern id="pins-female" width="2.54" height="2.54" patternUnits="userSpaceOnUse">
    <rect x="0" y="0" width="2.54" height="2.54" fill="#333"></rect>
    <rect x="1.079" y="0.896" width="0.762" height="0.762" style="fill: #191919"></rect>
    <path transform="translate(1.079, 1.658) rotate(180 0 0)" d="m 0 0 v 0.762 l 0.433,0.433 c 0.046,-0.046 0.074,-0.109 0.074,-0.179 v -1.27 c 0,-0.070 -0.028,-0.133 -0.074,-0.179 z" style="opacity: 0.25"></path>
    <path transform="translate(1.841, 1.658) rotate(90 0 0)" d="m 0 0 v 0.762 l 0.433,0.433 c 0.046,-0.046 0.074,-0.109 0.074,-0.179 v -1.27 c 0,-0.070 -0.028,-0.133 -0.074,-0.179 z" style="opacity: 0.3; fill: #fff"></path>
    <path transform="translate(1.841, 0.896)" d="m 0 0 v 0.762 l 0.433,0.433 c 0.046,-0.046 0.074,-0.109 0.074,-0.179 v -1.27 c 0,-0.070 -0.028,-0.133 -0.074,-0.179 z" style="opacity: 0.15; fill: #fff"></path>
    <path transform="translate(1.079, 0.896) rotate(270 0 0)" d="m 0 0 v 0.762 l 0.433,0.433 c 0.046,-0.046 0.074,-0.109 0.074,-0.179 v -1.27 c 0,-0.070 -0.028,-0.133 -0.074,-0.179 z" style="opacity: 0.35"></path>
  </pattern>

          <filter id="shadow">
            <feDropShadow dx="0" dy="0" stdDeviation="0.5" flood-color="#ffff99"></feDropShadow>
          </filter>
        </defs>

        <!-- Keypad outline -->
        <rect x="0" y="0" height="76" rx="5" ry="5" fill="#454449" width="70.336"></rect>
        <rect x="2.78" y="3.25" height="68.6" rx="3.5" ry="3.5" fill="none" stroke="#b1b5b9" stroke-width="1" width="65"></rect>

        <!-- Connector -->
        <!--?lit$450055887$-->
            <g transform="translate(25.008, 76)">
              <rect height="8" fill="url(#wires)" width="20.32"></rect>
              <rect width="10.16" height="8" fill="url(#wires-marks)"></rect>
              <rect y="8" height="7" fill="#333" width="20.32"></rect>
              <rect transform="translate(0, 12)" height="2.54" fill="url(#pins-female)" width="20.32"></rect>
            </g>
          

        <!-- Blue keys -->
        <g fill="#4e90d7">
          <g><!--?lit$450055887$--><g tabindex="0" transform="translate(7 10.7)" class="blue-key" data-key-name="1">
      <rect width="11.2" height="11" rx="1.4" ry="1.4" stroke="#b1b5b9" stroke-width=".75"></rect>
      <text x="5.6" y="8.1"><!--?lit$450055887$-->1</text>
    </g></g>
          <g><!--?lit$450055887$--><g tabindex="0" transform="translate(22 10.7)" class="blue-key" data-key-name="2">
      <rect width="11.2" height="11" rx="1.4" ry="1.4" stroke="#b1b5b9" stroke-width=".75"></rect>
      <text x="5.6" y="8.1"><!--?lit$450055887$-->2</text>
    </g></g>
          <g><!--?lit$450055887$--><g tabindex="0" transform="translate(37 10.7)" class="blue-key" data-key-name="3">
      <rect width="11.2" height="11" rx="1.4" ry="1.4" stroke="#b1b5b9" stroke-width=".75"></rect>
      <text x="5.6" y="8.1"><!--?lit$450055887$-->3</text>
    </g></g>
          <g><!--?lit$450055887$--><g tabindex="0" transform="translate(7 25)" class="blue-key" data-key-name="4">
      <rect width="11.2" height="11" rx="1.4" ry="1.4" stroke="#b1b5b9" stroke-width=".75"></rect>
      <text x="5.6" y="8.1"><!--?lit$450055887$-->4</text>
    </g></g>
          <g><!--?lit$450055887$--><g tabindex="0" transform="translate(22 25)" class="blue-key" data-key-name="5">
      <rect width="11.2" height="11" rx="1.4" ry="1.4" stroke="#b1b5b9" stroke-width=".75"></rect>
      <text x="5.6" y="8.1"><!--?lit$450055887$-->5</text>
    </g></g>
          <g><!--?lit$450055887$--><g tabindex="0" transform="translate(37 25)" class="blue-key" data-key-name="6">
      <rect width="11.2" height="11" rx="1.4" ry="1.4" stroke="#b1b5b9" stroke-width=".75"></rect>
      <text x="5.6" y="8.1"><!--?lit$450055887$-->6</text>
    </g></g>
          <g><!--?lit$450055887$--><g tabindex="0" transform="translate(7 39.3)" class="blue-key" data-key-name="7">
      <rect width="11.2" height="11" rx="1.4" ry="1.4" stroke="#b1b5b9" stroke-width=".75"></rect>
      <text x="5.6" y="8.1"><!--?lit$450055887$-->7</text>
    </g></g>
          <g><!--?lit$450055887$--><g tabindex="0" transform="translate(22 39.3)" class="blue-key" data-key-name="8">
      <rect width="11.2" height="11" rx="1.4" ry="1.4" stroke="#b1b5b9" stroke-width=".75"></rect>
      <text x="5.6" y="8.1"><!--?lit$450055887$-->8</text>
    </g></g>
          <g><!--?lit$450055887$--><g tabindex="0" transform="translate(37 39.3)" class="blue-key" data-key-name="9">
      <rect width="11.2" height="11" rx="1.4" ry="1.4" stroke="#b1b5b9" stroke-width=".75"></rect>
      <text x="5.6" y="8.1"><!--?lit$450055887$-->9</text>
    </g></g>
          <g><!--?lit$450055887$--><g tabindex="0" transform="translate(22 53.6)" class="blue-key" data-key-name="0">
      <rect width="11.2" height="11" rx="1.4" ry="1.4" stroke="#b1b5b9" stroke-width=".75"></rect>
      <text x="5.6" y="8.1"><!--?lit$450055887$-->0</text>
    </g></g>
        </g>

        <!-- Red keys -->
        <g fill="#e94541">
          <g><!--?lit$450055887$--><g tabindex="0" transform="translate(7 53.6)" class="red-key" data-key-name="*">
      <rect width="11.2" height="11" rx="1.4" ry="1.4" stroke="#b1b5b9" stroke-width=".75"></rect>
      <text x="5.6" y="8.1"><!--?lit$450055887$-->*</text>
    </g></g>
          <g><!--?lit$450055887$--><g tabindex="0" transform="translate(37 53.6)" class="red-key" data-key-name="#">
      <rect width="11.2" height="11" rx="1.4" ry="1.4" stroke="#b1b5b9" stroke-width=".75"></rect>
      <text x="5.6" y="8.1"><!--?lit$450055887$-->#</text>
    </g></g>
          <!--?lit$450055887$-->
              <g><!--?lit$450055887$--><g tabindex="0" transform="translate(52 10.7)" class="red-key" data-key-name="A">
      <rect width="11.2" height="11" rx="1.4" ry="1.4" stroke="#b1b5b9" stroke-width=".75"></rect>
      <text x="5.6" y="8.1"><!--?lit$450055887$-->A</text>
    </g></g>
              <g><!--?lit$450055887$--><g tabindex="0" transform="translate(52 25)" class="red-key" data-key-name="B">
      <rect width="11.2" height="11" rx="1.4" ry="1.4" stroke="#b1b5b9" stroke-width=".75"></rect>
      <text x="5.6" y="8.1"><!--?lit$450055887$-->B</text>
    </g></g>
              <g><!--?lit$450055887$--><g tabindex="0" transform="translate(52 39.3)" class="red-key" data-key-name="C">
      <rect width="11.2" height="11" rx="1.4" ry="1.4" stroke="#b1b5b9" stroke-width=".75"></rect>
      <text x="5.6" y="8.1"><!--?lit$450055887$-->C</text>
    </g></g>
              <g><!--?lit$450055887$--><g tabindex="0" transform="translate(52 53.6)" class="red-key" data-key-name="D">
      <rect width="11.2" height="11" rx="1.4" ry="1.4" stroke="#b1b5b9" stroke-width=".75"></rect>
      <text x="5.6" y="8.1"><!--?lit$450055887$-->D</text>
    </g></g>
          
        </g>
      </g>
  <g id="pins"><circle id="pin-R1" cx="120.00" cy="358.00" r="3.2" fill="#e00" fill-opacity="0.85" stroke="#700" stroke-width="0.5"/><text x="120.00" y="353.00" font-size="5" fill="#a00" text-anchor="middle" font-family="sans-serif">R1</text><circle id="pin-R2" cx="130.00" cy="358.00" r="3.2" fill="#e00" fill-opacity="0.85" stroke="#700" stroke-width="0.5"/><text x="130.00" y="353.00" font-size="5" fill="#a00" text-anchor="middle" font-family="sans-serif">R2</text><circle id="pin-R3" cx="139.50" cy="358.00" r="3.2" fill="#e00" fill-opacity="0.85" stroke="#700" stroke-width="0.5"/><text x="139.50" y="353.00" font-size="5" fill="#a00" text-anchor="middle" font-family="sans-serif">R3</text><circle id="pin-R4" cx="149.00" cy="358.00" r="3.2" fill="#e00" fill-opacity="0.85" stroke="#700" stroke-width="0.5"/><text x="149.00" y="353.00" font-size="5" fill="#a00" text-anchor="middle" font-family="sans-serif">R4</text><circle id="pin-C1" cx="158.50" cy="358.00" r="3.2" fill="#e00" fill-opacity="0.85" stroke="#700" stroke-width="0.5"/><text x="158.50" y="353.00" font-size="5" fill="#a00" text-anchor="middle" font-family="sans-serif">C1</text><circle id="pin-C2" cx="168.00" cy="358.00" r="3.2" fill="#e00" fill-opacity="0.85" stroke="#700" stroke-width="0.5"/><text x="168.00" y="353.00" font-size="5" fill="#a00" text-anchor="middle" font-family="sans-serif">C2</text><circle id="pin-C3" cx="177.75" cy="358.00" r="3.2" fill="#e00" fill-opacity="0.85" stroke="#700" stroke-width="0.5"/><text x="177.75" y="353.00" font-size="5" fill="#a00" text-anchor="middle" font-family="sans-serif">C3</text><circle id="pin-C4" cx="187.50" cy="358.00" r="3.2" fill="#e00" fill-opacity="0.85" stroke="#700" stroke-width="0.5"/><text x="187.50" y="353.00" font-size="5" fill="#a00" text-anchor="middle" font-family="sans-serif">C4</text></g>
</svg>
