<svg xmlns="http://www.w3.org/2000/svg" width="358" height="183" viewBox="0 0 358 183">
  <!-- Retouche brochage lcd-i2c : déplace chaque pastille rouge sur un CROISEMENT (lignes foncées = 50 px). Garde les id pin-<nom>. Marge 20 px. -->
  <rect width="358" height="183" fill="#fff"/>
  <g id="grid"><line x1="0" y1="0" x2="0" y2="183" stroke="#7fb0ff" stroke-width="0.7"/><line x1="10" y1="0" x2="10" y2="183" stroke="#cfe3ff" stroke-width="0.4"/><line x1="20" y1="0" x2="20" y2="183" stroke="#cfe3ff" stroke-width="0.4"/><line x1="30" y1="0" x2="30" y2="183" stroke="#cfe3ff" stroke-width="0.4"/><line x1="40" y1="0" x2="40" y2="183" stroke="#cfe3ff" stroke-width="0.4"/><line x1="50" y1="0" x2="50" y2="183" stroke="#7fb0ff" stroke-width="0.7"/><line x1="60" y1="0" x2="60" y2="183" stroke="#cfe3ff" stroke-width="0.4"/><line x1="70" y1="0" x2="70" y2="183" stroke="#cfe3ff" stroke-width="0.4"/><line x1="80" y1="0" x2="80" y2="183" stroke="#cfe3ff" stroke-width="0.4"/><line x1="90" y1="0" x2="90" y2="183" stroke="#cfe3ff" stroke-width="0.4"/><line x1="100" y1="0" x2="100" y2="183" stroke="#7fb0ff" stroke-width="0.7"/><line x1="110" y1="0" x2="110" y2="183" stroke="#cfe3ff" stroke-width="0.4"/><line x1="120" y1="0" x2="120" y2="183" stroke="#cfe3ff" stroke-width="0.4"/><line x1="130" y1="0" x2="130" y2="183" stroke="#cfe3ff" stroke-width="0.4"/><line x1="140" y1="0" x2="140" y2="183" stroke="#cfe3ff" stroke-width="0.4"/><line x1="150" y1="0" x2="150" y2="183" stroke="#7fb0ff" stroke-width="0.7"/><line x1="160" y1="0" x2="160" y2="183" stroke="#cfe3ff" stroke-width="0.4"/><line x1="170" y1="0" x2="170" y2="183" stroke="#cfe3ff" stroke-width="0.4"/><line x1="180" y1="0" x2="180" y2="183" stroke="#cfe3ff" stroke-width="0.4"/><line x1="190" y1="0" x2="190" y2="183" stroke="#cfe3ff" stroke-width="0.4"/><line x1="200" y1="0" x2="200" y2="183" stroke="#7fb0ff" stroke-width="0.7"/><line x1="210" y1="0" x2="210" y2="183" stroke="#cfe3ff" stroke-width="0.4"/><line x1="220" y1="0" x2="220" y2="183" stroke="#cfe3ff" stroke-width="0.4"/><line x1="230" y1="0" x2="230" y2="183" stroke="#cfe3ff" stroke-width="0.4"/><line x1="240" y1="0" x2="240" y2="183" stroke="#cfe3ff" stroke-width="0.4"/><line x1="250" y1="0" x2="250" y2="183" stroke="#7fb0ff" stroke-width="0.7"/><line x1="260" y1="0" x2="260" y2="183" stroke="#cfe3ff" stroke-width="0.4"/><line x1="270" y1="0" x2="270" y2="183" stroke="#cfe3ff" stroke-width="0.4"/><line x1="280" y1="0" x2="280" y2="183" stroke="#cfe3ff" stroke-width="0.4"/><line x1="290" y1="0" x2="290" y2="183" stroke="#cfe3ff" stroke-width="0.4"/><line x1="300" y1="0" x2="300" y2="183" stroke="#7fb0ff" stroke-width="0.7"/><line x1="310" y1="0" x2="310" y2="183" stroke="#cfe3ff" stroke-width="0.4"/><line x1="320" y1="0" x2="320" y2="183" stroke="#cfe3ff" stroke-width="0.4"/><line x1="330" y1="0" x2="330" y2="183" stroke="#cfe3ff" stroke-width="0.4"/><line x1="340" y1="0" x2="340" y2="183" stroke="#cfe3ff" stroke-width="0.4"/><line x1="350" y1="0" x2="350" y2="183" stroke="#7fb0ff" stroke-width="0.7"/><line x1="0" y1="0" x2="358" y2="0" stroke="#7fb0ff" stroke-width="0.7"/><line x1="0" y1="10" x2="358" y2="10" stroke="#cfe3ff" stroke-width="0.4"/><line x1="0" y1="20" x2="358" y2="20" stroke="#cfe3ff" stroke-width="0.4"/><line x1="0" y1="30" x2="358" y2="30" stroke="#cfe3ff" stroke-width="0.4"/><line x1="0" y1="40" x2="358" y2="40" stroke="#cfe3ff" stroke-width="0.4"/><line x1="0" y1="50" x2="358" y2="50" stroke="#7fb0ff" stroke-width="0.7"/><line x1="0" y1="60" x2="358" y2="60" stroke="#cfe3ff" stroke-width="0.4"/><line x1="0" y1="70" x2="358" y2="70" stroke="#cfe3ff" stroke-width="0.4"/><line x1="0" y1="80" x2="358" y2="80" stroke="#cfe3ff" stroke-width="0.4"/><line x1="0" y1="90" x2="358" y2="90" stroke="#cfe3ff" stroke-width="0.4"/><line x1="0" y1="100" x2="358" y2="100" stroke="#7fb0ff" stroke-width="0.7"/><line x1="0" y1="110" x2="358" y2="110" stroke="#cfe3ff" stroke-width="0.4"/><line x1="0" y1="120" x2="358" y2="120" stroke="#cfe3ff" stroke-width="0.4"/><line x1="0" y1="130" x2="358" y2="130" stroke="#cfe3ff" stroke-width="0.4"/><line x1="0" y1="140" x2="358" y2="140" stroke="#cfe3ff" stroke-width="0.4"/><line x1="0" y1="150" x2="358" y2="150" stroke="#7fb0ff" stroke-width="0.7"/><line x1="0" y1="160" x2="358" y2="160" stroke="#cfe3ff" stroke-width="0.4"/><line x1="0" y1="170" x2="358" y2="170" stroke="#cfe3ff" stroke-width="0.4"/><line x1="0" y1="180" x2="358" y2="180" stroke="#cfe3ff" stroke-width="0.4"/></g>
  <g id="board" opacity="0.85" transform="translate(20,20) scale(3.9785) translate(0 0)">
        <defs>
          <pattern id="characters" width="3.55" height="5.95" patternUnits="userSpaceOnUse" x="12.45" y="12.55">
            <rect width="2.95" height="5.55" fill-opacity="0.05"></rect>
          </pattern>
          <pattern id="pins" width="2.54" height="3.255" patternUnits="userSpaceOnUse" y="1.1">
            <path fill="#92926d" d="M0,0.55c0,0 0.21,-0.52 0.87,-0.52 0.67,0 0.81,0.51 0.81,0.51v1.81h-1.869z"></path>
            <circle r="0.45" cx="0.827" cy="0.9" color="black"></circle>
          </pattern>
        </defs>
        <rect fill="#087f45" width="80" height="36"></rect>
        <rect x="4.95" y="5.7" width="71.2" height="25.2"></rect>
        <rect x="7.55" y="10.3" rx="1.5" ry="1.5" width="66" height="16" fill="#6cb201"></rect>
        <rect x="7.55" y="10.3" rx="1.5" ry="1.5" width="66" height="16" opacity="0"></rect>
        <!--?lit$444955982$-->
      <rect x="7.55" y="-2.5" height="2.5" width="10.16" fill="url(#pins)" transform="rotate(90)"></rect>
      <text fill="white" font-size="1.5px" font-family="monospace">
      <tspan y="6.8" x="0.7" fill="white">1</tspan>
      <tspan y="8.9" x="2.3" fill="white">GND</tspan>
      <tspan y="11.4" x="2.3" fill="white">VCC</tspan>
      <tspan y="14" x="2.3" fill="white">SDA</tspan>
      <tspan y="16.6" x="2.3" fill="white">SCL</tspan>
      </text>
    
        <!--?lit$444955982$-->
        <rect fill="url(#characters)" x="12.45" y="12.55" width="56.2" height="11.5"></rect>
        <path d="" transform="translate(12.45, 12.55)" fill="black"></path>
        <!--?lit$444955982$-->
      </g>
  <g id="pins"><circle id="pin-GND" cx="24.21" cy="53.68" r="3.2" fill="#e00" fill-opacity="0.85" stroke="#700" stroke-width="0.5"/><text x="24.21" y="48.68" font-size="5" fill="#a00" text-anchor="middle" font-family="sans-serif">GND</text><circle id="pin-VCC" cx="24.21" cy="63.68" r="3.2" fill="#e00" fill-opacity="0.85" stroke="#700" stroke-width="0.5"/><text x="24.21" y="58.68" font-size="5" fill="#a00" text-anchor="middle" font-family="sans-serif">VCC</text><circle id="pin-SDA" cx="24.21" cy="73.68" r="3.2" fill="#e00" fill-opacity="0.85" stroke="#700" stroke-width="0.5"/><text x="24.21" y="68.68" font-size="5" fill="#a00" text-anchor="middle" font-family="sans-serif">SDA</text><circle id="pin-SCL" cx="24.21" cy="83.68" r="3.2" fill="#e00" fill-opacity="0.85" stroke="#700" stroke-width="0.5"/><text x="24.21" y="78.68" font-size="5" fill="#a00" text-anchor="middle" font-family="sans-serif">SCL</text></g>
</svg>
