<svg xmlns="http://www.w3.org/2000/svg" width="359" height="184" viewBox="0 0 359 184">
  <!-- Retouche brochage lcd : déplace chaque pastille rouge sur un CROISEMENT (lignes foncées = 50 px). Garde les id pin-<nom>. Marge 20 px. -->
  <rect width="359" height="184" fill="#fff"/>
  <g id="grid"><line x1="0" y1="0" x2="0" y2="184" stroke="#7fb0ff" stroke-width="0.7"/><line x1="10" y1="0" x2="10" y2="184" stroke="#cfe3ff" stroke-width="0.4"/><line x1="20" y1="0" x2="20" y2="184" stroke="#cfe3ff" stroke-width="0.4"/><line x1="30" y1="0" x2="30" y2="184" stroke="#cfe3ff" stroke-width="0.4"/><line x1="40" y1="0" x2="40" y2="184" stroke="#cfe3ff" stroke-width="0.4"/><line x1="50" y1="0" x2="50" y2="184" stroke="#7fb0ff" stroke-width="0.7"/><line x1="60" y1="0" x2="60" y2="184" stroke="#cfe3ff" stroke-width="0.4"/><line x1="70" y1="0" x2="70" y2="184" stroke="#cfe3ff" stroke-width="0.4"/><line x1="80" y1="0" x2="80" y2="184" stroke="#cfe3ff" stroke-width="0.4"/><line x1="90" y1="0" x2="90" y2="184" stroke="#cfe3ff" stroke-width="0.4"/><line x1="100" y1="0" x2="100" y2="184" stroke="#7fb0ff" stroke-width="0.7"/><line x1="110" y1="0" x2="110" y2="184" stroke="#cfe3ff" stroke-width="0.4"/><line x1="120" y1="0" x2="120" y2="184" stroke="#cfe3ff" stroke-width="0.4"/><line x1="130" y1="0" x2="130" y2="184" stroke="#cfe3ff" stroke-width="0.4"/><line x1="140" y1="0" x2="140" y2="184" stroke="#cfe3ff" stroke-width="0.4"/><line x1="150" y1="0" x2="150" y2="184" stroke="#7fb0ff" stroke-width="0.7"/><line x1="160" y1="0" x2="160" y2="184" stroke="#cfe3ff" stroke-width="0.4"/><line x1="170" y1="0" x2="170" y2="184" stroke="#cfe3ff" stroke-width="0.4"/><line x1="180" y1="0" x2="180" y2="184" stroke="#cfe3ff" stroke-width="0.4"/><line x1="190" y1="0" x2="190" y2="184" stroke="#cfe3ff" stroke-width="0.4"/><line x1="200" y1="0" x2="200" y2="184" stroke="#7fb0ff" stroke-width="0.7"/><line x1="210" y1="0" x2="210" y2="184" stroke="#cfe3ff" stroke-width="0.4"/><line x1="220" y1="0" x2="220" y2="184" stroke="#cfe3ff" stroke-width="0.4"/><line x1="230" y1="0" x2="230" y2="184" stroke="#cfe3ff" stroke-width="0.4"/><line x1="240" y1="0" x2="240" y2="184" stroke="#cfe3ff" stroke-width="0.4"/><line x1="250" y1="0" x2="250" y2="184" stroke="#7fb0ff" stroke-width="0.7"/><line x1="260" y1="0" x2="260" y2="184" stroke="#cfe3ff" stroke-width="0.4"/><line x1="270" y1="0" x2="270" y2="184" stroke="#cfe3ff" stroke-width="0.4"/><line x1="280" y1="0" x2="280" y2="184" stroke="#cfe3ff" stroke-width="0.4"/><line x1="290" y1="0" x2="290" y2="184" stroke="#cfe3ff" stroke-width="0.4"/><line x1="300" y1="0" x2="300" y2="184" stroke="#7fb0ff" stroke-width="0.7"/><line x1="310" y1="0" x2="310" y2="184" stroke="#cfe3ff" stroke-width="0.4"/><line x1="320" y1="0" x2="320" y2="184" stroke="#cfe3ff" stroke-width="0.4"/><line x1="330" y1="0" x2="330" y2="184" stroke="#cfe3ff" stroke-width="0.4"/><line x1="340" y1="0" x2="340" y2="184" stroke="#cfe3ff" stroke-width="0.4"/><line x1="350" y1="0" x2="350" y2="184" stroke="#7fb0ff" stroke-width="0.7"/><line x1="0" y1="0" x2="359" y2="0" stroke="#7fb0ff" stroke-width="0.7"/><line x1="0" y1="10" x2="359" y2="10" stroke="#cfe3ff" stroke-width="0.4"/><line x1="0" y1="20" x2="359" y2="20" stroke="#cfe3ff" stroke-width="0.4"/><line x1="0" y1="30" x2="359" y2="30" stroke="#cfe3ff" stroke-width="0.4"/><line x1="0" y1="40" x2="359" y2="40" stroke="#cfe3ff" stroke-width="0.4"/><line x1="0" y1="50" x2="359" y2="50" stroke="#7fb0ff" stroke-width="0.7"/><line x1="0" y1="60" x2="359" y2="60" stroke="#cfe3ff" stroke-width="0.4"/><line x1="0" y1="70" x2="359" y2="70" stroke="#cfe3ff" stroke-width="0.4"/><line x1="0" y1="80" x2="359" y2="80" stroke="#cfe3ff" stroke-width="0.4"/><line x1="0" y1="90" x2="359" y2="90" stroke="#cfe3ff" stroke-width="0.4"/><line x1="0" y1="100" x2="359" y2="100" stroke="#7fb0ff" stroke-width="0.7"/><line x1="0" y1="110" x2="359" y2="110" stroke="#cfe3ff" stroke-width="0.4"/><line x1="0" y1="120" x2="359" y2="120" stroke="#cfe3ff" stroke-width="0.4"/><line x1="0" y1="130" x2="359" y2="130" stroke="#cfe3ff" stroke-width="0.4"/><line x1="0" y1="140" x2="359" y2="140" stroke="#cfe3ff" stroke-width="0.4"/><line x1="0" y1="150" x2="359" y2="150" stroke="#7fb0ff" stroke-width="0.7"/><line x1="0" y1="160" x2="359" y2="160" stroke="#cfe3ff" stroke-width="0.4"/><line x1="0" y1="170" x2="359" y2="170" stroke="#cfe3ff" stroke-width="0.4"/><line x1="0" y1="180" x2="359" y2="180" stroke="#cfe3ff" stroke-width="0.4"/></g>
  <g id="board" opacity="0.85" transform="translate(20,20) scale(3.9784) translate(0.00,0.00)">
        <defs>
          <pattern id="characters" width="3.55" height="5.95" patternUnits="userSpaceOnUse" x="12.45" y="12.55">
            <rect width="2.95" height="5.55" fill-opacity="0.05"></rect>
          </pattern>
          <pattern id="pins" width="2.54" height="3.255" patternUnits="userSpaceOnUse" y="1.1">
            <path fill="#92926d" d="M0,0.55c0,0 0.21,-0.52 0.87,-0.52 0.67,0 0.81,0.51 0.81,0.51v1.81h-1.869z"></path>
            <circle r="0.45" cx="0.827" cy="0.9" color="black"></circle>
          </pattern>
        </defs>
        <rect fill="#087f45" width="80" height="36"></rect>
        <rect x="4.95" y="5.7" width="71.2" height="25.2"></rect>
        <rect x="7.55" y="10.3" rx="1.5" ry="1.5" width="66" height="16" fill="#6cb201"></rect>
        <rect x="7.55" y="10.3" rx="1.5" ry="1.5" width="66" height="16" opacity="0"></rect>
        <!--?lit$376089475$-->
        <!--?lit$376089475$-->
      <g transform="translate(0, 32.6)">
        <rect x="7.55" y="1" height="2.5" width="40.64" fill="url(#pins)"></rect>
        
      </g>
    
        <rect fill="url(#characters)" x="12.45" y="12.55" width="56.2" height="11.5"></rect>
        <path d="" transform="translate(12.45, 12.55)" fill="black"></path>
        <!--?lit$376089475$-->
      </g>
  <g id="pins"><g><circle id="pin-VSS" cx="53.68" cy="157.86" r="3.2" fill="#e00" fill-opacity="0.85" stroke="#700" stroke-width="0.5"/><text x="53.68" y="152.86" font-size="5" fill="#a00" text-anchor="middle" font-family="sans-serif">VSS</text></g><g><circle id="pin-VDD" cx="63.68" cy="157.86" r="3.2" fill="#e00" fill-opacity="0.85" stroke="#700" stroke-width="0.5"/><text x="63.68" y="152.86" font-size="5" fill="#a00" text-anchor="middle" font-family="sans-serif">VDD</text></g><g><circle id="pin-V0" cx="74.21" cy="157.86" r="3.2" fill="#e00" fill-opacity="0.85" stroke="#700" stroke-width="0.5"/><text x="74.21" y="152.86" font-size="5" fill="#a00" text-anchor="middle" font-family="sans-serif">V0</text></g><g><circle id="pin-RS" cx="83.68" cy="157.86" r="3.2" fill="#e00" fill-opacity="0.85" stroke="#700" stroke-width="0.5"/><text x="83.68" y="152.86" font-size="5" fill="#a00" text-anchor="middle" font-family="sans-serif">RS</text></g><g><circle id="pin-RW" cx="94.21" cy="157.86" r="3.2" fill="#e00" fill-opacity="0.85" stroke="#700" stroke-width="0.5"/><text x="94.21" y="152.86" font-size="5" fill="#a00" text-anchor="middle" font-family="sans-serif">RW</text></g><g><circle id="pin-E" cx="104.21" cy="157.86" r="3.2" fill="#e00" fill-opacity="0.85" stroke="#700" stroke-width="0.5"/><text x="104.21" y="152.86" font-size="5" fill="#a00" text-anchor="middle" font-family="sans-serif">E</text></g><g><circle id="pin-D0" cx="114.21" cy="157.86" r="3.2" fill="#e00" fill-opacity="0.85" stroke="#700" stroke-width="0.5"/><text x="114.21" y="152.86" font-size="5" fill="#a00" text-anchor="middle" font-family="sans-serif">D0</text></g><g><circle id="pin-D1" cx="124.74" cy="157.86" r="3.2" fill="#e00" fill-opacity="0.85" stroke="#700" stroke-width="0.5"/><text x="124.74" y="152.86" font-size="5" fill="#a00" text-anchor="middle" font-family="sans-serif">D1</text></g><g><circle id="pin-D2" cx="134.74" cy="157.86" r="3.2" fill="#e00" fill-opacity="0.85" stroke="#700" stroke-width="0.5"/><text x="134.74" y="152.86" font-size="5" fill="#a00" text-anchor="middle" font-family="sans-serif">D2</text></g><g><circle id="pin-D3" cx="144.74" cy="157.86" r="3.2" fill="#e00" fill-opacity="0.85" stroke="#700" stroke-width="0.5"/><text x="144.74" y="152.86" font-size="5" fill="#a00" text-anchor="middle" font-family="sans-serif">D3</text></g><g><circle id="pin-D4" cx="154.74" cy="157.86" r="3.2" fill="#e00" fill-opacity="0.85" stroke="#700" stroke-width="0.5"/><text x="154.74" y="152.86" font-size="5" fill="#a00" text-anchor="middle" font-family="sans-serif">D4</text></g><g><circle id="pin-D5" cx="164.74" cy="157.86" r="3.2" fill="#e00" fill-opacity="0.85" stroke="#700" stroke-width="0.5"/><text x="164.74" y="152.86" font-size="5" fill="#a00" text-anchor="middle" font-family="sans-serif">D5</text></g><g><circle id="pin-D6" cx="174.74" cy="157.86" r="3.2" fill="#e00" fill-opacity="0.85" stroke="#700" stroke-width="0.5"/><text x="174.74" y="152.86" font-size="5" fill="#a00" text-anchor="middle" font-family="sans-serif">D6</text></g><g><circle id="pin-D7" cx="184.74" cy="157.86" r="3.2" fill="#e00" fill-opacity="0.85" stroke="#700" stroke-width="0.5"/><text x="184.74" y="152.86" font-size="5" fill="#a00" text-anchor="middle" font-family="sans-serif">D7</text></g><g><circle id="pin-A" cx="195.26" cy="157.86" r="3.2" fill="#e00" fill-opacity="0.85" stroke="#700" stroke-width="0.5"/><text x="195.26" y="152.86" font-size="5" fill="#a00" text-anchor="middle" font-family="sans-serif">A</text></g><g><circle id="pin-K" cx="205.26" cy="157.86" r="3.2" fill="#e00" fill-opacity="0.85" stroke="#700" stroke-width="0.5"/><text x="205.26" y="152.86" font-size="5" fill="#a00" text-anchor="middle" font-family="sans-serif">K</text></g></g>
</svg>