<?xml version="1.0" encoding="UTF-8" standalone="no"?>
<svg
   width="330"
   height="150"
   viewBox="0 0 330 150"
   version="1.1"
   id="svg93"
   sodipodi:docname="lcd.edit.svg"
   inkscape:version="1.4.3 (0d15f75, 2025-12-25)"
   xmlns:inkscape="http://www.inkscape.org/namespaces/inkscape"
   xmlns:sodipodi="http://sodipodi.sourceforge.net/DTD/sodipodi-0.dtd"
   xmlns:xlink="http://www.w3.org/1999/xlink"
   xmlns="http://www.w3.org/2000/svg"
   xmlns:svg="http://www.w3.org/2000/svg">
  <defs
     id="defs93">
    <inkscape:path-effect
       effect="tiling"
       id="path-effect95"
       is_visible="true"
       lpeversion="1.3.1"
       unit="px"
       seed="1;1"
       lpesatellites="#g97 | #g99 | #g101 | #g103 | #g105 | #g107 | #g109 | #g111 | #g113 | #g115 | #g117 | #g119 | #g121 | #g123 | #g125"
       num_rows="1"
       num_cols="16"
       gapx="3.297"
       gapy="0"
       offset="0"
       offset_type="false"
       scale="0"
       rotate="0"
       mirrorrowsx="false"
       mirrorrowsy="false"
       mirrorcolsx="false"
       mirrorcolsy="false"
       mirrortrans="false"
       shrink_interp="false"
       split_items="true"
       link_styles="false"
       interpolate_scalex="false"
       interpolate_scaley="true"
       interpolate_rotatex="false"
       interpolate_rotatey="true"
       random_scale="false"
       random_rotate="false"
       random_gap_y="false"
       random_gap_x="false"
       transformorigin="translate(-10.028915,10.211273)" />
    <pattern
       inkscape:collect="always"
       xlink:href="#characters"
       id="pattern93"
       patternTransform="matrix(3.9785,0,0,3.9785,16.32,22.139999)" />
    <defs
       id="defs55">
      <pattern
         id="characters"
         width="3.55"
         height="5.95"
         patternUnits="userSpaceOnUse"
         x="12.45"
         y="12.55">
        <rect
           width="2.95"
           height="5.55"
           fill-opacity="0.05"
           id="rect55" />
      </pattern>
      <pattern
         id="pins"
         width="2.54"
         height="3.255"
         patternUnits="userSpaceOnUse"
         y="1.1">
        <path
           fill="#92926d"
           d="M0,0.55c0,0 0.21,-0.52 0.87,-0.52 0.67,0 0.81,0.51 0.81,0.51v1.81h-1.869z"
           id="path55" />
        <circle
           r="0.45"
           cx="0.827"
           cy="0.9"
           color="black"
           id="circle55" />
      </pattern>
    </defs>
  </defs>
  <sodipodi:namedview
     id="namedview93"
     pagecolor="#ffffff"
     bordercolor="#666666"
     borderopacity="1.0"
     inkscape:showpageshadow="2"
     inkscape:pageopacity="0.0"
     inkscape:pagecheckerboard="0"
     inkscape:deskcolor="#d1d1d1"
     showgrid="true"
     inkscape:zoom="8"
     inkscape:cx="144.5"
     inkscape:cy="123.5"
     inkscape:window-width="1920"
     inkscape:window-height="1057"
     inkscape:window-x="-8"
     inkscape:window-y="-8"
     inkscape:window-maximized="1"
     inkscape:current-layer="svg93">
    <inkscape:grid
       id="grid93"
       units="px"
       originx="-10"
       originy="-20"
       spacingx="10"
       spacingy="10"
       empcolor="#3f3fff"
       empopacity="0.25098039"
       color="#3f3fff"
       opacity="0.1254902"
       empspacing="1"
       enabled="true"
       visible="true" />
  </sodipodi:namedview>
  <!-- Retouche brochage lcd : déplace chaque pastille rouge sur un CROISEMENT (lignes foncées = 50 px). Garde les id pin-<nom>. Marge 20 px. -->
  <path
     d=""
     fill="#000000"
     id="path77"
     style="opacity:0.85;stroke-width:3.9785" />
  <g
     id="g127"
     transform="translate(-10,-20)">
    <rect
       fill="#087f45"
       width="318.28"
       height="143.226"
       id="rect56"
       x="16.32"
       y="22.139999"
       style="opacity:0.85;stroke-width:3.9785" />
    <rect
       x="36.013573"
       y="44.817448"
       width="283.2692"
       height="100.2582"
       id="rect57"
       style="opacity:0.85;stroke-width:3.9785" />
    <rect
       x="46.357677"
       y="63.118549"
       rx="5.9677501"
       ry="5.9677501"
       width="262.58099"
       height="63.655998"
       fill="#6cb201"
       id="rect58"
       style="opacity:0.85;stroke-width:3.9785" />
    <rect
       x="46.357677"
       y="63.118549"
       rx="5.9677501"
       ry="5.9677501"
       width="262.58099"
       height="63.655998"
       opacity="0"
       id="rect59"
       style="stroke-width:3.9785" />
    <text
       fill="#ffffff"
       font-size="5.92952px"
       font-family="monospace"
       id="text77"
       style="opacity:0.85;stroke-width:3.9785"
       x="16.741171"
       y="150.86661"
       transform="scale(0.99359526,1.006446)"><tspan
         x="40.459286"
         y="161.53976"
         id="tspan60"
         style="stroke-width:3.9785">1</tspan><tspan
         x="45.202904"
         y="153.63373"
         id="tspan61"
         style="stroke-width:3.9785">VSS</tspan><tspan
         x="55.876057"
         y="153.63373"
         id="tspan62"
         style="stroke-width:3.9785">VDD</tspan><tspan
         x="66.944504"
         y="153.63373"
         id="tspan63"
         style="stroke-width:3.9785">V0</tspan><tspan
         x="76.827057"
         y="153.63373"
         id="tspan64"
         style="stroke-width:3.9785">RS</tspan><tspan
         x="87.104904"
         y="153.63373"
         id="tspan65"
         style="stroke-width:3.9785">RW</tspan><tspan
         x="98.963959"
         y="153.63373"
         id="tspan66"
         style="stroke-width:3.9785">E</tspan><tspan
         x="106.4747"
         y="153.63373"
         id="tspan67"
         style="stroke-width:3.9785">D0</tspan><tspan
         x="116.75255"
         y="153.63373"
         id="tspan68"
         style="stroke-width:3.9785">D1</tspan><tspan
         x="127.0304"
         y="153.63373"
         id="tspan69"
         style="stroke-width:3.9785">D2</tspan><tspan
         x="136.91295"
         y="153.63373"
         id="tspan70"
         style="stroke-width:3.9785">D3</tspan><tspan
         x="147.1908"
         y="153.63373"
         id="tspan71"
         style="stroke-width:3.9785">D4</tspan><tspan
         x="157.46863"
         y="153.63373"
         id="tspan72"
         style="stroke-width:3.9785">D5</tspan><tspan
         x="167.74651"
         y="153.63373"
         id="tspan73"
         style="stroke-width:3.9785">D6</tspan><tspan
         x="178.02434"
         y="153.63373"
         id="tspan74"
         style="stroke-width:3.9785">D7</tspan><tspan
         x="189.09279"
         y="153.63373"
         id="tspan75"
         style="stroke-width:3.9785">A</tspan><tspan
         x="199.37065"
         y="153.63373"
         id="tspan76"
         style="stroke-width:3.9785">K</tspan><tspan
         x="206.48607"
         y="161.53976"
         id="tspan77"
         style="stroke-width:3.9785">16</tspan></text>
    <rect
       fill="url(#characters)"
       x="65.852325"
       y="72.070175"
       width="223.59171"
       height="45.75275"
       id="rect77"
       style="opacity:0.85;fill:url(#pattern93);stroke-width:3.9785" />
    <g
       id="g126"
       transform="translate(-4.0527344e-7,-9.9999998)">
      <g
         id="g95"
         transform="translate(-10.028915,10.211273)"
         inkscape:path-effect="#path-effect95">
        <path
           id="rect94"
           style="fill:#808f68;fill-opacity:0.976471;stroke-width:2.1;stroke-linecap:round"
           d="M 60.028915,156.34375 C 58.614087,156.34394 57.319058,157.13334 56.677353,158.38672 V 165.36719 H 63.380478 V 158.38672 C 62.738773,157.13334 61.443744,156.34394 60.028915,156.34375 Z"
           inkscape:original-d="M 60.028915,156.34375 A 3.7611971,3.7386663 0 0 0 56.677353,158.38672 V 165.36719 H 63.380478 V 158.38672 A 3.7611971,3.7386663 0 0 0 60.028915,156.34375 Z" />
        <path
           style="fill:#000000;fill-opacity:0.974212;stroke-width:2.1;stroke-linecap:round"
           id="path95"
           sodipodi:type="arc"
           sodipodi:cx="60.028915"
           sodipodi:cy="159.78873"
           sodipodi:rx="1.7865"
           sodipodi:ry="1.7865"
           d="M 61.815415,159.78873 C 61.815415,160.77538 61.015572,161.57523 60.028915,161.57523 59.042259,161.57523 58.242415,160.77538 58.242415,159.78873 58.242415,158.80207 59.042259,158.00223 60.028915,158.00223 61.015572,158.00223 61.815415,158.80207 61.815415,159.78873 Z" />
      </g>
      <g
         transform="translate(-0.02879,10.211273)"
         id="g97"
         style="display:inline">
        <path
           style="fill:#808f68;fill-opacity:0.976471;stroke-width:2.1;stroke-linecap:round"
           id="path96"
           d="M 60.028915,156.34375 C 58.614087,156.34394 57.319058,157.13334 56.677353,158.38672 V 165.36719 H 63.380478 V 158.38672 C 62.738773,157.13334 61.443744,156.34394 60.028915,156.34375 Z" />
        <path
           style="fill:#000000;fill-opacity:0.974212;stroke-width:2.1;stroke-linecap:round"
           id="path97"
           d="M 61.815415,159.78873 C 61.815415,160.77538 61.015572,161.57523 60.028915,161.57523 59.042259,161.57523 58.242415,160.77538 58.242415,159.78873 58.242415,158.80207 59.042259,158.00223 60.028915,158.00223 61.015572,158.00223 61.815415,158.80207 61.815415,159.78873 Z" />
      </g>
      <g
         transform="translate(9.971335,10.211273)"
         id="g99"
         style="display:inline">
        <path
           style="fill:#808f68;fill-opacity:0.976471;stroke-width:2.1;stroke-linecap:round"
           id="path98"
           d="M 60.028915,156.34375 C 58.614087,156.34394 57.319058,157.13334 56.677353,158.38672 V 165.36719 H 63.380478 V 158.38672 C 62.738773,157.13334 61.443744,156.34394 60.028915,156.34375 Z" />
        <path
           style="fill:#000000;fill-opacity:0.974212;stroke-width:2.1;stroke-linecap:round"
           id="path99"
           d="M 61.815415,159.78873 C 61.815415,160.77538 61.015572,161.57523 60.028915,161.57523 59.042259,161.57523 58.242415,160.77538 58.242415,159.78873 58.242415,158.80207 59.042259,158.00223 60.028915,158.00223 61.015572,158.00223 61.815415,158.80207 61.815415,159.78873 Z" />
      </g>
      <g
         transform="translate(19.97146,10.211273)"
         id="g101">
        <path
           style="fill:#808f68;fill-opacity:0.976471;stroke-width:2.1;stroke-linecap:round"
           id="path100"
           d="M 60.028915,156.34375 C 58.614087,156.34394 57.319058,157.13334 56.677353,158.38672 V 165.36719 H 63.380478 V 158.38672 C 62.738773,157.13334 61.443744,156.34394 60.028915,156.34375 Z" />
        <path
           style="fill:#000000;fill-opacity:0.974212;stroke-width:2.1;stroke-linecap:round"
           id="path101"
           d="M 61.815415,159.78873 C 61.815415,160.77538 61.015572,161.57523 60.028915,161.57523 59.042259,161.57523 58.242415,160.77538 58.242415,159.78873 58.242415,158.80207 59.042259,158.00223 60.028915,158.00223 61.015572,158.00223 61.815415,158.80207 61.815415,159.78873 Z" />
      </g>
      <g
         transform="translate(29.971585,10.211273)"
         id="g103">
        <path
           style="fill:#808f68;fill-opacity:0.976471;stroke-width:2.1;stroke-linecap:round"
           id="path102"
           d="M 60.028915,156.34375 C 58.614087,156.34394 57.319058,157.13334 56.677353,158.38672 V 165.36719 H 63.380478 V 158.38672 C 62.738773,157.13334 61.443744,156.34394 60.028915,156.34375 Z" />
        <path
           style="fill:#000000;fill-opacity:0.974212;stroke-width:2.1;stroke-linecap:round"
           id="path103"
           d="M 61.815415,159.78873 C 61.815415,160.77538 61.015572,161.57523 60.028915,161.57523 59.042259,161.57523 58.242415,160.77538 58.242415,159.78873 58.242415,158.80207 59.042259,158.00223 60.028915,158.00223 61.015572,158.00223 61.815415,158.80207 61.815415,159.78873 Z" />
      </g>
      <g
         transform="translate(39.97171,10.211273)"
         id="g105">
        <path
           style="fill:#808f68;fill-opacity:0.976471;stroke-width:2.1;stroke-linecap:round"
           id="path104"
           d="M 60.028915,156.34375 C 58.614087,156.34394 57.319058,157.13334 56.677353,158.38672 V 165.36719 H 63.380478 V 158.38672 C 62.738773,157.13334 61.443744,156.34394 60.028915,156.34375 Z" />
        <path
           style="fill:#000000;fill-opacity:0.974212;stroke-width:2.1;stroke-linecap:round"
           id="path105"
           d="M 61.815415,159.78873 C 61.815415,160.77538 61.015572,161.57523 60.028915,161.57523 59.042259,161.57523 58.242415,160.77538 58.242415,159.78873 58.242415,158.80207 59.042259,158.00223 60.028915,158.00223 61.015572,158.00223 61.815415,158.80207 61.815415,159.78873 Z" />
      </g>
      <g
         transform="translate(49.971835,10.211273)"
         id="g107">
        <path
           style="fill:#808f68;fill-opacity:0.976471;stroke-width:2.1;stroke-linecap:round"
           id="path106"
           d="M 60.028915,156.34375 C 58.614087,156.34394 57.319058,157.13334 56.677353,158.38672 V 165.36719 H 63.380478 V 158.38672 C 62.738773,157.13334 61.443744,156.34394 60.028915,156.34375 Z" />
        <path
           style="fill:#000000;fill-opacity:0.974212;stroke-width:2.1;stroke-linecap:round"
           id="path107"
           d="M 61.815415,159.78873 C 61.815415,160.77538 61.015572,161.57523 60.028915,161.57523 59.042259,161.57523 58.242415,160.77538 58.242415,159.78873 58.242415,158.80207 59.042259,158.00223 60.028915,158.00223 61.015572,158.00223 61.815415,158.80207 61.815415,159.78873 Z" />
      </g>
      <g
         transform="translate(59.97196,10.211273)"
         id="g109">
        <path
           style="fill:#808f68;fill-opacity:0.976471;stroke-width:2.1;stroke-linecap:round"
           id="path108"
           d="M 60.028915,156.34375 C 58.614087,156.34394 57.319058,157.13334 56.677353,158.38672 V 165.36719 H 63.380478 V 158.38672 C 62.738773,157.13334 61.443744,156.34394 60.028915,156.34375 Z" />
        <path
           style="fill:#000000;fill-opacity:0.974212;stroke-width:2.1;stroke-linecap:round"
           id="path109"
           d="M 61.815415,159.78873 C 61.815415,160.77538 61.015572,161.57523 60.028915,161.57523 59.042259,161.57523 58.242415,160.77538 58.242415,159.78873 58.242415,158.80207 59.042259,158.00223 60.028915,158.00223 61.015572,158.00223 61.815415,158.80207 61.815415,159.78873 Z" />
      </g>
      <g
         transform="translate(69.972085,10.211273)"
         id="g111">
        <path
           style="fill:#808f68;fill-opacity:0.976471;stroke-width:2.1;stroke-linecap:round"
           id="path110"
           d="M 60.028915,156.34375 C 58.614087,156.34394 57.319058,157.13334 56.677353,158.38672 V 165.36719 H 63.380478 V 158.38672 C 62.738773,157.13334 61.443744,156.34394 60.028915,156.34375 Z" />
        <path
           style="fill:#000000;fill-opacity:0.974212;stroke-width:2.1;stroke-linecap:round"
           id="path111"
           d="M 61.815415,159.78873 C 61.815415,160.77538 61.015572,161.57523 60.028915,161.57523 59.042259,161.57523 58.242415,160.77538 58.242415,159.78873 58.242415,158.80207 59.042259,158.00223 60.028915,158.00223 61.015572,158.00223 61.815415,158.80207 61.815415,159.78873 Z" />
      </g>
      <g
         transform="translate(79.97221,10.211273)"
         id="g113">
        <path
           style="fill:#808f68;fill-opacity:0.976471;stroke-width:2.1;stroke-linecap:round"
           id="path112"
           d="M 60.028915,156.34375 C 58.614087,156.34394 57.319058,157.13334 56.677353,158.38672 V 165.36719 H 63.380478 V 158.38672 C 62.738773,157.13334 61.443744,156.34394 60.028915,156.34375 Z" />
        <path
           style="fill:#000000;fill-opacity:0.974212;stroke-width:2.1;stroke-linecap:round"
           id="path113"
           d="M 61.815415,159.78873 C 61.815415,160.77538 61.015572,161.57523 60.028915,161.57523 59.042259,161.57523 58.242415,160.77538 58.242415,159.78873 58.242415,158.80207 59.042259,158.00223 60.028915,158.00223 61.015572,158.00223 61.815415,158.80207 61.815415,159.78873 Z" />
      </g>
      <g
         transform="translate(89.972335,10.211273)"
         id="g115">
        <path
           style="fill:#808f68;fill-opacity:0.976471;stroke-width:2.1;stroke-linecap:round"
           id="path114"
           d="M 60.028915,156.34375 C 58.614087,156.34394 57.319058,157.13334 56.677353,158.38672 V 165.36719 H 63.380478 V 158.38672 C 62.738773,157.13334 61.443744,156.34394 60.028915,156.34375 Z" />
        <path
           style="fill:#000000;fill-opacity:0.974212;stroke-width:2.1;stroke-linecap:round"
           id="path115"
           d="M 61.815415,159.78873 C 61.815415,160.77538 61.015572,161.57523 60.028915,161.57523 59.042259,161.57523 58.242415,160.77538 58.242415,159.78873 58.242415,158.80207 59.042259,158.00223 60.028915,158.00223 61.015572,158.00223 61.815415,158.80207 61.815415,159.78873 Z" />
      </g>
      <g
         transform="translate(99.97246,10.211273)"
         id="g117">
        <path
           style="fill:#808f68;fill-opacity:0.976471;stroke-width:2.1;stroke-linecap:round"
           id="path116"
           d="M 60.028915,156.34375 C 58.614087,156.34394 57.319058,157.13334 56.677353,158.38672 V 165.36719 H 63.380478 V 158.38672 C 62.738773,157.13334 61.443744,156.34394 60.028915,156.34375 Z" />
        <path
           style="fill:#000000;fill-opacity:0.974212;stroke-width:2.1;stroke-linecap:round"
           id="path117"
           d="M 61.815415,159.78873 C 61.815415,160.77538 61.015572,161.57523 60.028915,161.57523 59.042259,161.57523 58.242415,160.77538 58.242415,159.78873 58.242415,158.80207 59.042259,158.00223 60.028915,158.00223 61.015572,158.00223 61.815415,158.80207 61.815415,159.78873 Z" />
      </g>
      <g
         transform="translate(109.97258,10.211273)"
         id="g119">
        <path
           style="fill:#808f68;fill-opacity:0.976471;stroke-width:2.1;stroke-linecap:round"
           id="path118"
           d="M 60.028915,156.34375 C 58.614087,156.34394 57.319058,157.13334 56.677353,158.38672 V 165.36719 H 63.380478 V 158.38672 C 62.738773,157.13334 61.443744,156.34394 60.028915,156.34375 Z" />
        <path
           style="fill:#000000;fill-opacity:0.974212;stroke-width:2.1;stroke-linecap:round"
           id="path119"
           d="M 61.815415,159.78873 C 61.815415,160.77538 61.015572,161.57523 60.028915,161.57523 59.042259,161.57523 58.242415,160.77538 58.242415,159.78873 58.242415,158.80207 59.042259,158.00223 60.028915,158.00223 61.015572,158.00223 61.815415,158.80207 61.815415,159.78873 Z" />
      </g>
      <g
         transform="translate(119.97271,10.211273)"
         id="g121">
        <path
           style="fill:#808f68;fill-opacity:0.976471;stroke-width:2.1;stroke-linecap:round"
           id="path120"
           d="M 60.028915,156.34375 C 58.614087,156.34394 57.319058,157.13334 56.677353,158.38672 V 165.36719 H 63.380478 V 158.38672 C 62.738773,157.13334 61.443744,156.34394 60.028915,156.34375 Z" />
        <path
           style="fill:#000000;fill-opacity:0.974212;stroke-width:2.1;stroke-linecap:round"
           id="path121"
           d="M 61.815415,159.78873 C 61.815415,160.77538 61.015572,161.57523 60.028915,161.57523 59.042259,161.57523 58.242415,160.77538 58.242415,159.78873 58.242415,158.80207 59.042259,158.00223 60.028915,158.00223 61.015572,158.00223 61.815415,158.80207 61.815415,159.78873 Z" />
      </g>
      <g
         transform="translate(129.97283,10.211273)"
         id="g123">
        <path
           style="fill:#808f68;fill-opacity:0.976471;stroke-width:2.1;stroke-linecap:round"
           id="path122"
           d="M 60.028915,156.34375 C 58.614087,156.34394 57.319058,157.13334 56.677353,158.38672 V 165.36719 H 63.380478 V 158.38672 C 62.738773,157.13334 61.443744,156.34394 60.028915,156.34375 Z" />
        <path
           style="fill:#000000;fill-opacity:0.974212;stroke-width:2.1;stroke-linecap:round"
           id="path123"
           d="M 61.815415,159.78873 C 61.815415,160.77538 61.015572,161.57523 60.028915,161.57523 59.042259,161.57523 58.242415,160.77538 58.242415,159.78873 58.242415,158.80207 59.042259,158.00223 60.028915,158.00223 61.015572,158.00223 61.815415,158.80207 61.815415,159.78873 Z" />
      </g>
      <g
         transform="translate(139.97296,10.211273)"
         id="g125">
        <path
           style="fill:#808f68;fill-opacity:0.976471;stroke-width:2.1;stroke-linecap:round"
           id="path124"
           d="M 60.028915,156.34375 C 58.614087,156.34394 57.319058,157.13334 56.677353,158.38672 V 165.36719 H 63.380478 V 158.38672 C 62.738773,157.13334 61.443744,156.34394 60.028915,156.34375 Z" />
        <path
           style="fill:#000000;fill-opacity:0.974212;stroke-width:2.1;stroke-linecap:round"
           id="path125"
           d="M 61.815415,159.78873 C 61.815415,160.77538 61.015572,161.57523 60.028915,161.57523 59.042259,161.57523 58.242415,160.77538 58.242415,159.78873 58.242415,158.80207 59.042259,158.00223 60.028915,158.00223 61.015572,158.00223 61.815415,158.80207 61.815415,159.78873 Z" />
      </g>
    </g>
    <circle
       id="pin-VSS"
       cx="50"
       cy="160"
       r="3.2"
       fill="#ee0000"
       fill-opacity="0.85"
       stroke="#770000"
       stroke-width="0.5" />
    <text
       x="50"
       y="155"
       font-size="5px"
       fill="#aa0000"
       text-anchor="middle"
       font-family="sans-serif"
       id="text78">VSS</text>
    <circle
       id="pin-VDD"
       cx="60"
       cy="160"
       r="3.2"
       fill="#ee0000"
       fill-opacity="0.85"
       stroke="#770000"
       stroke-width="0.5" />
    <text
       x="60"
       y="155"
       font-size="5px"
       fill="#aa0000"
       text-anchor="middle"
       font-family="sans-serif"
       id="text79">VDD</text>
    <circle
       id="pin-V0"
       cx="70.000252"
       cy="160"
       r="3.2"
       fill="#ee0000"
       fill-opacity="0.85"
       stroke="#770000"
       stroke-width="0.5" />
    <text
       x="70.529999"
       y="155"
       font-size="5px"
       fill="#aa0000"
       text-anchor="middle"
       font-family="sans-serif"
       id="text80">V0</text>
    <circle
       id="pin-RS"
       cx="80"
       cy="160"
       r="3.2"
       fill="#ee0000"
       fill-opacity="0.85"
       stroke="#770000"
       stroke-width="0.5" />
    <text
       x="80"
       y="155"
       font-size="5px"
       fill="#aa0000"
       text-anchor="middle"
       font-family="sans-serif"
       id="text81">RS</text>
    <circle
       id="pin-RW"
       cx="90.000496"
       cy="160"
       r="3.2"
       fill="#ee0000"
       fill-opacity="0.85"
       stroke="#770000"
       stroke-width="0.5" />
    <text
       x="90.529999"
       y="155"
       font-size="5px"
       fill="#aa0000"
       text-anchor="middle"
       font-family="sans-serif"
       id="text82">RW</text>
    <circle
       id="pin-E"
       cx="100"
       cy="160"
       r="3.2"
       fill="#ee0000"
       fill-opacity="0.85"
       stroke="#770000"
       stroke-width="0.5" />
    <text
       x="100.53001"
       y="155"
       font-size="5px"
       fill="#aa0000"
       text-anchor="middle"
       font-family="sans-serif"
       id="text83">E</text>
    <circle
       id="pin-D0"
       cx="110"
       cy="160"
       r="3.2"
       fill="#ee0000"
       fill-opacity="0.85"
       stroke="#770000"
       stroke-width="0.5" />
    <text
       x="110.53001"
       y="155"
       font-size="5px"
       fill="#aa0000"
       text-anchor="middle"
       font-family="sans-serif"
       id="text84">D0</text>
    <circle
       id="pin-D1"
       cx="120.00088"
       cy="160"
       r="3.2"
       fill="#ee0000"
       fill-opacity="0.85"
       stroke="#770000"
       stroke-width="0.5" />
    <text
       x="121.05999"
       y="155"
       font-size="5px"
       fill="#aa0000"
       text-anchor="middle"
       font-family="sans-serif"
       id="text85">D1</text>
    <circle
       id="pin-D2"
       cx="130"
       cy="160"
       r="3.2"
       fill="#ee0000"
       fill-opacity="0.85"
       stroke="#770000"
       stroke-width="0.5" />
    <text
       x="131.06"
       y="155"
       font-size="5px"
       fill="#aa0000"
       text-anchor="middle"
       font-family="sans-serif"
       id="text86">D2</text>
    <circle
       id="pin-D3"
       cx="140"
       cy="160"
       r="3.2"
       fill="#ee0000"
       fill-opacity="0.85"
       stroke="#770000"
       stroke-width="0.5" />
    <text
       x="141.06"
       y="155"
       font-size="5px"
       fill="#aa0000"
       text-anchor="middle"
       font-family="sans-serif"
       id="text87">D3</text>
    <circle
       id="pin-D4"
       cx="150"
       cy="160"
       r="3.2"
       fill="#ee0000"
       fill-opacity="0.85"
       stroke="#770000"
       stroke-width="0.5" />
    <text
       x="151.06"
       y="155"
       font-size="5px"
       fill="#aa0000"
       text-anchor="middle"
       font-family="sans-serif"
       id="text88">D4</text>
    <circle
       id="pin-D5"
       cx="160"
       cy="160"
       r="3.2"
       fill="#ee0000"
       fill-opacity="0.85"
       stroke="#770000"
       stroke-width="0.5" />
    <text
       x="161.06"
       y="155"
       font-size="5px"
       fill="#aa0000"
       text-anchor="middle"
       font-family="sans-serif"
       id="text89">D5</text>
    <circle
       id="pin-D6"
       cx="170"
       cy="160"
       r="3.2"
       fill="#ee0000"
       fill-opacity="0.85"
       stroke="#770000"
       stroke-width="0.5" />
    <text
       x="171.06"
       y="155"
       font-size="5px"
       fill="#aa0000"
       text-anchor="middle"
       font-family="sans-serif"
       id="text90">D6</text>
    <circle
       id="pin-D7"
       cx="180"
       cy="160"
       r="3.2"
       fill="#ee0000"
       fill-opacity="0.85"
       stroke="#770000"
       stroke-width="0.5" />
    <text
       x="181.06"
       y="155"
       font-size="5px"
       fill="#aa0000"
       text-anchor="middle"
       font-family="sans-serif"
       id="text91">D7</text>
    <circle
       id="pin-A"
       cx="190"
       cy="160"
       r="3.2"
       fill="#ee0000"
       fill-opacity="0.85"
       stroke="#770000"
       stroke-width="0.5" />
    <text
       x="191.57999"
       y="155"
       font-size="5px"
       fill="#aa0000"
       text-anchor="middle"
       font-family="sans-serif"
       id="text92">A</text>
    <circle
       id="pin-K"
       cx="200"
       cy="160"
       r="3.2"
       fill="#ee0000"
       fill-opacity="0.85"
       stroke="#770000"
       stroke-width="0.5" />
    <text
       x="201.57999"
       y="155"
       font-size="5px"
       fill="#aa0000"
       text-anchor="middle"
       font-family="sans-serif"
       id="text93">K</text>
  </g>
</svg>
