<svg xmlns="http://www.w3.org/2000/svg" width="188" height="200" viewBox="0 0 188 200">
  <!-- Retouche brochage led-ring : déplace chaque pastille rouge sur un CROISEMENT (lignes foncées = 50 px). Garde les id pin-<nom>. Marge 20 px. -->
  <rect width="188" height="200" fill="#fff"/>
  <g id="grid"><line x1="0" y1="0" x2="0" y2="200" stroke="#7fb0ff" stroke-width="0.7"/><line x1="10" y1="0" x2="10" y2="200" stroke="#cfe3ff" stroke-width="0.4"/><line x1="20" y1="0" x2="20" y2="200" stroke="#cfe3ff" stroke-width="0.4"/><line x1="30" y1="0" x2="30" y2="200" stroke="#cfe3ff" stroke-width="0.4"/><line x1="40" y1="0" x2="40" y2="200" stroke="#cfe3ff" stroke-width="0.4"/><line x1="50" y1="0" x2="50" y2="200" stroke="#7fb0ff" stroke-width="0.7"/><line x1="60" y1="0" x2="60" y2="200" stroke="#cfe3ff" stroke-width="0.4"/><line x1="70" y1="0" x2="70" y2="200" stroke="#cfe3ff" stroke-width="0.4"/><line x1="80" y1="0" x2="80" y2="200" stroke="#cfe3ff" stroke-width="0.4"/><line x1="90" y1="0" x2="90" y2="200" stroke="#cfe3ff" stroke-width="0.4"/><line x1="100" y1="0" x2="100" y2="200" stroke="#7fb0ff" stroke-width="0.7"/><line x1="110" y1="0" x2="110" y2="200" stroke="#cfe3ff" stroke-width="0.4"/><line x1="120" y1="0" x2="120" y2="200" stroke="#cfe3ff" stroke-width="0.4"/><line x1="130" y1="0" x2="130" y2="200" stroke="#cfe3ff" stroke-width="0.4"/><line x1="140" y1="0" x2="140" y2="200" stroke="#cfe3ff" stroke-width="0.4"/><line x1="150" y1="0" x2="150" y2="200" stroke="#7fb0ff" stroke-width="0.7"/><line x1="160" y1="0" x2="160" y2="200" stroke="#cfe3ff" stroke-width="0.4"/><line x1="170" y1="0" x2="170" y2="200" stroke="#cfe3ff" stroke-width="0.4"/><line x1="180" y1="0" x2="180" y2="200" stroke="#cfe3ff" stroke-width="0.4"/><line x1="0" y1="0" x2="188" y2="0" stroke="#7fb0ff" stroke-width="0.7"/><line x1="0" y1="10" x2="188" y2="10" stroke="#cfe3ff" stroke-width="0.4"/><line x1="0" y1="20" x2="188" y2="20" stroke="#cfe3ff" stroke-width="0.4"/><line x1="0" y1="30" x2="188" y2="30" stroke="#cfe3ff" stroke-width="0.4"/><line x1="0" y1="40" x2="188" y2="40" stroke="#cfe3ff" stroke-width="0.4"/><line x1="0" y1="50" x2="188" y2="50" stroke="#7fb0ff" stroke-width="0.7"/><line x1="0" y1="60" x2="188" y2="60" stroke="#cfe3ff" stroke-width="0.4"/><line x1="0" y1="70" x2="188" y2="70" stroke="#cfe3ff" stroke-width="0.4"/><line x1="0" y1="80" x2="188" y2="80" stroke="#cfe3ff" stroke-width="0.4"/><line x1="0" y1="90" x2="188" y2="90" stroke="#cfe3ff" stroke-width="0.4"/><line x1="0" y1="100" x2="188" y2="100" stroke="#7fb0ff" stroke-width="0.7"/><line x1="0" y1="110" x2="188" y2="110" stroke="#cfe3ff" stroke-width="0.4"/><line x1="0" y1="120" x2="188" y2="120" stroke="#cfe3ff" stroke-width="0.4"/><line x1="0" y1="130" x2="188" y2="130" stroke="#cfe3ff" stroke-width="0.4"/><line x1="0" y1="140" x2="188" y2="140" stroke="#cfe3ff" stroke-width="0.4"/><line x1="0" y1="150" x2="188" y2="150" stroke="#7fb0ff" stroke-width="0.7"/><line x1="0" y1="160" x2="188" y2="160" stroke="#cfe3ff" stroke-width="0.4"/><line x1="0" y1="170" x2="188" y2="170" stroke="#cfe3ff" stroke-width="0.4"/><line x1="0" y1="180" x2="188" y2="180" stroke="#cfe3ff" stroke-width="0.4"/><line x1="0" y1="190" x2="188" y2="190" stroke="#cfe3ff" stroke-width="0.4"/><line x1="0" y1="200" x2="188" y2="200" stroke="#7fb0ff" stroke-width="0.7"/></g>
  <g id="board" opacity="0.85" transform="translate(20,20) scale(3.9370) translate(0.00,0.00)">
        <defs>
          <pattern id="pin-pattern" height="2" width="2.54" patternUnits="userSpaceOnUse">
            <rect x="1.02" y="0" height="2" width="0.5" fill="#aaa"></rect>
          </pattern>
        </defs>
        <rect fill="url(#pin-pattern)" height="4" width="10.16" transform="translate(13.652395447351628, 36.464790894703256)"></rect>
        <circle fill="transparent" cx="18.732395447351628" cy="18.732395447351628" r="15.732395447351628" stroke-width="6" stroke="#363"></circle>
        <!--?lit$480109787$--><!----><rect class="pixel" width="5" height="5" fill="white" stroke="black" stroke-width="0.25" x="16.232395447351628" y="0.5" transform="rotate(0 18.732395447351628 18.732395447351628)"></rect><!----><!----><rect class="pixel" width="5" height="5" fill="white" stroke="black" stroke-width="0.25" x="16.232395447351628" y="0.5" transform="rotate(22.5 18.732395447351628 18.732395447351628)"></rect><!----><!----><rect class="pixel" width="5" height="5" fill="white" stroke="black" stroke-width="0.25" x="16.232395447351628" y="0.5" transform="rotate(45 18.732395447351628 18.732395447351628)"></rect><!----><!----><rect class="pixel" width="5" height="5" fill="white" stroke="black" stroke-width="0.25" x="16.232395447351628" y="0.5" transform="rotate(67.5 18.732395447351628 18.732395447351628)"></rect><!----><!----><rect class="pixel" width="5" height="5" fill="white" stroke="black" stroke-width="0.25" x="16.232395447351628" y="0.5" transform="rotate(90 18.732395447351628 18.732395447351628)"></rect><!----><!----><rect class="pixel" width="5" height="5" fill="white" stroke="black" stroke-width="0.25" x="16.232395447351628" y="0.5" transform="rotate(112.5 18.732395447351628 18.732395447351628)"></rect><!----><!----><rect class="pixel" width="5" height="5" fill="white" stroke="black" stroke-width="0.25" x="16.232395447351628" y="0.5" transform="rotate(135 18.732395447351628 18.732395447351628)"></rect><!----><!----><rect class="pixel" width="5" height="5" fill="white" stroke="black" stroke-width="0.25" x="16.232395447351628" y="0.5" transform="rotate(157.5 18.732395447351628 18.732395447351628)"></rect><!----><!----><rect class="pixel" width="5" height="5" fill="white" stroke="black" stroke-width="0.25" x="16.232395447351628" y="0.5" transform="rotate(180 18.732395447351628 18.732395447351628)"></rect><!----><!----><rect class="pixel" width="5" height="5" fill="white" stroke="black" stroke-width="0.25" x="16.232395447351628" y="0.5" transform="rotate(202.5 18.732395447351628 18.732395447351628)"></rect><!----><!----><rect class="pixel" width="5" height="5" fill="white" stroke="black" stroke-width="0.25" x="16.232395447351628" y="0.5" transform="rotate(225 18.732395447351628 18.732395447351628)"></rect><!----><!----><rect class="pixel" width="5" height="5" fill="white" stroke="black" stroke-width="0.25" x="16.232395447351628" y="0.5" transform="rotate(247.5 18.732395447351628 18.732395447351628)"></rect><!----><!----><rect class="pixel" width="5" height="5" fill="white" stroke="black" stroke-width="0.25" x="16.232395447351628" y="0.5" transform="rotate(270 18.732395447351628 18.732395447351628)"></rect><!----><!----><rect class="pixel" width="5" height="5" fill="white" stroke="black" stroke-width="0.25" x="16.232395447351628" y="0.5" transform="rotate(292.5 18.732395447351628 18.732395447351628)"></rect><!----><!----><rect class="pixel" width="5" height="5" fill="white" stroke="black" stroke-width="0.25" x="16.232395447351628" y="0.5" transform="rotate(315 18.732395447351628 18.732395447351628)"></rect><!----><!----><rect class="pixel" width="5" height="5" fill="white" stroke="black" stroke-width="0.25" x="16.232395447351628" y="0.5" transform="rotate(337.5 18.732395447351628 18.732395447351628)"></rect><!---->
      </g>
  <g id="pins"><g><circle id="pin-GND" cx="78.76" cy="179.33" r="3.2" fill="#e00" fill-opacity="0.85" stroke="#700" stroke-width="0.5"/><text x="78.76" y="174.33" font-size="5" fill="#a00" text-anchor="middle" font-family="sans-serif">GND</text></g><g><circle id="pin-VCC" cx="88.76" cy="179.33" r="3.2" fill="#e00" fill-opacity="0.85" stroke="#700" stroke-width="0.5"/><text x="88.76" y="174.33" font-size="5" fill="#a00" text-anchor="middle" font-family="sans-serif">VCC</text></g><g><circle id="pin-DIN" cx="98.76" cy="179.33" r="3.2" fill="#e00" fill-opacity="0.85" stroke="#700" stroke-width="0.5"/><text x="98.76" y="174.33" font-size="5" fill="#a00" text-anchor="middle" font-family="sans-serif">DIN</text></g><g><circle id="pin-DOUT" cx="108.76" cy="179.33" r="3.2" fill="#e00" fill-opacity="0.85" stroke="#700" stroke-width="0.5"/><text x="108.76" y="174.33" font-size="5" fill="#a00" text-anchor="middle" font-family="sans-serif">DOUT</text></g></g>
</svg>