<svg xmlns="http://www.w3.org/2000/svg" width="246" height="229" viewBox="0 0 246 229">
  <!-- Retouche brochage neopixel-matrix : déplace chaque pastille rouge sur un CROISEMENT (lignes foncées = 50 px). Garde les id pin-<nom>. Marge 20 px. -->
  <rect width="246" height="229" fill="#fff"/>
  <g id="grid"><line x1="0" y1="0" x2="0" y2="229" stroke="#7fb0ff" stroke-width="0.7"/><line x1="10" y1="0" x2="10" y2="229" stroke="#cfe3ff" stroke-width="0.4"/><line x1="20" y1="0" x2="20" y2="229" stroke="#cfe3ff" stroke-width="0.4"/><line x1="30" y1="0" x2="30" y2="229" stroke="#cfe3ff" stroke-width="0.4"/><line x1="40" y1="0" x2="40" y2="229" stroke="#cfe3ff" stroke-width="0.4"/><line x1="50" y1="0" x2="50" y2="229" stroke="#7fb0ff" stroke-width="0.7"/><line x1="60" y1="0" x2="60" y2="229" stroke="#cfe3ff" stroke-width="0.4"/><line x1="70" y1="0" x2="70" y2="229" stroke="#cfe3ff" stroke-width="0.4"/><line x1="80" y1="0" x2="80" y2="229" stroke="#cfe3ff" stroke-width="0.4"/><line x1="90" y1="0" x2="90" y2="229" stroke="#cfe3ff" stroke-width="0.4"/><line x1="100" y1="0" x2="100" y2="229" stroke="#7fb0ff" stroke-width="0.7"/><line x1="110" y1="0" x2="110" y2="229" stroke="#cfe3ff" stroke-width="0.4"/><line x1="120" y1="0" x2="120" y2="229" stroke="#cfe3ff" stroke-width="0.4"/><line x1="130" y1="0" x2="130" y2="229" stroke="#cfe3ff" stroke-width="0.4"/><line x1="140" y1="0" x2="140" y2="229" stroke="#cfe3ff" stroke-width="0.4"/><line x1="150" y1="0" x2="150" y2="229" stroke="#7fb0ff" stroke-width="0.7"/><line x1="160" y1="0" x2="160" y2="229" stroke="#cfe3ff" stroke-width="0.4"/><line x1="170" y1="0" x2="170" y2="229" stroke="#cfe3ff" stroke-width="0.4"/><line x1="180" y1="0" x2="180" y2="229" stroke="#cfe3ff" stroke-width="0.4"/><line x1="190" y1="0" x2="190" y2="229" stroke="#cfe3ff" stroke-width="0.4"/><line x1="200" y1="0" x2="200" y2="229" stroke="#7fb0ff" stroke-width="0.7"/><line x1="210" y1="0" x2="210" y2="229" stroke="#cfe3ff" stroke-width="0.4"/><line x1="220" y1="0" x2="220" y2="229" stroke="#cfe3ff" stroke-width="0.4"/><line x1="230" y1="0" x2="230" y2="229" stroke="#cfe3ff" stroke-width="0.4"/><line x1="240" y1="0" x2="240" y2="229" stroke="#cfe3ff" stroke-width="0.4"/><line x1="0" y1="0" x2="246" y2="0" stroke="#7fb0ff" stroke-width="0.7"/><line x1="0" y1="10" x2="246" y2="10" stroke="#cfe3ff" stroke-width="0.4"/><line x1="0" y1="20" x2="246" y2="20" stroke="#cfe3ff" stroke-width="0.4"/><line x1="0" y1="30" x2="246" y2="30" stroke="#cfe3ff" stroke-width="0.4"/><line x1="0" y1="40" x2="246" y2="40" stroke="#cfe3ff" stroke-width="0.4"/><line x1="0" y1="50" x2="246" y2="50" stroke="#7fb0ff" stroke-width="0.7"/><line x1="0" y1="60" x2="246" y2="60" stroke="#cfe3ff" stroke-width="0.4"/><line x1="0" y1="70" x2="246" y2="70" stroke="#cfe3ff" stroke-width="0.4"/><line x1="0" y1="80" x2="246" y2="80" stroke="#cfe3ff" stroke-width="0.4"/><line x1="0" y1="90" x2="246" y2="90" stroke="#cfe3ff" stroke-width="0.4"/><line x1="0" y1="100" x2="246" y2="100" stroke="#7fb0ff" stroke-width="0.7"/><line x1="0" y1="110" x2="246" y2="110" stroke="#cfe3ff" stroke-width="0.4"/><line x1="0" y1="120" x2="246" y2="120" stroke="#cfe3ff" stroke-width="0.4"/><line x1="0" y1="130" x2="246" y2="130" stroke="#cfe3ff" stroke-width="0.4"/><line x1="0" y1="140" x2="246" y2="140" stroke="#cfe3ff" stroke-width="0.4"/><line x1="0" y1="150" x2="246" y2="150" stroke="#7fb0ff" stroke-width="0.7"/><line x1="0" y1="160" x2="246" y2="160" stroke="#cfe3ff" stroke-width="0.4"/><line x1="0" y1="170" x2="246" y2="170" stroke="#cfe3ff" stroke-width="0.4"/><line x1="0" y1="180" x2="246" y2="180" stroke="#cfe3ff" stroke-width="0.4"/><line x1="0" y1="190" x2="246" y2="190" stroke="#cfe3ff" stroke-width="0.4"/><line x1="0" y1="200" x2="246" y2="200" stroke="#7fb0ff" stroke-width="0.7"/><line x1="0" y1="210" x2="246" y2="210" stroke="#cfe3ff" stroke-width="0.4"/><line x1="0" y1="220" x2="246" y2="220" stroke="#cfe3ff" stroke-width="0.4"/></g>
  <g id="board" opacity="0.85" transform="translate(20,20) scale(3.9370) translate(0.00,0.00)">
        <filter id="blurLight" x="-0.8" y="-0.8" height="2.8" width="2.8">
          <feGaussianBlur stdDeviation="0.3"></feGaussianBlur>
        </filter>

        <pattern id="pixel" patternUnits="userSpaceOnUse" width="6.66" height="6">
          <rect x=".33308" y="0" width="5" height="5" fill="#fff"></rect>
          <rect x=".016709" y=".4279" width=".35114" height=".9" fill="#eaeaea"></rect>
          <rect x="0" y="3.6518" width=".35114" height=".9" fill="#eaeaea"></rect>
          <rect x="5.312" y="3.6351" width=".35114" height=".9" fill="#eaeaea"></rect>
          <rect x="5.312" y=".3945" width=".35114" height=".9" fill="#eaeaea"></rect>
          <circle cx="2.8331" cy="2.5" r="2.1" fill="#ddd"></circle>
          <circle cx="2.8331" cy="2.5" r="1.7325" fill="#e6e6e6"></circle>
          <g fill="#bfbfbf">
            <path d="m4.3488 3.3308s-0.0889-0.087-0.0889-0.1341c0-0.047-6e-3 -1.1533-6e-3 -1.1533s-0.0591-0.1772-0.2008-0.1772c-0.14174 0-0.81501 0.012-0.81501 0.012s-0.24805 0.024-0.23624 0.3071c0.0118 0.2835 0.032 2.0345 0.032 2.0345 0.54707-0.046 1.0487-0.3494 1.3146-0.8888z"></path>
            <path d="m4.34 1.6405h-1.0805s-0.24325 0.019-0.26204-0.2423l6e-3 -0.6241c0.57782 0.075 1.0332 0.3696 1.3366 0.8706z"></path>
            <path d="m2.7778 2.6103-0.17127 0.124-0.8091-0.012c-0.17122-0.019-0.17062-0.2078-0.17062-0.2078-1e-3 -0.3746 1e-3 -0.2831-9e-3 -0.8122l-0.31248-0.018s0.43453-0.9216 1.4786-0.9174c-1.1e-4 0.6144-4e-3 1.2289-6e-3 1.8434z"></path>
            <path d="m2.7808 3.0828-0.0915-0.095h-0.96857l-0.0915 0.1447-3e-3 0.1127c0 0.065-0.12108 0.08-0.12108 0.08h-0.20909c0.55906 0.9376 1.4867 0.9155 1.4867 0.9155 1e-3 -0.3845-2e-3 -0.7692-2e-3 -1.1537z"></path>
          </g>
          <path d="m4.053 1.8619c-0.14174 0-0.81494 0.013-0.81494 0.013s-0.24797 0.024-0.23616 0.3084c3e-3 0.077 5e-3 0.3235 9e-3 0.5514h1.247c-2e-3 -0.33-4e-3 -0.6942-4e-3 -0.6942s-0.0593-0.1781-0.20102-0.1781z" fill="#666"></path>
        </pattern>
        <rect fill="url(#pixel)" width="52.28" height="47"></rect>
        <g style=""><!--?lit$830839110$--><!---->
        <g class="pixel" transform="translate(0, 0)">
          <ellipse cx="2.5" cy="2.3" rx="0.3" ry="0.3" fill="red" opacity="0"></ellipse>
          <ellipse cx="3.5" cy="3.2" rx="0.3" ry="0.3" fill="green" opacity="0"></ellipse>
          <ellipse cx="3.3" cy="1.45" rx="0.3" ry="0.3" fill="blue" opacity="0"></ellipse>
          <ellipse cx="3" cy="2.5" rx="2.2" ry="2.2" opacity="0"></ellipse>
        </g><!----><!---->
        <g class="pixel" transform="translate(6.66, 0)">
          <ellipse cx="2.5" cy="2.3" rx="0.3" ry="0.3" fill="red" opacity="0"></ellipse>
          <ellipse cx="3.5" cy="3.2" rx="0.3" ry="0.3" fill="green" opacity="0"></ellipse>
          <ellipse cx="3.3" cy="1.45" rx="0.3" ry="0.3" fill="blue" opacity="0"></ellipse>
          <ellipse cx="3" cy="2.5" rx="2.2" ry="2.2" opacity="0"></ellipse>
        </g><!----><!---->
        <g class="pixel" transform="translate(13.32, 0)">
          <ellipse cx="2.5" cy="2.3" rx="0.3" ry="0.3" fill="red" opacity="0"></ellipse>
          <ellipse cx="3.5" cy="3.2" rx="0.3" ry="0.3" fill="green" opacity="0"></ellipse>
          <ellipse cx="3.3" cy="1.45" rx="0.3" ry="0.3" fill="blue" opacity="0"></ellipse>
          <ellipse cx="3" cy="2.5" rx="2.2" ry="2.2" opacity="0"></ellipse>
        </g><!----><!---->
        <g class="pixel" transform="translate(19.98, 0)">
          <ellipse cx="2.5" cy="2.3" rx="0.3" ry="0.3" fill="red" opacity="0"></ellipse>
          <ellipse cx="3.5" cy="3.2" rx="0.3" ry="0.3" fill="green" opacity="0"></ellipse>
          <ellipse cx="3.3" cy="1.45" rx="0.3" ry="0.3" fill="blue" opacity="0"></ellipse>
          <ellipse cx="3" cy="2.5" rx="2.2" ry="2.2" opacity="0"></ellipse>
        </g><!----><!---->
        <g class="pixel" transform="translate(26.64, 0)">
          <ellipse cx="2.5" cy="2.3" rx="0.3" ry="0.3" fill="red" opacity="0"></ellipse>
          <ellipse cx="3.5" cy="3.2" rx="0.3" ry="0.3" fill="green" opacity="0"></ellipse>
          <ellipse cx="3.3" cy="1.45" rx="0.3" ry="0.3" fill="blue" opacity="0"></ellipse>
          <ellipse cx="3" cy="2.5" rx="2.2" ry="2.2" opacity="0"></ellipse>
        </g><!----><!---->
        <g class="pixel" transform="translate(33.3, 0)">
          <ellipse cx="2.5" cy="2.3" rx="0.3" ry="0.3" fill="red" opacity="0"></ellipse>
          <ellipse cx="3.5" cy="3.2" rx="0.3" ry="0.3" fill="green" opacity="0"></ellipse>
          <ellipse cx="3.3" cy="1.45" rx="0.3" ry="0.3" fill="blue" opacity="0"></ellipse>
          <ellipse cx="3" cy="2.5" rx="2.2" ry="2.2" opacity="0"></ellipse>
        </g><!----><!---->
        <g class="pixel" transform="translate(39.96, 0)">
          <ellipse cx="2.5" cy="2.3" rx="0.3" ry="0.3" fill="red" opacity="0"></ellipse>
          <ellipse cx="3.5" cy="3.2" rx="0.3" ry="0.3" fill="green" opacity="0"></ellipse>
          <ellipse cx="3.3" cy="1.45" rx="0.3" ry="0.3" fill="blue" opacity="0"></ellipse>
          <ellipse cx="3" cy="2.5" rx="2.2" ry="2.2" opacity="0"></ellipse>
        </g><!----><!---->
        <g class="pixel" transform="translate(46.620000000000005, 0)">
          <ellipse cx="2.5" cy="2.3" rx="0.3" ry="0.3" fill="red" opacity="0"></ellipse>
          <ellipse cx="3.5" cy="3.2" rx="0.3" ry="0.3" fill="green" opacity="0"></ellipse>
          <ellipse cx="3.3" cy="1.45" rx="0.3" ry="0.3" fill="blue" opacity="0"></ellipse>
          <ellipse cx="3" cy="2.5" rx="2.2" ry="2.2" opacity="0"></ellipse>
        </g><!----><!---->
        <g class="pixel" transform="translate(0, 6)">
          <ellipse cx="2.5" cy="2.3" rx="0.3" ry="0.3" fill="red" opacity="0"></ellipse>
          <ellipse cx="3.5" cy="3.2" rx="0.3" ry="0.3" fill="green" opacity="0"></ellipse>
          <ellipse cx="3.3" cy="1.45" rx="0.3" ry="0.3" fill="blue" opacity="0"></ellipse>
          <ellipse cx="3" cy="2.5" rx="2.2" ry="2.2" opacity="0"></ellipse>
        </g><!----><!---->
        <g class="pixel" transform="translate(6.66, 6)">
          <ellipse cx="2.5" cy="2.3" rx="0.3" ry="0.3" fill="red" opacity="0"></ellipse>
          <ellipse cx="3.5" cy="3.2" rx="0.3" ry="0.3" fill="green" opacity="0"></ellipse>
          <ellipse cx="3.3" cy="1.45" rx="0.3" ry="0.3" fill="blue" opacity="0"></ellipse>
          <ellipse cx="3" cy="2.5" rx="2.2" ry="2.2" opacity="0"></ellipse>
        </g><!----><!---->
        <g class="pixel" transform="translate(13.32, 6)">
          <ellipse cx="2.5" cy="2.3" rx="0.3" ry="0.3" fill="red" opacity="0"></ellipse>
          <ellipse cx="3.5" cy="3.2" rx="0.3" ry="0.3" fill="green" opacity="0"></ellipse>
          <ellipse cx="3.3" cy="1.45" rx="0.3" ry="0.3" fill="blue" opacity="0"></ellipse>
          <ellipse cx="3" cy="2.5" rx="2.2" ry="2.2" opacity="0"></ellipse>
        </g><!----><!---->
        <g class="pixel" transform="translate(19.98, 6)">
          <ellipse cx="2.5" cy="2.3" rx="0.3" ry="0.3" fill="red" opacity="0"></ellipse>
          <ellipse cx="3.5" cy="3.2" rx="0.3" ry="0.3" fill="green" opacity="0"></ellipse>
          <ellipse cx="3.3" cy="1.45" rx="0.3" ry="0.3" fill="blue" opacity="0"></ellipse>
          <ellipse cx="3" cy="2.5" rx="2.2" ry="2.2" opacity="0"></ellipse>
        </g><!----><!---->
        <g class="pixel" transform="translate(26.64, 6)">
          <ellipse cx="2.5" cy="2.3" rx="0.3" ry="0.3" fill="red" opacity="0"></ellipse>
          <ellipse cx="3.5" cy="3.2" rx="0.3" ry="0.3" fill="green" opacity="0"></ellipse>
          <ellipse cx="3.3" cy="1.45" rx="0.3" ry="0.3" fill="blue" opacity="0"></ellipse>
          <ellipse cx="3" cy="2.5" rx="2.2" ry="2.2" opacity="0"></ellipse>
        </g><!----><!---->
        <g class="pixel" transform="translate(33.3, 6)">
          <ellipse cx="2.5" cy="2.3" rx="0.3" ry="0.3" fill="red" opacity="0"></ellipse>
          <ellipse cx="3.5" cy="3.2" rx="0.3" ry="0.3" fill="green" opacity="0"></ellipse>
          <ellipse cx="3.3" cy="1.45" rx="0.3" ry="0.3" fill="blue" opacity="0"></ellipse>
          <ellipse cx="3" cy="2.5" rx="2.2" ry="2.2" opacity="0"></ellipse>
        </g><!----><!---->
        <g class="pixel" transform="translate(39.96, 6)">
          <ellipse cx="2.5" cy="2.3" rx="0.3" ry="0.3" fill="red" opacity="0"></ellipse>
          <ellipse cx="3.5" cy="3.2" rx="0.3" ry="0.3" fill="green" opacity="0"></ellipse>
          <ellipse cx="3.3" cy="1.45" rx="0.3" ry="0.3" fill="blue" opacity="0"></ellipse>
          <ellipse cx="3" cy="2.5" rx="2.2" ry="2.2" opacity="0"></ellipse>
        </g><!----><!---->
        <g class="pixel" transform="translate(46.620000000000005, 6)">
          <ellipse cx="2.5" cy="2.3" rx="0.3" ry="0.3" fill="red" opacity="0"></ellipse>
          <ellipse cx="3.5" cy="3.2" rx="0.3" ry="0.3" fill="green" opacity="0"></ellipse>
          <ellipse cx="3.3" cy="1.45" rx="0.3" ry="0.3" fill="blue" opacity="0"></ellipse>
          <ellipse cx="3" cy="2.5" rx="2.2" ry="2.2" opacity="0"></ellipse>
        </g><!----><!---->
        <g class="pixel" transform="translate(0, 12)">
          <ellipse cx="2.5" cy="2.3" rx="0.3" ry="0.3" fill="red" opacity="0"></ellipse>
          <ellipse cx="3.5" cy="3.2" rx="0.3" ry="0.3" fill="green" opacity="0"></ellipse>
          <ellipse cx="3.3" cy="1.45" rx="0.3" ry="0.3" fill="blue" opacity="0"></ellipse>
          <ellipse cx="3" cy="2.5" rx="2.2" ry="2.2" opacity="0"></ellipse>
        </g><!----><!---->
        <g class="pixel" transform="translate(6.66, 12)">
          <ellipse cx="2.5" cy="2.3" rx="0.3" ry="0.3" fill="red" opacity="0"></ellipse>
          <ellipse cx="3.5" cy="3.2" rx="0.3" ry="0.3" fill="green" opacity="0"></ellipse>
          <ellipse cx="3.3" cy="1.45" rx="0.3" ry="0.3" fill="blue" opacity="0"></ellipse>
          <ellipse cx="3" cy="2.5" rx="2.2" ry="2.2" opacity="0"></ellipse>
        </g><!----><!---->
        <g class="pixel" transform="translate(13.32, 12)">
          <ellipse cx="2.5" cy="2.3" rx="0.3" ry="0.3" fill="red" opacity="0"></ellipse>
          <ellipse cx="3.5" cy="3.2" rx="0.3" ry="0.3" fill="green" opacity="0"></ellipse>
          <ellipse cx="3.3" cy="1.45" rx="0.3" ry="0.3" fill="blue" opacity="0"></ellipse>
          <ellipse cx="3" cy="2.5" rx="2.2" ry="2.2" opacity="0"></ellipse>
        </g><!----><!---->
        <g class="pixel" transform="translate(19.98, 12)">
          <ellipse cx="2.5" cy="2.3" rx="0.3" ry="0.3" fill="red" opacity="0"></ellipse>
          <ellipse cx="3.5" cy="3.2" rx="0.3" ry="0.3" fill="green" opacity="0"></ellipse>
          <ellipse cx="3.3" cy="1.45" rx="0.3" ry="0.3" fill="blue" opacity="0"></ellipse>
          <ellipse cx="3" cy="2.5" rx="2.2" ry="2.2" opacity="0"></ellipse>
        </g><!----><!---->
        <g class="pixel" transform="translate(26.64, 12)">
          <ellipse cx="2.5" cy="2.3" rx="0.3" ry="0.3" fill="red" opacity="0"></ellipse>
          <ellipse cx="3.5" cy="3.2" rx="0.3" ry="0.3" fill="green" opacity="0"></ellipse>
          <ellipse cx="3.3" cy="1.45" rx="0.3" ry="0.3" fill="blue" opacity="0"></ellipse>
          <ellipse cx="3" cy="2.5" rx="2.2" ry="2.2" opacity="0"></ellipse>
        </g><!----><!---->
        <g class="pixel" transform="translate(33.3, 12)">
          <ellipse cx="2.5" cy="2.3" rx="0.3" ry="0.3" fill="red" opacity="0"></ellipse>
          <ellipse cx="3.5" cy="3.2" rx="0.3" ry="0.3" fill="green" opacity="0"></ellipse>
          <ellipse cx="3.3" cy="1.45" rx="0.3" ry="0.3" fill="blue" opacity="0"></ellipse>
          <ellipse cx="3" cy="2.5" rx="2.2" ry="2.2" opacity="0"></ellipse>
        </g><!----><!---->
        <g class="pixel" transform="translate(39.96, 12)">
          <ellipse cx="2.5" cy="2.3" rx="0.3" ry="0.3" fill="red" opacity="0"></ellipse>
          <ellipse cx="3.5" cy="3.2" rx="0.3" ry="0.3" fill="green" opacity="0"></ellipse>
          <ellipse cx="3.3" cy="1.45" rx="0.3" ry="0.3" fill="blue" opacity="0"></ellipse>
          <ellipse cx="3" cy="2.5" rx="2.2" ry="2.2" opacity="0"></ellipse>
        </g><!----><!---->
        <g class="pixel" transform="translate(46.620000000000005, 12)">
          <ellipse cx="2.5" cy="2.3" rx="0.3" ry="0.3" fill="red" opacity="0"></ellipse>
          <ellipse cx="3.5" cy="3.2" rx="0.3" ry="0.3" fill="green" opacity="0"></ellipse>
          <ellipse cx="3.3" cy="1.45" rx="0.3" ry="0.3" fill="blue" opacity="0"></ellipse>
          <ellipse cx="3" cy="2.5" rx="2.2" ry="2.2" opacity="0"></ellipse>
        </g><!----><!---->
        <g class="pixel" transform="translate(0, 18)">
          <ellipse cx="2.5" cy="2.3" rx="0.3" ry="0.3" fill="red" opacity="0"></ellipse>
          <ellipse cx="3.5" cy="3.2" rx="0.3" ry="0.3" fill="green" opacity="0"></ellipse>
          <ellipse cx="3.3" cy="1.45" rx="0.3" ry="0.3" fill="blue" opacity="0"></ellipse>
          <ellipse cx="3" cy="2.5" rx="2.2" ry="2.2" opacity="0"></ellipse>
        </g><!----><!---->
        <g class="pixel" transform="translate(6.66, 18)">
          <ellipse cx="2.5" cy="2.3" rx="0.3" ry="0.3" fill="red" opacity="0"></ellipse>
          <ellipse cx="3.5" cy="3.2" rx="0.3" ry="0.3" fill="green" opacity="0"></ellipse>
          <ellipse cx="3.3" cy="1.45" rx="0.3" ry="0.3" fill="blue" opacity="0"></ellipse>
          <ellipse cx="3" cy="2.5" rx="2.2" ry="2.2" opacity="0"></ellipse>
        </g><!----><!---->
        <g class="pixel" transform="translate(13.32, 18)">
          <ellipse cx="2.5" cy="2.3" rx="0.3" ry="0.3" fill="red" opacity="0"></ellipse>
          <ellipse cx="3.5" cy="3.2" rx="0.3" ry="0.3" fill="green" opacity="0"></ellipse>
          <ellipse cx="3.3" cy="1.45" rx="0.3" ry="0.3" fill="blue" opacity="0"></ellipse>
          <ellipse cx="3" cy="2.5" rx="2.2" ry="2.2" opacity="0"></ellipse>
        </g><!----><!---->
        <g class="pixel" transform="translate(19.98, 18)">
          <ellipse cx="2.5" cy="2.3" rx="0.3" ry="0.3" fill="red" opacity="0"></ellipse>
          <ellipse cx="3.5" cy="3.2" rx="0.3" ry="0.3" fill="green" opacity="0"></ellipse>
          <ellipse cx="3.3" cy="1.45" rx="0.3" ry="0.3" fill="blue" opacity="0"></ellipse>
          <ellipse cx="3" cy="2.5" rx="2.2" ry="2.2" opacity="0"></ellipse>
        </g><!----><!---->
        <g class="pixel" transform="translate(26.64, 18)">
          <ellipse cx="2.5" cy="2.3" rx="0.3" ry="0.3" fill="red" opacity="0"></ellipse>
          <ellipse cx="3.5" cy="3.2" rx="0.3" ry="0.3" fill="green" opacity="0"></ellipse>
          <ellipse cx="3.3" cy="1.45" rx="0.3" ry="0.3" fill="blue" opacity="0"></ellipse>
          <ellipse cx="3" cy="2.5" rx="2.2" ry="2.2" opacity="0"></ellipse>
        </g><!----><!---->
        <g class="pixel" transform="translate(33.3, 18)">
          <ellipse cx="2.5" cy="2.3" rx="0.3" ry="0.3" fill="red" opacity="0"></ellipse>
          <ellipse cx="3.5" cy="3.2" rx="0.3" ry="0.3" fill="green" opacity="0"></ellipse>
          <ellipse cx="3.3" cy="1.45" rx="0.3" ry="0.3" fill="blue" opacity="0"></ellipse>
          <ellipse cx="3" cy="2.5" rx="2.2" ry="2.2" opacity="0"></ellipse>
        </g><!----><!---->
        <g class="pixel" transform="translate(39.96, 18)">
          <ellipse cx="2.5" cy="2.3" rx="0.3" ry="0.3" fill="red" opacity="0"></ellipse>
          <ellipse cx="3.5" cy="3.2" rx="0.3" ry="0.3" fill="green" opacity="0"></ellipse>
          <ellipse cx="3.3" cy="1.45" rx="0.3" ry="0.3" fill="blue" opacity="0"></ellipse>
          <ellipse cx="3" cy="2.5" rx="2.2" ry="2.2" opacity="0"></ellipse>
        </g><!----><!---->
        <g class="pixel" transform="translate(46.620000000000005, 18)">
          <ellipse cx="2.5" cy="2.3" rx="0.3" ry="0.3" fill="red" opacity="0"></ellipse>
          <ellipse cx="3.5" cy="3.2" rx="0.3" ry="0.3" fill="green" opacity="0"></ellipse>
          <ellipse cx="3.3" cy="1.45" rx="0.3" ry="0.3" fill="blue" opacity="0"></ellipse>
          <ellipse cx="3" cy="2.5" rx="2.2" ry="2.2" opacity="0"></ellipse>
        </g><!----><!---->
        <g class="pixel" transform="translate(0, 24)">
          <ellipse cx="2.5" cy="2.3" rx="0.3" ry="0.3" fill="red" opacity="0"></ellipse>
          <ellipse cx="3.5" cy="3.2" rx="0.3" ry="0.3" fill="green" opacity="0"></ellipse>
          <ellipse cx="3.3" cy="1.45" rx="0.3" ry="0.3" fill="blue" opacity="0"></ellipse>
          <ellipse cx="3" cy="2.5" rx="2.2" ry="2.2" opacity="0"></ellipse>
        </g><!----><!---->
        <g class="pixel" transform="translate(6.66, 24)">
          <ellipse cx="2.5" cy="2.3" rx="0.3" ry="0.3" fill="red" opacity="0"></ellipse>
          <ellipse cx="3.5" cy="3.2" rx="0.3" ry="0.3" fill="green" opacity="0"></ellipse>
          <ellipse cx="3.3" cy="1.45" rx="0.3" ry="0.3" fill="blue" opacity="0"></ellipse>
          <ellipse cx="3" cy="2.5" rx="2.2" ry="2.2" opacity="0"></ellipse>
        </g><!----><!---->
        <g class="pixel" transform="translate(13.32, 24)">
          <ellipse cx="2.5" cy="2.3" rx="0.3" ry="0.3" fill="red" opacity="0"></ellipse>
          <ellipse cx="3.5" cy="3.2" rx="0.3" ry="0.3" fill="green" opacity="0"></ellipse>
          <ellipse cx="3.3" cy="1.45" rx="0.3" ry="0.3" fill="blue" opacity="0"></ellipse>
          <ellipse cx="3" cy="2.5" rx="2.2" ry="2.2" opacity="0"></ellipse>
        </g><!----><!---->
        <g class="pixel" transform="translate(19.98, 24)">
          <ellipse cx="2.5" cy="2.3" rx="0.3" ry="0.3" fill="red" opacity="0"></ellipse>
          <ellipse cx="3.5" cy="3.2" rx="0.3" ry="0.3" fill="green" opacity="0"></ellipse>
          <ellipse cx="3.3" cy="1.45" rx="0.3" ry="0.3" fill="blue" opacity="0"></ellipse>
          <ellipse cx="3" cy="2.5" rx="2.2" ry="2.2" opacity="0"></ellipse>
        </g><!----><!---->
        <g class="pixel" transform="translate(26.64, 24)">
          <ellipse cx="2.5" cy="2.3" rx="0.3" ry="0.3" fill="red" opacity="0"></ellipse>
          <ellipse cx="3.5" cy="3.2" rx="0.3" ry="0.3" fill="green" opacity="0"></ellipse>
          <ellipse cx="3.3" cy="1.45" rx="0.3" ry="0.3" fill="blue" opacity="0"></ellipse>
          <ellipse cx="3" cy="2.5" rx="2.2" ry="2.2" opacity="0"></ellipse>
        </g><!----><!---->
        <g class="pixel" transform="translate(33.3, 24)">
          <ellipse cx="2.5" cy="2.3" rx="0.3" ry="0.3" fill="red" opacity="0"></ellipse>
          <ellipse cx="3.5" cy="3.2" rx="0.3" ry="0.3" fill="green" opacity="0"></ellipse>
          <ellipse cx="3.3" cy="1.45" rx="0.3" ry="0.3" fill="blue" opacity="0"></ellipse>
          <ellipse cx="3" cy="2.5" rx="2.2" ry="2.2" opacity="0"></ellipse>
        </g><!----><!---->
        <g class="pixel" transform="translate(39.96, 24)">
          <ellipse cx="2.5" cy="2.3" rx="0.3" ry="0.3" fill="red" opacity="0"></ellipse>
          <ellipse cx="3.5" cy="3.2" rx="0.3" ry="0.3" fill="green" opacity="0"></ellipse>
          <ellipse cx="3.3" cy="1.45" rx="0.3" ry="0.3" fill="blue" opacity="0"></ellipse>
          <ellipse cx="3" cy="2.5" rx="2.2" ry="2.2" opacity="0"></ellipse>
        </g><!----><!---->
        <g class="pixel" transform="translate(46.620000000000005, 24)">
          <ellipse cx="2.5" cy="2.3" rx="0.3" ry="0.3" fill="red" opacity="0"></ellipse>
          <ellipse cx="3.5" cy="3.2" rx="0.3" ry="0.3" fill="green" opacity="0"></ellipse>
          <ellipse cx="3.3" cy="1.45" rx="0.3" ry="0.3" fill="blue" opacity="0"></ellipse>
          <ellipse cx="3" cy="2.5" rx="2.2" ry="2.2" opacity="0"></ellipse>
        </g><!----><!---->
        <g class="pixel" transform="translate(0, 30)">
          <ellipse cx="2.5" cy="2.3" rx="0.3" ry="0.3" fill="red" opacity="0"></ellipse>
          <ellipse cx="3.5" cy="3.2" rx="0.3" ry="0.3" fill="green" opacity="0"></ellipse>
          <ellipse cx="3.3" cy="1.45" rx="0.3" ry="0.3" fill="blue" opacity="0"></ellipse>
          <ellipse cx="3" cy="2.5" rx="2.2" ry="2.2" opacity="0"></ellipse>
        </g><!----><!---->
        <g class="pixel" transform="translate(6.66, 30)">
          <ellipse cx="2.5" cy="2.3" rx="0.3" ry="0.3" fill="red" opacity="0"></ellipse>
          <ellipse cx="3.5" cy="3.2" rx="0.3" ry="0.3" fill="green" opacity="0"></ellipse>
          <ellipse cx="3.3" cy="1.45" rx="0.3" ry="0.3" fill="blue" opacity="0"></ellipse>
          <ellipse cx="3" cy="2.5" rx="2.2" ry="2.2" opacity="0"></ellipse>
        </g><!----><!---->
        <g class="pixel" transform="translate(13.32, 30)">
          <ellipse cx="2.5" cy="2.3" rx="0.3" ry="0.3" fill="red" opacity="0"></ellipse>
          <ellipse cx="3.5" cy="3.2" rx="0.3" ry="0.3" fill="green" opacity="0"></ellipse>
          <ellipse cx="3.3" cy="1.45" rx="0.3" ry="0.3" fill="blue" opacity="0"></ellipse>
          <ellipse cx="3" cy="2.5" rx="2.2" ry="2.2" opacity="0"></ellipse>
        </g><!----><!---->
        <g class="pixel" transform="translate(19.98, 30)">
          <ellipse cx="2.5" cy="2.3" rx="0.3" ry="0.3" fill="red" opacity="0"></ellipse>
          <ellipse cx="3.5" cy="3.2" rx="0.3" ry="0.3" fill="green" opacity="0"></ellipse>
          <ellipse cx="3.3" cy="1.45" rx="0.3" ry="0.3" fill="blue" opacity="0"></ellipse>
          <ellipse cx="3" cy="2.5" rx="2.2" ry="2.2" opacity="0"></ellipse>
        </g><!----><!---->
        <g class="pixel" transform="translate(26.64, 30)">
          <ellipse cx="2.5" cy="2.3" rx="0.3" ry="0.3" fill="red" opacity="0"></ellipse>
          <ellipse cx="3.5" cy="3.2" rx="0.3" ry="0.3" fill="green" opacity="0"></ellipse>
          <ellipse cx="3.3" cy="1.45" rx="0.3" ry="0.3" fill="blue" opacity="0"></ellipse>
          <ellipse cx="3" cy="2.5" rx="2.2" ry="2.2" opacity="0"></ellipse>
        </g><!----><!---->
        <g class="pixel" transform="translate(33.3, 30)">
          <ellipse cx="2.5" cy="2.3" rx="0.3" ry="0.3" fill="red" opacity="0"></ellipse>
          <ellipse cx="3.5" cy="3.2" rx="0.3" ry="0.3" fill="green" opacity="0"></ellipse>
          <ellipse cx="3.3" cy="1.45" rx="0.3" ry="0.3" fill="blue" opacity="0"></ellipse>
          <ellipse cx="3" cy="2.5" rx="2.2" ry="2.2" opacity="0"></ellipse>
        </g><!----><!---->
        <g class="pixel" transform="translate(39.96, 30)">
          <ellipse cx="2.5" cy="2.3" rx="0.3" ry="0.3" fill="red" opacity="0"></ellipse>
          <ellipse cx="3.5" cy="3.2" rx="0.3" ry="0.3" fill="green" opacity="0"></ellipse>
          <ellipse cx="3.3" cy="1.45" rx="0.3" ry="0.3" fill="blue" opacity="0"></ellipse>
          <ellipse cx="3" cy="2.5" rx="2.2" ry="2.2" opacity="0"></ellipse>
        </g><!----><!---->
        <g class="pixel" transform="translate(46.620000000000005, 30)">
          <ellipse cx="2.5" cy="2.3" rx="0.3" ry="0.3" fill="red" opacity="0"></ellipse>
          <ellipse cx="3.5" cy="3.2" rx="0.3" ry="0.3" fill="green" opacity="0"></ellipse>
          <ellipse cx="3.3" cy="1.45" rx="0.3" ry="0.3" fill="blue" opacity="0"></ellipse>
          <ellipse cx="3" cy="2.5" rx="2.2" ry="2.2" opacity="0"></ellipse>
        </g><!----><!---->
        <g class="pixel" transform="translate(0, 36)">
          <ellipse cx="2.5" cy="2.3" rx="0.3" ry="0.3" fill="red" opacity="0"></ellipse>
          <ellipse cx="3.5" cy="3.2" rx="0.3" ry="0.3" fill="green" opacity="0"></ellipse>
          <ellipse cx="3.3" cy="1.45" rx="0.3" ry="0.3" fill="blue" opacity="0"></ellipse>
          <ellipse cx="3" cy="2.5" rx="2.2" ry="2.2" opacity="0"></ellipse>
        </g><!----><!---->
        <g class="pixel" transform="translate(6.66, 36)">
          <ellipse cx="2.5" cy="2.3" rx="0.3" ry="0.3" fill="red" opacity="0"></ellipse>
          <ellipse cx="3.5" cy="3.2" rx="0.3" ry="0.3" fill="green" opacity="0"></ellipse>
          <ellipse cx="3.3" cy="1.45" rx="0.3" ry="0.3" fill="blue" opacity="0"></ellipse>
          <ellipse cx="3" cy="2.5" rx="2.2" ry="2.2" opacity="0"></ellipse>
        </g><!----><!---->
        <g class="pixel" transform="translate(13.32, 36)">
          <ellipse cx="2.5" cy="2.3" rx="0.3" ry="0.3" fill="red" opacity="0"></ellipse>
          <ellipse cx="3.5" cy="3.2" rx="0.3" ry="0.3" fill="green" opacity="0"></ellipse>
          <ellipse cx="3.3" cy="1.45" rx="0.3" ry="0.3" fill="blue" opacity="0"></ellipse>
          <ellipse cx="3" cy="2.5" rx="2.2" ry="2.2" opacity="0"></ellipse>
        </g><!----><!---->
        <g class="pixel" transform="translate(19.98, 36)">
          <ellipse cx="2.5" cy="2.3" rx="0.3" ry="0.3" fill="red" opacity="0"></ellipse>
          <ellipse cx="3.5" cy="3.2" rx="0.3" ry="0.3" fill="green" opacity="0"></ellipse>
          <ellipse cx="3.3" cy="1.45" rx="0.3" ry="0.3" fill="blue" opacity="0"></ellipse>
          <ellipse cx="3" cy="2.5" rx="2.2" ry="2.2" opacity="0"></ellipse>
        </g><!----><!---->
        <g class="pixel" transform="translate(26.64, 36)">
          <ellipse cx="2.5" cy="2.3" rx="0.3" ry="0.3" fill="red" opacity="0"></ellipse>
          <ellipse cx="3.5" cy="3.2" rx="0.3" ry="0.3" fill="green" opacity="0"></ellipse>
          <ellipse cx="3.3" cy="1.45" rx="0.3" ry="0.3" fill="blue" opacity="0"></ellipse>
          <ellipse cx="3" cy="2.5" rx="2.2" ry="2.2" opacity="0"></ellipse>
        </g><!----><!---->
        <g class="pixel" transform="translate(33.3, 36)">
          <ellipse cx="2.5" cy="2.3" rx="0.3" ry="0.3" fill="red" opacity="0"></ellipse>
          <ellipse cx="3.5" cy="3.2" rx="0.3" ry="0.3" fill="green" opacity="0"></ellipse>
          <ellipse cx="3.3" cy="1.45" rx="0.3" ry="0.3" fill="blue" opacity="0"></ellipse>
          <ellipse cx="3" cy="2.5" rx="2.2" ry="2.2" opacity="0"></ellipse>
        </g><!----><!---->
        <g class="pixel" transform="translate(39.96, 36)">
          <ellipse cx="2.5" cy="2.3" rx="0.3" ry="0.3" fill="red" opacity="0"></ellipse>
          <ellipse cx="3.5" cy="3.2" rx="0.3" ry="0.3" fill="green" opacity="0"></ellipse>
          <ellipse cx="3.3" cy="1.45" rx="0.3" ry="0.3" fill="blue" opacity="0"></ellipse>
          <ellipse cx="3" cy="2.5" rx="2.2" ry="2.2" opacity="0"></ellipse>
        </g><!----><!---->
        <g class="pixel" transform="translate(46.620000000000005, 36)">
          <ellipse cx="2.5" cy="2.3" rx="0.3" ry="0.3" fill="red" opacity="0"></ellipse>
          <ellipse cx="3.5" cy="3.2" rx="0.3" ry="0.3" fill="green" opacity="0"></ellipse>
          <ellipse cx="3.3" cy="1.45" rx="0.3" ry="0.3" fill="blue" opacity="0"></ellipse>
          <ellipse cx="3" cy="2.5" rx="2.2" ry="2.2" opacity="0"></ellipse>
        </g><!----><!---->
        <g class="pixel" transform="translate(0, 42)">
          <ellipse cx="2.5" cy="2.3" rx="0.3" ry="0.3" fill="red" opacity="0"></ellipse>
          <ellipse cx="3.5" cy="3.2" rx="0.3" ry="0.3" fill="green" opacity="0"></ellipse>
          <ellipse cx="3.3" cy="1.45" rx="0.3" ry="0.3" fill="blue" opacity="0"></ellipse>
          <ellipse cx="3" cy="2.5" rx="2.2" ry="2.2" opacity="0"></ellipse>
        </g><!----><!---->
        <g class="pixel" transform="translate(6.66, 42)">
          <ellipse cx="2.5" cy="2.3" rx="0.3" ry="0.3" fill="red" opacity="0"></ellipse>
          <ellipse cx="3.5" cy="3.2" rx="0.3" ry="0.3" fill="green" opacity="0"></ellipse>
          <ellipse cx="3.3" cy="1.45" rx="0.3" ry="0.3" fill="blue" opacity="0"></ellipse>
          <ellipse cx="3" cy="2.5" rx="2.2" ry="2.2" opacity="0"></ellipse>
        </g><!----><!---->
        <g class="pixel" transform="translate(13.32, 42)">
          <ellipse cx="2.5" cy="2.3" rx="0.3" ry="0.3" fill="red" opacity="0"></ellipse>
          <ellipse cx="3.5" cy="3.2" rx="0.3" ry="0.3" fill="green" opacity="0"></ellipse>
          <ellipse cx="3.3" cy="1.45" rx="0.3" ry="0.3" fill="blue" opacity="0"></ellipse>
          <ellipse cx="3" cy="2.5" rx="2.2" ry="2.2" opacity="0"></ellipse>
        </g><!----><!---->
        <g class="pixel" transform="translate(19.98, 42)">
          <ellipse cx="2.5" cy="2.3" rx="0.3" ry="0.3" fill="red" opacity="0"></ellipse>
          <ellipse cx="3.5" cy="3.2" rx="0.3" ry="0.3" fill="green" opacity="0"></ellipse>
          <ellipse cx="3.3" cy="1.45" rx="0.3" ry="0.3" fill="blue" opacity="0"></ellipse>
          <ellipse cx="3" cy="2.5" rx="2.2" ry="2.2" opacity="0"></ellipse>
        </g><!----><!---->
        <g class="pixel" transform="translate(26.64, 42)">
          <ellipse cx="2.5" cy="2.3" rx="0.3" ry="0.3" fill="red" opacity="0"></ellipse>
          <ellipse cx="3.5" cy="3.2" rx="0.3" ry="0.3" fill="green" opacity="0"></ellipse>
          <ellipse cx="3.3" cy="1.45" rx="0.3" ry="0.3" fill="blue" opacity="0"></ellipse>
          <ellipse cx="3" cy="2.5" rx="2.2" ry="2.2" opacity="0"></ellipse>
        </g><!----><!---->
        <g class="pixel" transform="translate(33.3, 42)">
          <ellipse cx="2.5" cy="2.3" rx="0.3" ry="0.3" fill="red" opacity="0"></ellipse>
          <ellipse cx="3.5" cy="3.2" rx="0.3" ry="0.3" fill="green" opacity="0"></ellipse>
          <ellipse cx="3.3" cy="1.45" rx="0.3" ry="0.3" fill="blue" opacity="0"></ellipse>
          <ellipse cx="3" cy="2.5" rx="2.2" ry="2.2" opacity="0"></ellipse>
        </g><!----><!---->
        <g class="pixel" transform="translate(39.96, 42)">
          <ellipse cx="2.5" cy="2.3" rx="0.3" ry="0.3" fill="red" opacity="0"></ellipse>
          <ellipse cx="3.5" cy="3.2" rx="0.3" ry="0.3" fill="green" opacity="0"></ellipse>
          <ellipse cx="3.3" cy="1.45" rx="0.3" ry="0.3" fill="blue" opacity="0"></ellipse>
          <ellipse cx="3" cy="2.5" rx="2.2" ry="2.2" opacity="0"></ellipse>
        </g><!----><!---->
        <g class="pixel" transform="translate(46.620000000000005, 42)">
          <ellipse cx="2.5" cy="2.3" rx="0.3" ry="0.3" fill="red" opacity="0"></ellipse>
          <ellipse cx="3.5" cy="3.2" rx="0.3" ry="0.3" fill="green" opacity="0"></ellipse>
          <ellipse cx="3.3" cy="1.45" rx="0.3" ry="0.3" fill="blue" opacity="0"></ellipse>
          <ellipse cx="3" cy="2.5" rx="2.2" ry="2.2" opacity="0"></ellipse>
        </g><!----></g>
      </g>
  <g id="pins"><g><circle id="pin-GND" cx="109.89" cy="209.00" r="3.2" fill="#e00" fill-opacity="0.85" stroke="#700" stroke-width="0.5"/><text x="109.89" y="204.00" font-size="5" fill="#a00" text-anchor="middle" font-family="sans-serif">GND</text></g><g><circle id="pin-VCC" cx="119.89" cy="209.00" r="3.2" fill="#e00" fill-opacity="0.85" stroke="#700" stroke-width="0.5"/><text x="119.89" y="204.00" font-size="5" fill="#a00" text-anchor="middle" font-family="sans-serif">VCC</text></g><g><circle id="pin-DIN" cx="129.90" cy="209.00" r="3.2" fill="#e00" fill-opacity="0.85" stroke="#700" stroke-width="0.5"/><text x="129.90" y="204.00" font-size="5" fill="#a00" text-anchor="middle" font-family="sans-serif">DIN</text></g><g><circle id="pin-DOUT" cx="139.90" cy="209.00" r="3.2" fill="#e00" fill-opacity="0.85" stroke="#700" stroke-width="0.5"/><text x="139.90" y="204.00" font-size="5" fill="#a00" text-anchor="middle" font-family="sans-serif">DOUT</text></g></g>
</svg>