<?xml version="1.0" encoding="UTF-8" standalone="no"?>
<svg
   width="145.87001"
   height="74.775307"
   viewBox="0 0 145.87001 74.775307"
   version="1.1"
   id="svg58"
   sodipodi:docname="ntc-temp.edit.svg"
   inkscape:version="1.4.3 (0d15f75, 2025-12-25)"
   xmlns:inkscape="http://www.inkscape.org/namespaces/inkscape"
   xmlns:sodipodi="http://sodipodi.sourceforge.net/DTD/sodipodi-0.dtd"
   xmlns="http://www.w3.org/2000/svg"
   xmlns:svg="http://www.w3.org/2000/svg">
  <defs
     id="defs58">
    <defs
       id="defs31" />
    <clipPath
       clipPathUnits="userSpaceOnUse"
       id="clipPath58">
      <path
         d="M 28.769254,58.253123 C 27.784848,58.963562 26.553558,59.386493 25.216015,59.386493 21.982579,59.386493 19.369995,56.913497 19.369995,53.885275 19.369995,50.857053 21.982579,48.384057 25.216015,48.384057 26.2973,48.384057 27.308791,48.661149 28.176527,49.142415 30.37243,49.965358 31.628721,50.188282 34.113175,50.097654 34.113175,50.097654 31.890187,51.488323 32.06311,53.191503 32.218323,54.710301 35.24342,55.789503 35.24342,55.789503 32.703755,56.193682 30.892239,57.251008 28.769254,58.253123 Z"
         id="path58"
         style="stroke-width:1" />
    </clipPath>
  </defs>
  <sodipodi:namedview
     id="namedview58"
     pagecolor="#ffffff"
     bordercolor="#666666"
     borderopacity="1.0"
     inkscape:showpageshadow="2"
     inkscape:pageopacity="0.0"
     inkscape:pagecheckerboard="0"
     inkscape:deskcolor="#d1d1d1"
     showgrid="true"
     inkscape:zoom="5.2387389"
     inkscape:cx="62.992259"
     inkscape:cy="49.82115"
     inkscape:window-width="1920"
     inkscape:window-height="1057"
     inkscape:window-x="-8"
     inkscape:window-y="-8"
     inkscape:window-maximized="1"
     inkscape:current-layer="svg58">
    <inkscape:grid
       id="grid58"
       units="px"
       originx="-19.369995"
       originy="-12.709999"
       spacingx="10"
       spacingy="10"
       empcolor="#3f3fff"
       empopacity="0.25098039"
       color="#3f3fff"
       opacity="0.1254902"
       empspacing="1"
       enabled="true"
       visible="true" />
  </sodipodi:namedview>
  <!-- Retouche brochage ntc-temp : déplace chaque pastille rouge sur un CROISEMENT (lignes foncées = 50 px). Garde les id pin-<nom>. Marge 20 px. -->
  <g
     id="g62"
     transform="translate(-19.369995,-12.709999)">
    <path
       d="M 139.478,12.709999 H 45.286449 V 87.485308 H 139.478 Z M 70.574759,71.371251 C 73.981117,71.371251 76.746831,74.088005 76.746831,77.494364 76.746831,80.900723 73.981117,83.665394 70.574759,83.665394 67.1684,83.665394 64.402686,80.900723 64.402686,77.494364 64.402686,74.088005 67.1684,71.371251 70.574759,71.371251 Z M 87.255501,63.079319 C 90.66186,63.079319 93.427573,65.843991 93.427573,69.25035 93.427573,72.656709 90.66186,75.422422 87.255501,75.422422 83.849142,75.422422 81.08447,72.656709 81.08447,69.25035 81.08447,65.843991 83.849142,63.079319 87.255501,63.079319 Z M 52.152294,64.45853 C 54.537787,64.45853 56.474307,66.39505 56.474307,68.779502 56.474307,71.164995 54.537787,73.101515 52.152294,73.101515 49.767843,73.101515 47.831322,71.164995 47.831322,68.779502 47.831322,66.39505 49.767843,64.45853 52.152294,64.45853 Z M 114.56471,65.120009 C 116.69082,65.120009 118.41691,66.846106 118.41691,68.972216 118.41691,71.098326 116.69082,72.824423 114.56471,72.824423 112.4386,72.824423 110.7125,71.098326 110.7125,68.972216 110.7125,66.846106 112.4386,65.120009 114.56471,65.120009 Z M 102.68933,56.637446 C 104.81544,56.637446 106.54153,58.363543 106.54153,60.489653 106.54153,62.615763 104.81544,64.341859 102.68933,64.341859 100.56322,64.341859 98.837121,62.615763 98.837121,60.489653 98.837121,58.363543 100.56322,56.637446 102.68933,56.637446 Z M 87.255501,54.750928 C 89.38161,54.750928 91.107707,56.477024 91.107707,58.603134 91.107707,60.729244 89.38161,62.455341 87.255501,62.455341 85.129391,62.455341 83.403294,60.729244 83.403294,58.603134 83.403294,56.477024 85.129391,54.750928 87.255501,54.750928 Z M 87.255501,38.110812 C 89.38161,38.110812 91.107707,39.836909 91.107707,41.963018 91.107707,44.089128 89.38161,45.815225 87.255501,45.815225 85.129391,45.815225 83.403294,44.089128 83.403294,41.963018 83.403294,39.836909 85.129391,38.110812 87.255501,38.110812 Z M 102.68933,34.774247 C 104.81544,34.774247 106.54153,36.500344 106.54153,38.626453 106.54153,40.752563 104.81544,42.47866 102.68933,42.47866 100.56322,42.47866 98.837121,40.752563 98.837121,38.626453 98.837121,36.500344 100.56322,34.774247 102.68933,34.774247 Z M 87.255501,24.772885 C 90.66186,24.772885 93.427573,27.537557 93.427573,30.943916 93.427573,34.350275 90.66186,37.115988 87.255501,37.115988 83.849142,37.115988 81.08447,34.350275 81.08447,30.943916 81.08447,27.537557 83.849142,24.772885 87.255501,24.772885 Z M 52.152294,27.093793 C 54.537787,27.093793 56.474307,29.030313 56.474307,31.414764 56.474307,33.800257 54.537787,35.736778 52.152294,35.736778 49.767843,35.736778 47.831322,33.800257 47.831322,31.414764 47.831322,29.030313 49.767843,27.093793 52.152294,27.093793 Z M 114.56471,27.393802 C 116.69082,27.393802 118.41691,29.119899 118.41691,31.246009 118.41691,33.372118 116.69082,35.098215 114.56471,35.098215 112.4386,35.098215 110.7125,33.372118 110.7125,31.246009 110.7125,29.119899 112.4386,27.393802 114.56471,27.393802 Z M 64.402686,21.45507 C 64.402686,19.751891 67.489243,16.528871 70.574759,16.528871 73.660274,16.528871 76.746831,19.751891 76.746831,21.45507 76.746831,24.861429 73.981117,28.873016 70.574759,28.873016 67.1684,28.873016 64.402686,24.861429 64.402686,21.45507 Z"
       fill="#0f3661"
       id="path32"
       style="opacity:0.85;stroke-width:1.0417" />
    <path
       d="M 128.17556,35.212802 V 64.982505 H 136.91438 V 35.212802 Z"
       fill="none"
       stroke="#ffffff"
       stroke-width="0.93753px"
       id="path33"
       style="opacity:0.85" />
    <path
       d="M 119.88779,57.634353 V 42.534912 H 114.90118 V 57.634353 Z"
       fill="#bbb9b9"
       id="path40"
       style="opacity:0.85;stroke-width:1.0417" />
    <path
       d="M 120.06176,53.895692 V 46.273573 H 114.72721 V 53.895692 Z"
       fill="#29261c"
       id="path41"
       style="opacity:0.85;stroke-width:1.0417" />
    <circle
       cx="52.147087"
       cy="31.414764"
       r="4.3220134"
       stroke-width="2.60425px"
       id="circle41"
       style="opacity:0.85;fill:none;stroke:#bbb9b9;stroke-linejoin:miter" />
    <circle
       cx="52.147087"
       cy="68.779503"
       r="4.3220134"
       stroke-width="2.60425px"
       id="circle42"
       style="opacity:0.85;fill:none;stroke:#bbb9b9;stroke-linejoin:miter" />
    <circle
       cx="87.250298"
       cy="69.250351"
       r="6.1720729"
       stroke-width="0.989615px"
       id="circle43"
       style="opacity:0.85;fill:none;stroke:#bbb9b9;stroke-linejoin:miter" />
    <circle
       cx="87.250298"
       cy="30.943916"
       r="6.1720729"
       stroke-width="0.989615px"
       id="circle44"
       style="opacity:0.85;fill:none;stroke:#bbb9b9;stroke-linejoin:miter" />
    <circle
       cx="87.250298"
       cy="41.96302"
       r="3.8522065"
       stroke-width="2.32299px"
       id="circle45"
       style="opacity:0.85;fill:none;stroke:#bbb9b9;stroke-linejoin:miter" />
    <circle
       cx="87.250298"
       cy="58.603134"
       r="3.8522065"
       stroke-width="2.32299px"
       id="circle46"
       style="opacity:0.85;fill:none;stroke:#bbb9b9;stroke-linejoin:miter" />
    <circle
       cx="70.56955"
       cy="77.494362"
       r="6.1720729"
       stroke-width="0.781275px"
       id="circle47"
       style="opacity:0.85;fill:none;stroke:#bbb9b9;stroke-linejoin:miter" />
    <circle
       cx="70.56955"
       cy="22.700943"
       r="6.1720729"
       stroke-width="0.781275px"
       id="circle48"
       style="opacity:0.85;fill:none;stroke:#bbb9b9;stroke-linejoin:miter" />
    <ellipse
       cx="70.225792"
       cy="39.166054"
       rx="6.6408377"
       ry="5.0407867"
       fill="#bababa"
       id="ellipse48"
       style="opacity:0.85;stroke-width:1.0417" />
    <ellipse
       cx="70.225792"
       cy="61.02821"
       rx="6.6408377"
       ry="5.0407867"
       fill="#bbb9b9"
       id="ellipse49"
       style="opacity:0.85;stroke-width:1.0417" />
    <circle
       cx="70.225792"
       cy="39.166054"
       r="2.7209203"
       fill="#eceee9"
       id="circle49"
       style="opacity:0.85;stroke-width:1.0417" />
    <circle
       cx="70.225792"
       cy="61.02821"
       r="2.7209203"
       fill="#eceee9"
       id="circle50"
       style="opacity:0.85;stroke-width:1.0417" />
    <path
       d="M 70.225789,39.166054 C 61.029661,43.632863 49.586587,48.549688 30.641189,51.034142"
       fill="none"
       stroke="#d6d8d4"
       stroke-linejoin="miter"
       stroke-width="0.989615px"
       id="path50"
       style="opacity:0.85" />
    <path
       d="M 70.225789,60.546946 C 60.34839,55.106147 48.920941,54.283204 30.641189,55.558245"
       fill="none"
       stroke="#d8d8d3"
       stroke-linejoin="miter"
       stroke-width="0.989615px"
       id="path51"
       style="opacity:0.85" />
    <path
       d="M 28.769254,58.253123 C 27.784848,58.963562 26.553558,59.386493 25.216015,59.386493 21.982579,59.386493 19.369995,56.913497 19.369995,53.885275 19.369995,50.857053 21.982579,48.384057 25.216015,48.384057 26.2973,48.384057 27.308791,48.661149 28.176527,49.142415 30.37243,49.965358 31.628721,50.188282 34.113175,50.097654 34.113175,50.097654 31.890187,51.488323 32.06311,53.191503 32.218323,54.710301 35.24342,55.789502 35.24342,55.789502 32.703755,56.193682 30.892239,57.251008 28.769254,58.253123 Z"
       fill="#151312"
       id="path52"
       style="opacity:0.85;stroke-width:1.0417" />
    <path
       d="M 30.135965,49.9789 C 29.493236,49.9789 28.798422,49.898689 28.161943,49.9789 25.791034,50.274743 23.20866,51.86021 21.464854,53.397759 20.702329,54.069656 20.057517,54.785304 19.533542,55.65929 19.35437,55.958258 19.155405,56.244725 18.984566,56.546818 18.976232,56.559319 18.760601,56.959332 18.726224,56.923914 18.567886,56.766617 18.68039,55.887422 18.68039,55.724917 18.68039,54.272787 18.696015,52.918577 19.035609,51.496657 19.488749,49.593471 19.938763,47.116308 21.542981,45.770432 22.160709,45.252707 23.021154,45.026658 23.770136,44.790192 24.800377,44.466224 25.953539,44.217257 27.046282,44.367262 28.873424,44.618312 30.289094,46.564207 30.61723,48.292388 30.700566,48.730943 30.533894,49.221584 30.533894,49.657015"
       fill="#615a59"
       id="path53"
       style="opacity:0.85;stroke-width:1.0417"
       clip-path="url(#clipPath58)" />
    <circle
       cx="114.55949"
       cy="31.24601"
       id="circle53"
       r="0"
       style="opacity:0.85;fill:none;stroke:#bbb9b9;stroke-width:2.32299px;stroke-linejoin:miter" />
    <circle
       cx="114.55949"
       cy="68.972214"
       id="circle54"
       r="0"
       style="opacity:0.85;fill:none;stroke:#bbb9b9;stroke-width:2.32299px;stroke-linejoin:miter" />
    <path
       d="M 102.68412,55.448867 C 106.34986,55.448867 109.32496,57.707272 109.32496,60.489653 109.32496,63.270992 106.34986,65.530439 102.68412,65.530439 99.019419,65.530439 96.043282,63.270992 96.043282,60.489653 96.043282,57.707272 99.019419,55.448867 102.68412,55.448867 Z M 102.68412,56.637446 C 104.81023,56.637446 106.53633,58.363543 106.53633,60.489653 106.53633,62.615763 104.81023,64.341859 102.68412,64.341859 100.55801,64.341859 98.831913,62.615763 98.831913,60.489653 98.831913,58.363543 100.55801,56.637446 102.68412,56.637446 Z"
       fill="#bbb9b9"
       id="path54"
       style="opacity:0.85;stroke-width:1.0417" />
    <path
       d="M 102.68412,33.585667 C 106.34986,33.585667 109.32496,35.845114 109.32496,38.626453 109.32496,41.408834 106.34986,43.66724 102.68412,43.66724 99.019419,43.66724 96.043282,41.408834 96.043282,38.626453 96.043282,35.845114 99.019419,33.585667 102.68412,33.585667 Z M 102.68412,34.774247 C 104.81023,34.774247 106.53633,36.500344 106.53633,38.626453 106.53633,40.752563 104.81023,42.47866 102.68412,42.47866 100.55801,42.47866 98.831913,40.752563 98.831913,38.626453 98.831913,36.500344 100.55801,34.774247 102.68412,34.774247 Z"
       fill="#bbb9b9"
       id="path55"
       style="opacity:0.85;stroke-width:1.0417" />
    <path
       d="M 113.02403,59.026064 V 41.169243 H 121.76494 V 59.026064 Z"
       fill="none"
       stroke="#ffffff"
       stroke-linejoin="miter"
       stroke-width="0.677105px"
       id="path56"
       style="opacity:0.85" />
    <g
       id="g59">
      <path
         d="M 129.13392,36.528469 V 43.355771 H 135.96123 V 36.528469 Z"
         id="path36"
         style="opacity:0.85;fill:#29261c;stroke-width:1.0417" />
      <path
         d="M 132.75904,38.441031 C 132.36111,38.441031 131.97881,38.599369 131.69755,38.880628 131.41629,39.162929 131.25795,39.544191 131.25795,39.94212 131.25795,40.34005 131.41629,40.722354 131.69755,41.003613 131.97881,41.284872 132.36111,41.44321 132.75904,41.44321 H 159.9797 C 160.22346,41.44321 160.42138,41.245287 160.42138,41.002571 V 38.882711 C 160.42138,38.638954 160.22346,38.441031 159.9797,38.441031 Z"
         id="path39"
         style="opacity:0.85;fill:#9f9f9f;stroke-width:1.0417" />
      <g
         id="g56"
         transform="translate(-0.63000488,-7.2900009)">
        <circle
           id="pin-GND"
           cx="160.63"
           cy="47.290001"
           r="3.2"
           fill="#ee0000"
           fill-opacity="0.85"
           stroke="#770000"
           stroke-width="0.5" />
        <text
           x="160.63"
           y="42.290001"
           font-size="5px"
           fill="#aa0000"
           text-anchor="middle"
           font-family="sans-serif"
           id="text56">GND</text>
      </g>
    </g>
    <g
       id="g61">
      <path
         d="M 129.13392,46.673586 V 53.500888 H 135.96123 V 46.673586 Z"
         id="path35"
         style="opacity:0.85;fill:#29261c;stroke-width:1.0417" />
      <path
         d="M 132.75904,48.587189 C 132.36111,48.587189 131.97881,48.744485 131.69755,49.026786 131.41629,49.308045 131.25795,49.689307 131.25795,50.087237 V 50.088278 C 131.25795,50.486208 131.41629,50.86747 131.69755,51.148729 131.97881,51.429988 132.36111,51.588326 132.75904,51.588326 H 159.9797 C 160.22346,51.588326 160.42138,51.391445 160.42138,51.147687 V 49.027828 C 160.42138,48.78407 160.22346,48.587189 159.9797,48.587189 Z"
         id="path38"
         style="opacity:0.85;fill:#9f9f9f;stroke-width:1.0417" />
      <g
         id="g57"
         transform="translate(-0.63000488,-7.2900009)">
        <circle
           id="pin-VCC"
           cx="160.63"
           cy="57.290001"
           r="3.2"
           fill="#ee0000"
           fill-opacity="0.85"
           stroke="#770000"
           stroke-width="0.5" />
        <text
           x="160.63"
           y="52.290001"
           font-size="5px"
           fill="#aa0000"
           text-anchor="middle"
           font-family="sans-serif"
           id="text57">VCC</text>
      </g>
    </g>
    <g
       id="g60"
       transform="translate(0,-0.11000063)">
      <path
         d="M 129.13392,56.803077 V 63.630378 H 135.96123 V 56.803077 Z"
         id="path34"
         style="opacity:0.85;fill:#29261c;stroke-width:1.0417" />
      <path
         d="M 132.75904,58.716679 C 132.36111,58.716679 131.97881,58.873976 131.69755,59.156277 131.41629,59.437536 131.25795,59.818798 131.25795,60.216728 V 60.217769 C 131.25795,60.615699 131.41629,60.996961 131.69755,61.27822 131.97881,61.559479 132.36111,61.717817 132.75904,61.717817 H 159.9797 C 160.22346,61.717817 160.42138,61.520936 160.42138,61.277178 V 59.157319 C 160.42138,58.913561 160.22346,58.716679 159.9797,58.716679 Z"
         id="path37"
         style="opacity:0.85;fill:#9f9f9f;stroke-width:1.0417" />
      <g
         id="g58"
         transform="translate(-0.63000488,-7.2900009)">
        <circle
           id="pin-OUT"
           cx="160.63"
           cy="67.400002"
           r="3.2"
           fill="#ee0000"
           fill-opacity="0.85"
           stroke="#770000"
           stroke-width="0.5" />
        <text
           x="160.63"
           y="62.400002"
           font-size="5px"
           fill="#aa0000"
           text-anchor="middle"
           font-family="sans-serif"
           id="text58">OUT</text>
      </g>
    </g>
  </g>
</svg>
