<?xml version="1.0" encoding="UTF-8" standalone="no"?>
<svg
   width="185.38074"
   height="66.60199"
   viewBox="0 0 185.38074 66.60199"
   version="1.1"
   id="svg77"
   sodipodi:docname="photoresistor.edit.svg"
   inkscape:version="1.4.4 (dcaf3e7, 2026-05-05)"
   xmlns:inkscape="http://www.inkscape.org/namespaces/inkscape"
   xmlns:sodipodi="http://sodipodi.sourceforge.net/DTD/sodipodi-0.dtd"
   xmlns="http://www.w3.org/2000/svg"
   xmlns:svg="http://www.w3.org/2000/svg">
  <defs
     id="defs77"><clipPath
   id="clipPath37">
  <path
     d="M 27.9,29 C 27.9,28.625 27.596,28.321 27.221,28.321 H 21.081 C 20.706,28.321 20.402,28.625 20.402,29 V 45.8 C 20.402,46.175 20.706,46.479 21.081,46.479 H 27.221 C 27.596,46.479 27.9,46.175 27.9,45.8 Z"
     id="path37" />
</clipPath>
<filter
   id="ledFilter"
   x="-0.80000001"
   y="-0.80000001"
   height="5.1999998"
   width="5.8000002">
  <feGaussianBlur
     stdDeviation="2"
     id="feGaussianBlur52" />
</filter>


false

        false

        </defs>
  <sodipodi:namedview
     id="namedview77"
     pagecolor="#ffffff"
     bordercolor="#666666"
     borderopacity="1.0"
     inkscape:showpageshadow="2"
     inkscape:pageopacity="0.0"
     inkscape:pagecheckerboard="0"
     inkscape:deskcolor="#d1d1d1"
     showgrid="true"
     inkscape:zoom="8.224299"
     inkscape:cx="114.05227"
     inkscape:cy="36.234091"
     inkscape:window-width="1920"
     inkscape:window-height="1057"
     inkscape:window-x="-8"
     inkscape:window-y="-8"
     inkscape:window-maximized="1"
     inkscape:current-layer="svg77">
    <inkscape:grid
       id="grid77"
       units="px"
       originx="10"
       originy="-10"
       spacingx="10"
       spacingy="10"
       empcolor="#3f3fff"
       empopacity="0.25098039"
       color="#3f3fff"
       opacity="0.1254902"
       empspacing="1"
       enabled="true"
       visible="true" />
  </sodipodi:namedview>
  <!-- Retouche brochage photoresistor : déplace chaque pastille rouge sur un CROISEMENT (lignes foncées = 50 px). Garde les id pin-<nom>. Marge 20 px. -->
  <g
     id="g2">
    <path
       d="M 160.19124,3.5702982 H 20.80408 V 66.601992 H 160.19124 Z M 27.978419,56.865389 C 29.925739,56.865389 31.504094,58.402748 31.504094,60.288574 31.504094,62.1744 29.925739,63.711759 27.978419,63.711759 26.031098,63.711759 24.452744,62.1744 24.452744,60.288574 24.452744,58.402748 26.031098,56.865389 27.978419,56.865389 Z M 128.72664,26.323202 C 133.0005,26.323202 136.46468,29.787383 136.46468,34.06124 136.46468,38.335096 133.0005,41.799277 128.72664,41.799277 124.45278,41.799277 120.9886,38.335096 120.9886,34.06124 120.9886,29.787383 124.45278,26.323202 128.72664,26.323202 Z M 27.978419,6.4400342 C 29.925739,6.4400342 31.504094,7.9773922 31.504094,9.8632182 31.504094,11.749045 29.925739,13.286403 27.978419,13.286403 26.031098,13.286403 24.452744,11.749045 24.452744,9.8632182 24.452744,7.9773922 26.031098,6.4400342 27.978419,6.4400342 Z"
       fill="#1c2546"
       id="path33"
       style="opacity:0.85;stroke-width:0.9981" />
    <rect
       x="22.7514"
       y="24.170902"
       width="11.478943"
       height="22.752905"
       fill="none"
       stroke="#ffffff"
       stroke-width="1.07794px"
       id="rect33"
       style="opacity:0.85" />
    <circle
       cx="28.490871"
       cy="29.80788"
       r="3.2182038"
       fill="#dae3eb"
       id="circle33"
       style="opacity:0.85;stroke-width:0.9981" />
    <circle
       cx="28.490871"
       cy="41.286823"
       r="3.2182038"
       fill="#dae3eb"
       id="circle34"
       style="opacity:0.85;stroke-width:0.9981" />
    <path
       d="M 28.490872,29.910372 C 28.490872,29.706416 28.409904,29.510659 28.265392,29.367172 28.121906,29.22266 27.926149,29.141693 27.723217,29.141693 H 4.1503885 C 3.9464323,29.141693 3.7517002,29.22266 3.6071885,29.367172 3.4637018,29.510659 3.3827342,29.706416 3.3827342,29.910372 3.3827342,30.113303 3.4637018,30.30906 3.6071885,30.453572 3.7517002,30.597059 3.9464323,30.678026 4.1503885,30.678026 H 27.723217 C 27.926149,30.678026 28.121906,30.597059 28.265392,30.453572 28.409904,30.30906 28.490872,30.113303 28.490872,29.910372 Z"
       fill="#a8b6ba"
       id="path34"
       style="opacity:0.85;stroke-width:0.9981" />
    <path
       d="M 28.490872,41.184334 C 28.490872,40.981402 28.409904,40.785645 28.265392,40.641134 28.121906,40.497647 27.926149,40.416679 27.723217,40.416679 H 4.1503885 C 3.9464323,40.416679 3.7517002,40.497647 3.6071885,40.641134 3.4637018,40.785645 3.3827342,40.981402 3.3827342,41.184334 3.3827342,41.38829 3.4637018,41.584047 3.6071885,41.727533 3.7517002,41.872045 3.9464323,41.953013 4.1503885,41.953013 H 27.723217 C 27.926149,41.953013 28.121906,41.872045 28.265392,41.727533 28.409904,41.584047 28.490872,41.38829 28.490872,41.184334 Z"
       fill="#a8b6ba"
       id="path35"
       style="opacity:0.85;stroke-width:0.9981" />
    <path
       d="M 12.235869,26.938146 C 12.235869,26.553806 11.924298,26.242235 11.539958,26.242235 H 5.2470375 C 4.8626979,26.242235 4.5511266,26.553806 4.5511266,26.938146 V 44.15656 C 4.5511266,44.540899 4.8626979,44.852471 5.2470375,44.852471 H 11.539958 C 11.924298,44.852471 12.235869,44.540899 12.235869,44.15656 Z"
       fill="#cc4247"
       id="path36"
       style="opacity:0.85;stroke-width:0.9981" />
    <ellipse
       cx="28.490871"
       cy="9.8324718"
       rx="3.5154262"
       ry="3.4231846"
       stroke="#a8b6ba"
       id="ellipse37"
       style="opacity:0.85;fill:none;stroke-width:1.07794px" />
    <ellipse
       cx="28.490871"
       cy="60.350067"
       rx="3.5154262"
       ry="3.4231846"
       stroke="#a8b6ba"
       id="ellipse38"
       style="opacity:0.85;fill:none;stroke-width:1.07794px" />
    <g
       stroke="#ffffff"
       id="g40"
       style="opacity:0.85;fill:none;stroke-width:1.05175px"
       transform="matrix(1.0249056,0,0,1.0249056,3.3806844,3.5702982)">
      <path
         d="M 24,44.7 V 49.45"
         id="path38"
         style="stroke-width:1.05175px" />
      <path
         d="M 24,12.1 V 16.85"
         id="path39"
         style="stroke-width:1.05175px" />
      <path
         d="M 26.4,14.5 H 21.65"
         id="path40"
         style="stroke-width:1.05175px" />
    </g>
    <rect
       x="42.019627"
       y="12.476727"
       width="17.115925"
       height="5.6574788"
       id="rect41"
       style="opacity:0.85;fill:#dae3eb;stroke-width:0.9981" />
    <rect
       x="42.019627"
       y="26.118221"
       width="17.115925"
       height="5.6574788"
       id="rect42"
       style="opacity:0.85;fill:#dae3eb;stroke-width:0.9981" />
    <rect
       x="42.019627"
       y="38.929543"
       width="17.115925"
       height="5.6574788"
       id="rect43"
       style="opacity:0.85;fill:#dae3eb;stroke-width:0.9981" />
    <rect
       x="46.32423"
       y="38.72456"
       width="8.6399546"
       height="6.0469432"
       fill="#29261c"
       id="rect44"
       style="opacity:0.85;stroke-width:0.9981" />
    <path
       d="M 114.07049,25.298297 V 8.1823732 H 108.41301 V 25.298297 Z"
       fill="#dae3eb"
       id="path44"
       style="opacity:0.85;stroke-width:0.9981" />
    <path
       d="M 114.07049,20.993693 V 12.353739 H 108.02355 V 20.993693 Z"
       fill="#29261c"
       id="path45"
       style="opacity:0.85;stroke-width:0.9981" />
    <path
       d="M 114.07049,58.710219 V 41.594296 H 108.41301 V 58.710219 Z"
       fill="#dae3eb"
       id="path46"
       style="opacity:0.85;stroke-width:0.9981" />
    <path
       d="M 114.07049,54.508106 V 45.868152 H 108.02355 V 54.508106 Z"
       fill="#29261c"
       id="path47"
       style="opacity:0.85;stroke-width:0.9981" />
    <rect
       x="42.019627"
       y="52.253315"
       width="17.115925"
       height="5.6574788"
       fill="#dae3eb"
       id="rect47"
       style="opacity:0.85;stroke-width:0.9981" />
    <rect
       x="46.32423"
       y="12.281996"
       width="8.6399546"
       height="6.0469432"
       fill="#907463"
       id="rect48"
       style="opacity:0.85;stroke-width:0.9981" />
    <rect
       x="46.32423"
       y="25.913239"
       width="8.6399546"
       height="6.0469432"
       fill="#907463"
       id="rect49"
       style="opacity:0.85;stroke-width:0.9981" />
    <rect
       x="46.32423"
       y="52.048332"
       width="8.6399546"
       height="6.0469432"
       fill="#29261c"
       id="rect50"
       style="opacity:0.85;stroke-width:0.9981" />
    <rect
       x="124.31954"
       y="8.4590969"
       width="13.323772"
       height="4.3968449"
       fill="#dae3eb"
       id="rect51"
       style="opacity:0.85;stroke-width:0.9981" />
    <rect
       x="127.39426"
       y="8.3053627"
       width="6.7131319"
       height="4.7043171"
       fill="#fffefe"
       id="rect52"
       style="opacity:0.85;stroke-width:0.9981" />
    <rect
       x="124.31954"
       y="57.480331"
       width="13.323772"
       height="4.3968449"
       fill="#dae3eb"
       id="rect53"
       style="opacity:0.85;stroke-width:0.9981" />
    <rect
       x="127.39426"
       y="57.377846"
       width="6.7131319"
       height="4.7043171"
       fill="#fffefe"
       id="rect54"
       style="opacity:0.85;stroke-width:0.9981" />
    <path
       d="M 77.891322,39.032032 H 67.980484 C 67.563348,39.032032 67.16466,39.198066 66.873586,39.492214 66.579438,39.786362 66.414429,40.186075 66.414429,40.599112 V 40.600137 C 66.414429,41.016249 66.579438,41.415962 66.873586,41.707035 67.168759,42.001183 67.567447,42.166193 67.980484,42.166193 H 77.891322 Z"
       id="path54"
       style="opacity:0.85;fill:#dae3eb;stroke-width:0.9981" />
    <path
       d="M 77.891322,44.976484 H 67.980484 C 67.563348,44.976484 67.16466,45.142519 66.873586,45.436667 66.579438,45.730815 66.414429,46.130528 66.414429,46.543565 V 46.54459 C 66.414429,46.960701 66.579438,47.360415 66.873586,47.651488 67.168759,47.945636 67.567447,48.110646 67.980484,48.110646 H 77.891322 Z"
       id="path55"
       style="opacity:0.85;fill:#dae3eb;stroke-width:0.9981" />
    <path
       d="M 77.891322,50.920937 H 67.980484 C 67.563348,50.920937 67.16466,51.086971 66.873586,51.381119 66.579438,51.675267 66.414429,52.07498 66.414429,52.488017 V 52.489042 C 66.414429,52.905154 66.579438,53.304867 66.873586,53.59594 67.168759,53.891113 67.567447,54.056123 67.980484,54.056123 H 77.891322 Z"
       id="path56"
       style="opacity:0.85;fill:#dae3eb;stroke-width:0.9981" />
    <path
       d="M 77.891322,56.865389 H 67.980484 C 67.563348,56.865389 67.16466,57.031424 66.873586,57.325572 66.579438,57.61972 66.414429,58.019433 66.414429,58.43247 V 58.433495 C 66.414429,58.849606 66.579438,59.24932 66.873586,59.540393 67.168759,59.835566 67.567447,60.000575 67.980484,60.000575 H 77.891322 Z"
       id="path57"
       style="opacity:0.85;fill:#dae3eb;stroke-width:0.9981" />
    <path
       d="M 89.882717,60.042597 H 99.793554 C 100.20967,60.042597 100.60938,59.877587 100.90045,59.582414 101.19563,59.288266 101.36064,58.888553 101.36064,58.475516 V 58.474491 C 101.36064,58.058379 101.19563,57.658666 100.90045,57.367593 100.6063,57.073445 100.20659,56.90741 99.793554,56.90741 H 89.882717 Z"
       id="path58"
       style="opacity:0.85;fill:#dae3eb;stroke-width:0.9981" />
    <path
       d="M 89.882717,54.098144 H 99.793554 C 100.20967,54.098144 100.60938,53.933134 100.90045,53.637961 101.19563,53.343814 101.36064,52.9441 101.36064,52.531063 V 52.530039 C 101.36064,52.113927 101.19563,51.714214 100.90045,51.42314 100.6063,51.128993 100.20659,50.962958 99.793554,50.962958 H 89.882717 Z"
       id="path59"
       style="opacity:0.85;fill:#dae3eb;stroke-width:0.9981" />
    <path
       d="M 89.882717,48.153692 H 99.793554 C 100.20967,48.153692 100.60938,47.988682 100.90045,47.694534 101.19563,47.399361 101.36064,46.999648 101.36064,46.587636 V 46.586611 C 101.36064,46.170499 101.19563,45.770786 100.90045,45.479713 100.6063,45.185565 100.20659,45.01953 99.793554,45.01953 H 89.882717 Z"
       id="path60"
       style="opacity:0.85;fill:#dae3eb;stroke-width:0.9981" />
    <path
       d="M 89.882717,42.209239 H 99.793554 C 100.20967,42.209239 100.60938,42.044229 100.90045,41.750081 101.19563,41.454909 101.36064,41.055195 101.36064,40.643183 V 40.642158 C 101.36064,40.226047 101.19563,39.826334 100.90045,39.53526 100.6063,39.241113 100.20659,39.075078 99.793554,39.075078 H 89.882717 Z"
       id="path61"
       style="opacity:0.85;fill:#dae3eb;stroke-width:0.9981" />
    <rect
       x="75.431549"
       y="37.597164"
       width="16.50098"
       height="23.880301"
       fill="#29261c"
       id="rect61"
       style="opacity:0.85;stroke-width:0.9981" />
    <rect
       x="67.744751"
       y="3.5702984"
       width="32.899467"
       height="32.899467"
       fill="#466fb5"
       id="rect62"
       style="opacity:0.85;stroke-width:0.9981" />
    <circle
       cx="84.245735"
       cy="19.968788"
       r="6.7233806"
       fill="#bcc2d5"
       id="circle62"
       style="opacity:0.85;stroke-width:0.9981" />
    <path
       d="M 84.245736,10.457664 V 29.520908"
       fill="none"
       stroke="#3f3c40"
       stroke-width="2.49525px"
       id="path62"
       style="opacity:0.85" />
    <path
       d="M 93.777358,19.968788 H 74.714114"
       fill="none"
       stroke="#3f3c40"
       stroke-width="2.49525px"
       id="path63"
       style="opacity:0.85" />
    <path
       d="M 129.44407,23.863429 C 135.08105,23.863429 139.65213,28.434508 139.65213,34.071489 139.65213,39.708469 135.08105,44.279548 129.44407,44.279548 123.80709,44.279548 119.23601,39.708469 119.23601,34.071489 119.23601,28.434508 123.80709,23.863429 129.44407,23.863429 Z M 129.44407,26.323202 C 133.71793,26.323202 137.18211,29.787383 137.18211,34.06124 137.18211,38.335096 133.71793,41.799277 129.44407,41.799277 125.17022,41.799277 121.70604,38.335096 121.70604,34.06124 121.70604,29.787383 125.17022,26.323202 129.44407,26.323202 Z"
       fill="#d4d0d1"
       id="path64"
       style="opacity:0.85;stroke-width:0.9981" />
    <path
       d="M 149.94219,15.561694 V 54.508106 H 158.54114 V 15.561694 Z"
       fill="none"
       stroke="#ffffff"
       stroke-linejoin="round"
       stroke-width="0.39924px"
       id="path65"
       style="opacity:0.85" />
    <g
       id="g1">
      <path
         d="M 150.96709,16.643434 V 23.356566 H 157.68022 V 16.643434 Z"
         id="path69"
         style="opacity:0.85;fill:#433b38;stroke-width:0.9981" />
      <rect
         style="fill:#9f9f9f;fill-opacity:0.842407;stroke-width:0.56693;stroke-linecap:round"
         id="rect1"
         width="28.205063"
         height="3"
         x="153.29494"
         y="18.5"
         rx="1.5000001"
         ry="1.5" />
    </g>
    <g
       id="g1-9"
       transform="translate(0,9.9999999)">
      <path
         d="M 150.96709,16.643434 V 23.356566 H 157.68022 V 16.643434 Z"
         id="path69-4"
         style="opacity:0.85;fill:#433b38;stroke-width:0.9981" />
      <rect
         style="fill:#9f9f9f;fill-opacity:0.842407;stroke-width:0.56693;stroke-linecap:round"
         id="rect1-8"
         width="28.205063"
         height="3"
         x="153.29494"
         y="18.5"
         rx="1.5000001"
         ry="1.5" />
    </g>
    <g
       id="g1-2"
       transform="translate(0,20)">
      <path
         d="M 150.96709,16.643434 V 23.356566 H 157.68022 V 16.643434 Z"
         id="path69-45"
         style="opacity:0.85;fill:#433b38;stroke-width:0.9981" />
      <rect
         style="fill:#9f9f9f;fill-opacity:0.842407;stroke-width:0.56693;stroke-linecap:round"
         id="rect1-5"
         width="28.205063"
         height="3"
         x="153.29494"
         y="18.5"
         rx="1.5000001"
         ry="1.5" />
    </g>
    <g
       id="g1-7"
       transform="translate(0,30)">
      <path
         d="M 150.96709,16.643434 V 23.356566 H 157.68022 V 16.643434 Z"
         id="path69-1"
         style="opacity:0.85;fill:#433b38;stroke-width:0.9981" />
      <rect
         style="fill:#9f9f9f;fill-opacity:0.842407;stroke-width:0.56693;stroke-linecap:round"
         id="rect1-1"
         width="28.205063"
         height="3"
         x="153.29494"
         y="18.5"
         rx="1.5000001"
         ry="1.5" />
    </g>
    <g
       id="g74"
       transform="matrix(1.0268565,0,0,1.0268565,-17.156448,-16.966834)"
       style="stroke-width:0.973846">
      <circle
         id="pin-VCC"
         cx="192"
         cy="36"
         r="3.2"
         fill="#ee0000"
         fill-opacity="0.85"
         stroke="#770000"
         stroke-width="0.486923" />
      <text
         x="192"
         y="31"
         font-size="5px"
         fill="#aa0000"
         text-anchor="middle"
         font-family="sans-serif"
         id="text73"
         style="stroke-width:0.973846">VCC</text>
    </g>
    <g
       id="g75"
       transform="matrix(1.0268565,0,0,1.0268565,-17.156448,-17.235399)"
       style="stroke-width:0.973846">
      <circle
         id="pin-GND"
         cx="192"
         cy="46"
         r="3.2"
         fill="#ee0000"
         fill-opacity="0.85"
         stroke="#770000"
         stroke-width="0.486923" />
      <text
         x="192"
         y="41"
         font-size="5px"
         fill="#aa0000"
         text-anchor="middle"
         font-family="sans-serif"
         id="text74"
         style="stroke-width:0.973846">GND</text>
    </g>
    <g
       id="g76"
       transform="matrix(1.0268565,0,0,1.0268565,-17.156448,-17.298592)"
       style="stroke-width:0.973846">
      <circle
         id="pin-DO"
         cx="192"
         cy="55.799999"
         r="3.2"
         fill="#ee0000"
         fill-opacity="0.85"
         stroke="#770000"
         stroke-width="0.486923" />
      <text
         x="192"
         y="50.799999"
         font-size="5px"
         fill="#aa0000"
         text-anchor="middle"
         font-family="sans-serif"
         id="text75"
         style="stroke-width:0.973846">DO</text>
    </g>
    <g
       id="g77"
       transform="matrix(1.0268565,0,0,1.0268565,-17.156448,-17.259101)"
       style="stroke-width:0.973846">
      <circle
         id="pin-AO"
         cx="192"
         cy="65.5"
         r="3.2"
         fill="#ee0000"
         fill-opacity="0.85"
         stroke="#770000"
         stroke-width="0.486923" />
      <text
         x="192"
         y="60.5"
         font-size="5px"
         fill="#aa0000"
         text-anchor="middle"
         font-family="sans-serif"
         id="text76"
         style="stroke-width:0.973846">AO</text>
    </g>
  </g>
</svg>
