<?xml version="1.0" encoding="UTF-8" standalone="no"?>
<svg
   width="100"
   height="103.45"
   viewBox="0 0 100 103.45"
   version="1.1"
   id="svg87"
   sodipodi:docname="pir.edit.svg"
   inkscape:version="1.4.4 (dcaf3e7, 2026-05-05)"
   xmlns:inkscape="http://www.inkscape.org/namespaces/inkscape"
   xmlns:sodipodi="http://sodipodi.sourceforge.net/DTD/sodipodi-0.dtd"
   xmlns="http://www.w3.org/2000/svg"
   xmlns:svg="http://www.w3.org/2000/svg">
  <defs
     id="defs87">
    <clipPath
       id="a">
      <circle
         cx="52.5"
         cy="39.200001"
         r="28.200001"
         id="circle34" />
    </clipPath>
  </defs>
  <sodipodi:namedview
     id="namedview87"
     pagecolor="#ffffff"
     bordercolor="#666666"
     borderopacity="1.0"
     inkscape:showpageshadow="2"
     inkscape:pageopacity="0.0"
     inkscape:pagecheckerboard="0"
     inkscape:deskcolor="#d1d1d1"
     showgrid="true"
     inkscape:zoom="35.179853"
     inkscape:cx="52.615343"
     inkscape:cy="96.418823"
     inkscape:window-width="1920"
     inkscape:window-height="1057"
     inkscape:window-x="-8"
     inkscape:window-y="-8"
     inkscape:window-maximized="1"
     inkscape:current-layer="svg87">
    <inkscape:grid
       id="grid87"
       units="px"
       originx="-20"
       originy="-20"
       spacingx="10"
       spacingy="10"
       empcolor="#3f3fff"
       empopacity="0.25098039"
       color="#3f3fff"
       opacity="0.1254902"
       empspacing="1"
       enabled="true"
       visible="true" />
  </sodipodi:namedview>
  <!-- Retouche brochage pir : déplace chaque pastille rouge sur un CROISEMENT (lignes foncées = 50 px). Garde les id pin-<nom>. Marge 20 px. -->
  <path
     d="M 38.497724,99.99786 C 38.497724,100.39687 38.656078,100.77817 38.937364,101.0605 39.21865,101.34283 39.60099,101.50014 40,101.50014 40.399009,101.50014 40.780308,101.34179 41.062636,101.0605 41.344963,100.77921 41.502275,100.39792 41.502275,99.99786 V 71.306744 C 41.502275,71.062963 41.304333,70.866063 41.060552,70.866063 H 38.945698 C 38.701917,70.866063 38.503975,71.062963 38.503975,71.306744 V 99.99786 Z"
     id="path30"
     style="opacity:0.85;fill:#c6bf95;stroke-width:1.0418"
     sodipodi:nodetypes="csssssssscc" />
  <path
     d="M 48.497724,99.99786 C 48.497724,100.39687 48.655036,100.77817 48.937364,101.0605 49.21865,101.34179 49.599948,101.50014 50,101.50014 H 50.001041 C 50.399009,101.50014 50.780308,101.34179 51.063677,101.0605 51.347047,100.77921 51.503317,100.39792 51.503317,99.99786 V 71.306748 C 51.503317,71.062967 51.306417,70.866067 51.062636,70.866067 H 48.937364 C 48.693582,70.866067 48.496682,71.062967 48.496682,71.306748 V 99.99786 Z"
     id="path29"
     style="opacity:0.85;fill:#c6bf95;stroke-width:1.0418"
     sodipodi:nodetypes="cssssssssscc" />
  <path
     d="M 58.497724,99.99786 C 58.497724,100.39687 58.655036,100.77817 58.937364,101.0605 59.21865,101.34179 59.599948,101.50014 60,101.50014 H 60.001041 C 60.399009,101.50014 60.780308,101.34179 61.063677,101.0605 61.347047,100.77921 61.503317,100.39792 61.503317,99.99786 V 71.306744 C 61.503317,71.062963 61.306417,70.866063 61.062636,70.866063 H 58.937364 C 58.693582,70.866063 58.496682,71.062963 58.496682,71.306744 V 99.99786 Z"
     id="path28"
     style="opacity:0.85;fill:#c6bf95;stroke-width:1.0418"
     sodipodi:nodetypes="cssssssssscc" />
  <path
     d="M 96.522379,3.693924 H 2.0311222 V 81.09966 H 96.522379 Z M 90.917499,37.135704 C 93.094859,37.135704 94.855499,38.906764 94.855499,41.073708 94.855499,43.240652 93.084439,45.011712 90.917499,45.011712 88.740139,45.011712 86.979499,43.240652 86.979499,41.073708 86.979499,38.906764 88.750549,37.135704 90.917499,37.135704 Z M 10.594718,37.135704 C 12.77208,37.135704 14.532722,38.906764 14.532722,41.073708 14.532722,43.240652 12.761662,45.011712 10.594718,45.011712 8.4173562,45.011712 6.6567142,43.240652 6.6567142,41.073708 6.6567142,38.906764 8.4277742,37.135704 10.594718,37.135704 Z"
     fill="#253674"
     id="path31"
     style="opacity:0.85;stroke-width:1.0418" />
  <rect
     x="16.928864"
     y="5.0274277"
     width="68.2379"
     height="68.2379"
     fill="#dde5e3"
     id="rect31"
     style="opacity:0.85;stroke-width:1.0418" />
  <rect
     x="19.845905"
     y="8.0069752"
     width="62.299641"
     height="62.299641"
     fill="#d1dfe1"
     id="rect32"
     style="opacity:0.85;stroke-width:1.0418" />
  <circle
     cx="50.683182"
     cy="38.906765"
     r="32.295799"
     fill="#d3d5d6"
     id="circle32"
     style="opacity:0.85;stroke-width:1.0418" />
  <circle
     cx="50.683182"
     cy="38.906765"
     r="29.378761"
     fill="#d9e1e1"
     id="circle33"
     style="opacity:0.85;stroke-width:1.0418" />
  <g
     transform="matrix(1.0418,0,0,1.0418,-4.0217358,-1.983886)"
     clip-path="url(#a)"
     fill="#fbfcfb"
     id="g84"
     style="opacity:0.85">
    <path
       d="M 52.8,13.7 C 64,16.64 74.1,32 74.6,44.2 74.6,44.2 80.76,35.36 72.35,23.6 65.3,13.71 52.85,13.73 52.85,13.73 Z"
       id="path34" />
    <path
       d="M 52.2,64.8 C 44.83,64.813 32.4,58.27 30.1,50.8 30.1,50.8 29.998,55.13 37.09,61 43.04,65.94 52.19,64.75 52.19,64.75 Z"
       id="path35" />
    <g
       fill="none"
       stroke="#d2d8d8"
       stroke-width="0.4px"
       id="g83">
      <path
         d="M 32.9,18 30.18,22.71 H 24.74 L 22.02,18 24.74,13.29 H 30.18 Z"
         id="path36" />
      <path
         d="M 32.9,27.4 30.18,32.11 H 24.74 L 22.02,27.4 24.74,22.69 H 30.18 Z"
         id="path37" />
      <path
         d="M 32.9,36.9 30.18,41.61 H 24.74 L 22.02,36.9 24.74,32.19 H 30.18 Z"
         id="path38" />
      <path
         d="M 32.9,46.3 30.18,51.01 H 24.74 L 22.02,46.3 24.74,41.59 H 30.18 Z"
         id="path39" />
      <path
         d="M 32.9,55.7 30.18,60.41 H 24.74 L 22.02,55.7 24.74,50.99 H 30.18 Z"
         id="path40" />
      <path
         d="M 32.9,65.1 30.18,69.81 H 24.74 L 22.02,65.1 24.74,60.39 H 30.18 Z"
         id="path41" />
      <path
         d="M 41.1,13.3 38.38,18.01 H 32.94 L 30.22,13.3 32.94,8.59 H 38.38 Z"
         id="path42" />
      <path
         d="M 41.1,22.7 38.38,27.41 H 32.94 L 30.22,22.7 32.94,17.99 H 38.38 Z"
         id="path43" />
      <path
         d="M 41.1,32.1 38.38,36.81 H 32.94 L 30.22,32.1 32.94,27.39 H 38.38 Z"
         id="path44" />
      <path
         d="M 41.1,41.6 38.38,46.31 H 32.94 L 30.22,41.6 32.94,36.89 H 38.38 Z"
         id="path45" />
      <path
         d="M 41.1,51 38.38,55.71 H 32.94 L 30.22,51 32.94,46.29 H 38.38 Z"
         id="path46" />
      <path
         d="M 41.1,60.4 38.38,65.11 H 32.94 L 30.22,60.4 32.94,55.69 H 38.38 Z"
         id="path47" />
      <path
         d="M 49.3,18 46.58,22.71 H 41.14 L 38.42,18 41.14,13.29 H 46.58 Z"
         id="path48" />
      <path
         d="M 49.3,27.4 46.58,32.11 H 41.14 L 38.42,27.4 41.14,22.69 H 46.58 Z"
         id="path49" />
      <path
         d="M 49.3,36.9 46.58,41.61 H 41.14 L 38.42,36.9 41.14,32.19 H 46.58 Z"
         id="path50" />
      <path
         d="M 49.3,46.3 46.58,51.01 H 41.14 L 38.42,46.3 41.14,41.59 H 46.58 Z"
         id="path51" />
      <path
         d="M 49.3,55.7 46.58,60.41 H 41.14 L 38.42,55.7 41.14,50.99 H 46.58 Z"
         id="path52" />
      <path
         d="M 49.3,65.1 46.58,69.81 H 41.14 L 38.42,65.1 41.14,60.39 H 46.58 Z"
         id="path53" />
      <path
         d="M 57.4,13.3 54.68,18.01 H 49.24 L 46.52,13.3 49.24,8.59 H 54.68 Z"
         id="path54" />
      <path
         d="M 57.4,22.7 54.68,27.41 H 49.24 L 46.52,22.7 49.24,17.99 H 54.68 Z"
         id="path55" />
      <path
         d="M 57.4,32.1 54.68,36.81 H 49.24 L 46.52,32.1 49.24,27.39 H 54.68 Z"
         id="path56" />
      <path
         d="M 57.4,41.6 54.68,46.31 H 49.24 L 46.52,41.6 49.24,36.89 H 54.68 Z"
         id="path57" />
      <path
         d="M 57.4,51 54.68,55.71 H 49.24 L 46.52,51 49.24,46.29 H 54.68 Z"
         id="path58" />
      <path
         d="M 57.4,60.4 54.68,65.11 H 49.24 L 46.52,60.4 49.24,55.69 H 54.68 Z"
         id="path59" />
      <path
         d="M 65.6,18 62.88,22.71 H 57.44 L 54.72,18 57.44,13.29 H 62.88 Z"
         id="path60" />
      <path
         d="M 65.6,27.4 62.88,32.11 H 57.44 L 54.72,27.4 57.44,22.69 H 62.88 Z"
         id="path61" />
      <path
         d="M 65.6,36.9 62.88,41.61 H 57.44 L 54.72,36.9 57.44,32.19 H 62.88 Z"
         id="path62" />
      <path
         d="M 65.6,46.3 62.88,51.01 H 57.44 L 54.72,46.3 57.44,41.59 H 62.88 Z"
         id="path63" />
      <path
         d="M 65.6,55.7 62.88,60.41 H 57.44 L 54.72,55.7 57.44,50.99 H 62.88 Z"
         id="path64" />
      <path
         d="M 65.6,65.1 62.88,69.81 H 57.44 L 54.72,65.1 57.44,60.39 H 62.88 Z"
         id="path65" />
      <path
         d="M 73.8,13.3 71.08,18.01 H 65.64 L 62.92,13.3 65.64,8.59 H 71.08 Z"
         id="path66" />
      <path
         d="M 73.8,22.7 71.08,27.41 H 65.64 L 62.92,22.7 65.64,17.99 H 71.08 Z"
         id="path67" />
      <path
         d="M 73.8,32.1 71.08,36.81 H 65.64 L 62.92,32.1 65.64,27.39 H 71.08 Z"
         id="path68" />
      <path
         d="M 73.8,41.6 71.08,46.31 H 65.64 L 62.92,41.6 65.64,36.89 H 71.08 Z"
         id="path69" />
      <path
         d="M 73.8,51 71.08,55.71 H 65.64 L 62.92,51 65.64,46.29 H 71.08 Z"
         id="path70" />
      <path
         d="M 73.8,60.4 71.08,65.11 H 65.64 L 62.92,60.4 65.64,55.69 H 71.08 Z"
         id="path71" />
      <path
         d="M 81.9,18 79.18,22.71 H 73.74 L 71.02,18 73.74,13.29 H 79.18 Z"
         id="path72" />
      <path
         d="M 81.9,27.4 79.18,32.11 H 73.74 L 71.02,27.4 73.74,22.69 H 79.18 Z"
         id="path73" />
      <path
         d="M 81.9,36.9 79.18,41.61 H 73.74 L 71.02,36.9 73.74,32.19 H 79.18 Z"
         id="path74" />
      <path
         d="M 81.9,46.3 79.18,51.01 H 73.74 L 71.02,46.3 73.74,41.59 H 79.18 Z"
         id="path75" />
      <path
         d="M 81.9,55.7 79.18,60.41 H 73.74 L 71.02,55.7 73.74,50.99 H 79.18 Z"
         id="path76" />
      <path
         d="M 81.9,65.1 79.18,69.81 H 73.74 L 71.02,65.1 73.74,60.39 H 79.18 Z"
         id="path77" />
      <path
         d="M 90.1,13.3 87.38,18.01 H 81.94 L 79.22,13.3 81.94,8.59 H 87.38 Z"
         id="path78" />
      <path
         d="M 90.1,22.7 87.38,27.41 H 81.94 L 79.22,22.7 81.94,17.99 H 87.38 Z"
         id="path79" />
      <path
         d="M 90.1,32.1 87.38,36.81 H 81.94 L 79.22,32.1 81.94,27.39 H 87.38 Z"
         id="path80" />
      <path
         d="M 90.1,41.6 87.38,46.31 H 81.94 L 79.22,41.6 81.94,36.89 H 87.38 Z"
         id="path81" />
      <path
         d="M 90.1,51 87.38,55.71 H 81.94 L 79.22,51 81.94,46.29 H 87.38 Z"
         id="path82" />
      <path
         d="M 90.1,60.4 87.38,65.11 H 81.94 L 79.22,60.4 81.94,55.69 H 87.38 Z"
         id="path83" />
    </g>
  </g>
  <path
     d="M 62.351342,77.453364 H 57.486136 V 76.609506 H 62.351342 Z"
     fill="#ffffff"
     id="path84"
     style="opacity:0.85;stroke-width:1.0418" />
  <circle
     id="pin-VCC"
     cx="40"
     cy="100"
     r="3.2"
     fill="#ee0000"
     fill-opacity="0.85"
     stroke="#770000"
     stroke-width="0.5" />
  <text
     x="40.037262"
     y="94.523926"
     font-size="5px"
     fill="#aa0000"
     text-anchor="middle"
     font-family="sans-serif"
     id="text84">VCC</text>
  <circle
     id="pin-OUT"
     cx="50"
     cy="100"
     r="3.2"
     fill="#ee0000"
     fill-opacity="0.85"
     stroke="#770000"
     stroke-width="0.5" />
  <text
     x="50"
     y="95"
     font-size="5px"
     fill="#aa0000"
     text-anchor="middle"
     font-family="sans-serif"
     id="text85">OUT</text>
  <circle
     id="pin-GND"
     cx="60"
     cy="100"
     r="3.2"
     fill="#ee0000"
     fill-opacity="0.85"
     stroke="#770000"
     stroke-width="0.5" />
  <text
     x="59.991119"
     y="94.523926"
     font-size="5px"
     fill="#aa0000"
     text-anchor="middle"
     font-family="sans-serif"
     id="text86">GND</text>
</svg>
