<?xml version="1.0" encoding="UTF-8" standalone="no"?>
<svg
   width="170"
   height="100"
   viewBox="0 0 170 100"
   version="1.1"
   id="svg52"
   sodipodi:docname="servo.edit.svg"
   inkscape:version="1.4.4 (dcaf3e7, 2026-05-05)"
   xmlns:inkscape="http://www.inkscape.org/namespaces/inkscape"
   xmlns:sodipodi="http://sodipodi.sourceforge.net/DTD/sodipodi-0.dtd"
   xmlns="http://www.w3.org/2000/svg"
   xmlns:svg="http://www.w3.org/2000/svg">
  <defs
     id="defs52">
    <defs
       id="defs41">
      <g
         id="pin">
        <rect
           x="0"
           y="-1.91"
           width="3.72"
           height="3.71"
           id="rect40" />
        <path
           d="M 2.026,-1.91 H 15.558 L 2.133,-1.39135 Z"
           id="path40" />
        <path
           d="M 2.026,1.8 H 15.558 L 2.133,1.29298 Z"
           id="path41" />
        <rect
           fill="#cccccc"
           x="0.33000001"
           y="-1.23"
           width="3.04"
           height="2.46"
           rx="0.15000001"
           id="rect41" />
      </g>
    </defs>
  </defs>
  <sodipodi:namedview
     id="namedview52"
     pagecolor="#ffffff"
     bordercolor="#666666"
     borderopacity="1.0"
     inkscape:showpageshadow="2"
     inkscape:pageopacity="0.0"
     inkscape:pagecheckerboard="0"
     inkscape:deskcolor="#d1d1d1"
     showgrid="true"
     inkscape:zoom="3.6292469"
     inkscape:cx="82.937317"
     inkscape:cy="40.504271"
     inkscape:window-width="1920"
     inkscape:window-height="1057"
     inkscape:window-x="-8"
     inkscape:window-y="-8"
     inkscape:window-maximized="1"
     inkscape:current-layer="svg52">
    <inkscape:grid
       id="grid52"
       units="px"
       originx="-30"
       originy="-10"
       spacingx="10"
       spacingy="10"
       empcolor="#3f3fff"
       empopacity="0.25098039"
       color="#3f3fff"
       opacity="0.1254902"
       empspacing="1"
       enabled="true"
       visible="true" />
  </sodipodi:namedview>
  <!-- Retouche brochage servo : déplace chaque pastille rouge sur un CROISEMENT (lignes foncées = 50 px). Garde les id pin-<nom>. Marge 20 px. -->
  <g
     id="g53"
     transform="translate(-29.999997,-9.9999998)">
    <path
       stroke="#b44200"
       d="M 106.27696,76.8422 C 106.27696,76.8422 71.551685,77.852696 60.678327,76.8422 54.152207,76.231692 44.494602,70.115786 40,70"
       id="path42"
       style="opacity:0.85;fill:none;stroke-width:2.84202"
       sodipodi:nodetypes="ccc" />
    <path
       stroke="#ff2300"
       d="M 106.28328,80 H 40"
       id="path43"
       style="opacity:0.85;fill:none;stroke-width:2.84202"
       sodipodi:nodetypes="cc" />
    <path
       stroke="#f47b00"
       d="M 106.27696,83.1578 C 106.27696,83.1578 71.962199,82.515714 60.667801,82.99991 53.436439,83.305164 42.905176,90.094734 40,90"
       id="path44"
       style="opacity:0.85;fill:none;stroke-width:2.84202"
       sodipodi:nodetypes="ccc" />
    <path
       fill="#4d4d4d"
       d="M 191.11652,87.649244 C 185.50771,87.655333 181.89709,81.703976 184.49304,76.732191 187.08898,71.760405 194.03611,71.321621 197.23686,75.927491 197.34145,76.085255 197.58725,76.009029 197.58422,75.819768 V 60.719168 H 178.9911 V 99.64432 H 197.59685 V 84.543716 C 197.6111,84.345776 197.35006,84.261898 197.24634,84.431088 195.85482,86.448451 193.56041,87.652725 191.10968,87.652044 Z"
       id="path46"
       style="opacity:0.85;stroke-width:1.0526"
       sodipodi:nodetypes="cscccccccccc" />
    <path
       fill="#4d4d4d"
       d="M 76.538904,87.52609 C 82.145038,87.523003 85.746118,81.570905 83.147349,76.603621 80.548579,71.636337 73.605565,71.200666 70.406351,75.804336 70.301758,75.962095 70.055969,75.88587 70.058993,75.696613 V 60.596014 H 88.664751 V 99.52116 H 70.058993 V 84.420562 C 70.044732,84.22261 70.305794,84.138726 70.409509,84.307934 71.801024,86.325297 74.095439,87.52957 76.546167,87.52889 Z"
       id="path47"
       style="opacity:0.85;stroke-width:1.0526"
       sodipodi:nodetypes="cscccccccccc" />
    <rect
       fill="#666666"
       x="86.209137"
       y="57.170158"
       width="94.987671"
       height="46.024933"
       rx="5.6136208"
       id="rect47"
       style="opacity:0.85;stroke-width:1.0526"
       ry="5.6136208" />
    <path
       fill="#808080"
       d="M 134.43401,69.900303 H 119.25552 V 90.464949 H 134.43401 C 140.11278,90.464949 144.71633,85.861396 144.71633,80.182626 144.71633,74.503856 140.11278,69.900303 134.43401,69.900303 Z"
       id="path48"
       style="opacity:0.85;stroke-width:1.0526"
       sodipodi:nodetypes="sccsss" />
    <circle
       fill="#999999"
       cx="114.85249"
       cy="80.182098"
       r="19.584677"
       id="circle48"
       style="opacity:0.85;stroke-width:1.0526" />
    <path
       fill="#cccccc"
       d="M 125.51849,79.988421 120.97473,22.97329 C 120.97473,19.95717 118.23523,17.509033 114.85439,17.509033 111.47354,17.509033 108.73405,19.95717 108.73405,22.97329 L 104.19029,79.988421 C 104.11979,80.43381 104.08378,80.883975 104.08256,81.334907 104.08256,86.64738 108.90537,90.953671 114.85487,90.953671 120.80438,90.953671 125.62718,86.64738 125.62718,81.334907 125.62597,80.883976 125.58996,80.43381 125.51947,79.988421 Z M 114.8546,28.771011 C 117.47209,28.771014 118.78245,31.935439 116.93183,33.786056 115.08121,35.636674 111.91679,34.326305 111.91679,31.708817 111.91679,30.08631 113.23209,28.771009 114.8546,28.771011 Z M 114.8546,37.82916 C 117.47209,37.829163 118.78245,40.993588 116.93183,42.844205 115.08121,44.694823 111.91679,43.384454 111.91679,40.766966 111.91679,39.144459 113.23209,37.829158 114.8546,37.82916 Z M 114.8546,46.642474 C 117.47209,46.642477 118.78245,49.806901 116.93183,51.657519 115.08121,53.508137 111.91679,52.197768 111.91679,49.580281 111.91679,47.957774 113.23209,46.642472 114.8546,46.642474 Z M 114.8546,55.700624 C 117.47209,55.700627 118.78245,58.865052 116.93183,60.715669 115.08121,62.566287 111.91679,61.255918 111.91679,58.63843 111.91679,57.015923 113.23209,55.700622 114.8546,55.700624 Z M 121.08757,86.659695 C 115.53469,92.210763 106.04377,88.27745 106.04377,80.426724 106.04377,72.575998 115.53469,68.642685 121.08757,74.193753 124.53074,77.635799 124.53074,83.217649 121.08757,86.659695 Z"
       id="path49"
       style="opacity:0.85;stroke-width:1.0526"
       sodipodi:nodetypes="ccscccscccssssssssssssssssssss" />
    <circle
       fill="#808080"
       cx="114.85249"
       cy="80.182098"
       r="8.8133144"
       id="circle49"
       style="opacity:0.85;stroke-width:1.0526" />
    <circle
       fill="#cccccc"
       cx="114.85249"
       cy="80.182098"
       r="6.5781188"
       id="circle50"
       style="opacity:0.85;stroke-width:1.0526" />
    <path
       fill="#666666"
       d="M 118.47765,83.097802 115.96836,80.554194 C 115.79143,80.378905 115.79143,80.092965 115.96836,79.917676 L 118.52417,77.405857 C 118.77755,77.164956 118.80718,76.771262 118.59272,76.495147 118.34662,76.190821 117.89145,76.165786 117.61346,76.441286 L 115.05028,78.972683 C 114.87304,79.147197 114.58856,79.147197 114.41132,78.972683 L 111.8995,76.429076 C 111.65808,76.176798 111.26525,76.147231 110.98879,76.36053 110.68755,76.608201 110.66267,77.060571 110.93493,77.339785 L 113.46633,79.90055 C 113.64352,80.076682 113.64352,80.363378 113.46633,80.53951 L 110.92514,83.05133 C 110.67318,83.292607 110.64262,83.684629 110.85414,83.962039 111.10103,84.264818 111.55479,84.289776 111.8334,84.015901 L 114.39658,81.484503 C 114.57187,81.307575 114.85781,81.307575 115.0331,81.484503 L 117.54492,84.052636 C 117.82135,84.327314 118.27353,84.306968 118.52417,84.008574 118.7444,83.73796 118.72431,83.344635 118.47766,83.097865 Z"
       id="path50"
       style="opacity:0.85;stroke-width:1.0526"
       sodipodi:nodetypes="cccccccccccccccccccccc" />
    <g
       id="g50"
       transform="translate(20,-2.6299973)">
      <circle
         id="pin-GND"
         cx="20"
         cy="72.629997"
         r="3.2"
         fill="#ee0000"
         fill-opacity="0.85"
         stroke="#770000"
         stroke-width="0.5" />
      <text
         x="20"
         y="67.629997"
         font-size="5px"
         fill="#aa0000"
         text-anchor="middle"
         font-family="sans-serif"
         id="text50">GND</text>
    </g>
    <g
       id="g51"
       transform="translate(20,-2.6299973)">
      <circle
         id="pin-V+"
         cx="20"
         cy="82.629997"
         r="3.2"
         fill="#ee0000"
         fill-opacity="0.85"
         stroke="#770000"
         stroke-width="0.5" />
      <text
         x="20"
         y="77.629997"
         font-size="5px"
         fill="#aa0000"
         text-anchor="middle"
         font-family="sans-serif"
         id="text51">V+</text>
    </g>
    <g
       id="g52"
       transform="translate(20,-2.6299973)">
      <circle
         id="pin-PWM"
         cx="20"
         cy="92.629997"
         r="3.2"
         fill="#ee0000"
         fill-opacity="0.85"
         stroke="#770000"
         stroke-width="0.5" />
      <text
         x="20"
         y="87.629997"
         font-size="5px"
         fill="#aa0000"
         text-anchor="middle"
         font-family="sans-serif"
         id="text52">PWM</text>
    </g>
  </g>
</svg>
