<?xml version="1.0" encoding="UTF-8" standalone="no"?>
<svg
   viewBox="0 0 208.66299 82.67836"
   width="208.66299"
   height="82.67836"
   version="1.1"
   id="svg121"
   sodipodi:docname="Raspberry Pi Pico.svg"
   inkscape:version="1.4.3 (0d15f75, 2025-12-25)"
   xmlns:inkscape="http://www.inkscape.org/namespaces/inkscape"
   xmlns:sodipodi="http://sodipodi.sourceforge.net/DTD/sodipodi-0.dtd"
   xmlns="http://www.w3.org/2000/svg"
   xmlns:svg="http://www.w3.org/2000/svg">
  <sodipodi:namedview
     id="namedview121"
     pagecolor="#ffffff"
     bordercolor="#666666"
     borderopacity="1.0"
     inkscape:showpageshadow="2"
     inkscape:pageopacity="0.0"
     inkscape:pagecheckerboard="0"
     inkscape:deskcolor="#d1d1d1"
     showgrid="true"
     inkscape:zoom="3.2695885"
     inkscape:cx="173.26339"
     inkscape:cy="-1.8350933"
     inkscape:window-width="1920"
     inkscape:window-height="1057"
     inkscape:window-x="-8"
     inkscape:window-y="-8"
     inkscape:window-maximized="1"
     inkscape:current-layer="svg121">
    <inkscape:grid
       id="grid121"
       units="px"
       originx="-616.73263"
       originy="-883.64347"
       spacingx="1"
       spacingy="1"
       empcolor="#e43f25"
       empopacity="0.25098039"
       color="#3f3fff"
       opacity="0.1254902"
       empspacing="10"
       enabled="true"
       visible="true" />
  </sodipodi:namedview>
  <defs
     id="defs1">
    <filter
       id="ledFilter"
       x="-0.46153848"
       y="-0.46153848"
       height="1.923077"
       width="1.923077">
      <feGaussianBlur
         stdDeviation="0.5"
         id="feGaussianBlur1" />
    </filter>
  </defs>
  <g
     id="g1">
    <g
       id="g121"
       transform="translate(-614.26674,-893.98498)">
      <path
         d="M 633.70848,957.7452 C 633.70848,955.816 632.13898,954.2465 630.20847,954.2465 628.27787,954.2465 626.70987,955.816 626.70987,957.7452 626.70987,959.67431 628.27927,961.24381 630.20847,961.24381 632.13758,961.24381 633.70848,959.67431 633.70848,957.7452 Z M 818.36163,912.90322 C 818.36163,910.97402 816.79223,909.40461 814.86163,909.40461 812.93112,909.40461 811.36162,910.97402 811.36162,912.90322 811.36162,914.83382 812.93102,916.40323 814.86163,916.40323 816.79223,916.40323 818.36163,914.83382 818.36163,912.90322 Z M 633.70848,912.90322 C 633.70848,910.97402 632.13898,909.40461 630.20847,909.40461 628.27787,909.40461 626.70987,910.97402 626.70987,912.90322 626.70987,914.83382 628.27927,916.40323 630.20847,916.40323 632.13758,916.40323 633.70848,914.83382 633.70848,912.90322 Z"
         fill="none"
         id="path1"
         style="stroke-width:1" />
      <circle
         r="3.4986067"
         cx="-957.74518"
         cy="814.86151"
         fill="none"
         id="circle1"
         transform="rotate(-90)"
         style="stroke-width:1" />
      <path
         d="M 635.84458,893.98638 H 629.20277 C 629.20277,894.26008 629.12077,894.50868 629.00417,894.73778 H 636.04168 C 635.92498,894.50868 635.84448,894.26008 635.84448,893.98638 Z M 645.8446,893.98638 H 639.20279 C 639.20279,894.26008 639.12079,894.50868 639.00419,894.73778 H 646.0417 C 645.9264,894.50868 645.8445,894.26008 645.8445,893.98638 Z M 655.84462,893.98638 H 649.20431 C 649.20431,894.26008 649.12231,894.50868 649.00571,894.73778 H 656.04182 C 655.92512,894.50868 655.84462,894.26008 655.84462,893.98638 Z M 665.84324,893.98638 H 659.20433 C 659.20433,894.26008 659.12233,894.50868 659.00573,894.73778 H 666.04044 C 665.92384,894.50868 665.84324,894.26008 665.84324,893.98638 Z M 675.84326,893.98638 H 669.20295 C 669.20295,894.26008 669.12095,894.50868 669.00435,894.73778 H 676.04046 C 675.92386,894.50868 675.84326,894.26008 675.84326,893.98638 Z M 685.84328,893.98638 H 679.20297 C 679.20297,894.26008 679.12097,894.50868 679.00437,894.73778 H 686.04048 C 685.92388,894.50868 685.84328,894.26008 685.84328,893.98638 Z M 695.8433,893.98638 H 689.20299 C 689.20299,894.26008 689.12099,894.50868 689.00439,894.73778 H 696.0405 C 695.9239,894.50868 695.8433,894.26008 695.8433,893.98638 Z M 705.84332,893.98638 H 699.20301 C 699.20301,894.26008 699.12101,894.50868 699.00441,894.73778 H 706.04052 C 705.92392,894.50868 705.84332,894.26008 705.84332,893.98638 Z M 715.84334,893.98638 H 709.20303 C 709.20303,894.26008 709.12113,894.50868 709.00443,894.73778 H 716.04054 C 715.92394,894.50868 715.84334,894.26008 715.84334,893.98638 Z M 725.84336,893.98638 H 719.20305 C 719.20305,894.26008 719.12115,894.50868 719.00445,894.73778 H 726.04056 C 725.92396,894.50868 725.84336,894.26008 725.84336,893.98638 Z M 735.84338,893.98638 H 729.20316 C 729.20316,894.26008 729.12116,894.50868 729.00446,894.73778 H 736.04058 C 735.92398,894.50868 735.84338,894.26008 735.84338,893.98638 Z M 745.8434,893.98638 H 739.20308 C 739.20308,894.26008 739.12118,894.50868 739.00448,894.73778 H 746.0406 C 745.924,894.50868 745.8434,894.26008 745.8434,893.98638 Z M 755.84342,893.98638 H 749.2032 C 749.2032,894.26008 749.1212,894.50868 749.0045,894.73778 H 756.04062 C 755.92402,894.50868 755.84342,894.26008 755.84342,893.98638 Z M 765.84343,893.98638 H 759.20322 C 759.20322,894.26008 759.12122,894.50868 759.00452,894.73778 H 766.04072 C 765.92403,894.50868 765.84343,894.26008 765.84343,893.98638 Z M 775.84345,893.98638 H 769.20323 C 769.20323,894.26008 769.12124,894.50868 769.00453,894.73778 H 776.04074 C 775.92405,894.50868 775.84345,894.26008 775.84345,893.98638 Z M 785.84347,893.98638 H 779.20325 C 779.20325,894.26008 779.12126,894.50868 779.00455,894.73778 H 786.04076 C 785.92407,894.50868 785.84347,894.26008 785.84347,893.98638 Z M 795.84349,893.98638 H 789.20327 C 789.20327,894.26008 789.12128,894.50868 789.00457,894.73778 H 796.04078 C 795.92409,894.50868 795.84349,894.26008 795.84349,893.98638 Z M 805.84351,893.98638 H 799.20329 C 799.20329,894.26008 799.1213,894.50868 799.0047,894.73778 H 806.04071 C 805.92411,894.50868 805.84351,894.26008 805.84351,893.98638 Z M 815.84212,893.98638 H 809.20331 C 809.20331,894.26008 809.12132,894.50868 809.00472,894.73778 H 816.03942 C 815.92273,894.50868 815.84223,894.26008 815.84223,893.98638 Z M 819.20193,893.98638 C 819.20193,894.26008 819.11994,894.50868 819.00333,894.73778 H 821.19364 C 821.73664,894.73778 822.17833,895.17808 822.17833,895.72258 822.15114,899.92419 820.60243,924.25864 822.92974,923.64354 V 895.56018 C 822.92974,894.69068 822.22414,893.98518 821.35474,893.98518 H 819.20193 Z M 622.60146,894.44758 623.17926,895.02668 A 0.98140186,0.98140186 0 0 1 623.87506,894.73778 H 626.03906 C 625.92236,894.50868 625.84036,894.26008 625.84036,893.98638 H 623.71536 A 1.567803,1.567803 0 0 0 622.60146,894.44758 Z M 822.17693,974.92714 A 0.97460185,0.97460185 0 0 1 821.88803,975.62294 L 822.46583,976.20214 A 1.571403,1.571403 0 0 0 822.92684,975.08814 V 919.75223 C 820.51504,920.76563 822.17693,970.37013 822.17693,974.92714 Z"
         fill="#004e29"
         id="path2"
         style="stroke-width:1" />
      <path
         d="M 623.87646,975.91194 H 626.04046 C 626.31816,975.36754 626.86947,974.98274 627.52237,974.98274 628.17507,974.98274 628.72647,975.36754 629.00427,975.91194 H 636.04318 C 636.32098,975.36754 636.87238,974.98274 637.52519,974.98274 638.17789,974.98274 638.72929,975.36754 639.00709,975.91194 H 646.0446 C 646.3224,975.36754 646.8738,974.98274 647.5266,974.98274 648.17931,974.98274 648.73071,975.36754 649.00851,975.91194 H 656.04452 C 656.32242,975.36754 656.87382,974.98274 657.52652,974.98274 658.17932,974.98274 658.73073,975.36754 659.00852,975.91194 H 666.04324 C 666.32105,975.36754 666.87245,974.98274 667.52525,974.98274 668.17795,974.98274 668.72935,975.36754 669.00715,975.91194 H 676.04326 C 676.32106,975.36754 676.87247,974.98274 677.52527,974.98274 678.17797,974.98274 678.72937,975.36754 679.00717,975.91194 H 686.04328 C 686.32108,975.36754 686.87248,974.98274 687.52529,974.98274 688.17799,974.98274 688.72939,975.36754 689.00719,975.91194 H 696.0433 C 696.3211,975.36754 696.8725,974.98274 697.5253,974.98274 698.17801,974.98274 698.72941,975.36754 699.00721,975.91194 H 706.04332 C 706.32112,975.36754 706.87252,974.98274 707.52532,974.98274 708.17802,974.98274 708.72943,975.36754 709.00733,975.91194 H 716.04334 C 716.32114,975.36754 716.87254,974.98274 717.52534,974.98274 718.17804,974.98274 718.72944,975.36754 719.00735,975.91194 H 726.04336 C 726.32116,975.36754 726.87256,974.98274 727.52536,974.98274 728.17806,974.98274 728.72946,975.36754 729.00736,975.91194 H 736.04338 C 736.32118,975.36754 736.87258,974.98274 737.52538,974.98274 738.17818,974.98274 738.72948,975.36754 739.00738,975.91194 H 746.0434 C 746.3212,975.36754 746.8726,974.98274 747.5254,974.98274 748.1782,974.98274 748.7295,975.36754 749.0074,975.91194 H 756.04342 C 756.32122,975.36754 756.87262,974.98274 757.52542,974.98274 758.17822,974.98274 758.72952,975.36754 759.00742,975.91194 H 766.04343 C 766.32124,975.36754 766.87264,974.98274 767.52544,974.98274 768.17823,974.98274 768.72964,975.36754 769.00744,975.91194 H 776.04345 C 776.32125,975.36754 776.87266,974.98274 777.52546,974.98274 778.17825,974.98274 778.72966,975.36754 779.00746,975.91194 H 786.04347 C 786.32127,975.36754 786.87267,974.98274 787.52548,974.98274 788.17827,974.98274 788.72968,975.36754 789.00748,975.91194 H 796.04349 C 796.32129,975.36754 796.87269,974.98274 797.52549,974.98274 798.17829,974.98274 798.7297,975.36754 799.0075,975.91194 H 806.04351 C 806.32131,975.36754 806.87271,974.98274 807.52551,974.98274 808.1783,974.98274 808.72972,975.36754 809.00752,975.91194 H 816.04223 C 816.31993,975.36754 816.87133,974.98274 817.52422,974.98274 818.17692,974.98274 818.72823,975.36754 819.00614,975.91194 H 821.19634 C 821.73934,975.91194 822.18114,975.47164 822.18114,974.92724 822.19814,945.77938 822.25214,925.01214 822.18114,895.72108 822.18114,895.17808 821.74083,894.73638 821.19634,894.73638 H 819.00614 C 818.72832,895.28088 818.17692,895.66558 817.52413,895.66558 816.87133,895.66558 816.31993,895.28088 816.04212,894.73638 H 809.00742 C 808.72972,895.28088 808.1783,895.66558 807.52541,895.66558 806.87271,895.66558 806.32141,895.28088 806.04361,894.73638 H 799.0074 C 798.7297,895.28088 798.17829,895.66558 797.52539,895.66558 796.87269,895.66558 796.32139,895.28088 796.04359,894.73638 H 789.00738 C 788.72968,895.28088 788.17827,895.66558 787.52538,895.66558 786.87267,895.66558 786.32137,895.28088 786.04347,894.73638 H 779.00746 C 778.72966,895.28088 778.17825,895.66558 777.52546,895.66558 776.87266,895.66558 776.32125,895.28088 776.04345,894.73638 H 769.00744 C 768.72964,895.28088 768.17823,895.66558 767.52544,895.66558 766.87264,895.66558 766.32124,895.28088 766.04343,894.73638 H 759.00742 C 758.72952,895.28088 758.17822,895.66558 757.52542,895.66558 756.87262,895.66558 756.32122,895.28088 756.04342,894.73638 H 749.0074 C 748.7295,895.28088 748.1782,895.66558 747.5254,895.66558 746.8726,895.66558 746.3212,895.28088 746.0434,894.73638 H 739.00738 C 738.72948,895.28088 738.17818,895.66558 737.52538,895.66558 736.87258,895.66558 736.32118,895.28088 736.04338,894.73638 H 729.00736 C 728.72946,895.28088 728.17806,895.66558 727.52536,895.66558 726.87256,895.66558 726.32116,895.28088 726.04336,894.73638 H 719.00735 C 718.72944,895.28088 718.17804,895.66558 717.52534,895.66558 716.87254,895.66558 716.32114,895.28088 716.04334,894.73638 H 709.00733 C 708.72943,895.28088 708.17802,895.66558 707.52532,895.66558 706.87252,895.66558 706.32112,895.28088 706.04332,894.73638 H 699.00721 C 698.72941,895.28088 698.17801,895.66558 697.52519,895.66558 696.8725,895.66558 696.3211,895.28088 696.0433,894.73638 H 689.00719 C 688.72939,895.28088 688.17799,895.66558 687.52518,895.66558 686.87248,895.66558 686.32108,895.28088 686.04328,894.73638 H 679.00717 C 678.72937,895.28088 678.17797,895.66558 677.52516,895.66558 676.87247,895.66558 676.32106,895.28088 676.04326,894.73638 H 669.00715 C 668.72935,895.28088 668.17795,895.66558 667.52514,895.66558 666.87245,895.66558 666.32105,895.28088 666.04324,894.73638 H 659.00852 C 658.73073,895.28088 658.17932,895.66558 657.52652,895.66558 656.87382,895.66558 656.32242,895.28088 656.04452,894.73638 H 649.00851 C 648.73071,895.28088 648.17931,895.66558 647.5265,895.66558 646.8738,895.66558 646.3224,895.28088 646.0445,894.73638 H 639.00709 C 638.72929,895.28088 638.17789,895.66558 637.52509,895.66558 636.87238,895.66558 636.32098,895.28088 636.04318,894.73638 H 629.00567 C 628.72787,895.28088 628.17647,895.66558 627.52367,895.66558 626.87097,895.66558 626.31956,895.28088 626.04176,894.73638 H 623.87646 C 623.33346,894.73638 622.89176,895.17668 622.89176,895.72118 V 974.92724 C 622.89176,975.47164 623.33346,975.91194 623.87646,975.91194 Z M 819.18384,970.32443 C 819.18384,971.24113 818.43803,971.98693 817.52133,971.98693 816.60473,971.98693 815.85883,971.24113 815.85883,970.32443 815.85883,969.40773 816.60473,968.66193 817.52133,968.66193 818.43803,968.66193 819.18384,969.40773 819.18384,970.32443 Z M 807.52281,968.66193 C 808.43941,968.66193 809.18522,969.40773 809.18522,970.32443 809.18522,971.24113 808.43941,971.98693 807.52271,971.98693 806.60601,971.98693 805.86021,971.24113 805.86021,970.32443 805.86021,969.40773 806.60601,968.66193 807.52271,968.66193 Z M 797.52279,968.66193 C 798.43939,968.66193 799.1852,969.40773 799.1852,970.32443 799.1852,971.24113 798.43939,971.98693 797.52269,971.98693 796.60599,971.98693 795.86019,971.24113 795.86019,970.32443 795.86019,969.40773 796.60599,968.66193 797.52269,968.66193 Z M 787.52278,968.66193 C 788.43937,968.66193 789.18518,969.40773 789.18518,970.32443 789.18518,971.24113 788.43937,971.98693 787.52268,971.98693 786.60597,971.98693 785.86017,971.24113 785.86017,970.32443 785.86017,969.40773 786.60597,968.66193 787.52268,968.66193 Z M 777.52276,968.66193 C 778.43935,968.66193 779.18516,969.40773 779.18516,970.32443 779.18516,971.24113 778.43935,971.98693 777.52266,971.98693 776.60595,971.98693 775.86015,971.24113 775.86015,970.32443 775.86015,969.40773 776.60595,968.66193 777.52266,968.66193 Z M 767.52264,968.66193 C 768.43933,968.66193 769.18514,969.40773 769.18514,970.32443 769.18514,971.24113 768.43933,971.98693 767.52264,971.98693 766.60594,971.98693 765.86013,971.24113 765.86013,970.32443 765.86013,969.40773 766.60734,968.66193 767.52264,968.66193 Z M 757.52262,968.66193 C 758.43932,968.66193 759.18512,969.40773 759.18512,970.32443 759.18512,971.24113 758.43932,971.98693 757.52262,971.98693 756.60592,971.98693 755.86012,971.24113 755.86012,970.32443 755.86012,969.40773 756.60732,968.66193 757.52262,968.66193 Z M 747.5226,968.66193 C 748.4393,968.66193 749.1851,969.40773 749.1851,970.32443 749.1851,971.24113 748.4393,971.98693 747.5226,971.98693 746.6059,971.98693 745.8601,971.24113 745.8601,970.32443 745.8601,969.40773 746.6059,968.66193 747.5226,968.66193 Z M 737.52258,968.66193 C 738.43928,968.66193 739.18508,969.40773 739.18508,970.32443 739.18508,971.24113 738.43928,971.98693 737.52258,971.98693 736.60588,971.98693 735.86008,971.24113 735.86008,970.32443 735.86008,969.40773 736.60588,968.66193 737.52258,968.66193 Z M 727.52256,968.66193 C 728.43926,968.66193 729.18506,969.40773 729.18506,970.32443 729.18506,971.24113 728.43926,971.98693 727.52256,971.98693 726.60586,971.98693 725.86006,971.24113 725.86006,970.32443 725.86006,969.40773 726.60586,968.66193 727.52256,968.66193 Z M 717.52254,968.66193 C 718.43924,968.66193 719.18505,969.40773 719.18505,970.32443 719.18505,971.24113 718.43924,971.98693 717.52254,971.98693 716.60584,971.98693 715.86004,971.24113 715.86004,970.32443 715.86004,969.40773 716.60724,968.66193 717.52254,968.66193 Z M 707.52252,968.66193 C 708.43923,968.66193 709.18503,969.40773 709.18503,970.32443 709.18503,971.24113 708.43923,971.98693 707.52252,971.98693 706.60582,971.98693 705.86002,971.24113 705.86002,970.32443 705.86002,969.40773 706.60722,968.66193 707.52252,968.66193 Z M 697.5225,968.66193 C 698.43911,968.66193 699.18501,969.40773 699.18501,970.32443 699.18501,971.24113 698.43911,971.98693 697.5225,971.98693 696.6058,971.98693 695.86,971.24113 695.86,970.32443 695.86,969.40773 696.6058,968.66193 697.5225,968.66193 Z M 687.52249,968.66193 C 688.43909,968.66193 689.18499,969.40773 689.18499,970.32443 689.18499,971.24113 688.43909,971.98693 687.52249,971.98693 686.60578,971.98693 685.85998,971.24113 685.85998,970.32443 685.85998,969.40773 686.60578,968.66193 687.52249,968.66193 Z M 677.52247,968.66193 C 678.43907,968.66193 679.18497,969.40773 679.18497,970.32443 679.18497,971.24113 678.43907,971.98693 677.52247,971.98693 676.60576,971.98693 675.85996,971.24113 675.85996,970.32443 675.85996,969.40773 676.60576,968.66193 677.52247,968.66193 Z M 667.52245,968.66193 C 668.43905,968.66193 669.18495,969.40773 669.18495,970.32443 669.18495,971.24113 668.43905,971.98693 667.52245,971.98693 666.60575,971.98693 665.85994,971.24113 665.85994,970.32443 665.85994,969.40773 666.60715,968.66193 667.52245,968.66193 Z M 657.52382,968.66193 C 658.44043,968.66193 659.18632,969.40773 659.18632,970.32443 659.18632,971.24113 658.44043,971.98693 657.52382,971.98693 656.60712,971.98693 655.86132,971.24113 655.86132,970.32443 655.86132,969.40773 656.60712,968.66193 657.52382,968.66193 Z M 647.5251,968.66193 C 648.44181,968.66193 649.18761,969.40773 649.18761,970.32443 649.18761,971.24113 648.44181,971.98693 647.5251,971.98693 646.6085,971.98693 645.8626,971.24113 645.8626,970.32443 645.8626,969.40773 646.6085,968.66193 647.5251,968.66193 Z M 637.52379,968.66193 C 638.44039,968.66193 639.18629,969.40773 639.18629,970.32443 639.18629,971.24113 638.44039,971.98693 637.52379,971.98693 636.60708,971.98693 635.86128,971.24113 635.86128,970.32443 635.86128,969.40773 636.60848,968.66193 637.52379,968.66193 Z M 627.52237,968.66193 C 628.43897,968.66193 629.18487,969.40773 629.18487,970.32443 629.18487,971.24113 628.43897,971.98693 627.52237,971.98693 626.60566,971.98693 625.85986,971.24113 625.85986,970.32443 625.85986,969.40773 626.60566,968.66193 627.52237,968.66193 Z M 818.36163,957.7452 C 818.36163,959.67431 816.79223,961.24381 814.86163,961.24381 812.93112,961.24381 811.36162,959.67431 811.36162,957.7452 811.36162,955.816 812.93102,954.2465 814.86163,954.2465 816.79223,954.2465 818.36163,955.816 818.36163,957.7452 Z M 633.70848,957.7452 C 633.70848,959.67431 632.13898,961.24381 630.20847,961.24381 628.27787,961.24381 626.70987,959.67431 626.70987,957.7452 626.70987,955.816 628.27927,954.2465 630.20847,954.2465 632.13758,954.2465 633.70848,955.816 633.70848,957.7452 Z M 817.52143,901.98649 C 816.60473,901.98649 815.85883,901.24059 815.85883,900.32399 815.85883,899.40729 816.60473,898.66149 817.52133,898.66149 818.43803,898.66149 819.18384,899.40729 819.18384,900.32399 819.18384,901.24059 818.43803,901.98649 817.52133,901.98649 Z M 807.52271,901.98649 C 806.60601,901.98649 805.86021,901.24059 805.86021,900.32399 805.86021,899.40729 806.60601,898.66149 807.52271,898.66149 808.43941,898.66149 809.18522,899.40729 809.18522,900.32399 809.18522,901.24059 808.43941,901.98649 807.52271,901.98649 Z M 797.52269,901.98649 C 796.60599,901.98649 795.86019,901.24059 795.86019,900.32399 795.86019,899.40729 796.60599,898.66149 797.52269,898.66149 798.43939,898.66149 799.1852,899.40729 799.1852,900.32399 799.1852,901.24059 798.43939,901.98649 797.52269,901.98649 Z M 787.52268,901.98649 C 786.60597,901.98649 785.86017,901.24059 785.86017,900.32399 785.86017,899.40729 786.60597,898.66149 787.52268,898.66149 788.43937,898.66149 789.18518,899.40729 789.18518,900.32399 789.18518,901.24059 788.43937,901.98649 787.52268,901.98649 Z M 777.52266,901.98649 C 776.60595,901.98649 775.86015,901.24059 775.86015,900.32399 775.86015,899.40729 776.60595,898.66149 777.52266,898.66149 778.43935,898.66149 779.18516,899.40729 779.18516,900.32399 779.18516,901.24059 778.43935,901.98649 777.52266,901.98649 Z M 767.52264,901.98649 C 766.60594,901.98649 765.86013,901.24059 765.86013,900.32399 765.86013,899.40729 766.60594,898.66149 767.52264,898.66149 768.43933,898.66149 769.18514,899.40729 769.18514,900.32399 769.18514,901.24059 768.43933,901.98649 767.52264,901.98649 Z M 757.52262,901.98649 C 756.60592,901.98649 755.86012,901.24059 755.86012,900.32399 755.86012,899.40729 756.60592,898.66149 757.52262,898.66149 758.43932,898.66149 759.18512,899.40729 759.18512,900.32399 759.18512,901.24059 758.43932,901.98649 757.52262,901.98649 Z M 747.5226,901.98649 C 746.6059,901.98649 745.8601,901.24059 745.8601,900.32399 745.8601,899.40729 746.6059,898.66149 747.5226,898.66149 748.4393,898.66149 749.1851,899.40729 749.1851,900.32399 749.1851,901.24059 748.4393,901.98649 747.5226,901.98649 Z M 737.52258,901.98649 C 736.60588,901.98649 735.86008,901.24059 735.86008,900.32399 735.86008,899.40729 736.60588,898.66149 737.52258,898.66149 738.43928,898.66149 739.18508,899.40729 739.18508,900.32399 739.18508,901.24059 738.43928,901.98649 737.52258,901.98649 Z M 727.52256,901.98649 C 726.60586,901.98649 725.86006,901.24059 725.86006,900.32399 725.86006,899.40729 726.60586,898.66149 727.52256,898.66149 728.43926,898.66149 729.18506,899.40729 729.18506,900.32399 729.18506,901.24059 728.43926,901.98649 727.52256,901.98649 Z M 717.52254,901.98649 C 716.60584,901.98649 715.86004,901.24059 715.86004,900.32399 715.86004,899.40729 716.60584,898.66149 717.52254,898.66149 718.43924,898.66149 719.18505,899.40729 719.18505,900.32399 719.18505,901.24059 718.43924,901.98649 717.52254,901.98649 Z M 707.52252,901.98649 C 706.60582,901.98649 705.86002,901.24059 705.86002,900.32399 705.86002,899.40729 706.60582,898.66149 707.52252,898.66149 708.43923,898.66149 709.18503,899.40729 709.18503,900.32399 709.18503,901.24059 708.43923,901.98649 707.52252,901.98649 Z M 697.5225,901.98649 C 696.6058,901.98649 695.86,901.24059 695.86,900.32399 695.86,899.40729 696.6058,898.66149 697.5225,898.66149 698.43911,898.66149 699.18501,899.40729 699.18501,900.32399 699.18501,901.24059 698.43911,901.98649 697.5225,901.98649 Z M 687.52249,901.98649 C 686.60578,901.98649 685.85998,901.24059 685.85998,900.32399 685.85998,899.40729 686.60578,898.66149 687.52249,898.66149 688.43909,898.66149 689.18499,899.40729 689.18499,900.32399 689.18499,901.24059 688.43909,901.98649 687.52249,901.98649 Z M 677.52247,901.98649 C 676.60576,901.98649 675.85996,901.24059 675.85996,900.32399 675.85996,899.40729 676.60576,898.66149 677.52247,898.66149 678.43907,898.66149 679.18497,899.40729 679.18497,900.32399 679.18497,901.24059 678.43907,901.98649 677.52247,901.98649 Z M 667.52245,901.98649 C 666.60575,901.98649 665.85994,901.24059 665.85994,900.32399 665.85994,899.40729 666.60575,898.66149 667.52245,898.66149 668.43905,898.66149 669.18495,899.40729 669.18495,900.32399 669.18495,901.24059 668.43905,901.98649 667.52245,901.98649 Z M 657.52382,901.98649 C 656.60712,901.98649 655.86132,901.24059 655.86132,900.32399 655.86132,899.40729 656.60712,898.66149 657.52382,898.66149 658.44043,898.66149 659.18632,899.40729 659.18632,900.32399 659.18632,901.24059 658.44043,901.98649 657.52382,901.98649 Z M 647.5251,901.98649 C 646.6085,901.98649 645.8626,901.24059 645.8626,900.32399 645.8626,899.40729 646.6085,898.66149 647.5251,898.66149 648.44181,898.66149 649.18761,899.40729 649.18761,900.32399 649.18761,901.24059 648.44181,901.98649 647.5251,901.98649 Z M 637.52379,901.98649 C 636.60708,901.98649 635.86128,901.24059 635.86128,900.32399 635.86128,899.40729 636.60708,898.66149 637.52379,898.66149 638.44039,898.66149 639.18629,899.40729 639.18629,900.32399 639.18629,901.24059 638.44039,901.98649 637.52379,901.98649 Z M 627.52237,901.98649 C 626.60566,901.98649 625.85986,901.24059 625.85986,900.32399 625.85986,899.40729 626.60566,898.66149 627.52237,898.66149 628.43897,898.66149 629.18487,899.40729 629.18487,900.32399 629.18487,901.24059 628.43897,901.98649 627.52237,901.98649 Z M 818.36163,912.90312 C 818.36163,914.83382 816.79223,916.40323 814.86163,916.40323 812.93112,916.40323 811.36162,914.83382 811.36162,912.90322 811.36162,910.97402 812.93112,909.40461 814.86163,909.40461 816.79223,909.40461 818.36163,910.97402 818.36163,912.90322 Z M 633.70848,912.90312 C 633.70848,914.83382 632.13898,916.40323 630.20847,916.40323 628.27787,916.40323 626.70987,914.83382 626.70987,912.90322 626.70987,910.97402 628.27927,909.40461 630.20847,909.40461 632.13758,909.40461 633.70848,910.97402 633.70848,912.90322 Z"
         fill="#006837"
         id="path3"
         style="stroke-width:1" />
      <path
         d="M 622.14036,895.56008 V 975.08824 C 622.14036,975.95784 622.84596,976.66334 623.71536,976.66334 H 625.84316 C 625.84316,976.38974 625.92516,976.14114 626.04176,975.91194 H 623.87646 C 623.33346,975.91194 622.89176,975.47164 622.89176,974.92724 V 895.72108 A 0.97570185,0.97570185 0 0 1 623.18066,895.02528 L 622.60286,894.44618 C 622.31676,894.73218 622.14036,895.12528 622.14036,895.56008 Z M 639.20429,976.66334 H 645.846 C 645.846,976.38974 645.928,976.14114 646.0446,975.91194 H 639.00709 C 639.12239,976.14114 639.20429,976.38974 639.20429,976.66334 Z M 649.20431,976.66334 H 655.84462 C 655.84462,976.38974 655.92662,976.14114 656.04322,975.91194 H 649.00711 C 649.12381,976.14114 649.20431,976.38974 649.20431,976.66334 Z M 659.20433,976.66334 H 665.84334 C 665.84334,976.38974 665.92513,976.14114 666.04184,975.91194 H 659.00713 C 659.12243,976.14114 659.20433,976.38974 659.20433,976.66334 Z M 669.20295,976.66334 H 675.84326 C 675.84326,976.38974 675.92526,976.14114 676.04186,975.91194 H 669.00585 C 669.12095,976.14114 669.20285,976.38974 669.20285,976.66334 Z M 679.20297,976.66334 H 685.84328 C 685.84328,976.38974 685.92528,976.14114 686.04188,975.91194 H 679.00587 C 679.12097,976.14114 679.20287,976.38974 679.20287,976.66334 Z M 689.20299,976.66334 H 695.8433 C 695.8433,976.38974 695.9253,976.14114 696.0419,975.91194 H 689.00589 C 689.12099,976.14114 689.20289,976.38974 689.20289,976.66334 Z M 699.20301,976.66334 H 705.84332 C 705.84332,976.38974 705.92532,976.14114 706.04192,975.91194 H 699.00591 C 699.12101,976.14114 699.20291,976.38974 699.20291,976.66334 Z M 709.20303,976.66334 H 715.84334 C 715.84334,976.38974 715.92534,976.14114 716.04194,975.91194 H 709.00593 C 709.12103,976.14114 709.20293,976.38974 709.20293,976.66334 Z M 719.20305,976.66334 H 725.84336 C 725.84336,976.38974 725.92536,976.14114 726.04196,975.91194 H 719.00595 C 719.12115,976.14114 719.20305,976.38974 719.20305,976.66334 Z M 729.20306,976.66334 H 735.84338 C 735.84338,976.38974 735.92538,976.14114 736.04198,975.91194 H 729.00596 C 729.12116,976.14114 729.20306,976.38974 729.20306,976.66334 Z M 739.20308,976.66334 H 745.8434 C 745.8434,976.38974 745.9254,976.14114 746.042,975.91194 H 739.00598 C 739.12118,976.14114 739.20308,976.38974 739.20308,976.66334 Z M 749.2031,976.66334 H 755.84342 C 755.84342,976.38974 755.92542,976.14114 756.04212,975.91194 H 749.0059 C 749.1212,976.14114 749.2032,976.38974 749.2032,976.66334 Z M 759.20322,976.66334 H 765.84343 C 765.84343,976.38974 765.92543,976.14114 766.04202,975.91194 H 759.00602 C 759.12122,976.14114 759.20322,976.38974 759.20322,976.66334 Z M 769.20314,976.66334 H 775.84345 C 775.84345,976.38974 775.92545,976.14114 776.04215,975.91194 H 769.00594 C 769.12124,976.14114 769.20323,976.38974 769.20323,976.66334 Z M 779.20325,976.66334 H 785.84347 C 785.84347,976.38974 785.92547,976.14114 786.04217,975.91194 H 779.00596 C 779.12126,976.14114 779.20325,976.38974 779.20325,976.66334 Z M 789.20327,976.66334 H 795.84349 C 795.84349,976.38974 795.92549,976.14114 796.04219,975.91194 H 789.00598 C 789.12128,976.14114 789.20327,976.38974 789.20327,976.66334 Z M 799.20329,976.66334 H 805.84351 C 805.84351,976.38974 805.92551,976.14114 806.04221,975.91194 H 799.006 C 799.1213,976.14114 799.20329,976.38974 799.20329,976.66334 Z M 809.20331,976.66334 H 815.84223 C 815.84223,976.38974 815.92422,976.14114 816.04082,975.91194 H 809.00602 C 809.12132,976.14114 809.20331,976.38974 809.20331,976.66334 Z M 629.20287,976.66334 H 635.84458 C 635.84458,976.38974 635.92658,976.14114 636.04318,975.91194 H 629.00427 C 629.12097,976.14114 629.20287,976.38974 629.20287,976.66334 Z M 822.46713,976.20224 821.88943,975.62304 A 0.98140186,0.98140186 0 0 1 821.19364,975.91204 H 819.00463 C 819.12134,976.14104 819.20333,976.38974 819.20333,976.66334 H 821.35614 C 821.78803,976.66334 822.18254,976.48694 822.46713,976.20224 Z"
         fill="#33865f"
         id="path4"
         style="stroke-width:1" />
      <path
         d="M 708.66413,949.19509 V 921.45324 H 736.40588 V 949.19509 Z"
         fill="#30312e"
         id="path7"
         style="stroke-width:1" />
      <path
         d="M 637.89039,922.33244 V 948.31729 A 0.7878015,0.7878015 0 0 1 637.10288,949.10479 H 617.74735 A 0.7878015,0.7878015 0 0 1 616.95985,948.31729 V 922.33244 A 0.7878015,0.7878015 0 0 1 617.74735,921.54494 H 637.10278 A 0.7878015,0.7878015 0 0 1 637.89029,922.33244 Z"
         fill="#363a44"
         id="path8"
         style="stroke-width:1" />
      <path
         d="M 614.26674,947.13128 A 0.7893015,0.7893015 0 0 0 614.82644,947.88529 L 616.25705,948.31729 617.04455,949.10479 H 637.10278 A 0.7878015,0.7878015 0 0 0 637.89029,948.31729 V 943.51178 A 0.39270075,0.39270075 0 0 0 637.49729,943.11868 H 636.34728 A 0.78580149,0.78580149 0 0 0 635.65698,943.52838 L 634.19588,946.20338 A 0.78580149,0.78580149 0 0 1 633.50558,946.61318 H 632.35698 V 944.86588 H 631.03057 V 942.16588 H 632.35418 V 940.57697 H 635.09168 A 0.7878015,0.7878015 0 0 0 635.87918,939.78947 V 938.51167 H 634.45978 V 932.13806 H 635.87918 V 930.86025 A 0.7878015,0.7878015 0 0 0 635.09168,930.07275 H 632.35418 V 928.48385 H 631.03077 V 925.78384 H 632.35438 V 924.03664 H 633.50298 A 0.78580149,0.78580149 0 0 1 634.19328,924.44634 L 635.65578,927.12135 A 0.78580149,0.78580149 0 0 0 636.34608,927.53105 H 637.49609 C 637.71409,927.53105 637.88909,927.35465 637.88909,927.13805 V 922.33244 A 0.7878015,0.7878015 0 0 0 637.10158,921.54494 H 617.04445 L 616.25705,922.33244 614.82644,922.76444 A 0.7893015,0.7893015 0 0 0 614.26674,923.51844 Z"
         fill="#cccccc"
         id="path9"
         style="stroke-width:1" />
      <path
         d="M 618.27095,948.24089 C 617.80985,948.58679 617.34455,948.93819 616.81255,949.25349 616.28615,949.57569 615.65844,949.80899 615.07094,949.92149 L 615.05294,949.92429 A 0.46990089,0.46990089 0 0 1 614.50144,949.55069 C 614.45564,949.31319 614.59864,949.08269 614.82364,949.01169 615.82784,948.70069 616.54595,947.98669 617.36115,947.18958 617.63345,946.91868 618.07515,946.92008 618.34595,947.19228 618.61675,947.46459 618.61535,947.90629 618.34595,948.17709 618.32505,948.19789 618.29595,948.22289 618.27365,948.24099 Z M 617.36115,923.45884 C 616.54595,922.66024 615.82784,921.94774 614.82364,921.63664 A 0.4711009,0.4711009 0 0 1 614.51394,921.04634 0.4736009,0.4736009 0 0 1 615.05144,920.72273 L 615.07094,920.72683 C 615.65694,920.84083 616.28615,921.07274 616.81255,921.39494 617.34455,921.71024 617.80985,922.06164 618.27095,922.40744 618.57795,922.63804 618.64035,923.07414 618.40985,923.38244 A 0.69700132,0.69700132 0 0 1 617.43485,923.52134 C 617.41115,923.50464 617.38205,923.47964 617.36115,923.45884 Z M 761.46013,939.46867 V 949.70479 A 0.7878015,0.7878015 0 0 1 760.67262,950.49229 H 754.37401 A 0.7878015,0.7878015 0 0 1 753.58651,949.70479 V 939.46867 A 0.7878015,0.7878015 0 0 1 754.37401,938.68117 H 760.67262 A 0.7878015,0.7878015 0 0 1 761.46013,939.46867 Z"
         fill="#cccccc"
         id="path10"
         style="stroke-width:1" />
      <path
         d="M 689.68249,946.28888 H 701.49361 V 954.1625 H 689.68249 Z M 658.50693,919.26703 H 668.35005 V 929.11015 H 658.50693 Z M 641.47579,909.00111 H 651.31891 V 914.90672 H 641.47579 Z"
         fill="#2a2d2e"
         id="path11"
         style="stroke-width:1" />
      <path
         d="M 659.87102,954.3132 V 944.07698 A 0.7878015,0.7878015 0 0 1 660.65853,943.28948 H 674.83216 A 0.7878015,0.7878015 0 0 1 675.61966,944.07698 V 954.3133 A 0.7878015,0.7878015 0 0 1 674.83216,955.1008 H 660.65853 A 0.7878015,0.7878015 0 0 1 659.87102,954.3133 Z"
         fill="#cccccc"
         id="path12"
         style="stroke-width:1" />
      <path
         d="M 660.85573,949.19509 C 660.85573,946.47708 663.05854,944.27428 665.77654,944.27428 H 669.71405 C 672.43216,944.27428 674.63496,946.47708 674.63496,949.19509 674.63496,951.91309 672.43216,954.116 669.71405,954.116 H 665.77654 C 663.05854,954.116 660.85573,951.91319 660.85573,949.19509 Z M 660.65853,955.1007 H 662.13764 C 662.83904,955.1007 663.19044,954.2521 662.69464,953.7563 L 661.21544,952.27709 C 660.71963,951.78119 659.87102,952.13259 659.87102,952.8341 V 954.3132 A 0.7878015,0.7878015 0 0 0 660.65853,955.1007 Z M 659.87102,944.07698 V 945.55628 C 659.87102,946.25768 660.71963,946.60908 661.21544,946.11328 L 662.69464,944.63408 C 663.19044,944.13828 662.83904,943.28958 662.13764,943.28958 H 660.65853 A 0.7878015,0.7878015 0 0 0 659.87102,944.07708 Z"
         fill="#ffffff"
         id="path13"
         style="stroke-width:1" />
      <path
         d="M 674.79046,943.28948 H 673.31136 C 672.60996,943.28948 672.25856,944.13818 672.75436,944.63398 L 674.23356,946.11318 C 674.72936,946.60898 675.57796,946.25758 675.57796,945.55618 V 944.07698 A 0.7878015,0.7878015 0 0 0 674.79046,943.28948 Z M 675.57796,954.3132 V 952.834 C 675.57796,952.13259 674.72936,951.78119 674.23356,952.27699 L 672.75436,953.7563 C 672.25856,954.2521 672.60996,955.1007 673.31136,955.1007 H 674.79046 A 0.7878015,0.7878015 0 0 0 675.57796,954.3132 Z"
         fill="#ffffff"
         id="path14"
         style="stroke-width:1" />
      <path
         d="M 667.56275,915.89073 H 659.29463 A 0.7878015,0.7878015 0 0 1 658.50713,915.10322 V 908.80461 A 0.7878015,0.7878015 0 0 1 659.29463,908.01711 H 667.56264 A 0.7878015,0.7878015 0 0 1 668.35025,908.80461 V 915.10322 A 0.7878015,0.7878015 0 0 1 667.56275,915.89073 Z"
         fill="#2a2d2e"
         id="path15"
         style="stroke-width:1" />
      <g
         transform="matrix(0,-2.0000038,2.0000038,0,639.06679,960.66331)"
         fill="#eeeeee"
         id="g16"
         style="stroke-width:9.99998">
        <rect
           x="0"
           y="0"
           height="1.2"
           width="2.5999999"
           fill="#c6c6c6"
           id="rect15"
           style="stroke-width:9.99998" />
        <rect
           x="0.60000002"
           y="-0.1"
           width="1.35"
           height="1.4"
           stroke="#aaaaaa"
           stroke-width="0.499999"
           id="rect16" />
        <circle
           cx="1.3"
           cy="0.55000001"
           r="1.3"
           fill="#90ff00"
           filter="url(#ledFilter)"
           opacity="0"
           id="circle16"
           style="stroke-width:9.99998" />
      </g>
      <circle
         r="1.6625031"
         cx="-958.00629"
         cy="650.66962"
         fill="#9a916c"
         id="circle17"
         transform="rotate(-90)"
         style="stroke-width:1" />
      <circle
         r="1.6625031"
         cx="-911.55042"
         cy="799.1853"
         fill="#9a916c"
         id="circle18"
         transform="rotate(-90)"
         style="stroke-width:1" />
      <path
         d="M 783.47267,923.29354 783.04206,923.57964 C 779.74486,923.57964 778.45466,925.08524 777.45185,926.87695 777.30886,926.37555 777.16575,925.80194 776.51985,925.65884 776.30454,924.72684 775.87545,924.58384 775.44485,924.44084 775.30184,924.22554 774.80045,923.36584 774.08235,923.50884 773.79635,923.07824 773.36574,922.79214 772.79204,922.93524 772.29074,922.43384 771.86015,922.29074 771.42954,922.50464 770.71294,921.93104 770.35453,922.14634 769.92404,922.43244 769.13514,922.00184 768.27544,922.36024 768.41844,923.57964 767.70183,924.08104 767.84484,925.08524 767.84484,925.30054 767.62953,925.51574 767.41433,925.73104 767.48654,926.44775 767.05594,926.94915 767.12823,927.45195 767.34354,928.02415 766.84203,928.66855 767.27124,929.09915 767.41564,929.60055 767.12964,930.38945 767.48794,930.60475 767.63094,930.96305 767.41573,931.82276 767.84624,932.11026 768.27544,932.53946 V 933.04086 C 769.06433,934.33116 770.56844,934.97556 771.35744,935.26306 770.56844,935.47836 768.99203,936.12276 768.27544,937.48527 V 937.98667 C 767.84484,938.41727 767.48644,938.63117 767.63094,939.56307 767.48794,939.92147 767.12964,940.13667 767.41573,940.92557 767.34344,941.28397 767.12953,941.57007 767.12953,941.92977 767.12953,942.14508 767.20183,942.28808 767.34484,942.57428 767.12953,943.14788 767.05884,943.64928 767.48784,944.15068 767.41564,944.86728 767.56014,945.15478 767.84624,945.29788 767.84624,945.44088 767.70323,946.51588 768.41984,947.01868 768.27683,948.23669 769.13654,948.59509 769.92544,948.16589 770.28374,948.38119 770.64203,948.66729 771.43095,948.09369 771.86155,948.30899 772.29074,948.16589 772.79345,947.66319 773.36704,947.80619 773.72545,947.52019 774.08375,947.08958 774.87265,947.16178 775.30175,946.37288 775.44625,946.15758 775.87684,946.08538 776.30595,945.87148 776.52125,944.93958 777.16575,944.79648 777.31016,944.22288 777.45325,943.72148 778.45736,945.51318 779.81846,947.01868 783.04347,947.01868 L 783.47407,947.30478 C 784.69206,949.31179 788.56298,951.17569 791.78798,948.30899 792.79219,948.09369 793.50879,947.80759 794.29629,947.52009 797.45049,947.08958 798.9547,944.36588 799.1699,943.64928 799.9589,942.57428 800.6755,941.49927 801.2491,939.99367 802.6824,938.56037 803.25611,937.05467 803.25611,935.47836 V 935.40616 C 803.25611,933.82976 802.6824,932.32416 801.2491,930.89085 800.7477,929.38525 799.9588,928.23945 799.1699,927.23525 799.02689,926.51855 797.52129,923.79494 794.29629,923.36434 793.50739,923.07834 792.79078,922.79074 791.78798,922.57554 788.56158,919.42413 784.69076,921.21574 783.47267,923.29354 Z M 782.89907,924.79914 C 784.18936,924.87134 778.31156,931.75196 778.09626,930.60475 777.59486,927.37975 779.45876,924.72694 782.89907,924.79914 Z M 789.42128,927.88115 C 790.56848,929.60195 789.85187,932.11026 787.84488,933.40056 785.83787,934.76306 783.32956,934.40476 782.18237,932.68386 781.03516,930.96305 781.75185,928.45465 783.75877,927.16445 785.83797,925.80324 788.34628,926.16164 789.42128,927.88105 Z M 769.13654,932.61166 C 769.42264,932.53946 769.63794,932.46866 769.63794,932.39636 769.20734,932.03806 768.77823,931.67976 768.41994,931.24915 768.63514,931.24915 768.92124,931.39215 769.06433,931.10615 768.70594,930.81995 768.41984,930.46165 768.13234,930.03115 768.49073,930.24635 768.63374,930.10335 768.77683,929.95885 768.49073,929.60055 768.13234,929.24225 767.91714,928.59635 768.13234,928.81165 768.34764,929.02695 768.63374,928.73935 768.41844,928.38105 768.20323,928.02275 767.98933,927.09085 768.20464,927.30605 768.41984,927.73525 768.63374,927.44915 768.49073,926.94775 768.34764,926.44495 768.27544,925.87274 768.49073,926.15884 768.70594,926.37415 768.91984,926.15884 768.77683,925.65744 768.56154,924.94084 768.70464,924.29494 L 769.13514,924.72554 C 769.20734,924.79774 769.20734,923.72134 769.20734,923.07684 769.56564,923.29214 769.92404,923.57824 770.49764,923.72134 770.56984,923.64914 770.49764,923.29074 770.49764,923.00464 771.21433,923.36304 771.35734,923.93664 771.64485,924.00884 771.78785,923.79354 771.78785,923.50744 771.64485,923.21994 772.14625,923.43524 772.43385,923.93664 772.86285,924.36714 772.93515,924.29494 773.00595,924.08114 772.93515,923.65054 773.29345,924.00884 773.65184,924.43944 774.01015,924.94074 774.08235,924.86854 774.08235,924.51024 774.15315,924.22414 774.58375,924.72554 774.86985,925.29914 775.15735,925.87274 775.37265,925.58664 775.30035,925.37134 775.30035,925.15604 775.65875,925.58664 775.80184,926.23104 776.01704,926.87695 776.23235,926.73395 776.23235,926.66165 776.30324,926.37555 776.66156,927.01995 776.51845,928.02415 776.66156,928.31025 776.87685,928.23805 776.94766,928.09495 777.09205,927.80885 777.16435,928.88385 777.01986,931.82286 774.79905,932.39636 773.58105,931.32135 772.14765,929.24225 770.42683,925.80194 771.35884,928.52555 772.50595,930.96295 774.22545,932.96996 773.07954,935.47976 770.28374,933.83116 769.13644,932.61166 Z M 777.23656,935.04916 C 777.23656,933.32836 778.45455,931.25055 779.67406,931.25055 780.74906,931.25055 781.60876,932.75616 781.53796,935.04916 781.53796,937.34217 780.46296,938.84787 779.45876,938.84787 778.59766,938.84787 777.16435,936.98387 777.23656,935.04916 Z M 776.30454,943.72148 C 776.23235,943.43538 776.23235,943.36308 776.01855,943.22008 775.80324,943.86448 775.66015,944.51038 775.30184,944.94088 775.30184,944.72568 775.37405,944.51038 775.15885,944.22428 774.87265,944.79788 774.58515,945.37148 774.15454,945.87288 774.15454,945.58678 774.15454,945.22838 774.01155,945.15618 773.72545,945.65758 773.36715,946.08818 772.93655,946.44648 773.00875,946.01588 772.93655,945.87288 772.86434,945.72978 772.43375,946.08818 772.14765,946.58958 771.64635,946.87708 771.71845,946.59088 771.78934,946.30338 771.64635,946.08808 771.36014,946.23118 771.14484,946.80478 770.49904,947.09228 770.49904,946.80628 770.57124,946.44788 770.49904,946.37568 769.92544,946.51868 769.56703,946.80618 769.20874,947.02008 769.20874,946.30338 769.20874,945.29928 769.13654,945.37148 L 768.70594,945.80198 C 768.56294,945.15758 768.70594,944.43948 768.92124,943.93818 768.77823,943.72288 768.56294,943.93818 768.27683,944.22418 768.34904,943.65068 768.49203,943.14918 768.63514,942.64788 768.41984,942.43258 768.20464,942.79088 767.99073,943.00618 768.13374,942.14648 768.42124,941.71587 768.63514,941.35757 768.34904,941.07147 768.13374,941.35757 767.91844,941.50057 768.13374,940.85617 768.49203,940.49647 768.77823,940.13807 768.63514,939.99507 768.49203,939.85207 768.13374,940.06587 768.41984,939.56447 768.70734,939.20617 769.06573,938.99087 768.85044,938.70477 768.63514,938.84787 768.42124,938.84787 768.77964,938.34647 769.21014,938.05887 769.63924,937.70057 769.56714,937.62837 769.42404,937.55757 769.13794,937.48527 770.28514,936.33806 773.07965,934.68946 774.15595,937.05477 772.50735,939.06177 771.28933,941.49927 770.35734,944.22278 772.14905,940.78257 773.51155,938.70337 774.72954,937.62837 776.95185,938.20197 777.09486,941.14087 777.02266,942.21588 776.95046,942.00057 776.80736,941.78537 776.59204,941.71447 776.51985,942.07287 776.66296,943.00478 776.30454,943.72148 Z M 778.02406,939.49367 C 778.23935,938.27567 784.11706,945.15618 782.82686,945.29928 779.38656,945.37008 777.52266,942.71868 778.02406,939.49367 Z M 791.14207,946.73268 C 789.85187,948.38119 785.98107,948.95479 784.18936,945.87288 783.75877,944.00888 791.85878,945.22698 791.14218,946.73258 Z M 798.0949,940.35337 C 798.6685,941.28537 798.45329,943.57838 796.16019,945.22698 794.22549,946.30198 792.28937,946.15898 791.71577,945.44228 790.99908,944.29508 791.93098,942.50338 793.50739,941.14227 794.86849,939.92287 797.37688,939.34927 798.0949,940.35337 Z M 789.63658,942.21738 C 788.48937,943.93818 785.98097,944.22428 783.97407,942.93398 781.96706,941.57147 781.25046,939.13537 782.39767,937.41447 783.54487,935.69366 786.05326,935.40746 788.06018,936.69776 790.06718,937.98807 790.78378,940.49647 789.63658,942.21728 Z M 802.0366,935.04916 C 802.1088,937.12837 800.388,939.13537 799.7436,939.13537 798.8838,939.13537 798.16709,936.62696 798.16709,934.97836 798.0949,933.32976 798.6686,931.03665 799.5297,931.03665 800.3157,930.96305 802.0366,933.04226 802.0366,935.04916 Z M 793.21989,930.89215 C 795.29909,930.89215 797.01849,932.75616 797.01849,935.04916 797.01849,937.34217 795.36989,939.20617 793.21989,939.20617 H 793.14769 C 791.06848,939.20617 789.34908,937.34217 789.34908,935.04916 789.42128,932.75616 791.06988,930.89215 793.21989,930.89215 Z M 796.23099,925.08664 C 798.6686,926.87835 798.73939,929.24365 798.095,930.17555 797.23519,931.10755 794.51159,930.39085 793.00599,929.10055 791.35738,927.59495 790.28238,926.01854 791.14218,924.94354 791.85878,924.22554 794.58239,923.79634 796.23099,925.08654 Z M 791.06998,923.50884 C 791.71437,925.01444 783.68657,926.23244 784.11706,924.36854 785.90877,921.28654 789.77968,921.78934 791.06988,923.50884 Z"
         fill="#ffffff"
         id="path18"
         style="stroke-width:1" />
      <path
         d="M 808.04761,976.66334 V 893.98508 H 812.73372 V 976.66334 Z"
         fill="none"
         id="path19"
         style="stroke-width:1" />
      <text
         font-size="3.88891px"
         transform="scale(-1)"
         fill="#ffffff"
         stroke-width="13.889"
         id="text25"
         x="-614.26672"
         y="-976.66333"><tspan
           x="-680.02106"
           y="-957.86328"
           id="tspan19"
           style="stroke-width:13.889">B</tspan><tspan
           x="-676.51556"
           y="-957.86328"
           id="tspan20"
           style="stroke-width:13.889">O</tspan><tspan
           x="-672.42157"
           y="-957.86328"
           id="tspan21"
           style="stroke-width:13.889">O</tspan><tspan
           x="-668.47266"
           y="-957.86328"
           id="tspan22"
           style="stroke-width:13.889">T</tspan><tspan
           x="-665.51105"
           y="-957.86328"
           id="tspan23"
           style="stroke-width:13.889">S</tspan><tspan
           x="-662.50195"
           y="-957.86328"
           id="tspan24"
           style="stroke-width:13.889">E</tspan><tspan
           x="-659.44952"
           y="-957.86328"
           id="tspan25"
           style="stroke-width:13.889">L</tspan></text>
      <text
         font-size="3.88891px"
         fill="#ffffff"
         stroke-width="13.889"
         id="text35"
         transform="rotate(-90)"
         x="-976.66333"
         y="614.26672"><tspan
           x="-962.64594"
           y="646.39648"
           id="tspan26"
           style="stroke-width:13.889">L</tspan><tspan
           x="-959.77173"
           y="646.39648"
           id="tspan27"
           style="stroke-width:13.889">E</tspan><tspan
           x="-956.71942"
           y="646.39648"
           id="tspan28"
           style="stroke-width:13.889">D</tspan><tspan
           x="-967.0119"
           y="629.185"
           id="tspan29"
           style="stroke-width:13.889">1</tspan><tspan
           x="-967.0119"
           y="639.18658"
           id="tspan30"
           style="stroke-width:13.889">2</tspan><tspan
           x="-909.39899"
           y="639.18658"
           id="tspan31"
           style="stroke-width:13.889">3</tspan><tspan
           x="-906.23529"
           y="639.18658"
           id="tspan32"
           style="stroke-width:13.889">9</tspan><tspan
           x="-940.52197"
           y="646.39648"
           id="tspan33"
           style="stroke-width:13.889">U</tspan><tspan
           x="-936.64148"
           y="646.39648"
           id="tspan34"
           style="stroke-width:13.889">S</tspan><tspan
           x="-933.63177"
           y="646.39648"
           id="tspan35"
           style="stroke-width:13.889">B</tspan></text>
      <path
         d="M 681.51687,965.09662 V 956.3882 H 805.80471 V 965.09662 Z"
         fill="none"
         id="path35"
         style="stroke-width:1" />
      <text
         font-size="5.55561px"
         transform="scale(-1)"
         stroke-width="13.889"
         fill="#ffffff"
         id="text55"
         x="-614.26672"
         y="-976.66333"><tspan
           x="-805.80359"
           y="-959.06329"
           id="tspan36"
           style="stroke-width:13.889">R</tspan><tspan
           x="-800.66571"
           y="-959.06329"
           id="tspan37"
           style="stroke-width:13.889">a</tspan><tspan
           x="-795.93817"
           y="-959.06329"
           id="tspan38"
           style="stroke-width:13.889">s</tspan><tspan
           x="-791.76337"
           y="-959.06329"
           id="tspan39"
           style="stroke-width:13.889">p</tspan><tspan
           x="-786.65265"
           y="-959.06329"
           id="tspan40"
           style="stroke-width:13.889">b</tspan><tspan
           x="-781.54193"
           y="-959.06329"
           id="tspan41"
           style="stroke-width:13.889">e</tspan><tspan
           x="-776.78394"
           y="-959.06329"
           id="tspan42"
           style="stroke-width:13.889">r</tspan><tspan
           x="-772.97186"
           y="-959.06329"
           id="tspan43"
           style="stroke-width:13.889">r</tspan><tspan
           x="-769.16003"
           y="-959.06329"
           id="tspan44"
           style="stroke-width:13.889">y</tspan><tspan
           x="-761.87854"
           y="-959.06329"
           id="tspan45"
           style="stroke-width:13.889">P</tspan><tspan
           x="-756.83551"
           y="-959.06329"
           id="tspan46"
           style="stroke-width:13.889">i</tspan><tspan
           x="-751.15106"
           y="-959.06329"
           id="tspan47"
           style="stroke-width:13.889">P</tspan><tspan
           x="-746.10822"
           y="-959.06329"
           id="tspan48"
           style="stroke-width:13.889">i</tspan><tspan
           x="-743.26929"
           y="-959.06329"
           id="tspan49"
           style="stroke-width:13.889">c</tspan><tspan
           x="-739.01318"
           y="-959.06329"
           id="tspan50"
           style="stroke-width:13.889">o</tspan><tspan
           x="-731.11798"
           y="-959.06329"
           id="tspan51"
           style="stroke-width:13.889">©</tspan><tspan
           x="-724.29816"
           y="-959.06329"
           id="tspan52"
           style="stroke-width:13.889">2</tspan><tspan
           x="-719.43182"
           y="-959.06329"
           id="tspan53"
           style="stroke-width:13.889">0</tspan><tspan
           x="-714.56506"
           y="-959.06329"
           id="tspan54"
           style="stroke-width:13.889">2</tspan><tspan
           x="-709.69855"
           y="-959.06329"
           id="tspan55"
           style="stroke-width:13.889">0</tspan></text>
      <text
         font-size="2.4445px"
         fill="#3d3f38"
         stroke-width="13.889"
         id="text78"
         transform="rotate(-90)"
         x="-976.66333"
         y="614.26672"><tspan
           x="-946.8974"
           y="730.96698"
           id="tspan56"
           style="stroke-width:13.889">R</tspan><tspan
           x="-944.96997"
           y="730.96698"
           id="tspan57"
           style="stroke-width:13.889">P</tspan><tspan
           x="-942.97137"
           y="730.96698"
           id="tspan58"
           style="stroke-width:13.889">2</tspan><tspan
           x="-941.15735"
           y="730.96698"
           id="tspan59"
           style="stroke-width:13.889">-</tspan><tspan
           x="-940.09399"
           y="730.96698"
           id="tspan60"
           style="stroke-width:13.889">8</tspan><tspan
           x="-938.27985"
           y="730.96698"
           id="tspan61"
           style="stroke-width:13.889">0</tspan><tspan
           x="-932.44415"
           y="730.96698"
           id="tspan62"
           style="stroke-width:13.889">2</tspan><tspan
           x="-930.63074"
           y="730.96698"
           id="tspan63"
           style="stroke-width:13.889">0</tspan><tspan
           x="-928.81665"
           y="730.96698"
           id="tspan64"
           style="stroke-width:13.889">/</tspan><tspan
           x="-927.37897"
           y="730.96698"
           id="tspan65"
           style="stroke-width:13.889">2</tspan><tspan
           x="-925.56476"
           y="730.96698"
           id="tspan66"
           style="stroke-width:13.889">1</tspan><tspan
           x="-946.93805"
           y="734.36694"
           id="tspan67"
           style="stroke-width:13.889">P</tspan><tspan
           x="-944.93878"
           y="734.36694"
           id="tspan68"
           style="stroke-width:13.889">6</tspan><tspan
           x="-943.12537"
           y="734.36694"
           id="tspan69"
           style="stroke-width:13.889">4</tspan><tspan
           x="-941.31128"
           y="734.36694"
           id="tspan70"
           style="stroke-width:13.889">M</tspan><tspan
           x="-938.69824"
           y="734.36694"
           id="tspan71"
           style="stroke-width:13.889">1</tspan><tspan
           x="-936.88416"
           y="734.36694"
           id="tspan72"
           style="stroke-width:13.889">5</tspan><tspan
           x="-935.07074"
           y="734.36694"
           id="tspan73"
           style="stroke-width:13.889">.</tspan><tspan
           x="-933.96057"
           y="734.36694"
           id="tspan74"
           style="stroke-width:13.889">0</tspan><tspan
           x="-932.14716"
           y="734.36694"
           id="tspan75"
           style="stroke-width:13.889">0</tspan><tspan
           x="-929.38702"
           y="734.36694"
           id="tspan76"
           style="stroke-width:13.889">T</tspan><tspan
           x="-927.46771"
           y="734.36694"
           id="tspan77"
           style="stroke-width:13.889">T</tspan><tspan
           x="-925.54785"
           y="734.36694"
           id="tspan78"
           style="stroke-width:13.889">T</tspan></text>
      <path
         d="M 719.59615,930.45475 719.42255,930.57135 C 718.08784,930.57135 717.56554,931.18115 717.15864,931.90616 717.10034,931.70336 717.04194,931.47135 716.78084,931.41305 716.69334,931.03525 716.51974,930.97835 716.34614,930.92005 716.28784,930.83245 716.08504,930.48525 715.79474,930.54225 715.67804,930.36855 715.50444,930.25195 715.27254,930.31025 715.06974,930.10745 714.89474,930.04915 714.72114,930.13665 714.43084,929.90465 714.28644,929.99225 714.11144,930.10745 713.79194,929.93385 713.44343,930.07835 713.50174,930.57145 713.21143,930.77415 713.26973,931.18115 713.26973,931.26725 713.18223,931.35475 713.09613,931.44085 713.12533,931.73116 712.95173,931.93386 712.98083,932.13666 713.06693,932.36996 712.86423,932.63116 713.03783,932.80476 713.09613,933.00896 712.97943,933.32836 713.12533,933.41446 713.18363,933.56026 713.09613,933.90886 713.27113,934.02426 713.44473,934.19926 V 934.40196 C 713.76424,934.92416 714.37394,935.18526 714.69194,935.30196 714.37254,935.38946 713.73494,935.65056 713.44473,936.20196 V 936.40476 C 713.27113,936.57836 713.12533,936.66586 713.18363,937.04367 713.12533,937.18807 712.98083,937.27567 713.09613,937.59507 713.06693,937.73947 712.97943,937.85607 712.97943,938.00057 712.97943,938.08807 713.00863,938.14507 713.06693,938.26167 712.97943,938.49367 712.95033,938.69647 713.12533,938.90067 713.09613,939.19087 713.15443,939.30617 713.26973,939.36447 713.26973,939.42287 713.21143,939.85747 713.50174,940.06037 713.44333,940.55337 713.79194,940.69917 714.11144,940.52417 714.25584,940.61167 714.40164,940.72697 714.72114,940.49507 714.89474,940.58257 715.06974,940.52417 715.27254,940.32147 715.50454,940.37977 715.65034,940.26307 715.79474,940.08947 716.11414,940.11867 716.28773,939.79917 716.34614,939.71167 716.51974,939.68257 716.69474,939.59507 716.78084,939.21867 717.04194,939.16037 717.10034,938.92837 717.15864,938.72567 717.56424,939.45067 718.11564,940.06037 719.42255,940.06037 L 719.59615,940.17697 C 720.08915,940.98947 721.65585,941.74367 722.96145,940.58257 723.36695,940.49507 723.65725,940.37977 723.97675,940.26307 725.25306,940.08947 725.86276,938.98667 725.95036,938.69647 726.26976,938.26167 726.56006,937.82557 726.79196,937.21727 727.37256,936.63666 727.60446,936.02696 727.60446,935.38946 V 935.36026 C 727.60446,934.72136 727.37246,934.11306 726.79196,933.53256 726.58926,932.92276 726.26976,932.45886 725.95036,932.05336 725.89196,931.76306 725.28236,930.66035 723.97675,930.48665 723.65725,930.36995 723.36695,930.25465 722.96145,930.16725 721.65585,928.88805 720.08925,929.61305 719.59615,930.45475 Z M 719.36415,931.06305 C 719.88645,931.09225 717.50724,933.87836 717.41974,933.41306 717.21694,932.10886 717.97114,931.03525 719.36415,931.06305 Z M 722.00445,932.31166 C 722.46845,933.00746 722.17805,934.02416 721.36555,934.54636 720.55305,935.09776 719.53785,934.95196 719.07395,934.25616 718.60994,933.56026 718.90035,932.54366 719.71285,932.02136 720.55445,931.46995 721.56975,931.61436 722.00445,932.31166 Z M 713.79344,934.22696 C 713.91004,934.19776 713.99614,934.16866 713.99614,934.13946 713.82254,933.99506 713.64754,933.84916 713.50313,933.67556 713.59054,933.67556 713.70584,933.73386 713.76414,933.61726 713.61974,933.50056 713.50313,933.35616 713.38643,933.18246 713.53084,933.26996 713.58924,933.21166 713.64744,933.15336 713.53084,933.00886 713.38643,932.86306 713.29893,932.60196 713.38643,932.68946 713.47253,932.77556 713.58924,932.66026 713.50174,932.51586 713.41553,932.36996 713.32803,931.99226 713.41553,932.07976 713.50174,932.25326 713.58924,932.13666 713.53084,931.93386 713.47253,931.73116 713.44473,931.49775 713.53224,931.61446 713.61834,931.70056 713.70584,931.61446 713.64754,931.41165 713.56144,931.12145 713.61834,930.86025 L 713.79194,931.03385 C 713.82114,931.06305 713.82114,930.62835 713.82114,930.36585 713.96554,930.45335 714.11144,930.56855 714.34334,930.62685 714.37254,930.59785 714.34334,930.45335 714.34334,930.33665 714.63364,930.48105 714.69194,930.71445 714.80724,930.74225 714.86554,930.65475 714.86554,930.53945 714.80724,930.42275 715.01004,930.51025 715.12674,930.71305 715.30023,930.88675 715.32944,930.85745 715.35864,930.76995 715.32944,930.59635 715.47394,930.74085 715.61974,930.91585 715.76424,931.11865 715.79334,931.08945 715.79334,930.94495 715.82254,930.82835 715.99614,931.03115 716.11284,931.26305 716.22804,931.49635 716.31554,931.37975 716.28644,931.29365 716.28644,931.20615 716.43084,931.37975 716.48924,931.64086 716.57674,931.90196 716.66424,931.84366 716.66424,931.81446 716.69334,931.69916 716.83784,931.96026 716.78084,932.36716 716.83784,932.48246 716.92534,932.45336 716.95444,932.39496 717.01144,932.27976 717.04054,932.71446 716.98224,933.90476 716.08224,934.13676 715.58924,933.70196 715.00864,932.86026 714.31284,931.46725 714.69054,932.56996 715.15444,933.55616 715.85034,934.36866 715.38924,935.38666 714.25734,934.72006 713.79334,934.22696 Z M 717.07244,935.21306 C 717.07244,934.51726 717.56554,933.67556 718.05864,933.67556 718.49334,933.67556 718.84195,934.28526 718.81285,935.21306 718.81285,936.14226 718.37804,936.75056 717.97114,936.75056 717.62254,936.75056 717.04334,935.99646 717.07254,935.21306 Z M 716.69474,938.72417 C 716.66554,938.60757 716.66554,938.57977 716.57804,938.52147 716.49054,938.78247 716.43364,939.04367 716.28784,939.21727 716.28784,939.12977 716.31694,939.04367 716.22944,938.92697 716.11284,939.15897 715.99744,939.39097 715.82394,939.59497 715.82394,939.47837 715.82394,939.33397 715.76554,939.30477 715.64894,939.50757 715.50454,939.68257 715.33084,939.82697 715.36004,939.65337 715.33084,939.59497 715.30164,939.53667 715.12804,939.68117 715.01144,939.88537 714.80864,940.00067 714.83784,939.88397 714.86694,939.76867 714.80864,939.68117 714.69194,939.73947 714.60584,939.97147 714.34474,940.08667 714.34474,939.97007 714.37394,939.82567 714.34474,939.79647 714.11273,939.85477 713.96694,939.97007 713.82254,940.05747 713.82254,939.76727 713.82254,939.36167 713.79334,939.38947 L 713.61974,939.56307 C 713.56144,939.30207 713.61974,939.01167 713.70724,938.80897 713.64894,938.72147 713.56284,938.80897 713.44613,938.92557 713.47533,938.69357 713.53364,938.49087 713.59054,938.28667 713.50304,938.19917 713.41693,938.34507 713.32953,938.43117 713.38783,938.08257 713.50304,937.90897 713.59054,937.76317 713.47393,937.64647 713.38783,937.76317 713.30033,937.82147 713.38783,937.56027 713.53234,937.41587 713.64894,937.27007 713.59054,937.21167 713.53224,937.15337 713.38783,937.24087 713.50444,937.03807 713.61984,936.89227 713.76554,936.80616 713.67804,936.68946 713.59194,936.74776 713.50454,936.74776 713.64894,936.54506 713.82394,936.42836 713.99754,936.28396 713.96834,936.25476 713.91004,936.22556 713.79474,936.19646 714.25864,935.73246 715.39054,935.06446 715.82534,936.02276 715.15734,936.83527 714.66414,937.82147 714.28784,938.92417 715.01284,937.53117 715.56414,936.68946 716.05724,936.25476 716.95724,936.48676 717.01424,937.67697 716.98644,938.11177 716.95724,938.02417 716.89894,937.93807 716.81284,937.90897 716.78224,938.05617 716.83914,938.43397 716.69484,938.72417 Z M 717.39054,937.01167 C 717.47804,936.51866 719.85725,939.30337 719.33505,939.36167 717.94204,939.39087 717.18784,938.31727 717.39054,937.01167 Z M 722.70165,939.94227 C 722.17945,940.61027 720.61285,940.84227 719.88645,939.59367 719.71285,938.83947 722.99055,939.33397 722.70165,939.94227 Z M 725.51566,937.36027 C 725.74756,937.73807 725.66006,938.66587 724.73226,939.33397 723.94895,939.76867 723.16555,939.71167 722.93365,939.42147 722.64335,938.95747 723.02115,938.23117 723.65865,937.67977 724.21006,937.18677 725.22536,936.95337 725.51566,937.36027 Z M 722.09195,938.11447 C 721.62805,938.81037 720.61285,938.92697 719.80035,938.40477 718.98785,937.85337 718.69754,936.86727 719.16135,936.17006 719.62535,935.47276 720.64055,935.35756 721.45305,935.87976 722.26555,936.40336 722.55585,937.41867 722.09205,938.11447 Z M 727.11146,935.21306 C 727.14056,936.05476 726.44346,936.86727 726.18226,936.86727 725.83366,936.86727 725.54336,935.85196 725.54336,935.18386 725.51416,934.51586 725.74616,933.58806 726.09476,933.58806 726.41556,933.55886 727.11146,934.40056 727.11146,935.21306 Z M 723.54195,933.52976 C 724.38366,933.52976 725.07946,934.28386 725.07946,935.21306 725.07946,936.14226 724.41146,936.89647 723.54195,936.89647 H 723.51285 C 722.67115,936.89647 721.97535,936.14226 721.97535,935.21306 722.00445,934.28386 722.67255,933.52976 723.54195,933.52976 Z M 724.76146,931.17975 C 725.74746,931.90476 725.77676,932.86306 725.51556,933.23946 725.16696,933.61726 724.06426,933.32696 723.45585,932.80476 722.78785,932.19496 722.35305,931.55745 722.70165,931.12135 722.99065,930.83105 724.09336,930.65745 724.76146,931.17975 Z M 722.67245,930.54075 C 722.93365,931.15055 719.68365,931.64366 719.85725,930.88945 720.58225,929.64225 722.15025,929.84495 722.67255,930.54085 Z"
         fill="#3d3f38"
         id="path78"
         style="stroke-width:1" />
      <path
         d="M 637.52379,967.58132 C 636.01128,967.58132 634.78068,968.81193 634.78068,970.32433 V 976.66334 H 635.84458 C 635.84458,975.73694 636.59738,974.98274 637.52379,974.98274 638.45009,974.98274 639.20429,975.73694 639.20429,976.66334 H 640.26819 V 970.32433 C 640.26679,968.81193 639.03619,967.58132 637.52379,967.58132 Z M 639.18629,970.32433 C 639.18629,971.24113 638.44039,971.98693 637.52379,971.98693 636.60708,971.98693 635.86128,971.24113 635.86128,970.32443 635.86128,969.40773 636.60708,968.66193 637.52379,968.66193 638.44039,968.66193 639.18629,969.40773 639.18629,970.32443 Z M 644.7821,967.58132 V 976.66334 H 645.846 C 645.846,975.73694 646.5988,974.98274 647.5251,974.98274 648.45151,974.98274 649.20431,975.73694 649.20431,976.66334 H 650.26821 V 967.58132 Z M 649.18761,970.32433 C 649.18761,971.24113 648.44181,971.98693 647.5251,971.98693 646.6085,971.98693 645.8626,971.24113 645.8626,970.32443 645.8626,969.40773 646.6085,968.66193 647.5251,968.66193 648.44181,968.66193 649.18761,969.40773 649.18761,970.32443 Z M 657.52382,967.58132 C 656.01132,967.58132 654.78072,968.81193 654.78072,970.32433 V 976.66334 H 655.84462 C 655.84462,975.73694 656.59742,974.98274 657.52382,974.98274 658.45013,974.98274 659.20433,975.73694 659.20433,976.66334 H 660.26823 V 970.32433 C 660.26683,968.81193 659.03622,967.58132 657.52382,967.58132 Z M 659.18632,970.32433 C 659.18632,971.24113 658.44043,971.98693 657.52382,971.98693 656.60712,971.98693 655.86132,971.24113 655.86132,970.32443 655.86132,969.40773 656.60712,968.66193 657.52382,968.66193 658.44043,968.66193 659.18632,969.40773 659.18632,970.32443 Z M 667.52245,967.58132 C 666.00994,967.58132 664.77944,968.81193 664.77944,970.32433 V 976.66334 H 665.84324 C 665.84324,975.73694 666.59605,974.98274 667.52245,974.98274 668.44885,974.98274 669.20295,975.73694 669.20295,976.66334 H 670.26695 V 970.32433 C 670.26545,968.81193 669.03495,967.58132 667.52245,967.58132 Z M 669.18485,970.32433 C 669.18485,971.24113 668.43895,971.98693 667.52235,971.98693 666.60565,971.98693 665.85984,971.24113 665.85984,970.32443 665.85984,969.40773 666.60565,968.66193 667.52235,968.66193 668.43895,968.66193 669.18485,969.40773 669.18485,970.32443 Z M 677.52247,967.58132 C 676.00996,967.58132 674.77946,968.81193 674.77946,970.32433 V 976.66334 H 675.84326 C 675.84326,975.73694 676.59606,974.98274 677.52247,974.98274 678.44887,974.98274 679.20297,975.73694 679.20297,976.66334 H 680.26697 V 970.32433 C 680.26547,968.81193 679.03497,967.58132 677.52247,967.58132 Z M 679.18487,970.32433 C 679.18487,971.24113 678.43897,971.98693 677.52237,971.98693 676.60566,971.98693 675.85986,971.24113 675.85986,970.32443 675.85986,969.40773 676.60566,968.66193 677.52237,968.66193 678.43897,968.66193 679.18487,969.40773 679.18487,970.32443 Z M 687.52249,967.58132 C 686.00998,967.58132 684.77948,968.81193 684.77948,970.32433 V 976.66334 H 685.84328 C 685.84328,975.73694 686.59608,974.98274 687.52249,974.98274 688.44889,974.98274 689.20299,975.73694 689.20299,976.66334 H 690.26699 V 970.32433 C 690.26549,968.81193 689.03499,967.58132 687.52249,967.58132 Z M 689.18489,970.32433 C 689.18489,971.24113 688.43899,971.98693 687.52239,971.98693 686.60568,971.98693 685.85988,971.24113 685.85988,970.32443 685.85988,969.40773 686.60568,968.66193 687.52239,968.66193 688.43899,968.66193 689.18489,969.40773 689.18489,970.32443 Z M 694.7794,967.58132 V 976.66334 H 695.8434 C 695.8434,975.73694 696.5961,974.98274 697.5224,974.98274 698.44891,974.98274 699.20301,975.73694 699.20301,976.66334 H 700.26701 V 967.58132 Z M 699.18501,970.32433 C 699.18501,971.24113 698.43911,971.98693 697.5225,971.98693 696.6058,971.98693 695.86,971.24113 695.86,970.32443 695.86,969.40773 696.6058,968.66193 697.5225,968.66193 698.43911,968.66193 699.18501,969.40773 699.18501,970.32443 Z M 707.52252,967.58132 C 706.01002,967.58132 704.77952,968.81193 704.77952,970.32433 V 976.66334 H 705.84332 C 705.84332,975.73694 706.59612,974.98274 707.52252,974.98274 708.44893,974.98274 709.20303,975.73694 709.20303,976.66334 H 710.26703 V 970.32433 C 710.26553,968.81193 709.03503,967.58132 707.52252,967.58132 Z M 709.18493,970.32433 C 709.18493,971.24113 708.43913,971.98693 707.52242,971.98693 706.60572,971.98693 705.85992,971.24113 705.85992,970.32443 705.85992,969.40773 706.60572,968.66193 707.52242,968.66193 708.43913,968.66193 709.18493,969.40773 709.18493,970.32443 Z M 717.52254,967.58132 C 716.01004,967.58132 714.77954,968.81193 714.77954,970.32433 V 976.66334 H 715.84334 C 715.84334,975.73694 716.59614,974.98274 717.52254,974.98274 718.44894,974.98274 719.20305,975.73694 719.20305,976.66334 H 720.26705 V 970.32433 C 720.26555,968.81193 719.03505,967.58132 717.52254,967.58132 Z M 719.18505,970.32433 C 719.18505,971.24113 718.43924,971.98693 717.52254,971.98693 716.60584,971.98693 715.86004,971.24113 715.86004,970.32443 715.86004,969.40773 716.60584,968.66193 717.52254,968.66193 718.43924,968.66193 719.18505,969.40773 719.18505,970.32443 Z M 727.52256,967.58132 C 726.01006,967.58132 724.77956,968.81193 724.77956,970.32433 V 976.66334 H 725.84336 C 725.84336,975.73694 726.59616,974.98274 727.52256,974.98274 728.44896,974.98274 729.20316,975.73694 729.20316,976.66334 H 730.26697 V 970.32433 C 730.26557,968.81193 729.03496,967.58132 727.52256,967.58132 Z M 729.18506,970.32433 C 729.18506,971.24113 728.43926,971.98693 727.52256,971.98693 726.60586,971.98693 725.86006,971.24113 725.86006,970.32443 725.86006,969.40773 726.60586,968.66193 727.52256,968.66193 728.43926,968.66193 729.18506,969.40773 729.18506,970.32443 Z M 737.52258,967.58132 C 736.01008,967.58132 734.77958,968.81193 734.77958,970.32433 V 976.66334 H 735.84338 C 735.84338,975.73694 736.59618,974.98274 737.52258,974.98274 738.44898,974.98274 739.20308,975.73694 739.20308,976.66334 H 740.26709 V 970.32433 C 740.26559,968.81193 739.03508,967.58132 737.52258,967.58132 Z M 739.18508,970.32433 C 739.18508,971.24113 738.43928,971.98693 737.52258,971.98693 736.60588,971.98693 735.86008,971.24113 735.86008,970.32443 735.86008,969.40773 736.60588,968.66193 737.52258,968.66193 738.43928,968.66193 739.18508,969.40773 739.18508,970.32443 Z M 744.77949,967.58132 V 976.66334 H 745.8435 C 745.8435,975.73694 746.5962,974.98274 747.5225,974.98274 748.449,974.98274 749.2031,975.73694 749.2031,976.66334 H 750.2671 V 967.58132 Z M 749.1851,970.32433 C 749.1851,971.24113 748.4393,971.98693 747.5226,971.98693 746.6059,971.98693 745.8601,971.24113 745.8601,970.32443 745.8601,969.40773 746.6059,968.66193 747.5226,968.66193 748.4393,968.66193 749.1851,969.40773 749.1851,970.32443 Z M 757.52262,967.58132 C 756.01012,967.58132 754.77961,968.81193 754.77961,970.32433 V 976.66334 H 755.84342 C 755.84342,975.73694 756.59622,974.98274 757.52262,974.98274 758.44902,974.98274 759.20182,975.73694 759.20182,976.66334 H 760.26572 V 970.32433 C 760.26572,968.81193 759.03512,967.58132 757.52262,967.58132 Z M 759.18512,970.32433 C 759.18512,971.24113 758.43932,971.98693 757.52262,971.98693 756.60592,971.98693 755.86012,971.24113 755.86012,970.32443 755.86012,969.40773 756.60592,968.66193 757.52262,968.66193 758.43932,968.66193 759.18512,969.40773 759.18512,970.32443 Z M 767.52264,967.58132 C 766.01013,967.58132 764.77963,968.81193 764.77963,970.32433 V 976.66334 H 765.84343 C 765.84343,975.73694 766.59624,974.98274 767.52264,974.98274 768.44904,974.98274 769.20183,975.73694 769.20183,976.66334 H 770.26573 V 970.32433 C 770.26573,968.81193 769.03514,967.58132 767.52264,967.58132 Z M 769.18514,970.32433 C 769.18514,971.24113 768.43933,971.98693 767.52264,971.98693 766.60594,971.98693 765.86013,971.24113 765.86013,970.32443 765.86013,969.40773 766.60594,968.66193 767.52264,968.66193 768.43933,968.66193 769.18514,969.40773 769.18514,970.32443 Z M 777.52266,967.58132 C 776.01015,967.58132 774.77965,968.81193 774.77965,970.32433 V 976.66334 H 775.84345 C 775.84345,975.73694 776.59625,974.98274 777.52266,974.98274 778.44906,974.98274 779.20185,975.73694 779.20185,976.66334 H 780.26575 V 970.32433 C 780.26575,968.81193 779.03516,967.58132 777.52276,967.58132 Z M 779.18516,970.32433 C 779.18516,971.24113 778.43935,971.98693 777.52266,971.98693 776.60595,971.98693 775.86015,971.24113 775.86015,970.32443 775.86015,969.40773 776.60595,968.66193 777.52266,968.66193 778.43935,968.66193 779.18516,969.40773 779.18516,970.32443 Z M 787.52268,967.58132 C 786.01017,967.58132 784.77967,968.81193 784.77967,970.32433 V 976.66334 H 785.84347 C 785.84347,975.73694 786.59627,974.98274 787.52268,974.98274 788.44908,974.98274 789.20187,975.73694 789.20187,976.66334 H 790.26577 V 970.32433 C 790.26577,968.81193 789.03518,967.58132 787.52278,967.58132 Z M 789.18518,970.32433 C 789.18518,971.24113 788.43937,971.98693 787.52268,971.98693 786.60597,971.98693 785.86017,971.24113 785.86017,970.32443 785.86017,969.40773 786.60597,968.66193 787.52268,968.66193 788.43937,968.66193 789.18518,969.40773 789.18518,970.32443 Z M 794.77969,967.58132 V 976.66334 H 795.84359 C 795.84359,975.73694 796.59629,974.98274 797.52269,974.98274 798.4491,974.98274 799.20189,975.73694 799.20189,976.66334 H 800.26579 V 967.58132 Z M 799.1852,970.32433 C 799.1852,971.24113 798.43939,971.98693 797.52269,971.98693 796.60599,971.98693 795.86019,971.24113 795.86019,970.32443 795.86019,969.40773 796.60599,968.66193 797.52269,968.66193 798.43939,968.66193 799.1852,969.40773 799.1852,970.32443 Z M 807.52271,967.58132 C 806.01021,967.58132 804.77971,968.81193 804.77971,970.32433 V 976.66334 H 805.84351 C 805.84351,975.73694 806.59631,974.98274 807.52271,974.98274 808.44912,974.98274 809.20191,975.73694 809.20191,976.66334 H 810.26581 V 970.32433 C 810.26581,968.81193 809.03522,967.58132 807.52281,967.58132 Z M 809.18522,970.32433 C 809.18522,971.24113 808.43941,971.98693 807.52271,971.98693 806.60601,971.98693 805.86021,971.24113 805.86021,970.32443 805.86021,969.40773 806.60601,968.66193 807.52271,968.66193 808.43941,968.66193 809.18522,969.40773 809.18522,970.32443 Z M 817.52133,967.58132 C 816.00883,967.58132 814.77832,968.81193 814.77832,970.32433 V 976.66334 H 815.84223 C 815.84223,975.73694 816.59493,974.98274 817.52133,974.98274 818.44773,974.98274 819.20053,975.73694 819.20053,976.66334 H 820.26443 V 970.32433 C 820.26443,968.81193 819.03384,967.58132 817.52143,967.58132 Z M 819.18384,970.32433 C 819.18384,971.24113 818.43803,971.98693 817.52133,971.98693 816.60473,971.98693 815.85883,971.24113 815.85883,970.32443 815.85883,969.40773 816.60473,968.66193 817.52133,968.66193 818.43803,968.66193 819.18384,969.40773 819.18384,970.32443 Z M 640.26679,900.32399 V 893.98498 H 639.20289 C 639.20289,894.91138 638.45009,895.66558 637.52379,895.66558 636.59738,895.66558 635.84458,894.91138 635.84458,893.98498 H 634.78068 V 900.32399 C 634.78068,901.83649 636.01128,903.067 637.52369,903.067 639.03629,903.067 640.26679,901.83649 640.26679,900.32399 Z M 637.52379,901.98649 C 636.60708,901.98649 635.86128,901.24059 635.86128,900.32399 635.86128,899.40729 636.60708,898.66149 637.52379,898.66149 638.44039,898.66149 639.18629,899.40729 639.18629,900.32399 639.18629,901.24059 638.44039,901.98649 637.52379,901.98649 Z M 650.26821,903.067 V 893.98498 H 649.20431 C 649.20431,894.91138 648.45151,895.66558 647.5251,895.66558 646.5988,895.66558 645.846,894.91138 645.846,893.98508 H 644.782 V 903.0671 Z M 647.5252,901.98649 C 646.6085,901.98649 645.8626,901.24059 645.8626,900.32399 645.8626,899.40729 646.6085,898.66149 647.5251,898.66149 648.44181,898.66149 649.18761,899.40729 649.18761,900.32399 649.18761,901.24059 648.44181,901.98649 647.5251,901.98649 Z M 660.26683,900.32399 V 893.98498 H 659.20293 C 659.20293,894.91138 658.45013,895.66558 657.52382,895.66558 656.59742,895.66558 655.84462,894.91138 655.84462,893.98498 H 654.78072 V 900.32399 C 654.78072,901.83649 656.01132,903.067 657.52372,903.067 659.03632,903.067 660.26683,901.83649 660.26683,900.32399 Z M 657.52382,901.98649 C 656.60712,901.98649 655.86132,901.24059 655.86132,900.32399 655.86132,899.40729 656.60712,898.66149 657.52382,898.66149 658.44043,898.66149 659.18632,899.40729 659.18632,900.32399 659.18632,901.24059 658.44043,901.98649 657.52382,901.98649 Z M 670.26545,900.32399 V 893.98498 H 669.20155 C 669.20155,894.91138 668.44885,895.66558 667.52245,895.66558 666.59605,895.66558 665.84324,894.91138 665.84324,893.98498 H 664.77934 V 900.32399 C 664.77934,901.83649 666.00994,903.067 667.52235,903.067 669.03495,903.067 670.26545,901.83649 670.26545,900.32399 Z M 667.52245,901.98649 C 666.60575,901.98649 665.85994,901.24059 665.85994,900.32399 665.85994,899.40729 666.60575,898.66149 667.52245,898.66149 668.43905,898.66149 669.18495,899.40729 669.18495,900.32399 669.18495,901.24059 668.43905,901.98649 667.52245,901.98649 Z M 680.26547,900.32399 V 893.98498 H 679.20157 C 679.20157,894.91138 678.44887,895.66558 677.52247,895.66558 676.59606,895.66558 675.84326,894.91138 675.84326,893.98498 H 674.77936 V 900.32399 C 674.77936,901.83649 676.00996,903.067 677.52237,903.067 679.03497,903.067 680.26547,901.83649 680.26547,900.32399 Z M 677.52247,901.98649 C 676.60576,901.98649 675.85996,901.24059 675.85996,900.32399 675.85996,899.40729 676.60576,898.66149 677.52247,898.66149 678.43907,898.66149 679.18497,899.40729 679.18497,900.32399 679.18497,901.24059 678.43907,901.98649 677.52247,901.98649 Z M 690.26549,900.32399 V 893.98498 H 689.20159 C 689.20159,894.91138 688.44889,895.66558 687.52249,895.66558 686.59608,895.66558 685.84328,894.91138 685.84328,893.98498 H 684.77938 V 900.32399 C 684.77938,901.83649 686.00998,903.067 687.52239,903.067 689.03499,903.067 690.26549,901.83649 690.26549,900.32399 Z M 687.52249,901.98649 C 686.60578,901.98649 685.85998,901.24059 685.85998,900.32399 685.85998,899.40729 686.60578,898.66149 687.52249,898.66149 688.43909,898.66149 689.18499,899.40729 689.18499,900.32399 689.18499,901.24059 688.43909,901.98649 687.52249,901.98649 Z M 700.26551,903.067 V 893.98498 H 699.20161 C 699.20161,894.91138 698.44891,895.66558 697.5225,895.66558 696.5961,895.66558 695.8433,894.91138 695.8433,893.98508 H 694.7794 V 903.0671 Z M 697.5225,901.98649 C 696.6058,901.98649 695.86,901.24059 695.86,900.32399 695.86,899.40729 696.6058,898.66149 697.5225,898.66149 698.43911,898.66149 699.18501,899.40729 699.18501,900.32399 699.18501,901.24059 698.43911,901.98649 697.5225,901.98649 Z M 710.26553,900.32399 V 893.98498 H 709.20173 C 709.20173,894.91138 708.44893,895.66558 707.52252,895.66558 706.59612,895.66558 705.84332,894.91138 705.84332,893.98498 H 704.77942 V 900.32399 C 704.77942,901.83649 706.01002,903.067 707.52242,903.067 709.03503,903.067 710.26553,901.83649 710.26553,900.32399 Z M 707.52252,901.98649 C 706.60582,901.98649 705.86002,901.24059 705.86002,900.32399 705.86002,899.40729 706.60582,898.66149 707.52252,898.66149 708.43923,898.66149 709.18503,899.40729 709.18503,900.32399 709.18503,901.24059 708.43923,901.98649 707.52252,901.98649 Z M 720.26555,900.32399 V 893.98498 H 719.20175 C 719.20175,894.91138 718.44894,895.66558 717.52254,895.66558 716.59614,895.66558 715.84334,894.91138 715.84334,893.98498 H 714.77944 V 900.32399 C 714.77944,901.83649 716.01004,903.067 717.52244,903.067 719.03505,903.067 720.26555,901.83649 720.26555,900.32399 Z M 717.52254,901.98649 C 716.60584,901.98649 715.86004,901.24059 715.86004,900.32399 715.86004,899.40729 716.60584,898.66149 717.52254,898.66149 718.43924,898.66149 719.18505,899.40729 719.18505,900.32399 719.18505,901.24059 718.43924,901.98649 717.52254,901.98649 Z M 730.26557,900.32399 V 893.98498 H 729.20166 C 729.20166,894.91138 728.44896,895.66558 727.52256,895.66558 726.59616,895.66558 725.84336,894.91138 725.84336,893.98498 H 724.77946 V 900.32399 C 724.77946,901.83649 726.01006,903.067 727.52246,903.067 729.03506,903.067 730.26557,901.83649 730.26557,900.32399 Z M 727.52256,901.98649 C 726.60586,901.98649 725.86006,901.24059 725.86006,900.32399 725.86006,899.40729 726.60586,898.66149 727.52256,898.66149 728.43926,898.66149 729.18506,899.40729 729.18506,900.32399 729.18506,901.24059 728.43926,901.98649 727.52256,901.98649 Z M 740.26559,900.32399 V 893.98498 H 739.20178 C 739.20178,894.91138 738.44898,895.66558 737.52258,895.66558 736.59618,895.66558 735.84338,894.91138 735.84338,893.98498 H 734.77948 V 900.32399 C 734.77948,901.83649 736.01008,903.067 737.52258,903.067 739.03508,903.067 740.26559,901.83649 740.26559,900.32399 Z M 737.52258,901.98649 C 736.60588,901.98649 735.86008,901.24059 735.86008,900.32399 735.86008,899.40729 736.60588,898.66149 737.52258,898.66149 738.43928,898.66149 739.18508,899.40729 739.18508,900.32399 739.18508,901.24059 738.43928,901.98649 737.52258,901.98649 Z M 750.2656,903.067 V 893.98498 H 749.2018 C 749.2018,894.91138 748.449,895.66558 747.5226,895.66558 746.5962,895.66558 745.8434,894.91138 745.8434,893.98508 H 744.77949 V 903.0671 Z M 747.5226,901.98649 C 746.6059,901.98649 745.8601,901.24059 745.8601,900.32399 745.8601,899.40729 746.6059,898.66149 747.5226,898.66149 748.4393,898.66149 749.1851,899.40729 749.1851,900.32399 749.1851,901.24059 748.4393,901.98649 747.5226,901.98649 Z M 760.26562,900.32399 V 893.98498 H 759.20182 C 759.20182,894.91138 758.44902,895.66558 757.52262,895.66558 756.59622,895.66558 755.84342,894.91138 755.84342,893.98498 H 754.77951 V 900.32399 C 754.77951,901.83649 756.01012,903.067 757.52262,903.067 759.03512,903.067 760.26562,901.83649 760.26562,900.32399 Z M 757.52262,901.98649 C 756.60592,901.98649 755.86012,901.24059 755.86012,900.32399 755.86012,899.40729 756.60592,898.66149 757.52262,898.66149 758.43932,898.66149 759.18512,899.40729 759.18512,900.32399 759.18512,901.24059 758.43932,901.98649 757.52262,901.98649 Z M 770.26573,900.32399 V 893.98498 H 769.20174 C 769.20174,894.91138 768.44904,895.66558 767.52264,895.66558 766.59624,895.66558 765.84343,894.91138 765.84343,893.98498 H 764.77963 V 900.32399 C 764.77963,901.83649 766.01013,903.067 767.52264,903.067 769.03514,903.067 770.26564,901.83649 770.26564,900.32399 Z M 767.52264,901.98649 C 766.60594,901.98649 765.86013,901.24059 765.86013,900.32399 765.86013,899.40729 766.60594,898.66149 767.52264,898.66149 768.43933,898.66149 769.18514,899.40729 769.18514,900.32399 769.18514,901.24059 768.43933,901.98649 767.52264,901.98649 Z M 780.26575,900.32399 V 893.98498 H 779.20176 C 779.20176,894.91138 778.44906,895.66558 777.52276,895.66558 776.59625,895.66558 775.84345,894.91138 775.84345,893.98498 H 774.77965 V 900.32399 C 774.77965,901.83649 776.01015,903.067 777.52266,903.067 779.03516,903.067 780.26566,901.83649 780.26566,900.32399 Z M 777.52276,901.98649 C 776.60595,901.98649 775.86015,901.24059 775.86015,900.32399 775.86015,899.40729 776.60595,898.66149 777.52266,898.66149 778.43935,898.66149 779.18516,899.40729 779.18516,900.32399 779.18516,901.24059 778.43935,901.98649 777.52266,901.98649 Z M 790.26577,900.32399 V 893.98498 H 789.20178 C 789.20178,894.91138 788.44908,895.66558 787.52278,895.66558 786.59627,895.66558 785.84347,894.91138 785.84347,893.98498 H 784.77967 V 900.32399 C 784.77967,901.83649 786.01017,903.067 787.52268,903.067 789.03518,903.067 790.26568,901.83649 790.26568,900.32399 Z M 787.52278,901.98649 C 786.60597,901.98649 785.86017,901.24059 785.86017,900.32399 785.86017,899.40729 786.60597,898.66149 787.52268,898.66149 788.43937,898.66149 789.18518,899.40729 789.18518,900.32399 789.18518,901.24059 788.43937,901.98649 787.52268,901.98649 Z M 800.26579,903.067 V 893.98498 H 799.2018 C 799.2018,894.91138 798.4491,895.66558 797.52279,895.66558 796.59629,895.66558 795.84349,894.91138 795.84349,893.98508 H 794.77969 V 903.0671 Z M 797.52279,901.98649 C 796.60599,901.98649 795.86019,901.24059 795.86019,900.32399 795.86019,899.40729 796.60599,898.66149 797.52269,898.66149 798.43939,898.66149 799.1852,899.40729 799.1852,900.32399 799.1852,901.24059 798.43939,901.98649 797.52269,901.98649 Z M 810.26581,900.32399 V 893.98498 H 809.20182 C 809.20182,894.91138 808.44912,895.66558 807.52281,895.66558 806.59631,895.66558 805.84351,894.91138 805.84351,893.98498 H 804.77971 V 900.32399 C 804.77971,901.83649 806.01021,903.067 807.52271,903.067 809.03522,903.067 810.26572,901.83649 810.26572,900.32399 Z M 807.52281,901.98649 C 806.60601,901.98649 805.86021,901.24059 805.86021,900.32399 805.86021,899.40729 806.60601,898.66149 807.52271,898.66149 808.43941,898.66149 809.18522,899.40729 809.18522,900.32399 809.18522,901.24059 808.43941,901.98649 807.52271,901.98649 Z M 820.26443,900.32399 V 893.98498 H 819.20044 C 819.20044,894.91138 818.44773,895.66558 817.52143,895.66558 816.59493,895.66558 815.84223,894.91138 815.84223,893.98498 H 814.77823 V 900.32399 C 814.77823,901.83649 816.00883,903.067 817.52133,903.067 819.03384,903.067 820.26434,901.83649 820.26434,900.32399 Z M 817.52143,901.98649 C 816.60473,901.98649 815.85883,901.24059 815.85883,900.32399 815.85883,899.40729 816.60473,898.66149 817.52133,898.66149 818.43803,898.66149 819.18384,899.40729 819.18384,900.32399 819.18384,901.24059 818.43803,901.98649 817.52133,901.98649 Z M 630.26537,900.32399 V 893.98498 H 629.20147 C 629.20147,894.91138 628.44867,895.66558 627.52237,895.66558 626.59596,895.66558 625.84316,894.91138 625.84316,893.98498 H 624.77926 V 900.32399 C 624.77926,901.83649 626.00986,903.067 627.52227,903.067 629.03487,903.067 630.26537,901.83649 630.26537,900.32399 Z M 627.52237,901.98649 C 626.60566,901.98649 625.85986,901.24059 625.85986,900.32399 625.85986,899.40729 626.60566,898.66149 627.52237,898.66149 628.43897,898.66149 629.18487,899.40729 629.18487,900.32399 629.18487,901.24059 628.43897,901.98649 627.52237,901.98649 Z M 627.52237,967.58132 C 626.00986,967.58132 624.77926,968.81193 624.77926,970.32433 V 976.66334 H 625.84316 C 625.84316,975.73694 626.59596,974.98274 627.52237,974.98274 628.44867,974.98274 629.20287,975.73694 629.20287,976.66334 H 630.26677 V 970.32433 C 630.26537,968.81193 629.03477,967.58132 627.52237,967.58132 Z M 629.18477,970.32433 C 629.18477,971.24113 628.43887,971.98693 627.52227,971.98693 626.60556,971.98693 625.85976,971.24113 625.85976,970.32443 625.85976,969.40773 626.60556,968.66193 627.52227,968.66193 628.43887,968.66193 629.18477,969.40773 629.18477,970.32443 Z"
         fill="#958863"
         id="path79"
         style="stroke-width:1" />
      <circle
         cy="627.52307"
         cx="-970.31952"
         r="1.600003"
         fill="none"
         id="circle79"
         transform="rotate(-90)"
         style="stroke-width:1" />
      <circle
         r="1.600003"
         cx="-970.31952"
         cy="637.5293"
         fill="none"
         id="circle80"
         transform="rotate(-90)"
         style="stroke-width:1" />
      <circle
         cy="647.5293"
         cx="-970.31952"
         r="1.600003"
         fill="none"
         id="circle81"
         transform="rotate(-90)"
         style="stroke-width:1" />
      <circle
         r="1.600003"
         cx="-970.31952"
         cy="657.5293"
         fill="none"
         id="circle82"
         transform="rotate(-90)"
         style="stroke-width:1" />
      <circle
         cy="667.52936"
         cx="-970.31952"
         r="1.600003"
         fill="none"
         id="circle83"
         transform="rotate(-90)"
         style="stroke-width:1" />
      <circle
         r="1.600003"
         cx="-970.31952"
         cy="677.52936"
         fill="none"
         id="circle84"
         transform="rotate(-90)"
         style="stroke-width:1" />
      <circle
         cy="687.52936"
         cx="-970.31952"
         r="1.600003"
         fill="none"
         id="circle85"
         transform="rotate(-90)"
         style="stroke-width:1" />
      <circle
         r="1.600003"
         cx="-970.31952"
         cy="697.52942"
         fill="none"
         id="circle86"
         transform="rotate(-90)"
         style="stroke-width:1" />
      <circle
         cy="707.52942"
         cx="-970.36334"
         r="1.600003"
         fill="none"
         id="circle87"
         transform="rotate(-90)"
         style="stroke-width:1" />
      <circle
         r="1.600003"
         cx="-970.36334"
         cy="717.52942"
         fill="none"
         id="circle88"
         transform="rotate(-90)"
         style="stroke-width:1" />
      <circle
         cy="727.52948"
         cx="-970.36334"
         r="1.600003"
         fill="none"
         id="circle89"
         transform="rotate(-90)"
         style="stroke-width:1" />
      <circle
         r="1.600003"
         cx="-970.36334"
         cy="737.52948"
         fill="none"
         id="circle90"
         transform="rotate(-90)"
         style="stroke-width:1" />
      <circle
         cy="747.52948"
         cx="-970.36334"
         r="1.600003"
         fill="none"
         id="circle91"
         transform="rotate(-90)"
         style="stroke-width:1" />
      <circle
         r="1.600003"
         cx="-970.36334"
         cy="757.5296"
         fill="none"
         id="circle92"
         transform="rotate(-90)"
         style="stroke-width:1" />
      <circle
         cy="767.5296"
         cx="-970.36334"
         r="1.600003"
         fill="none"
         id="circle93"
         transform="rotate(-90)"
         style="stroke-width:1" />
      <circle
         r="1.600003"
         cx="-970.36334"
         cy="777.52966"
         fill="none"
         id="circle94"
         transform="rotate(-90)"
         style="stroke-width:1" />
      <circle
         cy="787.52966"
         cx="-970.36334"
         r="1.600003"
         fill="none"
         id="circle95"
         transform="rotate(-90)"
         style="stroke-width:1" />
      <circle
         r="1.600003"
         cx="-970.36334"
         cy="797.52966"
         fill="none"
         id="circle96"
         transform="rotate(-90)"
         style="stroke-width:1" />
      <circle
         cy="807.52972"
         cx="-970.36334"
         r="1.600003"
         fill="none"
         id="circle97"
         transform="rotate(-90)"
         style="stroke-width:1" />
      <circle
         r="1.600003"
         cx="-970.36334"
         cy="817.52972"
         fill="none"
         id="circle98"
         transform="rotate(-90)"
         style="stroke-width:1" />
      <circle
         cy="817.52972"
         cx="-900.36316"
         r="1.600003"
         fill="none"
         id="circle99"
         transform="rotate(-90)"
         style="stroke-width:1" />
      <circle
         r="1.600003"
         cx="-900.36316"
         cy="807.52972"
         fill="none"
         id="circle100"
         transform="rotate(-90)"
         style="stroke-width:1" />
      <circle
         cy="797.52966"
         cx="-900.36316"
         r="1.600003"
         fill="none"
         id="circle101"
         transform="rotate(-90)"
         style="stroke-width:1" />
      <circle
         r="1.600003"
         cx="-900.36316"
         cy="787.52966"
         fill="none"
         id="circle102"
         transform="rotate(-90)"
         style="stroke-width:1" />
      <circle
         cy="777.52966"
         cx="-900.36316"
         r="1.600003"
         fill="none"
         id="circle103"
         transform="rotate(-90)"
         style="stroke-width:1" />
      <circle
         r="1.600003"
         cx="-900.36316"
         cy="767.5296"
         fill="none"
         id="circle104"
         transform="rotate(-90)"
         style="stroke-width:1" />
      <circle
         cy="757.5296"
         cx="-900.36316"
         r="1.600003"
         fill="none"
         id="circle105"
         transform="rotate(-90)"
         style="stroke-width:1" />
      <circle
         r="1.600003"
         cx="-900.36316"
         cy="747.52948"
         fill="none"
         id="circle106"
         transform="rotate(-90)"
         style="stroke-width:1" />
      <circle
         cy="737.52948"
         cx="-900.36316"
         r="1.600003"
         fill="none"
         id="circle107"
         transform="rotate(-90)"
         style="stroke-width:1" />
      <circle
         r="1.600003"
         cx="-900.36316"
         cy="727.52948"
         fill="none"
         id="circle108"
         transform="rotate(-90)"
         style="stroke-width:1" />
      <circle
         cy="717.52942"
         cx="-900.36316"
         r="1.600003"
         fill="none"
         id="circle109"
         transform="rotate(-90)"
         style="stroke-width:1" />
      <circle
         r="1.600003"
         cx="-900.36316"
         cy="707.52942"
         fill="none"
         id="circle110"
         transform="rotate(-90)"
         style="stroke-width:1" />
      <circle
         cy="697.52942"
         cx="-900.36316"
         r="1.600003"
         fill="none"
         id="circle111"
         transform="rotate(-90)"
         style="stroke-width:1" />
      <circle
         r="1.600003"
         cx="-900.36316"
         cy="687.52936"
         fill="none"
         id="circle112"
         transform="rotate(-90)"
         style="stroke-width:1" />
      <circle
         cy="677.52936"
         cx="-900.36316"
         r="1.600003"
         fill="none"
         id="circle113"
         transform="rotate(-90)"
         style="stroke-width:1" />
      <circle
         r="1.600003"
         cx="-900.36316"
         cy="667.52936"
         fill="none"
         id="circle114"
         transform="rotate(-90)"
         style="stroke-width:1" />
      <circle
         cy="657.5293"
         cx="-900.36316"
         r="1.600003"
         fill="none"
         id="circle115"
         transform="rotate(-90)"
         style="stroke-width:1" />
      <circle
         r="1.600003"
         cx="-900.36316"
         cy="647.5293"
         fill="none"
         id="circle116"
         transform="rotate(-90)"
         style="stroke-width:1" />
      <circle
         cy="637.5293"
         cx="-900.36316"
         r="1.600003"
         fill="none"
         id="circle117"
         transform="rotate(-90)"
         style="stroke-width:1" />
      <circle
         r="1.600003"
         cx="-900.36316"
         cy="627.5293"
         fill="none"
         id="circle118"
         transform="rotate(-90)"
         style="stroke-width:1" />
      <circle
         r="1.600003"
         cx="-945.36328"
         cy="817.52972"
         fill="none"
         id="circle119"
         transform="rotate(-90)"
         style="stroke-width:1" />
      <circle
         cy="817.52972"
         cx="-935.36328"
         r="1.600003"
         fill="none"
         id="circle120"
         transform="rotate(-90)"
         style="stroke-width:1" />
      <circle
         r="1.600003"
         cx="-925.36322"
         cy="817.52972"
         fill="none"
         id="circle121"
         transform="rotate(-90)"
         style="stroke-width:1" />
      <g
         id="g584"
         transform="matrix(1.3333307,0,0,1.3333307,614.26876,893.9816)">
        <g
           gorn="0.3.0.0.53.0.0"
           id="circle119-9"
           style="stroke-width:0.959998"
           transform="matrix(0,-1.0416688,1.0416688,0,3.61684e-4,62.008361)">
          <path
             class="st4"
             d="M 13.620951,148.94571 C 11.128763,148.94571 9.1014195,146.91837 9.1014195,144.42715 9.1014195,141.93594 11.128763,139.9086 13.620951,139.9086 16.112162,139.9086 18.139505,141.93594 18.139505,144.42715 18.139505,146.91837 16.112162,148.94571 13.620951,148.94571 Z M 13.620951,141.9086 C 12.231302,141.9086 11.10142,143.03848 11.10142,144.42715 11.10142,145.81583 12.231302,146.94571 13.620951,146.94571 15.009623,146.94571 16.139505,145.81583 16.139505,144.42715 16.139505,143.03848 15.009623,141.9086 13.620951,141.9086 Z"
             gorn="0.3.0.0.53.0.0.0"
             id="path87"
             style="fill:#f9ea32;stroke-width:0.959998" />
        </g>
        <g
           gorn="0.3.0.0.54.0.0"
           id="circle125"
           style="stroke-width:0.959998"
           transform="matrix(0,-1.0416688,1.0416688,0,3.61684e-4,62.008361)">
          <path
             class="st4"
             d="M 45.906105,148.94571 C 43.413917,148.94571 41.386574,146.91837 41.386574,144.42715 41.386574,141.93594 43.413918,139.9086 45.906105,139.9086 48.397316,139.9086 50.42466,141.93594 50.42466,144.42715 50.42466,146.91837 48.397316,148.94571 45.906105,148.94571 Z M 45.906105,141.9086 C 44.516457,141.9086 43.386574,143.03848 43.386574,144.42715 43.386574,145.81583 44.516457,146.94571 45.906105,146.94571 47.294777,146.94571 48.42466,145.81583 48.42466,144.42715 48.42466,143.03848 47.294777,141.9086 45.906105,141.9086 Z"
             gorn="0.3.0.0.54.0.0.0"
             id="path89"
             style="fill:#f9ea32;stroke-width:0.959998" />
        </g>
        <g
           gorn="0.3.0.0.55.0.0"
           id="circle131"
           style="stroke-width:0.959998"
           transform="matrix(0,-1.0416688,1.0416688,0,3.61684e-4,62.008361)">
          <path
             class="st4"
             d="M 13.620951,15.996007 C 11.128763,15.996007 9.1014195,13.968663 9.1014195,11.476964 9.1014195,8.9852648 11.128763,6.9584093 13.620951,6.9584093 16.112162,6.9584093 18.139505,8.9852648 18.139505,11.476964 18.139505,13.968663 16.112162,15.996007 13.620951,15.996007 Z M 13.620951,8.9584093 C 12.231302,8.9584093 11.10142,10.088292 11.10142,11.476964 11.10142,12.866124 12.231302,13.996007 13.620951,13.996007 15.009623,13.996007 16.139505,12.866124 16.139505,11.476964 16.139505,10.088292 15.009623,8.9584093 13.620951,8.9584093 Z"
             gorn="0.3.0.0.55.0.0.0"
             id="path91"
             style="fill:#f9ea32;stroke-width:0.959998" />
        </g>
        <g
           gorn="0.3.0.0.56.0.0"
           id="circle137"
           style="stroke-width:0.959998"
           transform="matrix(0,-1.0416688,1.0416688,0,3.61684e-4,62.008361)">
          <path
             class="st4"
             d="M 45.906105,15.996007 C 43.413917,15.996007 41.386574,13.968663 41.386574,11.476964 41.386574,8.9852648 43.413918,6.9584093 45.906105,6.9584093 48.397316,6.9584093 50.42466,8.9852648 50.42466,11.476964 50.42466,13.968663 48.397316,15.996007 45.906105,15.996007 Z M 45.906105,8.9584093 C 44.516457,8.9584093 43.386574,10.088292 43.386574,11.476964 43.386574,12.866124 44.516457,13.996007 45.906105,13.996007 47.294777,13.996007 48.42466,12.866124 48.42466,11.476964 48.42466,10.088292 47.294777,8.9584093 45.906105,8.9584093 Z"
             gorn="0.3.0.0.56.0.0.0"
             id="path93"
             style="fill:#f9ea32;stroke-width:0.959998" />
        </g>
      </g>
    </g>
  </g>
</svg>
