<svg xmlns="http://www.w3.org/2000/svg" xmlns:xlink="http://www.w3.org/1999/xlink" viewBox="0 0 80 50"><g transform="matrix(3.7795,0,0,3.7795,-499.9538,-217.0057)"><rect style="fill:none;stroke:#000000;stroke-width:0.105833;stroke-linecap:round;stroke-dasharray:none" id="rect492-8" width="1.8520833" height="1.8520833" x="132.58194" y="-66.276314" transform="scale(1,-1)"></rect><path style="fill:none;stroke:#000000;stroke-width:0.105833;stroke-linecap:square;stroke-dasharray:none" d="M 132.56065,65.345438 H 132.27126 V 67.999538" id="path561-9"></path><path style="fill:none;stroke:#000000;stroke-width:0.105833;stroke-linecap:square;stroke-dasharray:none" d="M 134.62087,65.350278 H 134.91026 V 68.004378" id="path562-2"></path><circle style="fill:#ffffff;stroke:#000000;stroke-width:0.105833;stroke-linecap:square;stroke-dasharray:none" id="circle502-7" cx="134.64415" cy="65.337158" r="0.145521"></circle><g id="g564-9" transform="matrix(0.78920297,0,0,0.78920297,47.948097,-28.509789)" style="stroke-width:1.2671"><path style="fill:none;stroke:#000000;stroke-width:0.134101;stroke-linecap:butt;stroke-dasharray:none" d="M 107.95,119.59165 108.47916,118.26874 H 109.22" id="path563-5"></path><path style="fill:none;stroke:#000000;stroke-width:0.134101;stroke-linecap:butt;stroke-dasharray:none" d="M 108.87604,118.26874 108.34688,119.59165 H 107.60604" id="path564-4"></path></g><rect style="fill:none;stroke:#000000;stroke-width:0.105833;stroke-linecap:round;stroke-dasharray:none" id="rect565-3" width="1.8520833" height="1.8520833" x="137.87367" y="-66.276314" transform="scale(1,-1)"></rect><path style="fill:none;stroke:#000000;stroke-width:0.105833;stroke-linecap:square;stroke-dasharray:none" d="M 137.85239,65.345438 H 137.563 V 67.999538" id="path565-1"></path><path style="fill:none;stroke:#000000;stroke-width:0.105833;stroke-linecap:square;stroke-dasharray:none" d="M 139.91261,65.350278 H 140.202 V 68.004378" id="path566-2"></path><circle style="fill:#ffffff;stroke:#000000;stroke-width:0.105833;stroke-linecap:square;stroke-dasharray:none" id="circle566-3" cx="139.93588" cy="65.337158" r="0.145521"></circle><g id="g568-3" transform="matrix(0.78920297,0,0,0.78920297,53.239832,-28.509789)" style="stroke-width:1.2671"><path style="fill:none;stroke:#000000;stroke-width:0.134101;stroke-linecap:butt;stroke-dasharray:none" d="M 107.95,119.59165 108.47916,118.26874 H 109.22" id="path567-4"></path><path style="fill:none;stroke:#000000;stroke-width:0.134101;stroke-linecap:butt;stroke-dasharray:none" d="M 108.87604,118.26874 108.34688,119.59165 H 107.60604" id="path568-1"></path></g><rect style="fill:none;stroke:#000000;stroke-width:0.105833;stroke-linecap:round;stroke-dasharray:none" id="rect569-1" width="1.8520833" height="1.8520833" x="143.16533" y="-66.276314" transform="scale(1,-1)"></rect><path style="fill:none;stroke:#000000;stroke-width:0.105833;stroke-linecap:square;stroke-dasharray:none" d="M 143.14405,65.345438 H 142.85466 V 67.999538" id="path569-3"></path><path style="fill:none;stroke:#000000;stroke-width:0.105833;stroke-linecap:square;stroke-dasharray:none" d="M 145.20427,65.350278 H 145.49366 V 68.004378" id="path570-8"></path><circle style="fill:#ffffff;stroke:#000000;stroke-width:0.105833;stroke-linecap:square;stroke-dasharray:none" id="circle570-7" cx="145.22755" cy="65.337158" r="0.145521"></circle><g id="g572-4" transform="matrix(0.78920297,0,0,0.78920297,58.531498,-28.509789)" style="stroke-width:1.2671"><path style="fill:none;stroke:#000000;stroke-width:0.134101;stroke-linecap:butt;stroke-dasharray:none" d="M 107.95,119.59165 108.47916,118.26874 H 109.22" id="path571-2"></path><path style="fill:none;stroke:#000000;stroke-width:0.134101;stroke-linecap:butt;stroke-dasharray:none" d="M 108.87604,118.26874 108.34688,119.59165 H 107.60604" id="path572-7"></path></g><rect style="fill:none;stroke:#000000;stroke-width:0.105833;stroke-linecap:round;stroke-dasharray:none" id="rect574-7" width="1.8520833" height="1.8520833" x="135.23595" y="61.785141"></rect><path style="fill:none;stroke:#000000;stroke-width:0.105833;stroke-linecap:square;stroke-dasharray:none" d="M 135.21466,62.71602 H 134.92527 V 60.06192" id="path574-9"></path><path style="fill:none;stroke:#000000;stroke-width:0.105833;stroke-linecap:square;stroke-dasharray:none" d="M 137.27488,62.71118 H 137.56427 V 60.05708" id="path575-3"></path><circle style="fill:#ffffff;stroke:#000000;stroke-width:0.105833;stroke-linecap:square;stroke-dasharray:none" id="circle575-1" cx="137.29816" cy="-62.724297" r="0.145521" transform="scale(1,-1)"></circle><g id="g577-9" transform="matrix(-0.78920297,0,0,-0.78920297,221.72186,156.57125)" style="stroke-width:1.2671"><path style="fill:none;stroke:#000000;stroke-width:0.134101;stroke-linecap:butt;stroke-dasharray:none" d="M 107.95,119.59165 108.47916,118.26874 H 109.22" id="path576-8"></path><path style="fill:none;stroke:#000000;stroke-width:0.134101;stroke-linecap:butt;stroke-dasharray:none" d="M 108.87604,118.26874 108.34688,119.59165 H 107.60604" id="path577-6"></path></g><rect style="fill:none;stroke:#000000;stroke-width:0.105833;stroke-linecap:round;stroke-dasharray:none" id="rect578-5" width="1.8520833" height="1.8520833" x="140.52768" y="61.785141"></rect><path style="fill:none;stroke:#000000;stroke-width:0.105833;stroke-linecap:square;stroke-dasharray:none" d="M 140.5064,62.71602 H 140.21701 V 60.06192" id="path578-0"></path><path style="fill:none;stroke:#000000;stroke-width:0.105833;stroke-linecap:square;stroke-dasharray:none" d="M 142.56662,62.71118 H 142.85601 V 60.05708" id="path579-2"></path><circle style="fill:#ffffff;stroke:#000000;stroke-width:0.105833;stroke-linecap:square;stroke-dasharray:none" id="circle579-8" cx="142.58989" cy="-62.724297" r="0.145521" transform="scale(1,-1)"></circle><g id="g581-6" transform="matrix(-0.78920297,0,0,-0.78920297,227.01359,156.57125)" style="stroke-width:1.2671"><path style="fill:none;stroke:#000000;stroke-width:0.134101;stroke-linecap:butt;stroke-dasharray:none" d="M 107.95,119.59165 108.47916,118.26874 H 109.22" id="path580-0"></path><path style="fill:none;stroke:#000000;stroke-width:0.134101;stroke-linecap:butt;stroke-dasharray:none" d="M 108.87604,118.26874 108.34688,119.59165 H 107.60604" id="path581-2"></path></g><rect style="fill:none;stroke:#000000;stroke-width:0.105833;stroke-linecap:round;stroke-dasharray:none" id="rect582-4" width="1.8520833" height="1.8520833" x="145.81934" y="61.785141"></rect><path style="fill:none;stroke:#000000;stroke-width:0.105833;stroke-linecap:square;stroke-dasharray:none" d="M 145.79806,62.71602 H 145.50867 V 60.06192" id="path582-8"></path><path style="fill:none;stroke:#000000;stroke-width:0.105833;stroke-linecap:square;stroke-dasharray:none" d="M 147.85828,62.71118 H 148.14767 V 60.05708" id="path583-6"></path><circle style="fill:#ffffff;stroke:#000000;stroke-width:0.105833;stroke-linecap:square;stroke-dasharray:none" id="circle583-5" cx="147.88156" cy="-62.724297" r="0.145521" transform="scale(1,-1)"></circle><g id="g585-0" transform="matrix(-0.78920297,0,0,-0.78920297,232.30526,156.57125)" style="stroke-width:1.2671"><path style="fill:none;stroke:#000000;stroke-width:0.134101;stroke-linecap:butt;stroke-dasharray:none" d="M 107.95,119.59165 108.47916,118.26874 H 109.22" id="path584-9"></path><path style="fill:none;stroke:#000000;stroke-width:0.134101;stroke-linecap:butt;stroke-dasharray:none" d="M 108.87604,118.26874 108.34688,119.59165 H 107.60604" id="path585-0"></path></g></g></svg>
