<svg xmlns="http://www.w3.org/2000/svg" xmlns:xlink="http://www.w3.org/1999/xlink" viewBox="0 0 40 50"><g transform="matrix(3.7795,0,0,3.7795,-730.2758,-10)"><g id="g155" transform="translate(0.02396391,2.8098015)"><text x="201.10286" y="9.090395" font-size="1.35674px" fill="#aa0000" text-anchor="middle" font-family="sans-serif" id="text108" style="fill:#865e3c;stroke-width:0.264583">e</text><text x="201.04454" y="1.2654865" font-size="1.35674px" fill="#aa0000" text-anchor="middle" font-family="sans-serif" id="text109" style="fill:#009933;stroke-width:0.264583">c</text><text x="195.54051" y="4.0564914" font-size="1.35674px" fill="#aa0000" text-anchor="middle" font-family="sans-serif" id="text110" style="fill:#1a5fb4;stroke-width:0.264583">b</text><path style="fill:none;fill-opacity:0.3;stroke:#000000;stroke-width:0.36152;stroke-linecap:butt;stroke-dasharray:none;stroke-opacity:1" d="M 121.70833,5.2916661 C 121.70833,7.0555547 121.70833,8.8194434 121.70833,10.583332" id="path110" transform="matrix(0.73186177,0,0,-0.73186177,107.81002,9.537149)"></path><path style="fill:none;fill-opacity:0.3;stroke:#000000;stroke-width:0.144608;stroke-linecap:butt;stroke-dasharray:none;stroke-opacity:1" d="M 121.70833,7.9374994 C 122.59027,7.055555 123.47222,6.1736105 124.35416,5.2916661" id="path111" transform="matrix(0.73186177,0,0,-0.73186177,107.81002,9.537149)"></path><path style="fill:none;fill-opacity:0.3;stroke:#000000;stroke-width:0.144608;stroke-linecap:butt;stroke-dasharray:none;stroke-opacity:1" d="M 124.35416,10.583332 C 123.47222,9.7013878 122.59027,8.8194436 121.70833,7.9374994" id="path112" transform="matrix(0.73186177,0,0,-0.73186177,107.81002,9.537149)"></path><g id="g115" transform="matrix(0.51750442,0.51750442,0.51750442,-0.51750442,129.66424,-53.180778)" style="stroke-width:1.36638"><g id="g114" transform="translate(-0.54654392,-0.62137836)" style="stroke-width:1.36638"><path style="fill:none;fill-opacity:0.3;stroke:#000000;stroke-width:0.144608;stroke-linecap:round;stroke-dasharray:none;stroke-opacity:1" d="M 122.50208,10.054166 C 122.85486,10.230555 123.20763,10.406943 123.56041,10.583332" id="path113"></path><path style="fill:none;fill-opacity:0.3;stroke:#000000;stroke-width:0.144608;stroke-linecap:round;stroke-dasharray:none;stroke-opacity:1" d="M 122.50208,11.112499 C 122.85486,10.93611 123.20763,10.759721 123.56041,10.583332" id="path114"></path></g></g><path style="fill:none;fill-opacity:0.3;stroke:#000000;stroke-width:0.36152;stroke-linecap:butt;stroke-dasharray:none;stroke-opacity:1" d="M 121.70833,5.2916661 C 121.70833,7.0555547 121.70833,8.8194434 121.70833,10.583332" id="path116" transform="matrix(0.73186177,0,0,-0.73186177,110.55972,11.512259)"></path><path style="fill:none;fill-opacity:0.3;stroke:#000000;stroke-width:0.144608;stroke-linecap:butt;stroke-dasharray:none;stroke-opacity:1" d="M 121.70833,7.9374994 C 122.59027,7.055555 123.47222,6.1736105 124.35416,5.2916661" id="path117" transform="matrix(0.73186177,0,0,-0.73186177,110.55972,11.512259)"></path><path style="fill:none;fill-opacity:0.3;stroke:#000000;stroke-width:0.144608;stroke-linecap:butt;stroke-dasharray:none;stroke-opacity:1" d="M 124.35417,10.583332 C 123.47222,9.7013878 122.59028,8.8194436 121.70833,7.9374994" id="path118" transform="matrix(0.73186177,0,0,-0.73186177,110.55972,11.512259)"></path><g id="g121" transform="matrix(0.51750442,0.51750442,0.51750442,-0.51750442,132.41394,-51.205667)" style="stroke-width:1.36638"><g id="g120" transform="translate(-0.54654392,-0.62137836)" style="stroke-width:1.36638"><path style="fill:none;fill-opacity:0.3;stroke:#000000;stroke-width:0.144608;stroke-linecap:round;stroke-dasharray:none;stroke-opacity:1" d="M 122.50208,10.054166 C 122.85486,10.230555 123.20763,10.406943 123.56041,10.583332" id="path119"></path><path style="fill:none;fill-opacity:0.3;stroke:#000000;stroke-width:0.144608;stroke-linecap:round;stroke-dasharray:none;stroke-opacity:1" d="M 122.50208,11.112499 C 122.85486,10.93611 123.20763,10.759721 123.56041,10.583332" id="path120"></path></g></g><path style="fill:#865e3c;stroke:#000000;stroke-width:0.144608;stroke-linecap:square;stroke-dasharray:none" d="M 189.70624,9.2604158 C 190.05902,9.2604158 190.4118,9.2604158 190.76458,9.2604158" id="path122" transform="matrix(0.73185983,0,0,0.73185983,59.981733,-1.1129462)"></path><path style="fill:#865e3c;stroke:#000000;stroke-width:0.144608;stroke-linecap:square;stroke-dasharray:none" d="M 189.70624,9.2604158 C 190.05902,9.2604158 190.4118,9.2604158 190.76458,9.2604158" id="path123" transform="matrix(0.73185983,0,0,0.73185983,57.270794,-3.0493302)"></path><path style="fill:none;stroke:#000000;stroke-width:0.105833;stroke-linecap:square;stroke-dasharray:none" d="M 198.82991,1.802959 201.56498,1.7996506 201.5607,3.7576466" id="path124"></path><path style="fill:none;stroke:#000000;stroke-width:0.144608;stroke-linecap:square;stroke-dasharray:none" d="M 193.46333,3.9687497 C 193.46333,3.6159719 193.46333,3.2631942 193.46333,2.9104164" id="path125" transform="matrix(0.73186177,0,0,0.73186177,59.977084,-1.1129642)"></path><circle style="fill:#000000;stroke:#000000;stroke-width:0.105833;stroke-linecap:square;stroke-dasharray:none" id="circle125" cx="201.56499" cy="1.7996505" r="0.11648562"></circle><path style="fill:none;stroke:#000000;stroke-width:0.144608;stroke-linecap:square;stroke-dasharray:none" d="M 193.46333,3.9687497 C 193.46333,3.6159719 193.46333,3.2631942 193.46333,2.9104164" id="path126" transform="matrix(0.73186177,0,0,0.73186177,59.969258,5.5208149)"></path></g></g></svg>
