<svg xmlns="http://www.w3.org/2000/svg" xmlns:xlink="http://www.w3.org/1999/xlink" viewBox="0 0 40 50"><g transform="matrix(3.7795,0,0,3.7795,-430,-10)"><g id="g407" transform="translate(-4.2333315,-0.26458307)"><path style="fill:none;fill-opacity:0.3;stroke:#000000;stroke-width:0.264583;stroke-linecap:butt;stroke-dasharray:none;stroke-opacity:1" d="M 121.70833,5.2916661 C 121.70833,7.0555547 121.70833,8.8194434 121.70833,10.583332" id="path399"></path><path style="fill:none;fill-opacity:0.3;stroke:#000000;stroke-width:0.105833;stroke-linecap:butt;stroke-dasharray:none;stroke-opacity:1" d="M 121.70833,7.9374994 C 122.59027,7.055555 123.47222,6.1736105 124.35416,5.2916661" id="path400"></path><path style="fill:none;fill-opacity:0.3;stroke:#000000;stroke-width:0.105833;stroke-linecap:butt;stroke-dasharray:none;stroke-opacity:1" d="M 124.35416,10.583332 C 123.47222,9.7013878 122.59027,8.8194436 121.70833,7.9374994" id="path401"></path><g id="g405" transform="rotate(45,123.49521,10.535509)"><g id="g406" transform="translate(-0.54654392,-0.62137836)"><path style="fill:none;fill-opacity:0.3;stroke:#000000;stroke-width:0.105833;stroke-linecap:round;stroke-dasharray:none;stroke-opacity:1" d="M 122.50208,10.054166 C 122.85486,10.230555 123.20763,10.406943 123.56041,10.583332" id="path403"></path><path style="fill:none;fill-opacity:0.3;stroke:#000000;stroke-width:0.105833;stroke-linecap:round;stroke-dasharray:none;stroke-opacity:1" d="M 122.50208,11.112499 C 122.85486,10.93611 123.20763,10.759721 123.56041,10.583332" id="path404"></path></g></g></g><path style="fill:none;fill-opacity:0.3;stroke:#006633;stroke-width:0.105833;stroke-linecap:round;stroke-dasharray:none;stroke-opacity:1" d="M 120.12083,5.0270827 H 121.70833 V 13.229165 13.229165" id="path409"></path><path style="fill:none;fill-opacity:0.3;stroke:#865e3c;stroke-width:0.105833;stroke-linecap:round;stroke-dasharray:none;stroke-opacity:1" d="M 120.12083,10.318749 V 11.641665 H 116.41666 V 13.229165 13.229165" id="path410"></path><path style="fill:none;fill-opacity:0.3;stroke:#1a5fb4;stroke-width:0.105833;stroke-linecap:round;stroke-dasharray:none;stroke-opacity:1" d="M 119.0625,13.229165 V 10.847916 H 116.41666 V 7.672916 H 117.475" id="path411"></path></g></svg>
